#VRML V2.0 utf8
# 3D model generated by easyeda2kicad.py (https://github.com/uPesy/easyeda2kicad.py)

Shape{
    appearance Appearance {
        material  Material 	{
            diffuseColor 1.0 1.0 1.0
            specularColor 0.5019607843137255 0.5019607843137255 0.5019607843137255
            ambientIntensity 0.2
            transparency 0
            shininess 0.5
        }
    }
    geometry IndexedFaceSet {
        ccw TRUE
        solid FALSE
        coord DEF co Coordinate {
            point [
                0.7468 -1.0433 0.0, 0.5906 -1.0433 0.0, 0.5906 -0.2418 0.0, 0.7672 -0.0325 0.0, 0.7694 -0.0131 0.0, 0.915 -0.0751 0.0, 0.748 -0.117 0.0, 0.7468 -0.0497 0.0, 0.7473 -0.0558 0.0, 0.7534 -0.0786 0.0, 0.7798 -0.0786 0.0, 0.9449 -0.117 0.0, 0.8222 0.065 0.0, 0.7998 0.0574 0.0, 0.748 0.1591 0.0, 0.7703 -0.0564 0.0, 0.9131 -0.0786 0.0, 0.7812 0.0457 0.0, 0.7641 0.0278 0.0, 0.7535 0.0091 0.0, 0.7696 -0.2178 0.0, 1.1811 -0.2418 0.0, 0.7468 -0.2418 0.0, 0.748 0.1855 0.0, 0.7468 0.5866 0.0, 0.9449 0.1855 0.0, 1.1811 0.5866 0.0, 0.9449 0.0847 0.0, 0.7472 -0.0128 0.0, 0.7468 -0.0173 0.0, 0.748 -0.2178 0.0, 0.7696 -0.1434 0.0, 0.8345 -0.1434 0.0, 0.7747 0.0016 0.0, 0.7838 0.0153 0.0, 0.797 0.0271 0.0, 0.8486 0.0414 0.0, 0.8699 0.0394 0.0, 0.8868 0.0341 0.0, 0.9236 -0.0097 0.0, 0.9257 -0.0281 0.0, 0.9183 0.0046 0.0, 0.9102 0.0167 0.0, 0.9004 0.026 0.0, 0.9228 -0.0542 0.0, 0.8502 0.0678 0.0, 0.9233 0.1591 0.0, 0.8737 0.0658 0.0, 0.8122 0.0353 0.0, 0.8332 0.0405 0.0, 0.8561 -0.1434 0.0, 0.9233 -0.1434 0.0, 0.8561 -0.213 0.0, 0.9233 -0.2226 0.0, 0.8345 -0.213 0.0, 0.9449 -0.2226 0.0, 0.8947 0.0596 0.0, 0.9233 0.0847 0.0, 0.9132 0.049 0.0, 0.9282 0.0346 0.0, 0.9347 -0.0786 0.0, 0.9433 -0.0576 0.0, 0.9472 -0.0298 0.0, 0.9473 -0.0244 0.0, 0.9448 -0.0002 0.0, 0.9383 0.0188 0.0, 0.7456 -0.0323 0.0, 0.5906 0.5866 0.0, 0.9449 -0.4627 0.0, 0.9449 -0.4339 0.0, 0.748 -0.5083 0.0, 0.748 -0.5347 0.0, 0.8897 -0.5628 0.0, 0.8897 -0.4815 0.0, 0.9449 -0.5827 0.0, 1.1811 -1.0433 0.0, 0.7592 -0.3681 0.0, 0.7735 -0.3895 0.0, 0.748 -0.3166 0.0, 0.7511 -0.345 0.0, 0.8908 -0.4097 0.0, 0.9082 -0.3986 0.0, 0.9238 -0.3825 0.0, 0.9358 -0.3622 0.0, 0.9426 -0.3395 0.0, 0.9449 -0.3146 0.0, 0.9449 -0.261 0.0, 0.748 -0.261 0.0, 0.7737 -0.3897 0.0, 0.7892 -0.4036 0.0, 0.8063 -0.4128 0.0, 0.8259 -0.4181 0.0, 0.844 -0.4195 0.0, 0.8703 -0.4167 0.0, 0.9449 -0.6115 0.0, 0.7087 0.3504 1.063, -0.7087 0.3504 1.063, -0.2953 0.1024 1.063, -0.4921 0.1024 1.063, 0.9449 0.8071 1.063, 0.7087 0.8071 1.063, -0.2953 -0.0945 1.063, -0.4921 -0.0945 1.063, -0.9449 -0.8071 1.063, 0.9449 -0.8071 1.063, 0.4921 -0.0945 1.063, 0.2953 -0.0945 1.063, 0.2953 0.1024 1.063, 0.4921 0.1024 1.063, -0.7087 0.8071 1.063, -0.9449 0.8071 1.063, 0.2953 -0.0945 0.0591, 0.1969 -1.0433 0.0591, 0.1969 0.5866 0.0591, 0.5906 -1.0433 0.0591, 0.4921 -0.0945 0.0591, 0.5906 0.5866 0.0591, 0.4921 0.1024 0.0591, 0.2953 0.1024 0.0591, 0.1969 -1.0433 0.0, -0.1969 -1.0433 0.0, 0.1969 0.5866 0.0, -0.1969 0.5866 0.0, -1.0956 -0.7767 0.0, -1.1811 -1.0433 0.0, -1.1206 -0.7441 0.0, -1.1364 -0.7061 0.0, -1.063 -0.8017 0.0, -1.025 -0.8175 0.0, -0.5906 -1.0433 0.0, -0.9843 -0.8228 0.0, -0.9435 -0.8175 0.0, -0.9055 -0.8017 0.0, -0.8729 -0.7767 0.0, -0.8479 -0.7441 0.0, -0.5906 0.5866 0.0, -0.8479 -0.5866 0.0, -0.8729 -0.554 0.0, -0.8321 -0.7061 0.0, -0.8268 -0.6654 0.0, -0.8321 -0.6246 0.0, -1.1811 0.5866 0.0, -1.025 -0.5132 0.0, -1.063 -0.529 0.0, -1.1417 -0.6654 0.0, -1.1364 -0.6246 0.0, -0.9055 -0.529 0.0, -0.9435 -0.5132 0.0, -0.9843 -0.5079 0.0, -1.0956 -0.554 0.0, -1.1206 -0.5866 0.0, -0.4921 -0.0945 0.0591, -0.5906 -1.0433 0.0591, -0.5906 0.5866 0.0591, -0.1969 -1.0433 0.0591, -0.2953 -0.0945 0.0591, -0.1969 0.5866 0.0591, -0.2953 0.1024 0.0591, -0.4921 0.1024 0.0591, 1.1811 0.5866 0.7874, 0.4724 0.5866 0.7874, -1.1811 0.5866 0.7874, -0.4724 0.5866 0.7874, 0.315 0.5866 1.2323, 0.4724 0.5866 2.3228, 0.315 0.5866 1.9291, -0.4724 0.5866 2.3228, -0.315 0.5866 1.9291, -0.315 0.5866 1.2323, -1.063 -0.4921 3.0315, -1.1811 -0.4921 3.0315, -1.063 -0.9252 3.0315, -1.1811 -1.0433 3.0315, -0.7087 -0.9252 3.0315, -0.7087 -1.0433 3.0315, 1.1811 -0.2953 2.7165, 1.1811 -0.2953 2.5197, 0.9449 -0.2953 2.7165, 0.9449 -0.2953 2.5197, 1.1811 -0.2903 2.4759, 0.9449 -0.2903 2.4759, 1.1811 -0.2758 2.4343, 0.9449 -0.2758 2.4343, 1.1811 -0.2523 2.397, 0.9449 -0.2523 2.397, 1.1811 -0.2212 2.3658, 0.9449 -0.2212 2.3658, 1.1811 -0.1838 2.3423, 0.9449 -0.1838 2.3423, 1.1811 -0.1422 2.3278, 0.9449 -0.1422 2.3278, 1.1811 -0.0984 2.3228, 0.9449 -0.0984 2.3228, 1.063 -0.4921 3.0315, 1.1811 -0.4921 3.0315, 0.9449 -0.4183 2.9134, -0.9843 1.0433 2.3228, -0.4724 1.0433 2.3228, -0.9843 1.0433 0.7874, -0.4724 1.0433 0.7874, 0.9843 1.0433 0.7874, 0.4724 1.0433 0.7874, 0.9843 1.0433 2.3228, 0.4724 1.0433 2.3228, 0.9449 0.8071 2.3228, 1.1811 0.8465 2.3228, 1.1744 0.8974 2.3228, -1.1811 -0.0984 2.3228, -0.9449 -0.0984 2.3228, -1.1811 0.8465 2.3228, -0.9449 0.8071 2.3228, -1.1744 0.8974 2.3228, -1.1547 0.9449 2.3228, 1.0827 1.0169 2.3228, 1.0352 1.0366 2.3228, 0.7087 0.8071 2.3228, 0.7087 0.3504 2.3228, -0.7087 0.3504 2.3228, -0.7087 0.8071 2.3228, -1.0352 1.0366 2.3228, 1.1547 0.9449 2.3228, 1.1234 0.9857 2.3228, -1.0827 1.0169 2.3228, -1.1234 0.9857 2.3228, -1.1811 0.8465 0.7874, -1.1744 0.8974 0.7874, -1.1547 0.9449 0.7874, -1.1234 0.9857 0.7874, -1.0827 1.0169 0.7874, -1.0352 1.0366 0.7874, 1.1811 0.8465 0.7874, 1.1234 0.9857 0.7874, 1.0827 1.0169 0.7874, 1.0352 1.0366 0.7874, 1.1547 0.9449 0.7874, 1.1744 0.8974 0.7874, -1.1811 -0.1422 2.3278, -1.1811 -0.1838 2.3423, -1.1811 -0.2953 2.7165, -1.1811 -0.2953 2.5197, -1.1811 -0.2903 2.4759, -1.1811 -0.2758 2.4343, -1.1811 -0.2523 2.397, -1.1811 -0.2212 2.3658, 1.1811 -1.0433 3.0315, 0.7087 -0.9252 3.0315, 0.7087 -1.0433 3.0315, 1.063 -0.9252 3.0315, 0.5906 -1.0433 2.9134, 0.5906 -1.0433 2.7953, -0.1181 -1.0433 2.3228, -0.2232 -1.0433 2.3347, 0.5787 -1.0433 2.6901, 0.5438 -1.0433 2.5903, 0.4875 -1.0433 2.5007, 0.4127 -1.0433 2.4259, 0.3231 -1.0433 2.3696, 0.2232 -1.0433 2.3347, 0.1181 -1.0433 2.3228, -0.3231 -1.0433 2.3696, -0.4127 -1.0433 2.4259, -0.4875 -1.0433 2.5007, -0.5438 -1.0433 2.5903, -0.5906 -1.0433 2.9134, -0.5906 -1.0433 2.7953, -0.5787 -1.0433 2.6901, -0.9449 -0.2953 2.5197, -0.9449 -0.2953 2.7165, -0.9449 -0.2903 2.4759, -0.9449 -0.2758 2.4343, -0.9449 -0.2523 2.397, -0.9449 -0.2212 2.3658, -0.9449 -0.1838 2.3423, -0.9449 -0.1422 2.3278, -0.9449 -0.4183 2.9134, 0.9449 -0.8071 2.9134, 0.5906 -0.8071 2.7953, 0.5906 -0.8071 2.9134, -0.5438 -0.8071 2.5903, -0.5787 -0.8071 2.6901, -0.9449 -0.8071 2.9134, -0.5906 -0.8071 2.7953, -0.5906 -0.8071 2.9134, 0.4127 -0.8071 2.4259, 0.3231 -0.8071 2.3696, 0.2232 -0.8071 2.3347, -0.4875 -0.8071 2.5007, -0.4127 -0.8071 2.4259, -0.3231 -0.8071 2.3696, -0.2232 -0.8071 2.3347, -0.1181 -0.8071 2.3228, 0.1181 -0.8071 2.3228, 0.4875 -0.8071 2.5007, 0.5438 -0.8071 2.5903, 0.5787 -0.8071 2.6901, 0.315 0.8465 1.5354, -0.315 0.8465 1.5354, 0.315 0.8465 1.2323, -0.315 0.8465 1.2323, -0.315 0.8465 1.2323
            ]
        }
        coordIndex [
            0,1,2,-1,3,4,5,-1,6,7,8,-1,8,9,6,-1,6,9,10,-1,6,10,11,-1,12,13,14,-1,3,5,15,-1,15,5,16,-1,15,16,10,-1,13,17,14,-1,14,17,18,-1,14,18,19,-1,20,21,22,-1,23,24,25,-1,25,24,26,-1,25,26,27,-1,27,26,21,-1,19,28,14,-1,14,28,29,-1,14,29,23,-1,7,6,22,-1,22,6,30,-1,22,30,20,-1,20,31,32,-1,4,33,5,-1,5,33,34,-1,5,34,35,-1,36,37,5,-1,5,37,38,-1,39,40,41,-1,41,40,42,-1,38,43,5,-1,5,43,42,-1,5,42,44,-1,44,42,40,-1,12,14,45,-1,45,14,46,-1,45,46,47,-1,35,48,5,-1,5,48,49,-1,5,49,36,-1,50,51,52,-1,52,51,53,-1,52,53,54,-1,32,54,20,-1,20,54,53,-1,20,53,21,-1,21,53,55,-1,21,55,11,-1,47,46,56,-1,56,46,57,-1,56,57,58,-1,58,57,27,-1,58,27,59,-1,10,16,11,-1,11,16,60,-1,11,60,21,-1,21,60,61,-1,21,61,62,-1,62,63,21,-1,21,63,64,-1,21,64,27,-1,27,64,65,-1,27,65,59,-1,29,66,2,-1,23,29,24,-1,24,29,2,-1,24,2,67,-1,68,69,21,-1,70,71,22,-1,72,73,74,-1,74,73,68,-1,74,68,75,-1,75,68,21,-1,70,76,77,-1,22,78,70,-1,70,78,79,-1,70,79,76,-1,80,81,69,-1,69,81,82,-1,69,82,21,-1,21,82,83,-1,21,83,84,-1,84,85,21,-1,21,85,86,-1,21,86,22,-1,22,86,87,-1,22,87,78,-1,77,88,70,-1,70,88,89,-1,70,89,90,-1,90,91,70,-1,70,91,92,-1,70,92,69,-1,69,92,93,-1,69,93,80,-1,66,7,2,-1,2,7,22,-1,2,22,0,-1,0,22,71,-1,0,71,75,-1,75,71,94,-1,75,94,74,-1,95,96,97,-1,97,96,98,-1,99,100,95,-1,101,102,103,-1,99,95,104,-1,104,95,105,-1,104,105,106,-1,103,104,101,-1,101,104,106,-1,101,106,97,-1,97,106,107,-1,97,107,95,-1,95,107,108,-1,95,108,105,-1,109,110,96,-1,96,110,103,-1,96,103,98,-1,98,103,102,-1,111,112,113,-1,112,111,114,-1,114,111,115,-1,114,115,116,-1,116,115,117,-1,116,117,113,-1,113,117,118,-1,113,118,111,-1,119,120,121,-1,121,120,122,-1,123,124,125,-1,125,124,126,-1,123,127,124,-1,124,127,128,-1,124,128,129,-1,129,128,130,-1,129,130,131,-1,131,132,129,-1,129,132,133,-1,129,133,134,-1,135,136,137,-1,134,138,129,-1,129,138,139,-1,129,139,135,-1,135,139,140,-1,135,140,136,-1,141,142,143,-1,126,124,144,-1,144,124,141,-1,144,141,145,-1,137,146,135,-1,135,146,147,-1,135,147,141,-1,141,147,148,-1,141,148,142,-1,143,149,141,-1,141,149,150,-1,141,150,145,-1,151,152,153,-1,152,151,154,-1,154,151,155,-1,154,155,156,-1,156,155,157,-1,156,157,153,-1,153,157,158,-1,153,158,151,-1,113,121,122,-1,24,67,116,-1,26,24,159,-1,159,24,116,-1,159,116,160,-1,160,116,113,-1,160,113,156,-1,156,113,122,-1,135,141,153,-1,153,141,161,-1,153,161,156,-1,156,161,162,-1,156,162,160,-1,160,162,163,-1,160,163,164,-1,164,163,165,-1,164,165,166,-1,166,165,167,-1,166,167,162,-1,162,167,168,-1,162,168,163,-1,169,170,171,-1,171,170,172,-1,171,172,173,-1,173,172,174,-1,175,176,177,-1,177,176,178,-1,178,176,179,-1,178,179,180,-1,180,179,181,-1,180,181,182,-1,182,181,183,-1,182,183,184,-1,184,183,185,-1,184,185,186,-1,186,185,187,-1,186,187,188,-1,188,187,189,-1,188,189,190,-1,190,189,191,-1,190,191,192,-1,193,194,195,-1,195,194,175,-1,195,175,177,-1,196,197,198,-1,198,197,199,-1,200,201,202,-1,202,201,203,-1,192,191,204,-1,204,191,205,-1,204,205,206,-1,207,208,209,-1,209,208,210,-1,209,210,211,-1,211,210,212,-1,213,214,204,-1,204,214,202,-1,204,202,215,-1,215,202,203,-1,215,203,216,-1,216,203,164,-1,216,164,217,-1,217,164,166,-1,217,166,218,-1,218,166,197,-1,218,197,210,-1,210,197,196,-1,210,196,219,-1,206,220,204,-1,204,220,221,-1,204,221,213,-1,219,222,210,-1,210,222,223,-1,210,223,212,-1,198,199,162,-1,162,161,224,-1,224,225,162,-1,162,225,226,-1,162,226,227,-1,227,228,162,-1,162,228,229,-1,162,229,198,-1,160,201,159,-1,159,201,200,-1,159,200,230,-1,231,200,232,-1,232,200,233,-1,231,234,200,-1,200,234,235,-1,200,235,230,-1,141,124,161,-1,161,124,172,-1,209,224,207,-1,207,224,161,-1,207,161,236,-1,236,161,237,-1,170,238,172,-1,172,238,239,-1,172,239,240,-1,240,241,172,-1,172,241,242,-1,172,242,161,-1,161,242,243,-1,161,243,237,-1,21,26,159,-1,183,181,244,-1,230,205,159,-1,159,205,191,-1,191,189,159,-1,159,189,187,-1,159,187,185,-1,75,21,244,-1,244,21,159,-1,244,159,183,-1,183,159,185,-1,175,194,176,-1,176,194,244,-1,176,244,179,-1,179,244,181,-1,245,246,247,-1,247,246,244,-1,247,244,193,-1,193,244,194,-1,154,172,152,-1,152,172,124,-1,152,124,129,-1,75,244,0,-1,0,244,114,-1,0,114,1,-1,246,248,244,-1,244,248,249,-1,250,251,112,-1,249,252,244,-1,244,252,253,-1,244,253,114,-1,114,253,254,-1,114,254,255,-1,255,256,114,-1,114,256,257,-1,114,257,112,-1,112,257,258,-1,112,258,250,-1,251,259,112,-1,112,259,260,-1,112,260,261,-1,120,119,154,-1,154,119,112,-1,154,112,172,-1,172,112,261,-1,172,261,262,-1,263,174,264,-1,264,174,172,-1,264,172,265,-1,265,172,262,-1,239,238,266,-1,266,238,267,-1,239,266,268,-1,239,268,240,-1,240,268,269,-1,240,269,241,-1,241,269,270,-1,241,270,242,-1,242,270,271,-1,242,271,243,-1,243,271,272,-1,243,272,237,-1,237,272,273,-1,237,273,236,-1,236,273,208,-1,236,208,207,-1,170,169,238,-1,238,169,274,-1,238,274,267,-1,199,197,162,-1,162,197,166,-1,160,164,201,-1,201,164,203,-1,205,230,235,-1,205,235,206,-1,206,235,234,-1,206,234,220,-1,220,234,231,-1,220,231,221,-1,221,231,232,-1,221,232,213,-1,213,232,233,-1,213,233,214,-1,214,233,200,-1,214,200,202,-1,196,198,229,-1,196,229,219,-1,219,229,228,-1,219,228,222,-1,222,228,227,-1,222,227,223,-1,223,227,226,-1,223,226,212,-1,212,226,225,-1,212,225,211,-1,211,225,224,-1,211,224,209,-1,109,218,110,-1,110,218,210,-1,109,96,218,-1,218,96,217,-1,96,95,217,-1,217,95,216,-1,95,100,216,-1,216,100,215,-1,99,204,100,-1,100,204,215,-1,188,104,186,-1,186,104,184,-1,275,195,177,-1,204,99,192,-1,192,99,104,-1,192,104,190,-1,190,104,188,-1,177,178,275,-1,275,178,180,-1,275,180,104,-1,104,180,182,-1,104,182,184,-1,276,277,275,-1,278,103,279,-1,279,103,280,-1,279,280,281,-1,281,280,282,-1,283,104,284,-1,284,104,285,-1,278,286,103,-1,103,286,287,-1,103,287,288,-1,288,289,103,-1,103,289,290,-1,103,290,104,-1,104,290,291,-1,104,291,285,-1,283,292,104,-1,104,292,293,-1,104,293,275,-1,275,293,294,-1,275,294,276,-1,273,272,103,-1,103,272,271,-1,110,210,103,-1,103,210,208,-1,103,208,273,-1,271,270,103,-1,103,270,269,-1,103,269,280,-1,267,274,266,-1,266,274,280,-1,266,280,268,-1,268,280,269,-1,291,258,257,-1,291,257,285,-1,285,257,256,-1,285,256,284,-1,284,256,255,-1,284,255,283,-1,283,255,254,-1,283,254,292,-1,292,254,253,-1,292,253,293,-1,293,253,252,-1,293,252,294,-1,294,252,249,-1,294,249,276,-1,258,291,250,-1,250,291,290,-1,281,264,265,-1,281,265,279,-1,279,265,262,-1,279,262,278,-1,278,262,261,-1,278,261,286,-1,286,261,260,-1,286,260,287,-1,287,260,259,-1,287,259,288,-1,288,259,251,-1,288,251,289,-1,289,251,250,-1,289,250,290,-1,264,281,263,-1,263,281,282,-1,173,174,282,-1,282,174,263,-1,277,248,245,-1,245,248,246,-1,248,277,249,-1,249,277,276,-1,247,275,245,-1,245,275,277,-1,193,195,247,-1,247,195,275,-1,171,280,169,-1,169,280,274,-1,173,282,171,-1,171,282,280,-1,152,129,153,-1,153,129,135,-1,120,154,122,-1,122,154,156,-1,165,295,167,-1,167,295,296,-1,297,163,298,-1,298,163,168,-1,295,297,296,-1,296,297,298,-1,163,297,165,-1,165,297,295,-1,298,168,296,-1,296,168,167,-1,
        ]
    }
}
Shape{
    appearance Appearance {
        material  Material 	{
            diffuseColor 0.6470588235294118 0.6196078431372549 0.5882352941176471
            specularColor 0.45098039215686275 0.43529411764705883 0.4117647058823529
            ambientIntensity 0.2
            transparency 0
            shininess 0.5
        }
    }
    geometry IndexedFaceSet {
        ccw TRUE
        solid FALSE
        coord DEF co Coordinate {
            point [
                -0.3504 0.0472 -1.1811, -0.3504 -0.0394 -1.1811, -0.437 0.0472 -1.1811, -0.437 -0.0394 -1.1811, -0.4921 -0.0945 -1.0236, -0.4921 -0.0945 0.0591, -0.4921 0.1024 -1.0236, -0.4921 0.1024 0.0591, -0.2953 0.1024 -1.0236, -0.2953 0.1024 0.0591, -0.2953 -0.0945 -1.0236, -0.2953 -0.0945 0.0591, -0.3504 -0.0394 2.126, -0.3504 0.0472 2.126, -0.437 -0.0394 2.126, -0.437 0.0472 2.126, -0.2953 0.1024 1.9685, -0.2953 0.1024 1.063, -0.4921 0.1024 1.9685, -0.4921 0.1024 1.063, -0.4921 -0.0945 1.9685, -0.4921 -0.0945 1.063, -0.2953 -0.0945 1.9685, -0.2953 -0.0945 1.063, -0.2953 -0.0945 1.063
            ]
        }
        coordIndex [
            0,1,2,-1,2,1,3,-1,4,5,6,-1,6,5,7,-1,8,9,10,-1,10,9,11,-1,10,11,4,-1,4,11,5,-1,6,7,8,-1,8,7,9,-1,12,13,14,-1,14,13,15,-1,16,17,18,-1,18,17,19,-1,20,21,22,-1,22,21,23,-1,18,19,20,-1,20,19,21,-1,22,23,16,-1,16,23,17,-1,18,15,16,-1,16,15,13,-1,20,14,18,-1,18,14,15,-1,12,22,13,-1,13,22,16,-1,22,12,20,-1,20,12,14,-1,4,3,10,-1,10,3,1,-1,6,2,4,-1,4,2,3,-1,0,8,1,-1,1,8,10,-1,8,0,6,-1,6,0,2,-1,
        ]
    }
}
Shape{
    appearance Appearance {
        material  Material 	{
            diffuseColor 1.0 1.0 1.0
            specularColor 0.5019607843137255 0.5019607843137255 0.5019607843137255
            ambientIntensity 0.2
            transparency 0
            shininess 0.5
        }
    }
    geometry IndexedFaceSet {
        ccw TRUE
        solid FALSE
        coord DEF co Coordinate {
            point [
                -0.8321 -0.6246 -0.3937, -0.8268 -0.6654 0.0, -0.8268 -0.6654 -0.3937, -0.8321 -0.7061 0.0, -0.8321 -0.7061 -0.3937, -0.8479 -0.7441 0.0, -0.8479 -0.7441 -0.3937, -0.8729 -0.7767 0.0, -0.8729 -0.7767 -0.3937, -0.9055 -0.8017 0.0, -0.9055 -0.8017 -0.3937, -0.9435 -0.8175 0.0, -0.9435 -0.8175 -0.3937, -0.9843 -0.8228 0.0, -0.9843 -0.8228 -0.3937, -1.025 -0.8175 0.0, -1.025 -0.8175 -0.3937, -1.063 -0.8017 0.0, -1.063 -0.8017 -0.3937, -1.0956 -0.7767 0.0, -1.0956 -0.7767 -0.3937, -1.1206 -0.7441 0.0, -1.1206 -0.7441 -0.3937, -1.1364 -0.7061 0.0, -1.1364 -0.7061 -0.3937, -1.1417 -0.6654 0.0, -1.1417 -0.6654 -0.3937, -1.1364 -0.6246 0.0, -1.1364 -0.6246 -0.3937, -1.1206 -0.5866 0.0, -1.1206 -0.5866 -0.3937, -1.0956 -0.554 0.0, -1.0956 -0.554 -0.3937, -1.063 -0.529 0.0, -1.063 -0.529 -0.3937, -1.025 -0.5132 0.0, -1.025 -0.5132 -0.3937, -0.9843 -0.5079 0.0, -0.9843 -0.5079 -0.3937, -0.9435 -0.5132 0.0, -0.9435 -0.5132 -0.3937, -0.9055 -0.529 0.0, -0.9055 -0.529 -0.3937, -0.8729 -0.554 0.0, -0.8729 -0.554 -0.3937, -0.8479 -0.5866 0.0, -0.8479 -0.5866 -0.3937, -0.8321 -0.6246 0.0, -0.9286 -0.721 -0.4724, -0.9449 -0.7335 -0.4724, -1.0399 -0.6097 -0.4724, -0.9639 -0.7414 -0.4724, -0.9843 -0.7441 -0.4724, -1.0603 -0.6857 -0.4724, -1.0524 -0.7047 -0.4724, -1.0399 -0.721 -0.4724, -1.0236 -0.5972 -0.4724, -1.0046 -0.5893 -0.4724, -0.9843 -0.5866 -0.4724, -0.9055 -0.6654 -0.4724, -0.9161 -0.7047 -0.4724, -0.9082 -0.6857 -0.4724, -1.063 -0.6654 -0.4724, -1.0603 -0.645 -0.4724, -1.0524 -0.626 -0.4724, -0.9286 -0.6097 -0.4724, -0.9161 -0.626 -0.4724, -0.9082 -0.645 -0.4724, -1.0046 -0.7414 -0.4724, -1.0236 -0.7335 -0.4724, -0.9639 -0.5893 -0.4724, -0.9449 -0.5972 -0.4724, 0.1969 -1.0433 0.0591, 0.1969 -1.0433 0.0, 0.1969 0.5866 0.0591, 0.1969 0.5866 0.0, 0.5906 -1.0433 0.0, 0.5906 -1.0433 0.0591, 0.5906 -0.2418 0.0, 0.5906 0.5866 0.0591, 0.5906 0.5866 0.0, 0.5906 0.5866 0.0
            ]
        }
        coordIndex [
            0,1,2,-1,2,1,3,-1,2,3,4,-1,4,3,5,-1,4,5,6,-1,6,5,7,-1,6,7,8,-1,8,7,9,-1,8,9,10,-1,10,9,11,-1,10,11,12,-1,12,11,13,-1,12,13,14,-1,14,13,15,-1,14,15,16,-1,16,15,17,-1,16,17,18,-1,18,17,19,-1,18,19,20,-1,20,19,21,-1,20,21,22,-1,22,21,23,-1,22,23,24,-1,24,23,25,-1,24,25,26,-1,26,25,27,-1,26,27,28,-1,28,27,29,-1,28,29,30,-1,30,29,31,-1,30,31,32,-1,32,31,33,-1,32,33,34,-1,34,33,35,-1,34,35,36,-1,36,35,37,-1,36,37,38,-1,38,37,39,-1,38,39,40,-1,40,39,41,-1,40,41,42,-1,42,41,43,-1,42,43,44,-1,44,43,45,-1,44,45,46,-1,46,45,47,-1,46,47,0,-1,0,47,1,-1,48,49,50,-1,50,49,51,-1,50,51,52,-1,53,50,54,-1,54,50,55,-1,50,56,48,-1,48,56,57,-1,48,57,58,-1,48,59,60,-1,60,59,61,-1,53,62,50,-1,50,62,63,-1,50,63,64,-1,65,66,48,-1,48,66,67,-1,48,67,59,-1,52,68,50,-1,50,68,69,-1,50,69,55,-1,58,70,48,-1,48,70,71,-1,48,71,65,-1,0,67,46,-1,46,67,66,-1,46,66,44,-1,44,66,65,-1,44,65,42,-1,42,65,71,-1,42,71,40,-1,40,71,70,-1,40,70,38,-1,38,70,58,-1,38,58,36,-1,36,58,57,-1,36,57,34,-1,34,57,56,-1,34,56,32,-1,32,56,50,-1,32,50,30,-1,30,50,64,-1,30,64,28,-1,28,64,63,-1,28,63,26,-1,26,63,62,-1,26,62,24,-1,24,62,53,-1,24,53,22,-1,22,53,54,-1,22,54,20,-1,20,54,55,-1,20,55,18,-1,18,55,69,-1,18,69,16,-1,16,69,68,-1,16,68,14,-1,14,68,52,-1,14,52,12,-1,12,52,51,-1,12,51,10,-1,10,51,49,-1,10,49,8,-1,8,49,48,-1,8,48,6,-1,6,48,60,-1,6,60,4,-1,4,60,61,-1,4,61,2,-1,2,61,59,-1,2,59,0,-1,0,59,67,-1,72,73,74,-1,74,73,75,-1,76,77,78,-1,78,77,79,-1,78,79,80,-1,
        ]
    }
}
Shape{
    appearance Appearance {
        material  Material 	{
            diffuseColor 0.6470588235294118 0.6196078431372549 0.5882352941176471
            specularColor 0.45098039215686275 0.43529411764705883 0.4117647058823529
            ambientIntensity 0.2
            transparency 0
            shininess 0.5
        }
    }
    geometry IndexedFaceSet {
        ccw TRUE
        solid FALSE
        coord DEF co Coordinate {
            point [
                0.437 0.0472 -1.1811, 0.437 -0.0394 -1.1811, 0.3504 0.0472 -1.1811, 0.3504 -0.0394 -1.1811, 0.2953 -0.0945 -1.0236, 0.2953 -0.0945 0.0591, 0.2953 0.1024 -1.0236, 0.2953 0.1024 0.0591, 0.4921 0.1024 -1.0236, 0.4921 0.1024 0.0591, 0.4921 -0.0945 -1.0236, 0.4921 -0.0945 0.0591, 0.437 -0.0394 2.126, 0.437 0.0472 2.126, 0.3504 -0.0394 2.126, 0.3504 0.0472 2.126, 0.4921 0.1024 1.9685, 0.4921 0.1024 1.063, 0.2953 0.1024 1.9685, 0.2953 0.1024 1.063, 0.2953 -0.0945 1.9685, 0.2953 -0.0945 1.063, 0.4921 -0.0945 1.9685, 0.4921 -0.0945 1.063, 0.4921 -0.0945 1.063
            ]
        }
        coordIndex [
            0,1,2,-1,2,1,3,-1,4,5,6,-1,6,5,7,-1,8,9,10,-1,10,9,11,-1,10,11,4,-1,4,11,5,-1,6,7,8,-1,8,7,9,-1,12,13,14,-1,14,13,15,-1,16,17,18,-1,18,17,19,-1,20,21,22,-1,22,21,23,-1,18,19,20,-1,20,19,21,-1,22,23,16,-1,16,23,17,-1,18,15,16,-1,16,15,13,-1,20,14,18,-1,18,14,15,-1,12,22,13,-1,13,22,16,-1,22,12,20,-1,20,12,14,-1,4,3,10,-1,10,3,1,-1,6,2,4,-1,4,2,3,-1,0,8,1,-1,1,8,10,-1,8,0,6,-1,6,0,2,-1,
        ]
    }
}
Shape{
    appearance Appearance {
        material  Material 	{
            diffuseColor 1.0 1.0 1.0
            specularColor 0.8784313725490196 0.8784313725490196 0.8784313725490196
            ambientIntensity 0.2
            transparency 0
            shininess 0.5
        }
    }
    geometry IndexedFaceSet {
        ccw TRUE
        solid FALSE
        coord DEF co Coordinate {
            point [
                0.9233 0.0847 0.0394, 0.9449 0.0847 0.0394, 0.9233 0.0847 0.0, 0.9449 0.0847 0.0, 0.9449 0.1855 0.0394, 0.9449 0.1855 0.0, 0.748 0.1855 0.0394, 0.748 0.1855 0.0, 0.748 0.1591 0.0394, 0.748 0.1591 0.0, 0.9233 0.1591 0.0394, 0.9233 0.1591 0.0, 0.9131 -0.0786 0.0394, 0.9347 -0.0786 0.0394, 0.9131 -0.0786 0.0, 0.9347 -0.0786 0.0, 0.9473 -0.0244 0.0394, 0.9473 -0.0244 0.0, 0.9472 -0.0298 0.0, 0.9472 -0.0298 0.0394, 0.9433 -0.0576 0.0, 0.9433 -0.0576 0.0394, 0.8502 0.0678 0.0394, 0.8502 0.0678 0.0, 0.8737 0.0658 0.0, 0.8737 0.0658 0.0394, 0.8947 0.0596 0.0, 0.8947 0.0596 0.0394, 0.9132 0.049 0.0, 0.9132 0.049 0.0394, 0.9282 0.0346 0.0, 0.9282 0.0346 0.0394, 0.9383 0.0188 0.0, 0.9383 0.0188 0.0394, 0.9448 -0.0002 0.0, 0.9448 -0.0002 0.0394, 0.7456 -0.0323 0.0, 0.7468 -0.0173 0.0, 0.7456 -0.0323 0.0394, 0.7472 -0.0128 0.0394, 0.7472 -0.0128 0.0, 0.7535 0.0091 0.0, 0.7535 0.0091 0.0394, 0.7641 0.0278 0.0, 0.7641 0.0278 0.0394, 0.7812 0.0457 0.0, 0.7812 0.0457 0.0394, 0.7998 0.0574 0.0, 0.7998 0.0574 0.0394, 0.8222 0.065 0.0, 0.8222 0.065 0.0394, 0.7468 -0.0497 0.0, 0.7473 -0.0558 0.0394, 0.7473 -0.0558 0.0, 0.7534 -0.0786 0.0394, 0.7534 -0.0786 0.0, 0.7798 -0.0786 0.0394, 0.7798 -0.0786 0.0, 0.7672 -0.0325 0.0394, 0.7672 -0.0325 0.0, 0.7703 -0.0564 0.0, 0.7703 -0.0564 0.0394, 0.8486 0.0414 0.0394, 0.8486 0.0414 0.0, 0.8332 0.0405 0.0, 0.8332 0.0405 0.0394, 0.8122 0.0353 0.0, 0.8122 0.0353 0.0394, 0.797 0.0271 0.0, 0.797 0.0271 0.0394, 0.7838 0.0153 0.0, 0.7838 0.0153 0.0394, 0.7747 0.0016 0.0, 0.7747 0.0016 0.0394, 0.7694 -0.0131 0.0, 0.7694 -0.0131 0.0394, 0.9257 -0.0281 0.0394, 0.9257 -0.0281 0.0, 0.9236 -0.0097 0.0, 0.9236 -0.0097 0.0394, 0.9183 0.0046 0.0, 0.9183 0.0046 0.0394, 0.9102 0.0167 0.0, 0.9102 0.0167 0.0394, 0.9004 0.026 0.0, 0.9004 0.026 0.0394, 0.8868 0.0341 0.0, 0.8868 0.0341 0.0394, 0.8699 0.0394 0.0, 0.8699 0.0394 0.0394, 0.915 -0.0751 0.0, 0.915 -0.0751 0.0394, 0.9228 -0.0542 0.0, 0.9228 -0.0542 0.0394, 0.9233 -0.2226 0.0394, 0.9449 -0.2226 0.0394, 0.9233 -0.2226 0.0, 0.9449 -0.2226 0.0, 0.9449 -0.117 0.0394, 0.9449 -0.117 0.0, 0.748 -0.117 0.0394, 0.748 -0.117 0.0, 0.748 -0.2178 0.0394, 0.748 -0.2178 0.0, 0.7696 -0.2178 0.0394, 0.7696 -0.2178 0.0, 0.7696 -0.1434 0.0394, 0.7696 -0.1434 0.0, 0.8345 -0.1434 0.0394, 0.8345 -0.1434 0.0, 0.8345 -0.213 0.0394, 0.8345 -0.213 0.0, 0.8561 -0.213 0.0394, 0.8561 -0.213 0.0, 0.8561 -0.1434 0.0394, 0.8561 -0.1434 0.0, 0.9233 -0.1434 0.0394, 0.9233 -0.1434 0.0, 0.9449 -0.3146 0.0394, 0.9449 -0.261 0.0394, 0.9449 -0.3146 0.0, 0.9449 -0.261 0.0, 0.748 -0.261 0.0394, 0.748 -0.261 0.0, 0.748 -0.3166 0.0394, 0.748 -0.3166 0.0, 0.844 -0.4195 0.0394, 0.844 -0.4195 0.0, 0.8259 -0.4181 0.0, 0.8259 -0.4181 0.0394, 0.8063 -0.4128 0.0, 0.8063 -0.4128 0.0394, 0.7892 -0.4036 0.0, 0.7892 -0.4036 0.0394, 0.7737 -0.3897 0.0, 0.7737 -0.3897 0.0394, 0.7735 -0.3895 0.0, 0.7735 -0.3895 0.0394, 0.7592 -0.3681 0.0, 0.7592 -0.3681 0.0394, 0.7511 -0.345 0.0, 0.7511 -0.345 0.0394, 0.9426 -0.3395 0.0, 0.9426 -0.3395 0.0394, 0.9358 -0.3622 0.0, 0.9358 -0.3622 0.0394, 0.9238 -0.3825 0.0, 0.9238 -0.3825 0.0394, 0.9082 -0.3986 0.0, 0.9082 -0.3986 0.0394, 0.8908 -0.4097 0.0, 0.8908 -0.4097 0.0394, 0.8703 -0.4167 0.0, 0.8703 -0.4167 0.0394, 0.7972 -0.38 0.0394, 0.7871 -0.3704 0.0394, 0.7778 -0.3561 0.0394, 0.7721 -0.3398 0.0394, 0.7696 -0.3165 0.0394, 0.7696 -0.2874 0.0394, 0.9233 -0.2874 0.0394, 0.9233 -0.3154 0.0394, 0.9213 -0.3362 0.0394, 0.9162 -0.3527 0.0394, 0.9081 -0.3662 0.0394, 0.8971 -0.3774 0.0394, 0.8838 -0.3855 0.0394, 0.8681 -0.3907 0.0394, 0.8445 -0.3931 0.0394, 0.8249 -0.3914 0.0394, 0.8094 -0.3868 0.0394, 0.7696 -0.3165 0.0, 0.7696 -0.2874 0.0, 0.7721 -0.3398 0.0, 0.7778 -0.3561 0.0, 0.7871 -0.3704 0.0, 0.7972 -0.38 0.0, 0.8094 -0.3868 0.0, 0.8249 -0.3914 0.0, 0.8445 -0.3931 0.0, 0.8681 -0.3907 0.0, 0.8838 -0.3855 0.0, 0.8971 -0.3774 0.0, 0.9081 -0.3662 0.0, 0.9162 -0.3527 0.0, 0.9213 -0.3362 0.0, 0.9233 -0.3154 0.0, 0.9233 -0.2874 0.0, 0.9233 -0.2874 0.0
            ]
        }
        coordIndex [
            0,1,2,-1,2,1,3,-1,1,4,3,-1,3,4,5,-1,4,6,5,-1,5,6,7,-1,6,8,7,-1,7,8,9,-1,8,10,9,-1,9,10,11,-1,10,0,11,-1,11,0,2,-1,8,6,10,-1,10,6,4,-1,10,4,0,-1,0,4,1,-1,12,13,14,-1,14,13,15,-1,16,17,18,-1,16,18,19,-1,19,18,20,-1,19,20,21,-1,21,20,15,-1,21,15,13,-1,22,23,24,-1,22,24,25,-1,25,24,26,-1,25,26,27,-1,27,26,28,-1,27,28,29,-1,29,28,30,-1,29,30,31,-1,31,30,32,-1,31,32,33,-1,33,32,34,-1,33,34,35,-1,35,34,17,-1,35,17,16,-1,36,37,38,-1,38,37,39,-1,37,40,39,-1,39,40,41,-1,39,41,42,-1,42,41,43,-1,42,43,44,-1,44,43,45,-1,44,45,46,-1,46,45,47,-1,46,47,48,-1,48,47,49,-1,48,49,50,-1,50,49,23,-1,50,23,22,-1,36,38,51,-1,51,38,52,-1,51,52,53,-1,53,52,54,-1,53,54,55,-1,54,56,55,-1,55,56,57,-1,58,59,60,-1,58,60,61,-1,61,60,57,-1,61,57,56,-1,62,63,64,-1,62,64,65,-1,65,64,66,-1,65,66,67,-1,67,66,68,-1,67,68,69,-1,69,68,70,-1,69,70,71,-1,71,70,72,-1,71,72,73,-1,73,72,74,-1,73,74,75,-1,75,74,59,-1,75,59,58,-1,76,77,78,-1,76,78,79,-1,79,78,80,-1,79,80,81,-1,81,80,82,-1,81,82,83,-1,83,82,84,-1,83,84,85,-1,85,84,86,-1,85,86,87,-1,87,86,88,-1,87,88,89,-1,89,88,63,-1,89,63,62,-1,12,14,90,-1,12,90,91,-1,91,90,92,-1,91,92,93,-1,93,92,77,-1,93,77,76,-1,79,16,76,-1,76,16,19,-1,76,19,93,-1,93,19,21,-1,93,21,91,-1,91,21,13,-1,91,13,12,-1,56,54,61,-1,61,54,52,-1,61,52,58,-1,58,52,38,-1,58,38,75,-1,75,38,39,-1,75,39,73,-1,73,39,42,-1,73,42,71,-1,71,42,44,-1,71,44,69,-1,69,44,46,-1,69,46,67,-1,67,46,48,-1,67,48,65,-1,65,48,50,-1,65,50,62,-1,62,50,22,-1,62,22,89,-1,89,22,25,-1,89,25,87,-1,87,25,27,-1,87,27,85,-1,85,27,29,-1,85,29,83,-1,83,29,31,-1,83,31,81,-1,81,31,33,-1,81,33,79,-1,79,33,35,-1,79,35,16,-1,94,95,96,-1,96,95,97,-1,95,98,97,-1,97,98,99,-1,98,100,99,-1,99,100,101,-1,100,102,101,-1,101,102,103,-1,102,104,103,-1,103,104,105,-1,104,106,105,-1,105,106,107,-1,106,108,107,-1,107,108,109,-1,108,110,109,-1,109,110,111,-1,110,112,111,-1,111,112,113,-1,112,114,113,-1,113,114,115,-1,114,116,115,-1,115,116,117,-1,116,94,117,-1,117,94,96,-1,98,95,94,-1,94,116,98,-1,98,116,114,-1,98,114,100,-1,104,102,106,-1,106,102,100,-1,106,100,108,-1,108,100,114,-1,108,114,110,-1,110,114,112,-1,118,119,120,-1,120,119,121,-1,119,122,121,-1,121,122,123,-1,122,124,123,-1,123,124,125,-1,126,127,128,-1,126,128,129,-1,129,128,130,-1,129,130,131,-1,131,130,132,-1,131,132,133,-1,133,132,134,-1,133,134,135,-1,135,134,136,-1,135,136,137,-1,137,136,138,-1,137,138,139,-1,139,138,140,-1,139,140,141,-1,141,140,125,-1,141,125,124,-1,118,120,142,-1,118,142,143,-1,143,142,144,-1,143,144,145,-1,145,144,146,-1,145,146,147,-1,147,146,148,-1,147,148,149,-1,149,148,150,-1,149,150,151,-1,151,150,152,-1,151,152,153,-1,153,152,127,-1,153,127,126,-1,131,133,154,-1,154,133,135,-1,154,135,155,-1,155,135,137,-1,155,137,156,-1,156,137,139,-1,156,139,157,-1,157,139,141,-1,157,141,158,-1,158,141,124,-1,158,124,159,-1,159,124,122,-1,159,122,160,-1,160,122,119,-1,160,119,161,-1,161,119,118,-1,161,118,162,-1,162,118,143,-1,162,143,163,-1,163,143,145,-1,163,145,164,-1,164,145,147,-1,164,147,165,-1,165,147,149,-1,165,149,166,-1,166,149,151,-1,166,151,167,-1,167,151,153,-1,167,153,168,-1,168,153,126,-1,168,126,169,-1,169,126,129,-1,169,129,170,-1,170,129,131,-1,170,131,154,-1,158,159,171,-1,171,159,172,-1,158,171,173,-1,158,173,157,-1,157,173,174,-1,157,174,156,-1,156,174,175,-1,156,175,155,-1,155,175,176,-1,155,176,154,-1,154,176,177,-1,154,177,170,-1,170,177,178,-1,170,178,169,-1,169,178,179,-1,169,179,168,-1,168,179,180,-1,168,180,167,-1,167,180,181,-1,167,181,166,-1,166,181,182,-1,166,182,165,-1,165,182,183,-1,165,183,164,-1,164,183,184,-1,164,184,163,-1,163,184,185,-1,163,185,162,-1,162,185,186,-1,162,186,161,-1,160,161,187,-1,187,161,186,-1,159,160,172,-1,172,160,187,-1,
        ]
    }
}
Shape{
    appearance Appearance {
        material  Material 	{
            diffuseColor 1.0 1.0 1.0
            specularColor 0.5019607843137255 0.5019607843137255 0.5019607843137255
            ambientIntensity 0.2
            transparency 0
            shininess 0.5
        }
    }
    geometry IndexedFaceSet {
        ccw TRUE
        solid FALSE
        coord DEF co Coordinate {
            point [
                0.7696 -0.2874 0.0, 0.9233 -0.2874 0.0, 0.7696 -0.3165 0.0, 0.9233 -0.3154 0.0, 0.8681 -0.3907 0.0, 0.8445 -0.3931 0.0, 0.8249 -0.3914 0.0, 0.8094 -0.3868 0.0, 0.7721 -0.3398 0.0, 0.9213 -0.3362 0.0, 0.9162 -0.3527 0.0, 0.9081 -0.3662 0.0, 0.7972 -0.38 0.0, 0.7871 -0.3704 0.0, 0.7778 -0.3561 0.0, 0.8971 -0.3774 0.0, 0.8838 -0.3855 0.0, 0.8838 -0.3855 0.0
            ]
        }
        coordIndex [
            0,1,2,-1,2,1,3,-1,4,5,2,-1,5,6,2,-1,2,6,7,-1,2,7,8,-1,3,9,2,-1,2,9,10,-1,2,10,11,-1,12,13,7,-1,7,13,14,-1,7,14,8,-1,11,15,2,-1,2,15,16,-1,2,16,4,-1,
        ]
    }
}
Shape{
    appearance Appearance {
        material  Material 	{
            diffuseColor 1.0 1.0 1.0
            specularColor 0.8784313725490196 0.8784313725490196 0.8784313725490196
            ambientIntensity 0.2
            transparency 0
            shininess 0.5
        }
    }
    geometry IndexedFaceSet {
        ccw TRUE
        solid FALSE
        coord DEF co Coordinate {
            point [
                0.748 -0.5347 0.0394, 0.9449 -0.6115 0.0394, 0.748 -0.5347 0.0, 0.9449 -0.6115 0.0, 0.9449 -0.5827 0.0394, 0.9449 -0.5827 0.0, 0.8897 -0.5628 0.0394, 0.8897 -0.5628 0.0, 0.8897 -0.4815 0.0394, 0.8897 -0.4815 0.0, 0.9449 -0.4627 0.0394, 0.9449 -0.4627 0.0, 0.9449 -0.4339 0.0394, 0.9449 -0.4339 0.0, 0.748 -0.5083 0.0394, 0.748 -0.5083 0.0, 0.8681 -0.4881 0.0394, 0.7858 -0.5175 0.0394, 0.779 -0.5194 0.0394, 0.772 -0.5206 0.0394, 0.772 -0.5213 0.0394, 0.779 -0.5226 0.0394, 0.7858 -0.5243 0.0394, 0.8681 -0.5539 0.0394, 0.8681 -0.4881 0.0, 0.8681 -0.5539 0.0, 0.7858 -0.5175 -0.0, 0.779 -0.5194 -0.0, 0.772 -0.5206 0.0, 0.772 -0.5213 0.0, 0.779 -0.5226 0.0, 0.7858 -0.5243 0.0, 0.7858 -0.5243 0.0
            ]
        }
        coordIndex [
            0,1,2,-1,2,1,3,-1,1,4,3,-1,3,4,5,-1,4,6,5,-1,5,6,7,-1,6,8,7,-1,7,8,9,-1,8,10,9,-1,9,10,11,-1,10,12,11,-1,11,12,13,-1,12,14,13,-1,13,14,15,-1,14,0,15,-1,15,0,2,-1,16,17,14,-1,12,10,8,-1,17,18,14,-1,14,18,19,-1,14,19,0,-1,0,19,20,-1,0,20,21,-1,21,22,0,-1,0,22,23,-1,0,23,1,-1,4,1,6,-1,6,1,23,-1,6,23,8,-1,8,23,16,-1,8,16,12,-1,12,16,14,-1,16,23,24,-1,24,23,25,-1,17,16,26,-1,26,16,24,-1,17,26,27,-1,17,27,18,-1,18,27,28,-1,18,28,19,-1,20,19,29,-1,29,19,28,-1,20,29,30,-1,20,30,21,-1,21,30,31,-1,21,31,22,-1,23,22,25,-1,25,22,31,-1,
        ]
    }
}
Shape{
    appearance Appearance {
        material  Material 	{
            diffuseColor 1.0 1.0 1.0
            specularColor 0.5019607843137255 0.5019607843137255 0.5019607843137255
            ambientIntensity 0.2
            transparency 0
            shininess 0.5
        }
    }
    geometry IndexedFaceSet {
        ccw TRUE
        solid FALSE
        coord DEF co Coordinate {
            point [
                0.8681 -0.4881 0.0, 0.8681 -0.5539 0.0, 0.7858 -0.5175 -0.0, 0.7858 -0.5243 0.0, 0.779 -0.5194 -0.0, 0.779 -0.5226 0.0, 0.772 -0.5206 0.0, 0.772 -0.5213 0.0, 0.772 -0.5213 0.0
            ]
        }
        coordIndex [
            0,1,2,-1,2,1,3,-1,2,3,4,-1,4,3,5,-1,4,5,6,-1,6,5,7,-1,
        ]
    }
}