#VRML V2.0 utf8
# 3D model generated by easyeda2kicad.py (https://github.com/uPesy/easyeda2kicad.py)

Shape{
    appearance Appearance {
        material  Material 	{
            diffuseColor 0.8941176470588236 0.8941176470588236 0.8941176470588236
            specularColor 0.4470588235294118 0.4470588235294118 0.4470588235294118
            ambientIntensity 0.2
            transparency 0
            shininess 0.5
        }
    }
    geometry IndexedFaceSet {
        ccw TRUE
        solid FALSE
        coord DEF co Coordinate {
            point [
                -0.0816 1.8307 0.0, -0.0432 -0.1952 0.0, -0.0816 -0.2409 0.0, -0.0432 -0.2385 0.0, 0.168 -0.2385 0.0, -0.0336 0.112 0.0, 0.1152 0.112 0.0, 0.1152 -0.0176 0.0, 0.2449 -0.2181 0.0, 0.2449 -0.1748 0.0, 0.168 0.1552 0.0, 0.1152 -0.0608 0.0, 0.1152 -0.1952 0.0, -0.024 -0.0608 0.0, -0.024 -0.0176 0.0, 0.773 -0.2385 0.0, 0.3763 -0.2409 0.0, 0.5713 -0.2385 0.0, 0.4017 -0.2382 0.0, 0.4399 -0.2251 0.0, -0.0336 0.1552 0.0, 0.517 0.0515 0.0, 0.4939 0.0884 0.0, 0.7202 0.1552 0.0, 0.3758 0.1125 0.0, 0.4053 0.1018 0.0, 0.2519 -0.1787 0.0, 0.4325 0.0836 0.0, 0.4563 0.0574 0.0, 0.4849 -0.0458 0.0, 0.4809 -0.0884 0.0, 0.4702 -0.1223 0.0, 0.3826 -0.1959 0.0, 0.3459 -0.2 0.0, 0.4113 -0.1854 0.0, 0.4355 -0.1691 0.0, 0.454 -0.1496 0.0, 0.2937 -0.1942 0.0, 0.4726 0.027 0.0, 0.483 -0.0152 0.0, 0.4715 -0.2049 0.0, 0.5011 -0.1737 0.0, 0.5713 -0.1952 0.0, 0.5221 -0.1363 0.0, 0.7202 -0.1952 0.0, 0.5339 -0.0946 0.0, 0.5377 -0.049 0.0, 0.5321 0.0069 0.0, 0.4583 0.1225 0.0, 0.4209 0.1441 0.0, 0.3771 0.1568 0.0, 0.3375 0.16 0.0, 0.2904 0.1568 0.0, 0.2449 0.1444 0.0, 0.2449 0.0916 0.0, 0.2892 0.1106 0.0, 0.3371 0.1168 0.0, 0.3266 -0.2409 0.0, 0.3424 -0.2431 0.0, -0.0816 -1.8307 0.0, 0.3532 -0.2433 0.0, 0.773 0.1552 0.0, 4.2913 1.8307 0.0, 4.2913 -0.2409 0.0, 4.2913 -1.8307 0.0, -4.2913 -1.8307 0.0, -4.2913 -0.2409 0.0, 0.2868 -0.2353 0.0, -0.4657 -0.2385 0.0, -0.4173 -0.1306 0.0, -0.3947 -0.1658 0.0, -0.7634 -0.2385 0.0, -0.821 -0.2385 0.0, -0.6674 0.1552 0.0, -4.2913 1.8307 0.0, -0.6146 0.1552 0.0, -0.3623 -0.1968 0.0, -0.3212 -0.2207 0.0, -0.2758 -0.2342 0.0, -0.2271 -0.2385 0.0, -0.12 -0.2385 0.0, -0.12 0.1552 0.0, -0.2311 0.1552 0.0, -0.3773 0.1039 0.0, -0.4052 0.073 0.0, -0.4235 0.0392 0.0, -0.288 0.1492 0.0, -0.3341 0.133 0.0, -0.3769 0.1043 0.0, -0.5233 -0.2385 0.0, -0.5609 -0.128 0.0, -0.7236 -0.128 0.0, -0.4341 0.0004 0.0, -0.4369 -0.0367 0.0, -0.4314 -0.0893 0.0, 2.3829 -0.5221 3.7402, 2.369 -0.5236 3.7402, 3.9322 -0.5236 3.7402, -0.6434 0.4666 3.7402, -0.6838 0.3226 3.7402, -0.6314 0.3226 3.7402, -2.0675 -0.3573 3.7402, -2.1079 -0.4173 3.7402, -1.9877 -0.5236 3.7402, -2.2791 0.0741 3.7402, -2.2023 0.0515 3.7402, -1.9877 0.3226 3.7402, -2.1625 -0.4661 3.7402, -2.2286 -0.5017 3.7402, -2.3161 -0.5236 3.7402, -2.3767 0.0825 3.7402, -2.4497 0.3226 3.7402, -2.4679 0.0788 3.7402, -2.1362 0.013 3.7402, -2.0926 -0.0299 3.7402, -2.0599 -0.084 3.7402, -2.042 -0.1423 3.7402, -2.0357 -0.2112 3.7402, -2.0449 -0.2941 3.7402, -2.0838 0.4666 3.7402, -2.0838 0.3586 3.7402, -2.447 0.3586 3.7402, -2.5999 -0.3706 3.7402, -3.266 0.3226 3.7402, -2.5999 -0.4912 3.7402, -3.266 -0.5236 3.7402, -2.4822 -0.5236 3.7402, -2.4982 -0.5226 3.7402, -2.572 -0.5042 3.7402, -2.3342 -0.0333 3.7402, -2.4202 -0.0255 3.7402, -2.1678 -0.2192 3.7402, -1.9877 1.4715 3.7402, -2.5511 0.4666 3.7402, -3.266 1.4715 3.7402, -2.5617 0.3226 3.7402, -2.5879 -0.0338 3.7402, -2.5042 -0.0274 3.7402, -2.5014 -0.4083 3.7402, -2.3968 -0.4216 3.7402, -2.3322 -0.4155 3.7402, -2.2093 -0.0994 3.7402, -2.2397 -0.0722 3.7402, -2.1863 -0.1335 3.7402, -2.1734 -0.1691 3.7402, -2.2722 -0.0533 3.7402, -2.2052 -0.3386 3.7402, -2.1837 -0.3022 3.7402, -2.1711 -0.2592 3.7402, -2.2807 -0.3986 3.7402, -2.2361 -0.3706 3.7402, -2.3238 -0.5256 3.7402, -1.9877 -1.4715 3.7402, -3.266 -1.4715 3.7402, -2.3915 -0.5296 3.7402, -0.9982 -0.3264 3.7402, -0.9915 -0.3736 3.7402, -0.9843 -0.3251 3.7402, -1.8976 0.3226 3.7402, -1.9397 0.4666 3.7402, -1.0085 -0.2798 3.7402, -0.9727 -0.2774 3.7402, -1.1788 0.3226 3.7402, -0.8136 0.3226 3.7402, -1.2195 0.4666 3.7402, -1.7957 0.4666 3.7402, -0.6314 1.4715 3.7402, -0.7754 0.4666 3.7402, -1.3396 0.4666 3.7402, -1.3821 0.3226 3.7402, -1.7567 0.3226 3.7402, -1.5581 -0.2731 3.7402, -1.5954 -0.2731 3.7402, -1.5712 -0.3228 3.7402, -1.5849 -0.3229 3.7402, -1.5796 -0.3736 3.7402, -1.6516 -0.5176 3.7402, -1.5076 -0.5176 3.7402, -0.6314 -0.5236 3.7402, -0.9195 -0.5176 3.7402, -1.0635 -0.5176 3.7402, -1.2796 0.2986 3.7402, -1.2916 0.2986 3.7402, -1.2744 0.2469 3.7402, -1.2976 0.2476 3.7402, -1.2636 0.1962 3.7402, -1.3092 0.1975 3.7402, 1.7026 -0.0975 3.7402, 1.6132 -0.0975 3.7402, 1.6132 -0.5176 3.7402, 1.7214 -0.0985 3.7402, 1.4812 -0.5176 3.7402, 1.4031 -0.5236 3.7402, 2.2013 -0.5236 3.7402, 1.8679 -0.0574 3.7402, 1.8679 -0.0606 3.7402, 1.8778 -0.0544 3.7402, 1.9124 -0.0867 3.7402, 2.2013 0.3226 3.7402, 2.066 0.3034 3.7402, 2.0785 0.2496 3.7402, 2.0032 -0.2021 3.7402, 2.0298 0.0409 3.7402, 1.9453 -0.1189 3.7402, 2.0078 0.0168 3.7402, 1.9561 -0.0213 3.7402, 2.0813 0.2059 3.7402, 2.0747 0.139 3.7402, 2.014 -0.2198 3.7402, 2.0572 0.0855 3.7402, 1.8138 -0.1414 3.7402, 1.7841 -0.1184 3.7402, 1.7559 -0.1056 3.7402, 2.1893 -0.5176 3.7402, 2.0453 -0.5176 3.7402, 1.8855 -0.2406 3.7402, 1.4031 0.3226 3.7402, 1.4812 0.3226 3.7402, 1.4812 0.4666 3.7402, 2.0096 0.39 3.7402, 2.0424 0.3509 3.7402, 2.0565 0.3226 3.7402, 1.778 0.4666 3.7402, 1.8654 0.4591 3.7402, 2.2013 1.4715 3.7402, 1.9323 0.4395 3.7402, 1.9857 0.4098 3.7402, 2.4654 0.3226 3.7402, 2.4654 0.4666 3.7402, 2.2133 -0.5118 3.7402, 2.2133 -0.3976 3.7402, 2.4654 -0.1609 3.7402, 2.4441 -0.3189 3.7402, 2.2975 -0.4211 3.7402, 2.4392 -0.3316 3.7402, 2.3116 -0.4216 3.7402, 2.3454 -0.418 3.7402, 2.2531 -0.4145 3.7402, 2.4611 -0.2405 3.7402, 2.3726 -0.4086 3.7402, 2.3968 -0.3928 3.7402, 2.4177 -0.3705 3.7402, 2.3139 -0.5296 3.7402, 2.2627 -0.5258 3.7402, 2.2013 -1.4715 3.7402, 2.2549 -0.5236 3.7402, 3.9322 -1.4715 3.7402, 2.5635 -0.3592 3.7402, 2.5262 -0.4263 3.7402, 2.588 -0.2731 3.7402, 2.4846 -0.4711 3.7402, 2.4388 -0.5018 3.7402, 3.9322 1.4715 3.7402, 2.5974 0.4666 3.7402, 3.9322 0.3226 3.7402, 2.5974 0.3226 3.7402, 2.5974 -0.1577 3.7402, 1.4031 1.4715 3.7402, 0.6829 1.4715 3.7402, 0.6829 0.3226 3.7402, 0.0228 0.3226 3.7402, 0.0228 1.4715 3.7402, 1.3251 0.1786 3.7402, 1.0926 -0.172 3.7402, 1.3251 -0.5176 3.7402, 1.1811 -0.5176 3.7402, 0.6829 -0.5236 3.7402, 0.9418 -0.1759 3.7402, 0.713 0.1786 3.7402, 0.857 0.1786 3.7402, 1.1931 0.1786 3.7402, 1.0164 -0.2419 3.7402, 1.0138 -0.2419 3.7402, 1.0313 -0.2692 3.7402, 0.9985 -0.2693 3.7402, 1.047 -0.2961 3.7402, 0.9821 -0.2961 3.7402, 0.845 -0.5176 3.7402, 0.701 -0.5176 3.7402, 1.0179 -0.1097 3.7402, 1.0205 -0.1097 3.7402, 1.0035 -0.0819 3.7402, 0.9887 -0.0544 3.7402, 0.6649 0.1786 3.7402, 0.4324 -0.172 3.7402, 0.6649 -0.5176 3.7402, 0.5209 -0.5176 3.7402, 0.0228 -0.5236 3.7402, 0.1968 0.1786 3.7402, 0.2816 -0.1759 3.7402, 0.0528 0.1786 3.7402, 0.5329 0.1786 3.7402, 0.3562 -0.2419 3.7402, 0.3536 -0.2419 3.7402, 0.3712 -0.2692 3.7402, 0.3383 -0.2693 3.7402, 0.3868 -0.2961 3.7402, 0.3219 -0.2961 3.7402, 0.1848 -0.5176 3.7402, 0.0408 -0.5176 3.7402, 0.3577 -0.1097 3.7402, 0.3604 -0.1097 3.7402, 0.3434 -0.0819 3.7402, 0.3285 -0.0544 3.7402, 0.0048 0.1786 3.7402, -0.2278 -0.172 3.7402, 0.0048 -0.5176 3.7402, -0.1393 -0.5176 3.7402, -0.3786 -0.1759 3.7402, -0.6074 0.1786 3.7402, -0.4633 0.1786 3.7402, -0.1273 0.1786 3.7402, -0.3039 -0.2419 3.7402, -0.3066 -0.2419 3.7402, -0.289 -0.2692 3.7402, -0.3218 -0.2693 3.7402, -0.2734 -0.2961 3.7402, -0.3383 -0.2961 3.7402, -0.4753 -0.5176 3.7402, -0.6194 -0.5176 3.7402, -0.3024 -0.1097 3.7402, -0.2998 -0.1097 3.7402, -0.3168 -0.0819 3.7402, -0.3317 -0.0544 3.7402, -0.6314 -1.4715 3.7402, 0.0228 -1.4715 3.7402, 0.6829 -1.4715 3.7402, 1.4031 -1.4715 3.7402, -3.9322 1.4715 3.7402, -3.9322 0.3226 3.7402, -3.9322 -0.5236 3.7402, -3.9322 -1.4715 3.7402, -4.3307 -0.1159 1.937, -4.3307 -1.8307 3.611, -4.3307 -0.0947 1.9647, -4.3307 -0.0669 1.986, -4.3307 1.8307 0.0394, -4.3307 0.0669 1.7542, -4.3307 0.0947 1.7754, -4.3307 -0.1159 1.8031, -4.3307 -0.0947 1.7754, -4.3307 -1.8307 0.0394, -4.3307 -0.0669 1.7542, -4.3307 0.1293 1.9047, -4.3307 0.1159 1.937, -4.3307 1.8307 3.611, -4.3307 0.0947 1.9647, -4.3307 0.0669 1.986, -4.3307 0.0346 1.9994, -4.3307 -0.0 2.0039, -4.3307 -0.0346 1.9994, -4.3307 -0.0346 1.7408, -4.3307 -0.0 1.7362, -4.3307 0.0346 1.7408, -4.3307 0.1159 1.8031, -4.3307 0.1293 1.8354, -4.3307 0.1339 1.8701, -4.3307 -0.1293 1.9047, -4.3307 -0.1339 1.8701, -4.3307 -0.1293 1.8354, 4.2913 -1.8701 0.0394, 4.2913 -1.8701 3.611, -4.2913 -1.8701 0.0394, -4.2913 -1.8701 3.611, 4.3307 -0.0669 1.7542, 4.3307 -0.0947 1.7754, 4.3307 -1.8307 0.0394, 4.3307 -0.1293 1.9047, 4.3307 -0.1159 1.937, 4.3307 -1.8307 3.611, 4.3307 -0.0947 1.9647, 4.3307 0.0346 1.9994, 4.3307 0.0669 1.986, 4.3307 1.8307 3.611, 4.3307 0.0947 1.9647, 4.3307 0.1159 1.937, 4.3307 -0.0669 1.986, 4.3307 -0.0346 1.9994, 4.3307 -0.0 2.0039, 4.3307 0.0669 1.7542, 4.3307 1.8307 0.0394, 4.3307 0.0947 1.7754, 4.3307 0.1159 1.8031, 4.3307 0.0346 1.7408, 4.3307 -0.0 1.7362, 4.3307 -0.0346 1.7408, 4.3307 -0.1159 1.8031, 4.3307 -0.1293 1.8354, 4.3307 -0.1339 1.8701, 4.3307 0.1293 1.9047, 4.3307 0.1339 1.8701, 4.3307 0.1293 1.8354, -4.2913 1.8701 0.0394, -4.2913 1.8701 3.611, 4.2913 1.8701 0.0394, 4.2913 1.8701 3.611, -3.9322 -1.4811 3.739, -4.2913 -1.8403 3.6492, 3.9322 -1.4811 3.739, 4.2913 -1.8403 3.6492, 3.9417 -1.4715 3.739, 4.3009 -1.8307 3.6492, 3.9417 1.4715 3.739, 4.3009 1.8307 3.6492, -4.3009 1.8307 3.6492, -4.3009 -1.8307 3.6492, -3.9417 1.4715 3.739, -3.9417 -1.4715 3.739, 3.9322 1.4811 3.739, 4.2913 1.8403 3.6492, -3.9322 1.4811 3.739, -4.2913 1.8403 3.6492, 3.9351 -1.4782 3.7393, 3.9337 -1.4796 3.7392, 3.9364 -1.4769 3.7395, 3.937 -1.4764 3.7396, 3.9376 -1.4758 3.7395, 3.9403 -1.473 3.7392, 3.9388 -1.4745 3.7393, -3.9388 -1.4745 3.7393, -3.9403 -1.473 3.7392, -3.9376 -1.4758 3.7395, -3.937 -1.4764 3.7396, -3.9364 -1.4769 3.7395, -3.9337 -1.4796 3.7392, -3.9351 -1.4782 3.7393, 4.2928 -1.8388 3.6494, 4.2943 -1.8374 3.6495, 4.2956 -1.8361 3.6497, 4.2962 -1.8356 3.6498, 4.298 -1.8337 3.6495, 4.2994 -1.8322 3.6494, -4.2928 -1.8388 3.6494, -4.2943 -1.8374 3.6495, -4.2994 -1.8322 3.6494, -4.298 -1.8337 3.6495, -4.2967 -1.835 3.6497, -4.2962 -1.8356 3.6498, 4.2913 -1.8691 3.6196, 4.2913 -1.8461 3.6472, -4.2913 -1.8461 3.6472, 4.2913 -1.8483 3.646, -4.2913 -1.8483 3.646, 4.2913 -1.8541 3.6427, -4.2913 -1.8541 3.6427, 4.2913 -1.8555 3.6413, -4.2913 -1.8555 3.6413, 4.2913 -1.8608 3.6364, -4.2913 -1.8608 3.6364, 4.2913 -1.8616 3.6351, -4.2913 -1.8616 3.6351, 4.2913 -1.8658 3.6288, -4.2913 -1.8658 3.6288, 4.2913 -1.8662 3.6278, -4.2913 -1.8662 3.6278, 4.2913 -1.869 3.6201, -4.2913 -1.869 3.6201, -4.2913 -1.8691 3.6196, 4.3109 -1.8646 3.611, 4.3159 -1.8615 3.611, 4.3152 -1.8607 3.6201, 4.319 -1.8584 3.611, 4.3221 -1.8553 3.611, 4.3213 -1.8546 3.6201, 4.3252 -1.8503 3.611, 4.3268 -1.8478 3.611, 4.3258 -1.8473 3.6201, 4.3292 -1.8409 3.611, 4.3297 -1.8395 3.611, 4.3287 -1.8392 3.6201, 4.2948 -1.8457 3.6472, 4.3067 -1.8307 3.6472, 4.3063 -1.8341 3.6472, 4.3089 -1.8307 3.646, 4.2965 -1.8535 3.6427, 4.3147 -1.8307 3.6427, 4.3141 -1.8359 3.6427, 4.3162 -1.8307 3.6413, 4.3206 -1.8374 3.6364, 4.3214 -1.8307 3.6364, 4.298 -1.86 3.6364, 4.3222 -1.8307 3.6351, 4.3256 -1.8385 3.6288, 4.3265 -1.8307 3.6288, 4.2992 -1.865 3.6288, 4.3268 -1.8307 3.6278, 4.3296 -1.8307 3.6201, 4.298 -1.8445 3.6472, 4.3015 -1.8517 3.6427, 4.3044 -1.8578 3.6364, 4.3066 -1.8624 3.6288, 4.308 -1.8652 3.6201, 4.2999 -1.868 3.6201, 4.3297 -1.8307 3.6196, 4.323 -1.846 3.6288, 4.3184 -1.8438 3.6364, 4.3124 -1.8408 3.6427, 4.3052 -1.8374 3.6472, 4.3188 -1.8526 3.6288, 4.3148 -1.8495 3.6364, 4.3096 -1.8453 3.6427, 4.3033 -1.8403 3.6472, 4.3132 -1.8582 3.6288, 4.3101 -1.8542 3.6364, 4.3059 -1.849 3.6427, 4.3009 -1.8427 3.6472, 4.3084 -1.8662 3.611, 4.3015 -1.8686 3.611, 4.3001 -1.8691 3.611, 3.9384 1.4749 3.7394, 3.94 1.4733 3.7392, 3.937 1.4764 3.7396, 3.9339 1.4794 3.7392, 3.9356 1.4778 3.7394, -3.9356 1.4778 3.7394, -3.9339 1.4794 3.7392, -3.937 1.4764 3.7396, -3.94 1.4733 3.7392, -3.9384 1.4749 3.7394, -4.3252 -1.8503 3.611, -4.3221 -1.8553 3.611, -4.3213 -1.8546 3.6201, -4.319 -1.8584 3.611, -4.3159 -1.8615 3.611, -4.3152 -1.8607 3.6201, -4.3109 -1.8646 3.611, -4.3084 -1.8662 3.611, -4.308 -1.8652 3.6201, -4.3015 -1.8686 3.611, -4.3001 -1.8691 3.611, -4.2999 -1.868 3.6201, -4.3063 -1.8341 3.6472, -4.2948 -1.8457 3.6472, -4.3067 -1.8307 3.6472, -4.3089 -1.8307 3.646, -4.3141 -1.8359 3.6427, -4.2965 -1.8535 3.6427, -4.298 -1.86 3.6364, -4.3147 -1.8307 3.6427, -4.3162 -1.8307 3.6413, -4.3206 -1.8374 3.6364, -4.2992 -1.865 3.6288, -4.3214 -1.8307 3.6364, -4.3222 -1.8307 3.6351, -4.3256 -1.8385 3.6288, -4.3052 -1.8374 3.6472, -4.3124 -1.8408 3.6427, -4.3184 -1.8438 3.6364, -4.323 -1.846 3.6288, -4.3258 -1.8473 3.6201, -4.3287 -1.8392 3.6201, -4.3066 -1.8624 3.6288, -4.3044 -1.8578 3.6364, -4.3015 -1.8517 3.6427, -4.298 -1.8445 3.6472, -4.3132 -1.8582 3.6288, -4.3101 -1.8542 3.6364, -4.3059 -1.849 3.6427, -4.3009 -1.8427 3.6472, -4.3188 -1.8526 3.6288, -4.3148 -1.8495 3.6364, -4.3096 -1.8453 3.6427, -4.3033 -1.8403 3.6472, -4.3268 -1.8478 3.611, -4.3265 -1.8307 3.6288, -4.3268 -1.8307 3.6278, -4.3296 -1.8307 3.6201, -4.3297 -1.8307 3.6196, -4.3292 -1.8409 3.611, -4.3297 -1.8395 3.611, 4.3015 -1.8687 0.0394, 4.311 -1.8648 0.0394, 4.3192 -1.8585 0.0394, 4.3254 -1.8504 0.0394, 4.3294 -1.8409 0.0394, 4.3297 1.8307 3.6196, 4.3067 1.8307 3.6472, 4.3089 1.8307 3.646, 4.3147 1.8307 3.6427, 4.3162 1.8307 3.6413, 4.3214 1.8307 3.6364, 4.3222 1.8307 3.6351, 4.3265 1.8307 3.6288, 4.3268 1.8307 3.6278, 4.3296 1.8307 3.6201, 4.2992 1.8325 3.6494, 4.2976 1.8341 3.6496, 4.2962 1.8356 3.6498, 4.2948 1.8369 3.6496, 4.2931 1.8386 3.6494, -4.2913 1.8691 3.6196, -4.2913 1.8461 3.6472, 4.2913 1.8461 3.6472, -4.2913 1.8483 3.646, 4.2913 1.8483 3.646, -4.2913 1.8541 3.6427, 4.2913 1.8541 3.6427, -4.2913 1.8555 3.6413, 4.2913 1.8555 3.6413, -4.2913 1.8608 3.6364, 4.2913 1.8608 3.6364, -4.2913 1.8616 3.6351, 4.2913 1.8616 3.6351, -4.2913 1.8658 3.6288, 4.2913 1.8658 3.6288, -4.2913 1.8662 3.6278, 4.2913 1.8662 3.6278, -4.2913 1.869 3.6201, 4.2913 1.869 3.6201, 4.2913 1.8691 3.6196, -4.2992 1.8325 3.6494, -4.2976 1.8341 3.6496, -4.2962 1.8356 3.6498, -4.2948 1.8369 3.6496, -4.2931 1.8386 3.6494, -4.3067 1.8307 3.6472, -4.3089 1.8307 3.646, -4.3147 1.8307 3.6427, -4.3162 1.8307 3.6413, -4.3214 1.8307 3.6364, -4.3222 1.8307 3.6351, -4.3265 1.8307 3.6288, -4.3268 1.8307 3.6278, -4.3296 1.8307 3.6201, -4.3297 1.8307 3.6196, -4.3294 -1.8409 0.0394, -4.3254 -1.8504 0.0394, -4.3192 -1.8585 0.0394, -4.311 -1.8648 0.0394, -4.3015 -1.8687 0.0394, 4.2913 -1.8409 0.0013, -4.2913 -1.8409 0.0013, 4.2913 -1.8504 0.0053, -4.2913 -1.8504 0.0053, 4.2913 -1.8585 0.0115, -4.2913 -1.8585 0.0115, 4.2913 -1.8648 0.0197, -4.2913 -1.8648 0.0197, 4.2913 -1.8687 0.0292, -4.2913 -1.8687 0.0292, 4.3281 -1.8406 0.0292, 4.3243 -1.8497 0.0292, 4.3243 -1.8395 0.0197, 4.3209 -1.8478 0.0197, 4.3182 -1.8379 0.0115, 4.3154 -1.8446 0.0115, 4.3104 -1.8358 0.0053, 4.3084 -1.8406 0.0053, 4.3012 -1.8333 0.0013, 4.3002 -1.8358 0.0013, 4.3182 -1.8576 0.0292, 4.3154 -1.8548 0.0197, 4.311 -1.8504 0.0115, 4.3053 -1.8446 0.0053, 4.2985 -1.8379 0.0013, 4.3294 -1.8307 0.0292, 4.3254 -1.8307 0.0197, 4.3192 -1.8307 0.0115, 4.311 -1.8307 0.0053, 4.3015 -1.8307 0.0013, 4.3104 -1.8636 0.0292, 4.3012 -1.8674 0.0292, 4.3084 -1.8602 0.0197, 4.3002 -1.8636 0.0197, 4.3053 -1.8548 0.0115, 4.2985 -1.8576 0.0115, 4.3012 -1.8478 0.0053, 4.2964 -1.8497 0.0053, 4.2964 -1.8395 0.0013, 4.294 -1.8406 0.0013, 4.3296 1.8394 3.611, 4.3294 1.8409 3.611, 4.3283 1.8406 3.6201, 4.3266 1.8477 3.611, 4.3254 1.8504 3.611, 4.3245 1.8499 3.6201, 4.3219 1.8551 3.611, 4.3192 1.8585 3.611, 4.3184 1.8578 3.6201, 4.3157 1.8612 3.611, 4.311 1.8648 3.611, 4.3105 1.8639 3.6201, 4.3062 1.8347 3.6472, 4.2953 1.8455 3.6472, 4.3139 1.8368 3.6427, 4.2991 1.8597 3.6364, 4.2974 1.8533 3.6427, 4.3204 1.8385 3.6364, 4.3004 1.8646 3.6288, 4.3253 1.8398 3.6288, 4.3013 1.8677 3.6201, 4.3001 1.8689 3.611, 4.3015 1.8687 3.611, 4.3083 1.8659 3.611, 4.3089 1.8611 3.6288, 4.3064 1.8567 3.6364, 4.303 1.8509 3.6427, 4.299 1.844 3.6472, 4.3162 1.8556 3.6288, 4.3126 1.852 3.6364, 4.3078 1.8472 3.6427, 4.3022 1.8416 3.6472, 4.3218 1.8483 3.6288, 4.3174 1.8457 3.6364, 4.3116 1.8424 3.6427, 4.3046 1.8384 3.6472, -4.2953 1.8455 3.6472, -4.3062 1.8347 3.6472, -4.2974 1.8533 3.6427, -4.3204 1.8385 3.6364, -4.3139 1.8368 3.6427, -4.2991 1.8597 3.6364, -4.3253 1.8398 3.6288, -4.3004 1.8646 3.6288, -4.3283 1.8406 3.6201, -4.3046 1.8384 3.6472, -4.3116 1.8424 3.6427, -4.3174 1.8457 3.6364, -4.3218 1.8483 3.6288, -4.3245 1.8499 3.6201, -4.3022 1.8416 3.6472, -4.3078 1.8472 3.6427, -4.3126 1.852 3.6364, -4.3162 1.8556 3.6288, -4.3184 1.8578 3.6201, -4.299 1.844 3.6472, -4.303 1.8509 3.6427, -4.3064 1.8567 3.6364, -4.3089 1.8611 3.6288, -4.3105 1.8639 3.6201, -4.3013 1.8677 3.6201, -4.3294 1.8409 3.611, -4.3254 1.8504 3.611, -4.3192 1.8585 3.611, -4.311 1.8648 3.611, -4.3015 1.8687 3.611, -4.3012 -1.8674 0.0292, -4.3104 -1.8636 0.0292, -4.3002 -1.8636 0.0197, -4.3084 -1.8602 0.0197, -4.2985 -1.8576 0.0115, -4.3053 -1.8548 0.0115, -4.2964 -1.8497 0.0053, -4.3012 -1.8478 0.0053, -4.294 -1.8406 0.0013, -4.2964 -1.8395 0.0013, -4.3182 -1.8576 0.0292, -4.3154 -1.8548 0.0197, -4.311 -1.8504 0.0115, -4.3053 -1.8446 0.0053, -4.2985 -1.8379 0.0013, -4.3243 -1.8497 0.0292, -4.3281 -1.8406 0.0292, -4.3209 -1.8478 0.0197, -4.3243 -1.8395 0.0197, -4.3154 -1.8446 0.0115, -4.3182 -1.8379 0.0115, -4.3084 -1.8406 0.0053, -4.3104 -1.8358 0.0053, -4.3002 -1.8358 0.0013, -4.3012 -1.8333 0.0013, -4.3294 -1.8307 0.0292, -4.3254 -1.8307 0.0197, -4.3192 -1.8307 0.0115, -4.311 -1.8307 0.0053, -4.3015 -1.8307 0.0013, 4.3015 1.8307 0.0013, 4.311 1.8307 0.0053, 4.3192 1.8307 0.0115, 4.3254 1.8307 0.0197, 4.3294 1.8307 0.0292, 4.3296 1.8394 0.0394, 4.3294 1.8409 0.0394, 4.3266 1.8477 0.0394, 4.3254 1.8504 0.0394, 4.3219 1.8551 0.0394, 4.3192 1.8585 0.0394, 4.3157 1.8612 0.0394, 4.311 1.8648 0.0394, 4.3083 1.8659 0.0394, 4.3015 1.8687 0.0394, 4.3001 1.8689 0.0394, -4.3015 1.8687 0.0394, -4.311 1.8648 0.0394, -4.3192 1.8585 0.0394, -4.3254 1.8504 0.0394, -4.3294 1.8409 0.0394, -4.3015 1.8307 0.0013, -4.311 1.8307 0.0053, -4.3192 1.8307 0.0115, -4.3254 1.8307 0.0197, -4.3294 1.8307 0.0292, 4.3281 1.8406 0.0292, 4.3243 1.8497 0.0292, 4.3182 1.8576 0.0292, 4.3104 1.8636 0.0292, 4.3012 1.8674 0.0292, 4.3002 1.8636 0.0197, 4.3084 1.8602 0.0197, 4.2985 1.8576 0.0115, 4.3053 1.8548 0.0115, 4.2964 1.8497 0.0053, 4.3012 1.8478 0.0053, 4.294 1.8406 0.0013, 4.2964 1.8395 0.0013, 4.3154 1.8548 0.0197, 4.311 1.8504 0.0115, 4.3053 1.8446 0.0053, 4.2985 1.8379 0.0013, 4.2913 1.8687 0.0292, 4.2913 1.8648 0.0197, 4.2913 1.8585 0.0115, 4.2913 1.8504 0.0053, 4.2913 1.8409 0.0013, 4.3209 1.8478 0.0197, 4.3243 1.8395 0.0197, 4.3154 1.8446 0.0115, 4.3182 1.8379 0.0115, 4.3084 1.8406 0.0053, 4.3104 1.8358 0.0053, 4.3002 1.8358 0.0013, 4.3012 1.8333 0.0013, -4.3281 1.8406 0.0292, -4.3243 1.8497 0.0292, -4.3243 1.8395 0.0197, -4.3209 1.8478 0.0197, -4.3182 1.8379 0.0115, -4.3154 1.8446 0.0115, -4.3104 1.8358 0.0053, -4.3084 1.8406 0.0053, -4.3012 1.8333 0.0013, -4.3002 1.8358 0.0013, -4.3182 1.8576 0.0292, -4.3154 1.8548 0.0197, -4.311 1.8504 0.0115, -4.3053 1.8446 0.0053, -4.2985 1.8379 0.0013, -4.3104 1.8636 0.0292, -4.3012 1.8674 0.0292, -4.3084 1.8602 0.0197, -4.3002 1.8636 0.0197, -4.3053 1.8548 0.0115, -4.2985 1.8576 0.0115, -4.3012 1.8478 0.0053, -4.2964 1.8497 0.0053, -4.2964 1.8395 0.0013, -4.294 1.8406 0.0013, -4.2913 1.8687 0.0292, -4.2913 1.8648 0.0197, -4.2913 1.8585 0.0115, -4.2913 1.8504 0.0053, -4.2913 1.8409 0.0013, -4.2913 1.8409 0.0013
            ]
        }
        coordIndex [
            0,1,2,-1,2,1,3,-1,2,3,4,-1,5,6,7,-1,8,4,9,-1,9,4,10,-1,11,12,13,-1,13,12,1,-1,13,1,14,-1,15,16,17,-1,17,16,18,-1,17,18,19,-1,7,14,5,-1,5,14,1,-1,5,1,20,-1,20,1,0,-1,20,0,10,-1,21,22,23,-1,24,25,26,-1,26,25,27,-1,26,27,28,-1,29,30,26,-1,26,30,31,-1,32,33,34,-1,34,33,35,-1,31,36,26,-1,26,36,35,-1,26,35,37,-1,37,35,33,-1,28,38,26,-1,26,38,39,-1,26,39,29,-1,19,40,17,-1,17,40,41,-1,17,41,42,-1,42,41,43,-1,42,43,44,-1,43,45,44,-1,44,45,46,-1,44,46,23,-1,23,46,47,-1,23,47,21,-1,48,49,0,-1,0,49,50,-1,0,50,51,-1,51,52,0,-1,0,52,53,-1,0,53,10,-1,10,53,54,-1,10,54,9,-1,9,54,55,-1,9,55,26,-1,26,55,56,-1,26,56,24,-1,57,58,59,-1,59,58,60,-1,59,60,16,-1,22,48,23,-1,23,48,0,-1,23,0,61,-1,61,0,62,-1,61,62,15,-1,15,62,63,-1,15,63,16,-1,16,63,64,-1,16,64,59,-1,65,66,59,-1,59,66,2,-1,59,2,57,-1,57,2,4,-1,57,4,67,-1,67,4,8,-1,68,69,70,-1,71,2,72,-1,72,2,66,-1,72,66,73,-1,73,66,74,-1,73,74,75,-1,75,74,0,-1,70,76,68,-1,68,76,77,-1,68,77,78,-1,79,80,2,-1,2,80,81,-1,2,81,0,-1,0,81,82,-1,83,84,75,-1,75,84,85,-1,82,86,0,-1,0,86,87,-1,0,87,75,-1,75,87,88,-1,75,88,83,-1,78,79,68,-1,68,79,2,-1,68,2,89,-1,89,2,71,-1,89,71,90,-1,90,71,91,-1,85,92,75,-1,75,92,93,-1,75,93,68,-1,68,93,94,-1,68,94,69,-1,95,96,97,-1,98,99,100,-1,101,102,103,-1,104,105,106,-1,102,107,103,-1,103,107,108,-1,103,108,109,-1,104,106,110,-1,111,112,110,-1,105,113,106,-1,106,113,114,-1,106,114,115,-1,115,116,106,-1,106,116,117,-1,106,117,103,-1,103,117,118,-1,103,118,101,-1,119,120,106,-1,110,106,111,-1,111,106,120,-1,111,120,121,-1,122,123,124,-1,124,123,125,-1,126,127,125,-1,125,127,128,-1,125,128,124,-1,129,130,131,-1,119,132,133,-1,133,132,134,-1,133,134,135,-1,135,134,123,-1,135,123,136,-1,136,123,122,-1,136,122,137,-1,137,122,138,-1,137,138,130,-1,130,138,139,-1,130,139,140,-1,141,142,143,-1,143,142,144,-1,144,142,131,-1,131,142,145,-1,131,145,129,-1,146,147,130,-1,130,147,148,-1,130,148,131,-1,140,149,130,-1,130,149,150,-1,130,150,146,-1,109,151,152,-1,125,153,126,-1,126,153,152,-1,126,152,154,-1,154,152,151,-1,155,156,157,-1,106,158,159,-1,155,157,160,-1,160,157,161,-1,160,161,162,-1,162,161,163,-1,162,163,164,-1,119,106,132,-1,132,106,159,-1,132,159,165,-1,98,166,167,-1,167,166,132,-1,163,167,164,-1,164,167,132,-1,164,132,168,-1,168,132,165,-1,168,165,169,-1,169,165,170,-1,169,170,171,-1,171,170,172,-1,171,172,173,-1,173,172,174,-1,173,174,175,-1,158,106,176,-1,176,106,103,-1,176,103,177,-1,100,99,178,-1,178,99,179,-1,178,179,180,-1,181,182,183,-1,183,182,184,-1,183,184,185,-1,185,184,186,-1,185,186,180,-1,180,186,177,-1,180,177,178,-1,178,177,103,-1,187,188,189,-1,187,189,190,-1,191,192,189,-1,189,192,193,-1,194,195,196,-1,196,195,197,-1,198,199,200,-1,201,202,203,-1,203,202,204,-1,203,204,197,-1,197,204,205,-1,197,205,196,-1,200,206,198,-1,198,206,207,-1,198,207,193,-1,201,208,202,-1,202,208,193,-1,202,193,209,-1,209,193,207,-1,210,211,189,-1,189,211,212,-1,189,212,190,-1,208,213,193,-1,193,213,214,-1,193,214,189,-1,189,214,215,-1,189,215,210,-1,216,217,218,-1,219,220,198,-1,198,220,221,-1,198,221,199,-1,222,223,224,-1,223,225,224,-1,224,225,226,-1,224,226,219,-1,198,227,228,-1,193,229,230,-1,193,230,198,-1,198,230,231,-1,198,231,227,-1,232,233,234,-1,234,233,235,-1,234,235,236,-1,230,237,231,-1,231,237,233,-1,231,233,238,-1,238,233,232,-1,236,239,234,-1,234,239,240,-1,234,240,241,-1,242,243,244,-1,244,243,245,-1,242,244,96,-1,96,244,246,-1,96,246,97,-1,247,248,97,-1,247,97,249,-1,248,250,97,-1,97,250,251,-1,97,251,95,-1,219,198,224,-1,224,198,228,-1,224,228,252,-1,252,228,253,-1,252,253,254,-1,254,253,255,-1,254,255,97,-1,97,255,256,-1,97,256,249,-1,222,224,218,-1,218,224,257,-1,218,257,216,-1,216,257,258,-1,216,258,259,-1,98,100,166,-1,166,100,260,-1,166,260,261,-1,262,263,264,-1,262,192,216,-1,216,192,191,-1,216,191,217,-1,262,264,192,-1,192,264,265,-1,192,265,266,-1,267,268,266,-1,266,268,259,-1,259,268,269,-1,259,269,216,-1,216,269,270,-1,216,270,262,-1,271,272,273,-1,273,272,274,-1,273,274,275,-1,275,274,265,-1,274,276,265,-1,265,276,277,-1,265,277,266,-1,266,277,278,-1,266,278,267,-1,279,280,281,-1,281,280,270,-1,281,270,282,-1,282,270,269,-1,283,284,285,-1,286,287,266,-1,258,261,259,-1,259,261,260,-1,259,260,288,-1,289,290,287,-1,288,291,259,-1,259,291,283,-1,259,283,266,-1,266,283,285,-1,266,285,286,-1,292,293,294,-1,294,293,295,-1,294,295,296,-1,296,295,286,-1,295,297,286,-1,286,297,298,-1,286,298,287,-1,287,298,299,-1,287,299,289,-1,300,301,302,-1,302,301,291,-1,302,291,303,-1,303,291,288,-1,304,305,306,-1,304,287,260,-1,260,287,290,-1,260,290,288,-1,304,306,287,-1,287,306,307,-1,287,307,178,-1,308,309,178,-1,178,309,100,-1,100,309,310,-1,100,310,260,-1,260,310,311,-1,260,311,304,-1,312,313,314,-1,314,313,315,-1,314,315,316,-1,316,315,307,-1,315,317,307,-1,307,317,318,-1,307,318,178,-1,178,318,319,-1,178,319,308,-1,320,321,322,-1,322,321,311,-1,322,311,323,-1,323,311,310,-1,109,152,103,-1,103,152,324,-1,103,324,178,-1,178,324,325,-1,178,325,287,-1,287,325,326,-1,287,326,266,-1,266,326,327,-1,266,327,192,-1,192,327,244,-1,192,244,193,-1,193,244,245,-1,193,245,229,-1,134,328,123,-1,123,328,329,-1,123,329,125,-1,125,329,330,-1,125,330,153,-1,153,330,331,-1,332,333,334,-1,334,333,335,-1,336,337,338,-1,339,340,341,-1,341,340,342,-1,343,344,345,-1,345,344,346,-1,345,346,347,-1,347,348,345,-1,345,348,349,-1,345,349,333,-1,333,349,350,-1,333,350,335,-1,342,351,341,-1,341,351,352,-1,341,352,336,-1,336,352,353,-1,336,353,337,-1,338,354,336,-1,336,354,355,-1,336,355,345,-1,345,355,356,-1,345,356,343,-1,332,357,333,-1,333,357,358,-1,333,358,341,-1,341,358,359,-1,341,359,339,-1,360,361,362,-1,362,361,363,-1,364,365,366,-1,367,368,369,-1,369,368,370,-1,371,372,373,-1,373,372,374,-1,373,374,375,-1,370,376,369,-1,369,376,377,-1,369,377,373,-1,373,377,378,-1,373,378,371,-1,379,380,381,-1,381,380,382,-1,379,383,380,-1,380,383,384,-1,380,384,366,-1,366,384,385,-1,366,385,364,-1,365,386,366,-1,366,386,387,-1,366,387,369,-1,369,387,388,-1,369,388,367,-1,375,389,373,-1,373,389,390,-1,373,390,380,-1,380,390,391,-1,380,391,382,-1,392,393,394,-1,394,393,395,-1,396,397,398,-1,398,397,399,-1,400,401,402,-1,402,401,403,-1,404,405,406,-1,406,405,407,-1,408,409,410,-1,410,409,411,-1,153,331,396,-1,246,244,398,-1,398,244,327,-1,153,396,152,-1,327,326,398,-1,398,326,325,-1,398,325,396,-1,396,325,324,-1,396,324,152,-1,412,246,413,-1,246,412,414,-1,398,413,246,-1,415,416,246,-1,417,246,418,-1,246,417,400,-1,416,418,246,-1,414,415,246,-1,419,331,420,-1,331,419,421,-1,407,420,331,-1,422,423,331,-1,424,331,425,-1,331,424,396,-1,423,425,331,-1,421,422,331,-1,398,399,413,-1,413,399,426,-1,413,426,412,-1,412,426,427,-1,412,427,414,-1,414,427,428,-1,414,428,415,-1,415,428,429,-1,415,429,416,-1,416,429,430,-1,401,400,431,-1,431,400,417,-1,431,417,430,-1,430,417,418,-1,430,418,416,-1,97,246,400,-1,97,400,254,-1,254,400,402,-1,254,402,252,-1,328,134,410,-1,410,134,132,-1,224,252,408,-1,224,408,257,-1,132,166,410,-1,410,166,261,-1,410,261,408,-1,408,261,258,-1,408,258,257,-1,331,330,407,-1,407,330,329,-1,407,329,406,-1,406,329,328,-1,397,396,432,-1,432,396,424,-1,432,424,433,-1,407,405,420,-1,420,405,434,-1,420,434,419,-1,419,434,435,-1,419,435,421,-1,421,435,436,-1,421,436,422,-1,422,436,437,-1,422,437,423,-1,423,437,433,-1,423,433,425,-1,425,433,424,-1,363,361,438,-1,399,397,439,-1,439,397,440,-1,439,440,441,-1,441,440,442,-1,441,442,443,-1,443,442,444,-1,443,444,445,-1,445,444,446,-1,445,446,447,-1,447,446,448,-1,447,448,449,-1,449,448,450,-1,449,450,451,-1,451,450,452,-1,451,452,453,-1,453,452,454,-1,453,454,455,-1,455,454,456,-1,455,456,438,-1,438,456,457,-1,438,457,363,-1,458,459,460,-1,461,462,463,-1,464,465,466,-1,467,468,469,-1,470,426,399,-1,401,431,471,-1,471,431,472,-1,471,472,473,-1,399,439,470,-1,470,439,441,-1,470,441,474,-1,473,472,475,-1,475,472,476,-1,475,476,477,-1,477,476,478,-1,477,478,479,-1,441,443,474,-1,474,443,445,-1,474,445,480,-1,479,478,481,-1,481,478,482,-1,481,482,483,-1,445,447,480,-1,480,447,449,-1,480,449,484,-1,483,482,485,-1,485,482,469,-1,485,469,486,-1,427,426,487,-1,487,426,470,-1,487,470,488,-1,488,470,474,-1,488,474,489,-1,489,474,480,-1,489,480,490,-1,490,480,484,-1,490,484,491,-1,491,484,492,-1,486,469,493,-1,493,469,468,-1,493,468,369,-1,465,467,466,-1,466,467,469,-1,466,469,494,-1,494,469,482,-1,494,482,495,-1,495,482,478,-1,495,478,496,-1,496,478,476,-1,496,476,497,-1,497,476,472,-1,497,472,430,-1,430,472,431,-1,462,464,463,-1,463,464,466,-1,463,466,498,-1,498,466,494,-1,498,494,499,-1,499,494,495,-1,499,495,500,-1,500,495,496,-1,500,496,501,-1,501,496,497,-1,501,497,429,-1,429,497,430,-1,459,461,460,-1,460,461,463,-1,460,463,502,-1,502,463,498,-1,502,498,503,-1,503,498,499,-1,503,499,504,-1,504,499,500,-1,504,500,505,-1,505,500,501,-1,505,501,428,-1,428,501,429,-1,506,458,491,-1,491,458,460,-1,491,460,490,-1,490,460,502,-1,490,502,489,-1,489,502,503,-1,489,503,488,-1,488,503,504,-1,488,504,487,-1,487,504,505,-1,487,505,427,-1,427,505,428,-1,449,451,484,-1,484,451,453,-1,484,453,492,-1,492,453,455,-1,492,455,438,-1,506,491,507,-1,507,491,492,-1,507,492,508,-1,508,492,438,-1,508,438,361,-1,509,252,510,-1,252,509,511,-1,402,510,252,-1,512,252,513,-1,252,512,408,-1,511,513,252,-1,514,328,515,-1,328,514,516,-1,410,515,328,-1,517,328,518,-1,328,517,406,-1,516,518,328,-1,519,520,521,-1,522,523,524,-1,525,526,527,-1,528,529,530,-1,531,434,405,-1,397,432,440,-1,440,432,532,-1,440,532,442,-1,405,533,531,-1,531,533,534,-1,531,534,535,-1,442,532,444,-1,444,532,536,-1,444,536,446,-1,446,536,537,-1,446,537,448,-1,534,538,535,-1,535,538,539,-1,535,539,540,-1,448,537,450,-1,450,537,541,-1,450,541,452,-1,539,542,540,-1,540,542,543,-1,540,543,544,-1,452,541,454,-1,454,541,530,-1,454,530,456,-1,435,434,545,-1,545,434,531,-1,545,531,546,-1,546,531,535,-1,546,535,547,-1,547,535,540,-1,547,540,548,-1,548,540,544,-1,548,544,549,-1,549,544,550,-1,456,530,457,-1,457,530,529,-1,457,529,363,-1,526,528,527,-1,527,528,530,-1,527,530,551,-1,551,530,541,-1,551,541,552,-1,552,541,537,-1,552,537,553,-1,553,537,536,-1,553,536,554,-1,554,536,532,-1,554,532,433,-1,433,532,432,-1,523,525,524,-1,524,525,527,-1,524,527,555,-1,555,527,551,-1,555,551,556,-1,556,551,552,-1,556,552,557,-1,557,552,553,-1,557,553,558,-1,558,553,554,-1,558,554,437,-1,437,554,433,-1,520,522,521,-1,521,522,524,-1,521,524,559,-1,559,524,555,-1,559,555,560,-1,560,555,556,-1,560,556,561,-1,561,556,557,-1,561,557,562,-1,562,557,558,-1,562,558,436,-1,436,558,437,-1,563,519,549,-1,549,519,521,-1,549,521,548,-1,548,521,559,-1,548,559,547,-1,547,559,560,-1,547,560,546,-1,546,560,561,-1,546,561,545,-1,545,561,562,-1,545,562,435,-1,435,562,436,-1,543,564,544,-1,544,564,565,-1,544,565,550,-1,550,565,566,-1,550,566,567,-1,563,549,568,-1,568,549,550,-1,568,550,569,-1,569,550,567,-1,569,567,333,-1,508,361,360,-1,508,360,507,-1,507,360,570,-1,507,570,506,-1,506,570,458,-1,458,570,571,-1,458,571,459,-1,459,571,461,-1,461,571,572,-1,461,572,462,-1,462,572,573,-1,462,573,464,-1,464,573,465,-1,465,573,574,-1,465,574,467,-1,467,574,468,-1,468,574,366,-1,468,366,369,-1,369,373,575,-1,403,401,576,-1,576,401,471,-1,576,471,577,-1,577,471,473,-1,577,473,578,-1,578,473,475,-1,578,475,579,-1,579,475,477,-1,579,477,580,-1,580,477,479,-1,580,479,581,-1,581,479,481,-1,581,481,582,-1,582,481,483,-1,582,483,583,-1,583,483,485,-1,583,485,584,-1,584,485,486,-1,584,486,575,-1,575,486,493,-1,575,493,369,-1,402,403,510,-1,510,403,585,-1,510,585,509,-1,509,585,586,-1,509,586,511,-1,511,586,587,-1,511,587,513,-1,513,587,588,-1,513,588,512,-1,512,588,589,-1,512,589,408,-1,408,589,409,-1,395,393,590,-1,411,409,591,-1,591,409,592,-1,591,592,593,-1,593,592,594,-1,593,594,595,-1,595,594,596,-1,595,596,597,-1,597,596,598,-1,597,598,599,-1,599,598,600,-1,599,600,601,-1,601,600,602,-1,601,602,603,-1,603,602,604,-1,603,604,605,-1,605,604,606,-1,605,606,607,-1,607,606,608,-1,607,608,590,-1,590,608,609,-1,590,609,395,-1,404,406,610,-1,610,406,517,-1,610,517,611,-1,611,517,518,-1,611,518,612,-1,612,518,516,-1,612,516,613,-1,613,516,514,-1,613,514,614,-1,614,514,515,-1,614,515,411,-1,411,515,410,-1,345,333,567,-1,405,404,533,-1,533,404,615,-1,533,615,534,-1,534,615,616,-1,534,616,538,-1,538,616,617,-1,538,617,539,-1,539,617,618,-1,539,618,542,-1,542,618,619,-1,542,619,543,-1,543,619,620,-1,543,620,564,-1,564,620,621,-1,564,621,565,-1,565,621,622,-1,565,622,566,-1,566,622,623,-1,566,623,567,-1,567,623,624,-1,567,624,345,-1,569,333,341,-1,569,341,568,-1,568,341,625,-1,568,625,563,-1,563,625,519,-1,519,625,626,-1,519,626,520,-1,520,626,522,-1,522,626,627,-1,522,627,523,-1,523,627,628,-1,523,628,525,-1,525,628,526,-1,526,628,629,-1,526,629,528,-1,528,629,529,-1,529,629,362,-1,529,362,363,-1,65,64,630,-1,65,630,631,-1,631,630,632,-1,631,632,633,-1,633,632,634,-1,633,634,635,-1,635,634,636,-1,635,636,637,-1,637,636,638,-1,637,638,639,-1,639,638,360,-1,639,360,362,-1,574,573,640,-1,640,573,641,-1,640,641,642,-1,642,641,643,-1,642,643,644,-1,644,643,645,-1,644,645,646,-1,646,645,647,-1,646,647,648,-1,648,647,649,-1,648,649,64,-1,573,572,641,-1,641,572,650,-1,641,650,643,-1,643,650,651,-1,643,651,645,-1,645,651,652,-1,645,652,647,-1,647,652,653,-1,647,653,649,-1,649,653,654,-1,649,654,64,-1,366,574,655,-1,655,574,640,-1,655,640,656,-1,656,640,642,-1,656,642,657,-1,657,642,644,-1,657,644,658,-1,658,644,646,-1,658,646,659,-1,659,646,648,-1,659,648,64,-1,571,570,660,-1,660,570,661,-1,660,661,662,-1,662,661,663,-1,662,663,664,-1,664,663,665,-1,664,665,666,-1,666,665,667,-1,666,667,668,-1,668,667,669,-1,668,669,64,-1,570,360,661,-1,661,360,638,-1,661,638,663,-1,663,638,636,-1,663,636,665,-1,665,636,634,-1,665,634,667,-1,667,634,632,-1,667,632,669,-1,669,632,630,-1,669,630,64,-1,572,571,650,-1,650,571,660,-1,650,660,651,-1,651,660,662,-1,651,662,652,-1,652,662,664,-1,652,664,653,-1,653,664,666,-1,653,666,654,-1,654,666,668,-1,654,668,64,-1,670,671,672,-1,673,674,675,-1,676,677,678,-1,679,680,681,-1,682,585,403,-1,683,592,589,-1,589,592,409,-1,403,576,682,-1,682,576,577,-1,682,577,684,-1,685,598,686,-1,686,598,596,-1,686,596,683,-1,683,596,594,-1,683,594,592,-1,577,578,684,-1,684,578,579,-1,684,579,687,-1,688,602,685,-1,685,602,600,-1,685,600,598,-1,579,580,687,-1,687,580,581,-1,687,581,689,-1,609,608,690,-1,690,608,606,-1,690,606,688,-1,688,606,604,-1,688,604,602,-1,581,582,689,-1,689,582,583,-1,689,583,672,-1,395,609,691,-1,691,609,690,-1,691,690,692,-1,692,690,693,-1,680,693,681,-1,681,693,690,-1,681,690,694,-1,694,690,688,-1,694,688,695,-1,695,688,685,-1,695,685,696,-1,696,685,686,-1,696,686,697,-1,697,686,683,-1,697,683,588,-1,588,683,589,-1,677,679,678,-1,678,679,681,-1,678,681,698,-1,698,681,694,-1,698,694,699,-1,699,694,695,-1,699,695,700,-1,700,695,696,-1,700,696,701,-1,701,696,697,-1,701,697,587,-1,587,697,588,-1,674,676,675,-1,675,676,678,-1,675,678,702,-1,702,678,698,-1,702,698,703,-1,703,698,699,-1,703,699,704,-1,704,699,700,-1,704,700,705,-1,705,700,701,-1,705,701,586,-1,586,701,587,-1,671,673,672,-1,672,673,675,-1,672,675,689,-1,689,675,702,-1,689,702,687,-1,687,702,703,-1,687,703,684,-1,684,703,704,-1,684,704,682,-1,682,704,705,-1,682,705,585,-1,585,705,586,-1,373,670,575,-1,575,670,672,-1,575,672,584,-1,584,672,583,-1,706,614,411,-1,707,615,610,-1,610,615,404,-1,411,591,706,-1,706,591,593,-1,706,593,708,-1,709,618,710,-1,710,618,617,-1,710,617,707,-1,707,617,616,-1,707,616,615,-1,593,595,708,-1,708,595,597,-1,708,597,711,-1,712,620,709,-1,709,620,619,-1,709,619,618,-1,597,599,711,-1,711,599,601,-1,711,601,713,-1,624,623,714,-1,714,623,622,-1,714,622,712,-1,712,622,621,-1,712,621,620,-1,610,611,707,-1,707,611,715,-1,707,715,710,-1,710,715,716,-1,710,716,709,-1,709,716,717,-1,709,717,712,-1,712,717,718,-1,712,718,714,-1,714,718,719,-1,611,612,715,-1,715,612,720,-1,715,720,716,-1,716,720,721,-1,716,721,717,-1,717,721,722,-1,717,722,718,-1,718,722,723,-1,718,723,719,-1,719,723,724,-1,612,613,720,-1,720,613,725,-1,720,725,721,-1,721,725,726,-1,721,726,722,-1,722,726,727,-1,722,727,723,-1,723,727,728,-1,723,728,724,-1,724,728,729,-1,613,614,725,-1,725,614,706,-1,725,706,726,-1,726,706,708,-1,726,708,727,-1,727,708,711,-1,727,711,728,-1,728,711,713,-1,728,713,729,-1,729,713,730,-1,731,345,624,-1,601,603,713,-1,713,603,605,-1,713,605,730,-1,730,605,607,-1,730,607,590,-1,624,714,731,-1,731,714,719,-1,731,719,732,-1,732,719,724,-1,732,724,733,-1,733,724,729,-1,733,729,734,-1,734,729,730,-1,734,730,735,-1,735,730,590,-1,735,590,393,-1,629,628,736,-1,736,628,737,-1,736,737,738,-1,738,737,739,-1,738,739,740,-1,740,739,741,-1,740,741,742,-1,742,741,743,-1,742,743,744,-1,744,743,745,-1,744,745,65,-1,628,627,737,-1,737,627,746,-1,737,746,739,-1,739,746,747,-1,739,747,741,-1,741,747,748,-1,741,748,743,-1,743,748,749,-1,743,749,745,-1,745,749,750,-1,745,750,65,-1,362,629,639,-1,639,629,736,-1,639,736,637,-1,637,736,738,-1,637,738,635,-1,635,738,740,-1,635,740,633,-1,633,740,742,-1,633,742,631,-1,631,742,744,-1,631,744,65,-1,626,625,751,-1,751,625,752,-1,751,752,753,-1,753,752,754,-1,753,754,755,-1,755,754,756,-1,755,756,757,-1,757,756,758,-1,757,758,759,-1,759,758,760,-1,759,760,65,-1,625,341,752,-1,752,341,761,-1,752,761,754,-1,754,761,762,-1,754,762,756,-1,756,762,763,-1,756,763,758,-1,758,763,764,-1,758,764,760,-1,760,764,765,-1,760,765,65,-1,627,626,746,-1,746,626,751,-1,746,751,747,-1,747,751,753,-1,747,753,748,-1,748,753,755,-1,748,755,749,-1,749,755,757,-1,749,757,750,-1,750,757,759,-1,750,759,65,-1,64,62,766,-1,64,766,659,-1,659,766,767,-1,659,767,658,-1,658,767,768,-1,658,768,657,-1,657,768,769,-1,657,769,656,-1,656,769,770,-1,656,770,655,-1,655,770,380,-1,655,380,366,-1,380,771,373,-1,373,771,670,-1,670,771,671,-1,671,771,772,-1,671,772,673,-1,673,772,773,-1,673,773,674,-1,674,773,774,-1,674,774,676,-1,676,774,775,-1,676,775,677,-1,677,775,776,-1,677,776,679,-1,679,776,777,-1,679,777,680,-1,680,777,778,-1,680,778,693,-1,693,778,779,-1,693,779,692,-1,692,779,780,-1,692,780,691,-1,780,781,691,-1,691,781,394,-1,691,394,395,-1,393,392,782,-1,393,782,735,-1,735,782,783,-1,735,783,734,-1,734,783,784,-1,734,784,733,-1,733,784,785,-1,733,785,732,-1,732,785,786,-1,732,786,731,-1,731,786,336,-1,731,336,345,-1,74,65,765,-1,74,765,787,-1,787,765,764,-1,787,764,788,-1,788,764,763,-1,788,763,789,-1,789,763,762,-1,789,762,790,-1,790,762,761,-1,790,761,791,-1,791,761,341,-1,791,341,336,-1,771,380,770,-1,773,772,792,-1,775,774,793,-1,777,776,794,-1,779,778,795,-1,781,780,796,-1,780,779,796,-1,796,779,795,-1,796,795,797,-1,797,795,798,-1,797,798,799,-1,799,798,800,-1,799,800,801,-1,801,800,802,-1,801,802,803,-1,803,802,804,-1,803,804,62,-1,778,777,795,-1,795,777,794,-1,795,794,798,-1,798,794,805,-1,798,805,800,-1,800,805,806,-1,800,806,802,-1,802,806,807,-1,802,807,804,-1,804,807,808,-1,804,808,62,-1,394,781,809,-1,809,781,796,-1,809,796,810,-1,810,796,797,-1,810,797,811,-1,811,797,799,-1,811,799,812,-1,812,799,801,-1,812,801,813,-1,813,801,803,-1,813,803,62,-1,774,773,793,-1,793,773,792,-1,793,792,814,-1,814,792,815,-1,814,815,816,-1,816,815,817,-1,816,817,818,-1,818,817,819,-1,818,819,820,-1,820,819,821,-1,820,821,62,-1,772,771,792,-1,792,771,770,-1,792,770,815,-1,815,770,769,-1,815,769,817,-1,817,769,768,-1,817,768,819,-1,819,768,767,-1,819,767,821,-1,821,767,766,-1,821,766,62,-1,776,775,794,-1,794,775,793,-1,794,793,805,-1,805,793,814,-1,805,814,806,-1,806,814,816,-1,806,816,807,-1,807,816,818,-1,807,818,808,-1,808,818,820,-1,808,820,62,-1,786,785,822,-1,822,785,823,-1,822,823,824,-1,824,823,825,-1,824,825,826,-1,826,825,827,-1,826,827,828,-1,828,827,829,-1,828,829,830,-1,830,829,831,-1,830,831,74,-1,785,784,823,-1,823,784,832,-1,823,832,825,-1,825,832,833,-1,825,833,827,-1,827,833,834,-1,827,834,829,-1,829,834,835,-1,829,835,831,-1,831,835,836,-1,831,836,74,-1,336,786,791,-1,791,786,822,-1,791,822,790,-1,790,822,824,-1,790,824,789,-1,789,824,826,-1,789,826,788,-1,788,826,828,-1,788,828,787,-1,787,828,830,-1,787,830,74,-1,783,782,837,-1,837,782,838,-1,837,838,839,-1,839,838,840,-1,839,840,841,-1,841,840,842,-1,841,842,843,-1,843,842,844,-1,843,844,845,-1,845,844,846,-1,845,846,74,-1,782,392,838,-1,838,392,847,-1,838,847,840,-1,840,847,848,-1,840,848,842,-1,842,848,849,-1,842,849,844,-1,844,849,850,-1,844,850,846,-1,846,850,851,-1,846,851,74,-1,784,783,832,-1,832,783,837,-1,832,837,833,-1,833,837,839,-1,833,839,834,-1,834,839,841,-1,834,841,835,-1,835,841,843,-1,835,843,836,-1,836,843,845,-1,836,845,74,-1,62,74,851,-1,62,851,813,-1,813,851,850,-1,813,850,812,-1,812,850,849,-1,812,849,811,-1,811,849,848,-1,811,848,810,-1,810,848,847,-1,810,847,809,-1,809,847,392,-1,809,392,394,-1,
        ]
    }
}
Shape{
    appearance Appearance {
        material  Material 	{
            diffuseColor 0.8509803921568627 0.8509803921568627 0.8509803921568627
            specularColor 0.4235294117647059 0.4235294117647059 0.4235294117647059
            ambientIntensity 0.2
            transparency 0
            shininess 0.5
        }
    }
    geometry IndexedFaceSet {
        ccw TRUE
        solid FALSE
        coord DEF co Coordinate {
            point [
                5.3959 -0.0669 -1.378, 5.3825 -0.0346 -1.378, 5.5118 -0.0 -1.378, 5.378 -0.0 -1.378, 5.3825 0.0346 -1.378, 5.4772 -0.1293 -1.378, 5.4449 -0.1159 -1.378, 5.4172 -0.0947 -1.378, 5.5787 -0.1159 -1.378, 5.5465 -0.1293 -1.378, 5.5118 -0.1339 -1.378, 5.6411 -0.0346 -1.378, 5.6277 -0.0669 -1.378, 5.6065 -0.0947 -1.378, 5.6277 0.0669 -1.378, 5.6411 0.0346 -1.378, 5.6457 -0.0 -1.378, 5.5465 0.1293 -1.378, 5.5787 0.1159 -1.378, 5.6065 0.0947 -1.378, 5.4449 0.1159 -1.378, 5.4772 0.1293 -1.378, 5.5118 0.1339 -1.378, 5.3959 0.0669 -1.378, 5.4172 0.0947 -1.378, 5.6457 -0.0 1.1951, 5.6411 0.0346 1.1951, 5.6277 0.0669 1.1951, 5.6065 0.0947 1.1951, 5.5787 0.1159 1.1951, 5.5465 0.1293 1.1951, 5.5118 0.1339 1.1951, 5.4772 0.1293 1.1951, 5.4449 0.1159 1.1951, 5.4172 0.0947 1.1951, 5.3959 0.0669 1.1951, 5.3825 0.0346 1.1951, 5.378 -0.0 1.1951, 5.3825 -0.0346 1.1951, 5.3959 -0.0669 1.1951, 5.4172 -0.0947 1.1951, 5.4449 -0.1159 1.1951, 5.4772 -0.1293 1.1951, 5.5118 -0.1339 1.1951, 5.5465 -0.1293 1.1951, 5.5787 -0.1159 1.1951, 5.6065 -0.0947 1.1951, 5.6277 -0.0669 1.1951, 5.6411 -0.0346 1.1951, 4.8368 -0.0 1.7362, 4.9424 -0.0 1.7258, 4.8368 -0.0346 1.7408, 4.9433 -0.0346 1.7303, 4.8368 -0.0669 1.7542, 4.9459 -0.0669 1.7434, 4.8368 -0.0947 1.7754, 4.95 -0.0947 1.7643, 4.8368 -0.1159 1.8031, 4.9554 -0.1159 1.7915, 4.8368 -0.1293 1.8354, 4.9617 -0.1293 1.8231, 4.8368 -0.1339 1.8701, 4.9685 -0.1339 1.8571, 4.8368 -0.1293 1.9047, 4.9753 -0.1293 1.8911, 4.8368 -0.1159 1.937, 4.9815 -0.1159 1.9228, 4.8368 -0.0947 1.9647, 4.987 -0.0947 1.9499, 4.8368 -0.0669 1.986, 4.9911 -0.0669 1.9708, 4.8368 -0.0346 1.9994, 4.9937 -0.0346 1.9839, 4.8368 -0.0 2.0039, 4.9946 -0.0 1.9884, 4.8368 0.0346 1.9994, 4.9937 0.0346 1.9839, 4.8368 0.0669 1.986, 4.9911 0.0669 1.9708, 4.8368 0.0947 1.9647, 4.987 0.0947 1.9499, 4.8368 0.1159 1.937, 4.9815 0.1159 1.9228, 4.8368 0.1293 1.9047, 4.9753 0.1293 1.8911, 4.8368 0.1339 1.8701, 4.9685 0.1339 1.8571, 4.8368 0.1293 1.8354, 4.9617 0.1293 1.8231, 4.8368 0.1159 1.8031, 4.9554 0.1159 1.7915, 4.8368 0.0947 1.7754, 4.95 0.0947 1.7643, 4.8368 0.0669 1.7542, 4.9459 0.0669 1.7434, 4.8368 0.0346 1.7408, 4.9433 0.0346 1.7303, 5.0439 -0.0 1.695, 5.0456 -0.0346 1.6992, 5.0508 -0.0669 1.7116, 5.0589 -0.0947 1.7313, 5.0695 -0.1159 1.7569, 5.0819 -0.1293 1.7867, 5.0951 -0.1339 1.8187, 5.1084 -0.1293 1.8507, 5.1207 -0.1159 1.8805, 5.1313 -0.0947 1.9061, 5.1395 -0.0669 1.9258, 5.1446 -0.0346 1.9382, 5.1463 -0.0 1.9424, 5.1446 0.0346 1.9382, 5.1395 0.0669 1.9258, 5.1313 0.0947 1.9061, 5.1207 0.1159 1.8805, 5.1084 0.1293 1.8507, 5.0951 0.1339 1.8187, 5.0819 0.1293 1.7867, 5.0695 0.1159 1.7569, 5.0589 0.0947 1.7313, 5.0508 0.0669 1.7116, 5.0456 0.0346 1.6992, 5.1375 -0.0 1.645, 5.14 -0.0346 1.6488, 5.1474 -0.0669 1.6599, 5.1592 -0.0947 1.6776, 5.1746 -0.1159 1.7007, 5.1926 -0.1293 1.7275, 5.2118 -0.1339 1.7563, 5.2311 -0.1293 1.7851, 5.249 -0.1159 1.812, 5.2644 -0.0947 1.835, 5.2762 -0.0669 1.8527, 5.2837 -0.0346 1.8638, 5.2862 -0.0 1.8676, 5.2837 0.0346 1.8638, 5.2762 0.0669 1.8527, 5.2644 0.0947 1.835, 5.249 0.1159 1.812, 5.2311 0.1293 1.7851, 5.2118 0.1339 1.7563, 5.1926 0.1293 1.7275, 5.1746 0.1159 1.7007, 5.1592 0.0947 1.6776, 5.1474 0.0669 1.6599, 5.14 0.0346 1.6488, 5.2195 -0.0 1.5777, 5.2227 -0.0346 1.5809, 5.2321 -0.0669 1.5904, 5.2472 -0.0947 1.6054, 5.2668 -0.1159 1.625, 5.2896 -0.1293 1.6479, 5.3141 -0.1339 1.6724, 5.3386 -0.1293 1.6969, 5.3614 -0.1159 1.7197, 5.381 -0.0947 1.7393, 5.3961 -0.0669 1.7543, 5.4055 -0.0346 1.7638, 5.4088 -0.0 1.767, 5.4055 0.0346 1.7638, 5.3961 0.0669 1.7543, 5.381 0.0947 1.7393, 5.3614 0.1159 1.7197, 5.3386 0.1293 1.6969, 5.3141 0.1339 1.6724, 5.2896 0.1293 1.6479, 5.2668 0.1159 1.625, 5.2472 0.0947 1.6054, 5.2321 0.0669 1.5904, 5.2227 0.0346 1.5809, 5.2868 -0.0 1.4957, 5.2905 -0.0346 1.4983, 5.3017 -0.0669 1.5057, 5.3194 -0.0947 1.5175, 5.3424 -0.1159 1.5329, 5.3692 -0.1293 1.5508, 5.3981 -0.1339 1.5701, 5.4269 -0.1293 1.5893, 5.4537 -0.1159 1.6073, 5.4768 -0.0947 1.6227, 5.4944 -0.0669 1.6345, 5.5056 -0.0346 1.6419, 5.5094 -0.0 1.6445, 5.5056 0.0346 1.6419, 5.4944 0.0669 1.6345, 5.4768 0.0947 1.6227, 5.4537 0.1159 1.6073, 5.4269 0.1293 1.5893, 5.3981 0.1339 1.5701, 5.3692 0.1293 1.5508, 5.3424 0.1159 1.5329, 5.3194 0.0947 1.5175, 5.3017 0.0669 1.5057, 5.2905 0.0346 1.4983, 5.3368 -0.0 1.4022, 5.341 -0.0346 1.4039, 5.3533 -0.0669 1.409, 5.373 -0.0947 1.4172, 5.3986 -0.1159 1.4278, 5.4284 -0.1293 1.4401, 5.4604 -0.1339 1.4534, 5.4924 -0.1293 1.4666, 5.5223 -0.1159 1.479, 5.5479 -0.0947 1.4896, 5.5675 -0.0669 1.4977, 5.5799 -0.0346 1.5029, 5.5841 -0.0 1.5046, 5.5799 0.0346 1.5029, 5.5675 0.0669 1.4977, 5.5479 0.0947 1.4896, 5.5223 0.1159 1.479, 5.4924 0.1293 1.4666, 5.4604 0.1339 1.4534, 5.4284 0.1293 1.4401, 5.3986 0.1159 1.4278, 5.373 0.0947 1.4172, 5.3533 0.0669 1.409, 5.341 0.0346 1.4039, 5.3676 -0.0 1.3006, 5.372 -0.0346 1.3015, 5.3851 -0.0669 1.3041, 5.406 -0.0947 1.3083, 5.4332 -0.1159 1.3137, 5.4649 -0.1293 1.32, 5.4988 -0.1339 1.3268, 5.5328 -0.1293 1.3335, 5.5645 -0.1159 1.3398, 5.5917 -0.0947 1.3452, 5.6125 -0.0669 1.3494, 5.6257 -0.0346 1.352, 5.6301 -0.0 1.3529, 5.6257 0.0346 1.352, 5.6125 0.0669 1.3494, 5.5917 0.0947 1.3452, 5.5645 0.1159 1.3398, 5.5328 0.1293 1.3335, 5.4988 0.1339 1.3268, 5.4649 0.1293 1.32, 5.4332 0.1159 1.3137, 5.406 0.0947 1.3083, 5.3851 0.0669 1.3041, 5.372 0.0346 1.3015, 4.3307 -0.0 2.0039, 4.3307 0.0346 1.9994, 4.3307 0.0669 1.986, 4.3307 0.0947 1.9647, 4.3307 0.1159 1.937, 4.3307 0.1293 1.9047, 4.3307 0.1339 1.8701, 4.3307 0.1293 1.8354, 4.3307 0.1159 1.8031, 4.3307 0.0947 1.7754, 4.3307 0.0669 1.7542, 4.3307 0.0346 1.7408, 4.3307 -0.0 1.7362, 4.3307 -0.0346 1.7408, 4.3307 -0.0669 1.7542, 4.3307 -0.0947 1.7754, 4.3307 -0.1159 1.8031, 4.3307 -0.1293 1.8354, 4.3307 -0.1339 1.8701, 4.3307 -0.1293 1.9047, 4.3307 -0.1159 1.937, 4.3307 -0.0947 1.9647, 4.3307 -0.0669 1.986, 4.3307 -0.0346 1.9994, -4.8368 -0.0 2.0039, -4.3307 0.0346 1.9994, -4.8368 0.0346 1.9994, -4.3307 0.0669 1.986, -4.8368 0.0669 1.986, -4.3307 0.0947 1.9647, -4.8368 0.0947 1.9647, -4.3307 0.1159 1.937, -4.8368 0.1159 1.937, -4.3307 0.1293 1.9047, -4.8368 0.1293 1.9047, -4.3307 0.1339 1.8701, -4.8368 0.1339 1.8701, -4.3307 0.1293 1.8354, -4.8368 0.1293 1.8354, -4.3307 0.1159 1.8031, -4.8368 0.1159 1.8031, -4.3307 0.0947 1.7754, -4.8368 0.0947 1.7754, -4.3307 0.0669 1.7542, -4.8368 0.0669 1.7542, -4.3307 0.0346 1.7408, -4.8368 0.0346 1.7408, -4.3307 -0.0 1.7362, -4.8368 -0.0 1.7362, -4.3307 -0.0346 1.7408, -4.8368 -0.0346 1.7408, -4.3307 -0.0669 1.7542, -4.8368 -0.0669 1.7542, -4.3307 -0.0947 1.7754, -4.8368 -0.0947 1.7754, -4.3307 -0.1159 1.8031, -4.8368 -0.1159 1.8031, -4.3307 -0.1293 1.8354, -4.8368 -0.1293 1.8354, -4.3307 -0.1339 1.8701, -4.8368 -0.1339 1.8701, -4.3307 -0.1293 1.9047, -4.8368 -0.1293 1.9047, -4.3307 -0.1159 1.937, -4.8368 -0.1159 1.937, -4.3307 -0.0947 1.9647, -4.8368 -0.0947 1.9647, -4.3307 -0.0669 1.986, -4.8368 -0.0669 1.986, -4.3307 -0.0346 1.9994, -4.8368 -0.0346 1.9994, -4.3307 -0.0 2.0039, -5.3959 0.0669 -1.378, -5.3825 0.0346 -1.378, -5.5118 -0.0 -1.378, -5.378 -0.0 -1.378, -5.3825 -0.0346 -1.378, -5.4772 0.1293 -1.378, -5.4449 0.1159 -1.378, -5.4172 0.0947 -1.378, -5.5787 0.1159 -1.378, -5.5465 0.1293 -1.378, -5.5118 0.1339 -1.378, -5.6411 0.0346 -1.378, -5.6277 0.0669 -1.378, -5.6065 0.0947 -1.378, -5.6277 -0.0669 -1.378, -5.6411 -0.0346 -1.378, -5.6457 -0.0 -1.378, -5.5465 -0.1293 -1.378, -5.5787 -0.1159 -1.378, -5.6065 -0.0947 -1.378, -5.4449 -0.1159 -1.378, -5.4772 -0.1293 -1.378, -5.5118 -0.1339 -1.378, -5.3959 -0.0669 -1.378, -5.4172 -0.0947 -1.378, -5.378 -0.0 1.1951, -5.3676 -0.0 1.3006, -5.3825 -0.0346 1.1951, -5.372 -0.0346 1.3015, -5.3959 -0.0669 1.1951, -5.3851 -0.0669 1.3041, -5.4172 -0.0947 1.1951, -5.406 -0.0947 1.3083, -5.4449 -0.1159 1.1951, -5.4332 -0.1159 1.3137, -5.4772 -0.1293 1.1951, -5.4649 -0.1293 1.32, -5.5118 -0.1339 1.1951, -5.4988 -0.1339 1.3268, -5.5465 -0.1293 1.1951, -5.5328 -0.1293 1.3335, -5.5787 -0.1159 1.1951, -5.5645 -0.1159 1.3398, -5.6065 -0.0947 1.1951, -5.5917 -0.0947 1.3452, -5.6277 -0.0669 1.1951, -5.6125 -0.0669 1.3494, -5.6411 -0.0346 1.1951, -5.6257 -0.0346 1.352, -5.6457 -0.0 1.1951, -5.6301 -0.0 1.3529, -5.6411 0.0346 1.1951, -5.6257 0.0346 1.352, -5.6277 0.0669 1.1951, -5.6125 0.0669 1.3494, -5.6065 0.0947 1.1951, -5.5917 0.0947 1.3452, -5.5787 0.1159 1.1951, -5.5645 0.1159 1.3398, -5.5465 0.1293 1.1951, -5.5328 0.1293 1.3335, -5.5118 0.1339 1.1951, -5.4988 0.1339 1.3268, -5.4772 0.1293 1.1951, -5.4649 0.1293 1.32, -5.4449 0.1159 1.1951, -5.4332 0.1159 1.3137, -5.4172 0.0947 1.1951, -5.406 0.0947 1.3083, -5.3959 0.0669 1.1951, -5.3851 0.0669 1.3041, -5.3825 0.0346 1.1951, -5.372 0.0346 1.3015, -5.3368 -0.0 1.4022, -5.341 -0.0346 1.4039, -5.3533 -0.0669 1.409, -5.373 -0.0947 1.4172, -5.3986 -0.1159 1.4278, -5.4284 -0.1293 1.4401, -5.4604 -0.1339 1.4534, -5.4924 -0.1293 1.4666, -5.5223 -0.1159 1.479, -5.5479 -0.0947 1.4896, -5.5675 -0.0669 1.4977, -5.5799 -0.0346 1.5029, -5.5841 -0.0 1.5046, -5.5799 0.0346 1.5029, -5.5675 0.0669 1.4977, -5.5479 0.0947 1.4896, -5.5223 0.1159 1.479, -5.4924 0.1293 1.4666, -5.4604 0.1339 1.4534, -5.4284 0.1293 1.4401, -5.3986 0.1159 1.4278, -5.373 0.0947 1.4172, -5.3533 0.0669 1.409, -5.341 0.0346 1.4039, -5.2868 -0.0 1.4957, -5.2905 -0.0346 1.4983, -5.3017 -0.0669 1.5057, -5.3194 -0.0947 1.5175, -5.3424 -0.1159 1.5329, -5.3692 -0.1293 1.5508, -5.3981 -0.1339 1.5701, -5.4269 -0.1293 1.5893, -5.4537 -0.1159 1.6073, -5.4768 -0.0947 1.6227, -5.4944 -0.0669 1.6345, -5.5056 -0.0346 1.6419, -5.5094 -0.0 1.6445, -5.5056 0.0346 1.6419, -5.4944 0.0669 1.6345, -5.4768 0.0947 1.6227, -5.4537 0.1159 1.6073, -5.4269 0.1293 1.5893, -5.3981 0.1339 1.5701, -5.3692 0.1293 1.5508, -5.3424 0.1159 1.5329, -5.3194 0.0947 1.5175, -5.3017 0.0669 1.5057, -5.2905 0.0346 1.4983, -5.2195 -0.0 1.5777, -5.2227 -0.0346 1.5809, -5.2321 -0.0669 1.5904, -5.2472 -0.0947 1.6054, -5.2668 -0.1159 1.625, -5.2896 -0.1293 1.6479, -5.3141 -0.1339 1.6724, -5.3386 -0.1293 1.6969, -5.3614 -0.1159 1.7197, -5.381 -0.0947 1.7393, -5.3961 -0.0669 1.7543, -5.4055 -0.0346 1.7638, -5.4088 -0.0 1.767, -5.4055 0.0346 1.7638, -5.3961 0.0669 1.7543, -5.381 0.0947 1.7393, -5.3614 0.1159 1.7197, -5.3386 0.1293 1.6969, -5.3141 0.1339 1.6724, -5.2896 0.1293 1.6479, -5.2668 0.1159 1.625, -5.2472 0.0947 1.6054, -5.2321 0.0669 1.5904, -5.2227 0.0346 1.5809, -5.1375 -0.0 1.645, -5.14 -0.0346 1.6488, -5.1474 -0.0669 1.6599, -5.1592 -0.0947 1.6776, -5.1746 -0.1159 1.7007, -5.1926 -0.1293 1.7275, -5.2118 -0.1339 1.7563, -5.2311 -0.1293 1.7851, -5.249 -0.1159 1.812, -5.2644 -0.0947 1.835, -5.2762 -0.0669 1.8527, -5.2837 -0.0346 1.8638, -5.2862 -0.0 1.8676, -5.2837 0.0346 1.8638, -5.2762 0.0669 1.8527, -5.2644 0.0947 1.835, -5.249 0.1159 1.812, -5.2311 0.1293 1.7851, -5.2118 0.1339 1.7563, -5.1926 0.1293 1.7275, -5.1746 0.1159 1.7007, -5.1592 0.0947 1.6776, -5.1474 0.0669 1.6599, -5.14 0.0346 1.6488, -5.0439 -0.0 1.695, -5.0456 -0.0346 1.6992, -5.0508 -0.0669 1.7116, -5.0589 -0.0947 1.7313, -5.0695 -0.1159 1.7569, -5.0819 -0.1293 1.7867, -5.0951 -0.1339 1.8187, -5.1084 -0.1293 1.8507, -5.1207 -0.1159 1.8805, -5.1313 -0.0947 1.9061, -5.1395 -0.0669 1.9258, -5.1446 -0.0346 1.9382, -5.1463 -0.0 1.9424, -5.1446 0.0346 1.9382, -5.1395 0.0669 1.9258, -5.1313 0.0947 1.9061, -5.1207 0.1159 1.8805, -5.1084 0.1293 1.8507, -5.0951 0.1339 1.8187, -5.0819 0.1293 1.7867, -5.0695 0.1159 1.7569, -5.0589 0.0947 1.7313, -5.0508 0.0669 1.7116, -5.0456 0.0346 1.6992, -4.9424 -0.0 1.7258, -4.9433 -0.0346 1.7303, -4.9459 -0.0669 1.7434, -4.95 -0.0947 1.7643, -4.9554 -0.1159 1.7915, -4.9617 -0.1293 1.8231, -4.9685 -0.1339 1.8571, -4.9753 -0.1293 1.8911, -4.9815 -0.1159 1.9228, -4.987 -0.0947 1.9499, -4.9911 -0.0669 1.9708, -4.9937 -0.0346 1.9839, -4.9946 -0.0 1.9884, -4.9937 0.0346 1.9839, -4.9911 0.0669 1.9708, -4.987 0.0947 1.9499, -4.9815 0.1159 1.9228, -4.9753 0.1293 1.8911, -4.9685 0.1339 1.8571, -4.9617 0.1293 1.8231, -4.9554 0.1159 1.7915, -4.95 0.0947 1.7643, -4.9459 0.0669 1.7434, -4.9433 0.0346 1.7303, -4.9433 0.0346 1.7303
            ]
        }
        coordIndex [
            0,1,2,-1,2,1,3,-1,2,3,4,-1,5,6,2,-1,2,6,7,-1,2,7,0,-1,8,9,2,-1,2,9,10,-1,2,10,5,-1,11,12,2,-1,2,12,13,-1,2,13,8,-1,14,15,2,-1,2,15,16,-1,2,16,11,-1,17,18,2,-1,2,18,19,-1,2,19,14,-1,20,21,2,-1,2,21,22,-1,2,22,17,-1,4,23,2,-1,2,23,24,-1,2,24,20,-1,25,15,26,-1,26,15,14,-1,26,14,27,-1,27,14,19,-1,27,19,28,-1,28,19,18,-1,28,18,29,-1,29,18,17,-1,29,17,30,-1,30,17,22,-1,30,22,31,-1,31,22,21,-1,31,21,32,-1,32,21,20,-1,32,20,33,-1,33,20,24,-1,33,24,34,-1,34,24,23,-1,34,23,35,-1,35,23,4,-1,35,4,36,-1,36,4,3,-1,36,3,37,-1,37,3,1,-1,37,1,38,-1,38,1,0,-1,38,0,39,-1,39,0,7,-1,39,7,40,-1,40,7,6,-1,40,6,41,-1,41,6,5,-1,41,5,42,-1,42,5,10,-1,42,10,43,-1,43,10,9,-1,43,9,44,-1,44,9,8,-1,44,8,45,-1,45,8,13,-1,45,13,46,-1,46,13,12,-1,46,12,47,-1,47,12,11,-1,47,11,48,-1,48,11,16,-1,48,16,25,-1,25,16,15,-1,49,50,51,-1,51,50,52,-1,51,52,53,-1,53,52,54,-1,53,54,55,-1,55,54,56,-1,55,56,57,-1,57,56,58,-1,57,58,59,-1,59,58,60,-1,59,60,61,-1,61,60,62,-1,61,62,63,-1,63,62,64,-1,63,64,65,-1,65,64,66,-1,65,66,67,-1,67,66,68,-1,67,68,69,-1,69,68,70,-1,69,70,71,-1,71,70,72,-1,71,72,73,-1,73,72,74,-1,73,74,75,-1,75,74,76,-1,75,76,77,-1,77,76,78,-1,77,78,79,-1,79,78,80,-1,79,80,81,-1,81,80,82,-1,81,82,83,-1,83,82,84,-1,83,84,85,-1,85,84,86,-1,85,86,87,-1,87,86,88,-1,87,88,89,-1,89,88,90,-1,89,90,91,-1,91,90,92,-1,91,92,93,-1,93,92,94,-1,93,94,95,-1,95,94,96,-1,95,96,49,-1,49,96,50,-1,50,97,52,-1,52,97,98,-1,52,98,54,-1,54,98,99,-1,54,99,56,-1,56,99,100,-1,56,100,58,-1,58,100,101,-1,58,101,60,-1,60,101,102,-1,60,102,62,-1,62,102,103,-1,62,103,64,-1,64,103,104,-1,64,104,66,-1,66,104,105,-1,66,105,68,-1,68,105,106,-1,68,106,70,-1,70,106,107,-1,70,107,72,-1,72,107,108,-1,72,108,74,-1,74,108,109,-1,74,109,76,-1,76,109,110,-1,76,110,78,-1,78,110,111,-1,78,111,80,-1,80,111,112,-1,80,112,82,-1,82,112,113,-1,82,113,84,-1,84,113,114,-1,84,114,86,-1,86,114,115,-1,86,115,88,-1,88,115,116,-1,88,116,90,-1,90,116,117,-1,90,117,92,-1,92,117,118,-1,92,118,94,-1,94,118,119,-1,94,119,96,-1,96,119,120,-1,96,120,50,-1,50,120,97,-1,97,121,98,-1,98,121,122,-1,98,122,99,-1,99,122,123,-1,99,123,100,-1,100,123,124,-1,100,124,101,-1,101,124,125,-1,101,125,102,-1,102,125,126,-1,102,126,103,-1,103,126,127,-1,103,127,104,-1,104,127,128,-1,104,128,105,-1,105,128,129,-1,105,129,106,-1,106,129,130,-1,106,130,107,-1,107,130,131,-1,107,131,108,-1,108,131,132,-1,108,132,109,-1,109,132,133,-1,109,133,110,-1,110,133,134,-1,110,134,111,-1,111,134,135,-1,111,135,112,-1,112,135,136,-1,112,136,113,-1,113,136,137,-1,113,137,114,-1,114,137,138,-1,114,138,115,-1,115,138,139,-1,115,139,116,-1,116,139,140,-1,116,140,117,-1,117,140,141,-1,117,141,118,-1,118,141,142,-1,118,142,119,-1,119,142,143,-1,119,143,120,-1,120,143,144,-1,120,144,97,-1,97,144,121,-1,121,145,122,-1,122,145,146,-1,122,146,123,-1,123,146,147,-1,123,147,124,-1,124,147,148,-1,124,148,125,-1,125,148,149,-1,125,149,126,-1,126,149,150,-1,126,150,127,-1,127,150,151,-1,127,151,128,-1,128,151,152,-1,128,152,129,-1,129,152,153,-1,129,153,130,-1,130,153,154,-1,130,154,131,-1,131,154,155,-1,131,155,132,-1,132,155,156,-1,132,156,133,-1,133,156,157,-1,133,157,134,-1,134,157,158,-1,134,158,135,-1,135,158,159,-1,135,159,136,-1,136,159,160,-1,136,160,137,-1,137,160,161,-1,137,161,138,-1,138,161,162,-1,138,162,139,-1,139,162,163,-1,139,163,140,-1,140,163,164,-1,140,164,141,-1,141,164,165,-1,141,165,142,-1,142,165,166,-1,142,166,143,-1,143,166,167,-1,143,167,144,-1,144,167,168,-1,144,168,121,-1,121,168,145,-1,145,169,146,-1,146,169,170,-1,146,170,147,-1,147,170,171,-1,147,171,148,-1,148,171,172,-1,148,172,149,-1,149,172,173,-1,149,173,150,-1,150,173,174,-1,150,174,151,-1,151,174,175,-1,151,175,152,-1,152,175,176,-1,152,176,153,-1,153,176,177,-1,153,177,154,-1,154,177,178,-1,154,178,155,-1,155,178,179,-1,155,179,156,-1,156,179,180,-1,156,180,157,-1,157,180,181,-1,157,181,158,-1,158,181,182,-1,158,182,159,-1,159,182,183,-1,159,183,160,-1,160,183,184,-1,160,184,161,-1,161,184,185,-1,161,185,162,-1,162,185,186,-1,162,186,163,-1,163,186,187,-1,163,187,164,-1,164,187,188,-1,164,188,165,-1,165,188,189,-1,165,189,166,-1,166,189,190,-1,166,190,167,-1,167,190,191,-1,167,191,168,-1,168,191,192,-1,168,192,145,-1,145,192,169,-1,169,193,170,-1,170,193,194,-1,170,194,171,-1,171,194,195,-1,171,195,172,-1,172,195,196,-1,172,196,173,-1,173,196,197,-1,173,197,174,-1,174,197,198,-1,174,198,175,-1,175,198,199,-1,175,199,176,-1,176,199,200,-1,176,200,177,-1,177,200,201,-1,177,201,178,-1,178,201,202,-1,178,202,179,-1,179,202,203,-1,179,203,180,-1,180,203,204,-1,180,204,181,-1,181,204,205,-1,181,205,182,-1,182,205,206,-1,182,206,183,-1,183,206,207,-1,183,207,184,-1,184,207,208,-1,184,208,185,-1,185,208,209,-1,185,209,186,-1,186,209,210,-1,186,210,187,-1,187,210,211,-1,187,211,188,-1,188,211,212,-1,188,212,189,-1,189,212,213,-1,189,213,190,-1,190,213,214,-1,190,214,191,-1,191,214,215,-1,191,215,192,-1,192,215,216,-1,192,216,169,-1,169,216,193,-1,193,217,194,-1,194,217,218,-1,194,218,195,-1,195,218,219,-1,195,219,196,-1,196,219,220,-1,196,220,197,-1,197,220,221,-1,197,221,198,-1,198,221,222,-1,198,222,199,-1,199,222,223,-1,199,223,200,-1,200,223,224,-1,200,224,201,-1,201,224,225,-1,201,225,202,-1,202,225,226,-1,202,226,203,-1,203,226,227,-1,203,227,204,-1,204,227,228,-1,204,228,205,-1,205,228,229,-1,205,229,206,-1,206,229,230,-1,206,230,207,-1,207,230,231,-1,207,231,208,-1,208,231,232,-1,208,232,209,-1,209,232,233,-1,209,233,210,-1,210,233,234,-1,210,234,211,-1,211,234,235,-1,211,235,212,-1,212,235,236,-1,212,236,213,-1,213,236,237,-1,213,237,214,-1,214,237,238,-1,214,238,215,-1,215,238,239,-1,215,239,216,-1,216,239,240,-1,216,240,193,-1,193,240,217,-1,217,37,218,-1,218,37,38,-1,218,38,219,-1,219,38,39,-1,219,39,220,-1,220,39,40,-1,220,40,221,-1,221,40,41,-1,221,41,222,-1,222,41,42,-1,222,42,223,-1,223,42,43,-1,223,43,224,-1,224,43,44,-1,224,44,225,-1,225,44,45,-1,225,45,226,-1,226,45,46,-1,226,46,227,-1,227,46,47,-1,227,47,228,-1,228,47,48,-1,228,48,229,-1,229,48,25,-1,229,25,230,-1,230,25,26,-1,230,26,231,-1,231,26,27,-1,231,27,232,-1,232,27,28,-1,232,28,233,-1,233,28,29,-1,233,29,234,-1,234,29,30,-1,234,30,235,-1,235,30,31,-1,235,31,236,-1,236,31,32,-1,236,32,237,-1,237,32,33,-1,237,33,238,-1,238,33,34,-1,238,34,239,-1,239,34,35,-1,239,35,240,-1,240,35,36,-1,240,36,217,-1,217,36,37,-1,241,75,242,-1,242,75,77,-1,242,77,243,-1,243,77,79,-1,243,79,244,-1,244,79,81,-1,244,81,245,-1,245,81,83,-1,245,83,246,-1,246,83,85,-1,246,85,247,-1,247,85,87,-1,247,87,248,-1,248,87,89,-1,248,89,249,-1,249,89,91,-1,249,91,250,-1,250,91,93,-1,250,93,251,-1,251,93,95,-1,251,95,252,-1,252,95,49,-1,252,49,253,-1,253,49,51,-1,253,51,254,-1,254,51,53,-1,254,53,255,-1,255,53,55,-1,255,55,256,-1,256,55,57,-1,256,57,257,-1,257,57,59,-1,257,59,258,-1,258,59,61,-1,258,61,259,-1,259,61,63,-1,259,63,260,-1,260,63,65,-1,260,65,261,-1,261,65,67,-1,261,67,262,-1,262,67,69,-1,262,69,263,-1,263,69,71,-1,263,71,264,-1,264,71,73,-1,264,73,241,-1,241,73,75,-1,265,266,267,-1,267,266,268,-1,267,268,269,-1,269,268,270,-1,269,270,271,-1,271,270,272,-1,271,272,273,-1,273,272,274,-1,273,274,275,-1,275,274,276,-1,275,276,277,-1,277,276,278,-1,277,278,279,-1,279,278,280,-1,279,280,281,-1,281,280,282,-1,281,282,283,-1,283,282,284,-1,283,284,285,-1,285,284,286,-1,285,286,287,-1,287,286,288,-1,287,288,289,-1,289,288,290,-1,289,290,291,-1,291,290,292,-1,291,292,293,-1,293,292,294,-1,293,294,295,-1,295,294,296,-1,295,296,297,-1,297,296,298,-1,297,298,299,-1,299,298,300,-1,299,300,301,-1,301,300,302,-1,301,302,303,-1,303,302,304,-1,303,304,305,-1,305,304,306,-1,305,306,307,-1,307,306,308,-1,307,308,309,-1,309,308,310,-1,309,310,311,-1,311,310,312,-1,311,312,265,-1,265,312,266,-1,313,314,315,-1,315,314,316,-1,315,316,317,-1,318,319,315,-1,315,319,320,-1,315,320,313,-1,321,322,315,-1,315,322,323,-1,315,323,318,-1,324,325,315,-1,315,325,326,-1,315,326,321,-1,327,328,315,-1,315,328,329,-1,315,329,324,-1,330,331,315,-1,315,331,332,-1,315,332,327,-1,333,334,315,-1,315,334,335,-1,315,335,330,-1,317,336,315,-1,315,336,337,-1,315,337,333,-1,338,339,340,-1,340,339,341,-1,340,341,342,-1,342,341,343,-1,342,343,344,-1,344,343,345,-1,344,345,346,-1,346,345,347,-1,346,347,348,-1,348,347,349,-1,348,349,350,-1,350,349,351,-1,350,351,352,-1,352,351,353,-1,352,353,354,-1,354,353,355,-1,354,355,356,-1,356,355,357,-1,356,357,358,-1,358,357,359,-1,358,359,360,-1,360,359,361,-1,360,361,362,-1,362,361,363,-1,362,363,364,-1,364,363,365,-1,364,365,366,-1,366,365,367,-1,366,367,368,-1,368,367,369,-1,368,369,370,-1,370,369,371,-1,370,371,372,-1,372,371,373,-1,372,373,374,-1,374,373,375,-1,374,375,376,-1,376,375,377,-1,376,377,378,-1,378,377,379,-1,378,379,380,-1,380,379,381,-1,380,381,382,-1,382,381,383,-1,382,383,384,-1,384,383,385,-1,384,385,338,-1,338,385,339,-1,339,386,341,-1,341,386,387,-1,341,387,343,-1,343,387,388,-1,343,388,345,-1,345,388,389,-1,345,389,347,-1,347,389,390,-1,347,390,349,-1,349,390,391,-1,349,391,351,-1,351,391,392,-1,351,392,353,-1,353,392,393,-1,353,393,355,-1,355,393,394,-1,355,394,357,-1,357,394,395,-1,357,395,359,-1,359,395,396,-1,359,396,361,-1,361,396,397,-1,361,397,363,-1,363,397,398,-1,363,398,365,-1,365,398,399,-1,365,399,367,-1,367,399,400,-1,367,400,369,-1,369,400,401,-1,369,401,371,-1,371,401,402,-1,371,402,373,-1,373,402,403,-1,373,403,375,-1,375,403,404,-1,375,404,377,-1,377,404,405,-1,377,405,379,-1,379,405,406,-1,379,406,381,-1,381,406,407,-1,381,407,383,-1,383,407,408,-1,383,408,385,-1,385,408,409,-1,385,409,339,-1,339,409,386,-1,386,410,387,-1,387,410,411,-1,387,411,388,-1,388,411,412,-1,388,412,389,-1,389,412,413,-1,389,413,390,-1,390,413,414,-1,390,414,391,-1,391,414,415,-1,391,415,392,-1,392,415,416,-1,392,416,393,-1,393,416,417,-1,393,417,394,-1,394,417,418,-1,394,418,395,-1,395,418,419,-1,395,419,396,-1,396,419,420,-1,396,420,397,-1,397,420,421,-1,397,421,398,-1,398,421,422,-1,398,422,399,-1,399,422,423,-1,399,423,400,-1,400,423,424,-1,400,424,401,-1,401,424,425,-1,401,425,402,-1,402,425,426,-1,402,426,403,-1,403,426,427,-1,403,427,404,-1,404,427,428,-1,404,428,405,-1,405,428,429,-1,405,429,406,-1,406,429,430,-1,406,430,407,-1,407,430,431,-1,407,431,408,-1,408,431,432,-1,408,432,409,-1,409,432,433,-1,409,433,386,-1,386,433,410,-1,410,434,411,-1,411,434,435,-1,411,435,412,-1,412,435,436,-1,412,436,413,-1,413,436,437,-1,413,437,414,-1,414,437,438,-1,414,438,415,-1,415,438,439,-1,415,439,416,-1,416,439,440,-1,416,440,417,-1,417,440,441,-1,417,441,418,-1,418,441,442,-1,418,442,419,-1,419,442,443,-1,419,443,420,-1,420,443,444,-1,420,444,421,-1,421,444,445,-1,421,445,422,-1,422,445,446,-1,422,446,423,-1,423,446,447,-1,423,447,424,-1,424,447,448,-1,424,448,425,-1,425,448,449,-1,425,449,426,-1,426,449,450,-1,426,450,427,-1,427,450,451,-1,427,451,428,-1,428,451,452,-1,428,452,429,-1,429,452,453,-1,429,453,430,-1,430,453,454,-1,430,454,431,-1,431,454,455,-1,431,455,432,-1,432,455,456,-1,432,456,433,-1,433,456,457,-1,433,457,410,-1,410,457,434,-1,434,458,435,-1,435,458,459,-1,435,459,436,-1,436,459,460,-1,436,460,437,-1,437,460,461,-1,437,461,438,-1,438,461,462,-1,438,462,439,-1,439,462,463,-1,439,463,440,-1,440,463,464,-1,440,464,441,-1,441,464,465,-1,441,465,442,-1,442,465,466,-1,442,466,443,-1,443,466,467,-1,443,467,444,-1,444,467,468,-1,444,468,445,-1,445,468,469,-1,445,469,446,-1,446,469,470,-1,446,470,447,-1,447,470,471,-1,447,471,448,-1,448,471,472,-1,448,472,449,-1,449,472,473,-1,449,473,450,-1,450,473,474,-1,450,474,451,-1,451,474,475,-1,451,475,452,-1,452,475,476,-1,452,476,453,-1,453,476,477,-1,453,477,454,-1,454,477,478,-1,454,478,455,-1,455,478,479,-1,455,479,456,-1,456,479,480,-1,456,480,457,-1,457,480,481,-1,457,481,434,-1,434,481,458,-1,458,482,459,-1,459,482,483,-1,459,483,460,-1,460,483,484,-1,460,484,461,-1,461,484,485,-1,461,485,462,-1,462,485,486,-1,462,486,463,-1,463,486,487,-1,463,487,464,-1,464,487,488,-1,464,488,465,-1,465,488,489,-1,465,489,466,-1,466,489,490,-1,466,490,467,-1,467,490,491,-1,467,491,468,-1,468,491,492,-1,468,492,469,-1,469,492,493,-1,469,493,470,-1,470,493,494,-1,470,494,471,-1,471,494,495,-1,471,495,472,-1,472,495,496,-1,472,496,473,-1,473,496,497,-1,473,497,474,-1,474,497,498,-1,474,498,475,-1,475,498,499,-1,475,499,476,-1,476,499,500,-1,476,500,477,-1,477,500,501,-1,477,501,478,-1,478,501,502,-1,478,502,479,-1,479,502,503,-1,479,503,480,-1,480,503,504,-1,480,504,481,-1,481,504,505,-1,481,505,458,-1,458,505,482,-1,482,506,483,-1,483,506,507,-1,483,507,484,-1,484,507,508,-1,484,508,485,-1,485,508,509,-1,485,509,486,-1,486,509,510,-1,486,510,487,-1,487,510,511,-1,487,511,488,-1,488,511,512,-1,488,512,489,-1,489,512,513,-1,489,513,490,-1,490,513,514,-1,490,514,491,-1,491,514,515,-1,491,515,492,-1,492,515,516,-1,492,516,493,-1,493,516,517,-1,493,517,494,-1,494,517,518,-1,494,518,495,-1,495,518,519,-1,495,519,496,-1,496,519,520,-1,496,520,497,-1,497,520,521,-1,497,521,498,-1,498,521,522,-1,498,522,499,-1,499,522,523,-1,499,523,500,-1,500,523,524,-1,500,524,501,-1,501,524,525,-1,501,525,502,-1,502,525,526,-1,502,526,503,-1,503,526,527,-1,503,527,504,-1,504,527,528,-1,504,528,505,-1,505,528,529,-1,505,529,482,-1,482,529,506,-1,506,289,507,-1,507,289,291,-1,507,291,508,-1,508,291,293,-1,508,293,509,-1,509,293,295,-1,509,295,510,-1,510,295,297,-1,510,297,511,-1,511,297,299,-1,511,299,512,-1,512,299,301,-1,512,301,513,-1,513,301,303,-1,513,303,514,-1,514,303,305,-1,514,305,515,-1,515,305,307,-1,515,307,516,-1,516,307,309,-1,516,309,517,-1,517,309,311,-1,517,311,518,-1,518,311,265,-1,518,265,519,-1,519,265,267,-1,519,267,520,-1,520,267,269,-1,520,269,521,-1,521,269,271,-1,521,271,522,-1,522,271,273,-1,522,273,523,-1,523,273,275,-1,523,275,524,-1,524,275,277,-1,524,277,525,-1,525,277,279,-1,525,279,526,-1,526,279,281,-1,526,281,527,-1,527,281,283,-1,527,283,528,-1,528,283,285,-1,528,285,529,-1,529,285,287,-1,529,287,506,-1,506,287,289,-1,329,364,324,-1,324,364,366,-1,324,366,325,-1,325,366,368,-1,325,368,326,-1,326,368,370,-1,326,370,321,-1,321,370,372,-1,321,372,322,-1,322,372,374,-1,322,374,323,-1,323,374,376,-1,323,376,318,-1,318,376,378,-1,318,378,319,-1,319,378,380,-1,319,380,320,-1,320,380,382,-1,320,382,313,-1,313,382,384,-1,313,384,314,-1,314,384,338,-1,314,338,316,-1,316,338,340,-1,316,340,317,-1,317,340,342,-1,317,342,336,-1,336,342,344,-1,336,344,337,-1,337,344,346,-1,337,346,333,-1,333,346,348,-1,333,348,334,-1,334,348,350,-1,334,350,335,-1,335,350,352,-1,335,352,330,-1,330,352,354,-1,330,354,331,-1,331,354,356,-1,331,356,332,-1,332,356,358,-1,332,358,327,-1,327,358,360,-1,327,360,328,-1,328,360,362,-1,328,362,329,-1,329,362,364,-1,
        ]
    }
}
Shape{
    appearance Appearance {
        material  Material 	{
            diffuseColor 0.4392156862745098 0.4392156862745098 0.4392156862745098
            specularColor 0.2196078431372549 0.2196078431372549 0.2196078431372549
            ambientIntensity 0.2
            transparency 0
            shininess 0.5
        }
    }
    geometry IndexedFaceSet {
        ccw TRUE
        solid FALSE
        coord DEF co Coordinate {
            point [
                2.5974 0.4666 3.7402, 2.5974 0.4666 3.7362, 2.5974 0.3226 3.7402, 2.5974 -0.1577 3.7362, 2.5974 -0.1577 3.7402, 2.3829 -0.5221 3.7362, 2.3139 -0.5296 3.7362, 2.369 -0.5236 3.7402, 2.3139 -0.5296 3.7402, 2.3829 -0.5221 3.7402, 2.4388 -0.5018 3.7402, 2.4388 -0.5018 3.7362, 2.4846 -0.4711 3.7402, 2.4846 -0.4711 3.7362, 2.5262 -0.4263 3.7402, 2.5262 -0.4263 3.7362, 2.5635 -0.3592 3.7402, 2.5635 -0.3592 3.7362, 2.588 -0.2731 3.7402, 2.588 -0.2731 3.7362, 2.2133 -0.5118 3.7362, 2.2133 -0.5118 3.7402, 2.2627 -0.5258 3.7362, 2.2549 -0.5236 3.7402, 2.2627 -0.5258 3.7402, 2.2133 -0.3976 3.7362, 2.2133 -0.3976 3.7402, 2.3116 -0.4216 3.7362, 2.3116 -0.4216 3.7402, 2.2975 -0.4211 3.7402, 2.2975 -0.4211 3.7362, 2.2531 -0.4145 3.7402, 2.2531 -0.4145 3.7362, 2.4654 -0.1609 3.7362, 2.4654 -0.1609 3.7402, 2.4611 -0.2405 3.7402, 2.4611 -0.2405 3.7362, 2.4441 -0.3189 3.7402, 2.4441 -0.3189 3.7362, 2.4392 -0.3316 3.7402, 2.4392 -0.3316 3.7362, 2.4177 -0.3705 3.7402, 2.4177 -0.3705 3.7362, 2.3968 -0.3928 3.7402, 2.3968 -0.3928 3.7362, 2.3726 -0.4086 3.7402, 2.3726 -0.4086 3.7362, 2.3454 -0.418 3.7402, 2.3454 -0.418 3.7362, 2.4654 0.3226 3.7402, 2.4654 0.4666 3.7362, 2.4654 0.4666 3.7402, 2.014 -0.2198 3.7362, 2.1893 -0.5176 3.7362, 2.014 -0.2198 3.7402, 2.1893 -0.5176 3.7402, 2.0453 -0.5176 3.7362, 2.0453 -0.5176 3.7402, 1.8855 -0.2406 3.7362, 1.8855 -0.2406 3.7402, 1.7026 -0.0975 3.7362, 1.7026 -0.0975 3.7402, 1.7214 -0.0985 3.7402, 1.7214 -0.0985 3.7362, 1.7559 -0.1056 3.7402, 1.7559 -0.1056 3.7362, 1.7841 -0.1184 3.7402, 1.7841 -0.1184 3.7362, 1.8138 -0.1414 3.7402, 1.8138 -0.1414 3.7362, 1.6132 -0.0975 3.7362, 1.6132 -0.0975 3.7402, 1.6132 -0.5176 3.7362, 1.6132 -0.5176 3.7402, 1.4812 -0.5176 3.7362, 1.4812 -0.5176 3.7402, 1.4812 0.3226 3.7402, 1.4812 0.4666 3.7362, 1.4812 0.4666 3.7402, 1.778 0.4666 3.7362, 1.778 0.4666 3.7402, 2.0813 0.2059 3.7362, 2.0813 0.2059 3.7402, 2.0785 0.2496 3.7402, 2.0785 0.2496 3.7362, 2.066 0.3034 3.7402, 2.066 0.3034 3.7362, 2.0565 0.3226 3.7402, 2.0424 0.3509 3.7362, 2.0424 0.3509 3.7402, 2.0096 0.39 3.7402, 2.0096 0.39 3.7362, 1.9857 0.4098 3.7402, 1.9857 0.4098 3.7362, 1.9323 0.4395 3.7402, 1.9323 0.4395 3.7362, 1.8654 0.4591 3.7402, 1.8654 0.4591 3.7362, 1.8679 -0.0574 3.7362, 1.8679 -0.0574 3.7402, 1.8778 -0.0544 3.7402, 1.8778 -0.0544 3.7362, 1.9561 -0.0213 3.7402, 1.9561 -0.0213 3.7362, 2.0078 0.0168 3.7402, 2.0078 0.0168 3.7362, 2.0298 0.0409 3.7402, 2.0298 0.0409 3.7362, 2.0572 0.0855 3.7402, 2.0572 0.0855 3.7362, 2.0747 0.139 3.7402, 2.0747 0.139 3.7362, 1.8679 -0.0606 3.7362, 1.8679 -0.0606 3.7402, 2.0032 -0.2021 3.7402, 2.0032 -0.2021 3.7362, 1.9453 -0.1189 3.7402, 1.9453 -0.1189 3.7362, 1.9124 -0.0867 3.7402, 1.9124 -0.0867 3.7362, 1.7589 0.0105 3.7362, 1.9143 0.0817 3.7362, 1.9358 0.1193 3.7362, 1.9465 0.1591 3.7362, 1.9493 0.1951 3.7362, 1.9451 0.2377 3.7362, 1.9343 0.2706 3.7362, 1.9172 0.2982 3.7362, 1.8947 0.3206 3.7362, 1.866 0.3385 3.7362, 1.8209 0.3532 3.7362, 1.7608 0.3586 3.7362, 1.6132 0.3586 3.7362, 1.6132 0.0105 3.7362, 1.8839 0.0503 3.7362, 1.8504 0.0295 3.7362, 1.8097 0.0157 3.7362, 1.7608 0.3586 3.7402, 1.6132 0.3586 3.7402, 1.8209 0.3532 3.7402, 1.866 0.3385 3.7402, 1.8947 0.3206 3.7402, 1.9172 0.2982 3.7402, 1.9343 0.2706 3.7402, 1.9451 0.2377 3.7402, 1.9493 0.1951 3.7402, 1.9465 0.1591 3.7402, 1.9358 0.1193 3.7402, 1.9143 0.0817 3.7402, 1.8839 0.0503 3.7402, 1.8504 0.0295 3.7402, 1.8097 0.0157 3.7402, 1.7589 0.0105 3.7402, 1.6132 0.0105 3.7402, 1.1931 0.1786 3.7362, 1.3251 0.1786 3.7362, 1.1931 0.1786 3.7402, 1.3251 0.1786 3.7402, 1.0926 -0.172 3.7362, 1.0926 -0.172 3.7402, 1.3251 -0.5176 3.7362, 1.3251 -0.5176 3.7402, 1.1811 -0.5176 3.7362, 1.1811 -0.5176 3.7402, 1.047 -0.2961 3.7362, 1.047 -0.2961 3.7402, 1.0164 -0.2419 3.7362, 1.0164 -0.2419 3.7402, 1.0313 -0.2692 3.7402, 1.0313 -0.2692 3.7362, 1.0138 -0.2419 3.7362, 1.0138 -0.2419 3.7402, 0.9821 -0.2961 3.7362, 0.9821 -0.2961 3.7402, 0.9985 -0.2693 3.7402, 0.9985 -0.2693 3.7362, 0.845 -0.5176 3.7362, 0.845 -0.5176 3.7402, 0.701 -0.5176 3.7362, 0.701 -0.5176 3.7402, 0.9418 -0.1759 3.7362, 0.9418 -0.1759 3.7402, 0.713 0.1786 3.7362, 0.713 0.1786 3.7402, 0.857 0.1786 3.7362, 0.857 0.1786 3.7402, 0.9887 -0.0544 3.7362, 0.9887 -0.0544 3.7402, 1.0179 -0.1097 3.7362, 1.0179 -0.1097 3.7402, 1.0035 -0.0819 3.7402, 1.0035 -0.0819 3.7362, 1.0205 -0.1097 3.7362, 1.0205 -0.1097 3.7402, 0.5329 0.1786 3.7362, 0.6649 0.1786 3.7362, 0.5329 0.1786 3.7402, 0.6649 0.1786 3.7402, 0.4324 -0.172 3.7362, 0.4324 -0.172 3.7402, 0.6649 -0.5176 3.7362, 0.6649 -0.5176 3.7402, 0.5209 -0.5176 3.7362, 0.5209 -0.5176 3.7402, 0.3868 -0.2961 3.7362, 0.3868 -0.2961 3.7402, 0.3562 -0.2419 3.7362, 0.3562 -0.2419 3.7402, 0.3712 -0.2692 3.7402, 0.3712 -0.2692 3.7362, 0.3536 -0.2419 3.7362, 0.3536 -0.2419 3.7402, 0.3219 -0.2961 3.7362, 0.3219 -0.2961 3.7402, 0.3383 -0.2693 3.7402, 0.3383 -0.2693 3.7362, 0.1848 -0.5176 3.7362, 0.1848 -0.5176 3.7402, 0.0408 -0.5176 3.7362, 0.0408 -0.5176 3.7402, 0.2816 -0.1759 3.7362, 0.2816 -0.1759 3.7402, 0.0528 0.1786 3.7362, 0.0528 0.1786 3.7402, 0.1968 0.1786 3.7362, 0.1968 0.1786 3.7402, 0.3285 -0.0544 3.7362, 0.3285 -0.0544 3.7402, 0.3577 -0.1097 3.7362, 0.3577 -0.1097 3.7402, 0.3434 -0.0819 3.7402, 0.3434 -0.0819 3.7362, 0.3604 -0.1097 3.7362, 0.3604 -0.1097 3.7402, -0.1273 0.1786 3.7362, 0.0048 0.1786 3.7362, -0.1273 0.1786 3.7402, 0.0048 0.1786 3.7402, -0.2278 -0.172 3.7362, -0.2278 -0.172 3.7402, 0.0048 -0.5176 3.7362, 0.0048 -0.5176 3.7402, -0.1393 -0.5176 3.7362, -0.1393 -0.5176 3.7402, -0.2734 -0.2961 3.7362, -0.2734 -0.2961 3.7402, -0.3039 -0.2419 3.7362, -0.3039 -0.2419 3.7402, -0.289 -0.2692 3.7402, -0.289 -0.2692 3.7362, -0.3066 -0.2419 3.7362, -0.3066 -0.2419 3.7402, -0.3383 -0.2961 3.7362, -0.3383 -0.2961 3.7402, -0.3218 -0.2693 3.7402, -0.3218 -0.2693 3.7362, -0.4753 -0.5176 3.7362, -0.4753 -0.5176 3.7402, -0.6194 -0.5176 3.7362, -0.6194 -0.5176 3.7402, -0.3786 -0.1759 3.7362, -0.3786 -0.1759 3.7402, -0.6074 0.1786 3.7362, -0.6074 0.1786 3.7402, -0.4633 0.1786 3.7362, -0.4633 0.1786 3.7402, -0.3317 -0.0544 3.7362, -0.3317 -0.0544 3.7402, -0.3024 -0.1097 3.7362, -0.3024 -0.1097 3.7402, -0.3168 -0.0819 3.7402, -0.3168 -0.0819 3.7362, -0.2998 -0.1097 3.7362, -0.2998 -0.1097 3.7402, -0.7754 0.4666 3.7362, -0.6434 0.4666 3.7362, -0.7754 0.4666 3.7402, -0.6434 0.4666 3.7402, -0.6838 0.3226 3.7402, -0.9195 -0.5176 3.7362, -0.9195 -0.5176 3.7402, -1.0635 -0.5176 3.7362, -1.0635 -0.5176 3.7402, -1.2636 0.1962 3.7362, -1.2636 0.1962 3.7402, -1.2796 0.2986 3.7362, -1.2796 0.2986 3.7402, -1.2744 0.2469 3.7402, -1.2744 0.2469 3.7362, -1.2916 0.2986 3.7362, -1.2916 0.2986 3.7402, -1.3092 0.1975 3.7362, -1.3092 0.1975 3.7402, -1.2976 0.2476 3.7402, -1.2976 0.2476 3.7362, -1.5076 -0.5176 3.7362, -1.5076 -0.5176 3.7402, -1.6516 -0.5176 3.7362, -1.6516 -0.5176 3.7402, -1.8976 0.3226 3.7402, -1.9397 0.4666 3.7362, -1.9397 0.4666 3.7402, -1.7957 0.4666 3.7362, -1.7957 0.4666 3.7402, -1.7567 0.3226 3.7402, -1.5954 -0.2731 3.7362, -1.5954 -0.2731 3.7402, -1.5796 -0.3736 3.7362, -1.5796 -0.3736 3.7402, -1.5849 -0.3229 3.7402, -1.5849 -0.3229 3.7362, -1.5581 -0.2731 3.7362, -1.5581 -0.2731 3.7402, -1.5712 -0.3228 3.7402, -1.5712 -0.3228 3.7362, -1.3821 0.3226 3.7402, -1.3396 0.4666 3.7362, -1.3396 0.4666 3.7402, -1.2195 0.4666 3.7362, -1.2195 0.4666 3.7402, -1.1788 0.3226 3.7402, -1.0085 -0.2798 3.7362, -1.0085 -0.2798 3.7402, -0.9915 -0.3736 3.7362, -0.9915 -0.3736 3.7402, -0.9982 -0.3264 3.7402, -0.9982 -0.3264 3.7362, -0.9727 -0.2774 3.7362, -0.9727 -0.2774 3.7402, -0.9843 -0.3251 3.7402, -0.9843 -0.3251 3.7362, -0.8136 0.3226 3.7402, -2.0357 -0.2112 3.7362, -2.0357 -0.2112 3.7402, -2.042 -0.1423 3.7402, -2.042 -0.1423 3.7362, -2.0599 -0.084 3.7402, -2.0599 -0.084 3.7362, -2.0926 -0.0299 3.7402, -2.0926 -0.0299 3.7362, -2.1362 0.013 3.7402, -2.1362 0.013 3.7362, -2.2023 0.0515 3.7402, -2.2023 0.0515 3.7362, -2.2791 0.0741 3.7402, -2.2791 0.0741 3.7362, -2.3767 0.0825 3.7402, -2.3767 0.0825 3.7362, -2.3915 -0.5296 3.7362, -2.3915 -0.5296 3.7402, -2.3238 -0.5256 3.7402, -2.3238 -0.5256 3.7362, -2.3161 -0.5236 3.7402, -2.2286 -0.5017 3.7362, -2.2286 -0.5017 3.7402, -2.1625 -0.4661 3.7402, -2.1625 -0.4661 3.7362, -2.1079 -0.4173 3.7402, -2.1079 -0.4173 3.7362, -2.0675 -0.3573 3.7402, -2.0675 -0.3573 3.7362, -2.0449 -0.2941 3.7402, -2.0449 -0.2941 3.7362, -2.4822 -0.5236 3.7402, -2.4982 -0.5226 3.7362, -2.4982 -0.5226 3.7402, -2.572 -0.5042 3.7362, -2.572 -0.5042 3.7402, -2.5999 -0.4912 3.7362, -2.5999 -0.4912 3.7402, -2.5999 -0.3706 3.7362, -2.5999 -0.3706 3.7402, -2.3968 -0.4216 3.7362, -2.3968 -0.4216 3.7402, -2.5014 -0.4083 3.7402, -2.5014 -0.4083 3.7362, -2.1678 -0.2192 3.7362, -2.1678 -0.2192 3.7402, -2.1711 -0.2592 3.7402, -2.1711 -0.2592 3.7362, -2.1837 -0.3022 3.7402, -2.1837 -0.3022 3.7362, -2.2052 -0.3386 3.7402, -2.2052 -0.3386 3.7362, -2.2361 -0.3706 3.7402, -2.2361 -0.3706 3.7362, -2.2807 -0.3986 3.7402, -2.2807 -0.3986 3.7362, -2.3322 -0.4155 3.7402, -2.3322 -0.4155 3.7362, -2.4202 -0.0255 3.7362, -2.4202 -0.0255 3.7402, -2.3342 -0.0333 3.7402, -2.3342 -0.0333 3.7362, -2.2722 -0.0533 3.7402, -2.2722 -0.0533 3.7362, -2.2397 -0.0722 3.7402, -2.2397 -0.0722 3.7362, -2.2093 -0.0994 3.7402, -2.2093 -0.0994 3.7362, -2.1863 -0.1335 3.7402, -2.1863 -0.1335 3.7362, -2.1734 -0.1691 3.7402, -2.1734 -0.1691 3.7362, -2.5879 -0.0338 3.7362, -2.5879 -0.0338 3.7402, -2.5042 -0.0274 3.7402, -2.5042 -0.0274 3.7362, -2.5617 0.3226 3.7402, -2.5511 0.4666 3.7362, -2.5511 0.4666 3.7402, -2.0838 0.4666 3.7362, -2.0838 0.4666 3.7402, -2.0838 0.3586 3.7362, -2.0838 0.3586 3.7402, -2.447 0.3586 3.7362, -2.447 0.3586 3.7402, -2.4497 0.3226 3.7402, -2.4679 0.0788 3.7362, -2.4679 0.0788 3.7402, -2.4679 0.0788 3.7402
            ]
        }
        coordIndex [
            0,1,2,-1,2,1,3,-1,2,3,4,-1,5,6,7,-1,7,6,8,-1,7,9,5,-1,5,9,10,-1,5,10,11,-1,11,10,12,-1,11,12,13,-1,13,12,14,-1,13,14,15,-1,15,14,16,-1,15,16,17,-1,17,16,18,-1,17,18,19,-1,19,18,4,-1,19,4,3,-1,20,21,22,-1,22,21,23,-1,23,24,22,-1,22,24,8,-1,22,8,6,-1,20,25,21,-1,21,25,26,-1,27,28,29,-1,27,29,30,-1,30,29,31,-1,30,31,32,-1,32,31,26,-1,32,26,25,-1,33,34,35,-1,33,35,36,-1,36,35,37,-1,36,37,38,-1,38,37,39,-1,38,39,40,-1,40,39,41,-1,40,41,42,-1,42,41,43,-1,42,43,44,-1,44,43,45,-1,44,45,46,-1,46,45,47,-1,46,47,48,-1,48,47,28,-1,48,28,27,-1,34,33,49,-1,49,33,50,-1,49,50,51,-1,50,1,51,-1,51,1,0,-1,1,50,3,-1,3,50,33,-1,3,33,19,-1,19,33,36,-1,19,36,17,-1,36,38,17,-1,17,38,40,-1,17,40,15,-1,15,40,42,-1,15,42,13,-1,13,42,44,-1,13,44,11,-1,11,44,46,-1,11,46,5,-1,5,46,48,-1,5,48,6,-1,6,48,27,-1,6,27,22,-1,22,27,30,-1,22,30,20,-1,20,30,32,-1,20,32,25,-1,52,53,54,-1,54,53,55,-1,53,56,55,-1,55,56,57,-1,56,58,57,-1,57,58,59,-1,60,61,62,-1,60,62,63,-1,63,62,64,-1,63,64,65,-1,65,64,66,-1,65,66,67,-1,67,66,68,-1,67,68,69,-1,69,68,59,-1,69,59,58,-1,60,70,61,-1,61,70,71,-1,70,72,71,-1,71,72,73,-1,72,74,73,-1,73,74,75,-1,75,74,76,-1,76,74,77,-1,76,77,78,-1,77,79,78,-1,78,79,80,-1,81,82,83,-1,81,83,84,-1,84,83,85,-1,84,85,86,-1,86,85,87,-1,86,87,88,-1,87,89,88,-1,88,89,90,-1,88,90,91,-1,91,90,92,-1,91,92,93,-1,93,92,94,-1,93,94,95,-1,95,94,96,-1,95,96,97,-1,97,96,80,-1,97,80,79,-1,98,99,100,-1,98,100,101,-1,101,100,102,-1,101,102,103,-1,103,102,104,-1,103,104,105,-1,105,104,106,-1,105,106,107,-1,107,106,108,-1,107,108,109,-1,109,108,110,-1,109,110,111,-1,111,110,82,-1,111,82,81,-1,98,112,99,-1,99,112,113,-1,52,54,114,-1,52,114,115,-1,115,114,116,-1,115,116,117,-1,117,116,118,-1,117,118,119,-1,119,118,113,-1,119,113,112,-1,77,74,70,-1,70,74,72,-1,112,98,120,-1,121,105,107,-1,115,58,52,-1,52,58,56,-1,52,56,53,-1,121,107,122,-1,122,107,109,-1,122,109,123,-1,123,109,111,-1,123,111,124,-1,124,111,81,-1,124,81,125,-1,125,81,84,-1,125,84,126,-1,63,65,120,-1,120,65,67,-1,120,67,112,-1,112,67,69,-1,112,69,119,-1,119,69,58,-1,119,58,117,-1,117,58,115,-1,84,86,126,-1,126,86,88,-1,126,88,127,-1,127,88,91,-1,127,91,128,-1,128,91,93,-1,128,93,129,-1,129,93,95,-1,129,95,130,-1,130,95,97,-1,130,97,131,-1,131,97,79,-1,131,79,132,-1,132,79,77,-1,132,77,133,-1,133,77,70,-1,133,70,120,-1,120,70,60,-1,120,60,63,-1,105,121,103,-1,103,121,134,-1,103,134,101,-1,101,134,135,-1,101,135,98,-1,98,135,136,-1,98,136,120,-1,131,132,137,-1,137,132,138,-1,131,137,139,-1,131,139,130,-1,130,139,140,-1,130,140,129,-1,129,140,141,-1,129,141,128,-1,128,141,142,-1,128,142,127,-1,127,142,143,-1,127,143,126,-1,126,143,144,-1,126,144,125,-1,125,144,145,-1,125,145,124,-1,124,145,146,-1,124,146,123,-1,123,146,147,-1,123,147,122,-1,122,147,148,-1,122,148,121,-1,121,148,149,-1,121,149,134,-1,134,149,150,-1,134,150,135,-1,135,150,151,-1,135,151,136,-1,136,151,152,-1,136,152,120,-1,133,120,153,-1,153,120,152,-1,132,133,138,-1,138,133,153,-1,154,155,156,-1,156,155,157,-1,155,158,157,-1,157,158,159,-1,158,160,159,-1,159,160,161,-1,160,162,161,-1,161,162,163,-1,162,164,163,-1,163,164,165,-1,166,167,168,-1,166,168,169,-1,169,168,165,-1,169,165,164,-1,166,170,167,-1,167,170,171,-1,172,173,174,-1,172,174,175,-1,175,174,171,-1,175,171,170,-1,172,176,173,-1,173,176,177,-1,176,178,177,-1,177,178,179,-1,178,180,179,-1,179,180,181,-1,180,182,181,-1,181,182,183,-1,182,184,183,-1,183,184,185,-1,184,186,185,-1,185,186,187,-1,188,189,190,-1,188,190,191,-1,191,190,187,-1,191,187,186,-1,188,192,189,-1,189,192,193,-1,192,154,193,-1,193,154,156,-1,188,180,192,-1,192,180,158,-1,192,158,154,-1,154,158,155,-1,162,160,164,-1,164,160,158,-1,164,158,169,-1,184,182,186,-1,186,182,180,-1,186,180,191,-1,191,180,188,-1,178,176,180,-1,180,176,172,-1,172,175,180,-1,180,175,170,-1,180,170,158,-1,158,170,166,-1,158,166,169,-1,194,195,196,-1,196,195,197,-1,195,198,197,-1,197,198,199,-1,198,200,199,-1,199,200,201,-1,200,202,201,-1,201,202,203,-1,202,204,203,-1,203,204,205,-1,206,207,208,-1,206,208,209,-1,209,208,205,-1,209,205,204,-1,206,210,207,-1,207,210,211,-1,212,213,214,-1,212,214,215,-1,215,214,211,-1,215,211,210,-1,212,216,213,-1,213,216,217,-1,216,218,217,-1,217,218,219,-1,218,220,219,-1,219,220,221,-1,220,222,221,-1,221,222,223,-1,222,224,223,-1,223,224,225,-1,224,226,225,-1,225,226,227,-1,228,229,230,-1,228,230,231,-1,231,230,227,-1,231,227,226,-1,228,232,229,-1,229,232,233,-1,232,194,233,-1,233,194,196,-1,228,220,232,-1,232,220,198,-1,232,198,194,-1,194,198,195,-1,202,200,204,-1,204,200,198,-1,204,198,209,-1,224,222,226,-1,226,222,220,-1,226,220,231,-1,231,220,228,-1,218,216,220,-1,220,216,212,-1,212,215,220,-1,220,215,210,-1,220,210,198,-1,198,210,206,-1,198,206,209,-1,234,235,236,-1,236,235,237,-1,235,238,237,-1,237,238,239,-1,238,240,239,-1,239,240,241,-1,240,242,241,-1,241,242,243,-1,242,244,243,-1,243,244,245,-1,246,247,248,-1,246,248,249,-1,249,248,245,-1,249,245,244,-1,246,250,247,-1,247,250,251,-1,252,253,254,-1,252,254,255,-1,255,254,251,-1,255,251,250,-1,252,256,253,-1,253,256,257,-1,256,258,257,-1,257,258,259,-1,258,260,259,-1,259,260,261,-1,260,262,261,-1,261,262,263,-1,262,264,263,-1,263,264,265,-1,264,266,265,-1,265,266,267,-1,268,269,270,-1,268,270,271,-1,271,270,267,-1,271,267,266,-1,268,272,269,-1,269,272,273,-1,272,234,273,-1,273,234,236,-1,268,260,272,-1,272,260,238,-1,272,238,234,-1,234,238,235,-1,242,240,244,-1,244,240,238,-1,244,238,249,-1,264,262,266,-1,266,262,260,-1,266,260,271,-1,271,260,268,-1,258,256,260,-1,260,256,252,-1,252,255,260,-1,260,255,250,-1,260,250,238,-1,238,250,246,-1,238,246,249,-1,274,275,276,-1,276,275,277,-1,277,275,278,-1,278,275,279,-1,278,279,280,-1,279,281,280,-1,280,281,282,-1,281,283,282,-1,282,283,284,-1,285,286,287,-1,285,287,288,-1,288,287,284,-1,288,284,283,-1,285,289,286,-1,286,289,290,-1,291,292,293,-1,291,293,294,-1,294,293,290,-1,294,290,289,-1,291,295,292,-1,292,295,296,-1,295,297,296,-1,296,297,298,-1,298,297,299,-1,299,297,300,-1,299,300,301,-1,300,302,301,-1,301,302,303,-1,303,302,304,-1,304,302,305,-1,304,305,306,-1,307,308,309,-1,307,309,310,-1,310,309,306,-1,310,306,305,-1,311,312,313,-1,311,313,314,-1,314,313,308,-1,314,308,307,-1,312,311,315,-1,315,311,316,-1,315,316,317,-1,316,318,317,-1,317,318,319,-1,319,318,320,-1,320,318,321,-1,320,321,322,-1,323,324,325,-1,323,325,326,-1,326,325,322,-1,326,322,321,-1,327,328,329,-1,327,329,330,-1,330,329,324,-1,330,324,323,-1,328,327,331,-1,331,327,274,-1,331,274,276,-1,302,300,305,-1,305,300,297,-1,305,297,310,-1,275,274,279,-1,279,274,327,-1,327,330,279,-1,279,330,323,-1,279,323,281,-1,310,297,307,-1,307,297,295,-1,307,295,314,-1,323,326,281,-1,281,326,321,-1,281,321,283,-1,283,321,318,-1,283,318,288,-1,291,316,295,-1,295,316,311,-1,295,311,314,-1,291,294,316,-1,316,294,289,-1,316,289,318,-1,318,289,285,-1,318,285,288,-1,332,333,334,-1,332,334,335,-1,335,334,336,-1,335,336,337,-1,337,336,338,-1,337,338,339,-1,339,338,340,-1,339,340,341,-1,341,340,342,-1,341,342,343,-1,343,342,344,-1,343,344,345,-1,345,344,346,-1,345,346,347,-1,348,349,350,-1,348,350,351,-1,351,350,352,-1,351,352,353,-1,352,354,353,-1,353,354,355,-1,353,355,356,-1,356,355,357,-1,356,357,358,-1,358,357,359,-1,358,359,360,-1,360,359,361,-1,360,361,362,-1,362,361,333,-1,362,333,332,-1,349,348,363,-1,363,348,364,-1,363,364,365,-1,365,364,366,-1,365,366,367,-1,367,366,368,-1,367,368,369,-1,368,370,369,-1,369,370,371,-1,372,373,374,-1,372,374,375,-1,375,374,371,-1,375,371,370,-1,376,377,378,-1,376,378,379,-1,379,378,380,-1,379,380,381,-1,381,380,382,-1,381,382,383,-1,383,382,384,-1,383,384,385,-1,385,384,386,-1,385,386,387,-1,387,386,388,-1,387,388,389,-1,389,388,373,-1,389,373,372,-1,390,391,392,-1,390,392,393,-1,393,392,394,-1,393,394,395,-1,395,394,396,-1,395,396,397,-1,397,396,398,-1,397,398,399,-1,399,398,400,-1,399,400,401,-1,401,400,402,-1,401,402,403,-1,403,402,377,-1,403,377,376,-1,404,405,406,-1,404,406,407,-1,407,406,391,-1,407,391,390,-1,405,404,408,-1,408,404,409,-1,408,409,410,-1,409,411,410,-1,410,411,412,-1,411,413,412,-1,412,413,414,-1,413,415,414,-1,414,415,416,-1,416,415,417,-1,417,415,418,-1,417,418,419,-1,418,347,419,-1,419,347,346,-1,413,411,415,-1,415,411,409,-1,415,409,418,-1,409,404,418,-1,418,404,407,-1,418,407,347,-1,347,407,390,-1,347,390,345,-1,345,390,393,-1,345,393,343,-1,343,393,395,-1,343,395,341,-1,341,395,397,-1,341,397,339,-1,339,397,399,-1,339,399,337,-1,337,399,401,-1,337,401,335,-1,335,401,403,-1,335,403,332,-1,332,403,376,-1,332,376,362,-1,362,376,379,-1,362,379,360,-1,360,379,381,-1,360,381,358,-1,358,381,383,-1,358,383,356,-1,356,383,385,-1,356,385,353,-1,353,385,387,-1,353,387,351,-1,351,387,389,-1,351,389,348,-1,348,389,372,-1,348,372,364,-1,364,372,375,-1,364,375,366,-1,366,375,370,-1,366,370,368,-1,
        ]
    }
}
Shape{
    appearance Appearance {
        material  Material 	{
            diffuseColor 0.8941176470588236 0.8941176470588236 0.8941176470588236
            specularColor 0.4470588235294118 0.4470588235294118 0.4470588235294118
            ambientIntensity 0.2
            transparency 0
            shininess 0.5
        }
    }
    geometry IndexedFaceSet {
        ccw TRUE
        solid FALSE
        coord DEF co Coordinate {
            point [
                1.7608 0.3586 3.7402, 1.9493 0.1951 3.7402, 1.9451 0.2377 3.7402, 1.6132 0.3586 3.7402, 1.6132 0.0105 3.7402, 1.7589 0.0105 3.7402, 1.8097 0.0157 3.7402, 1.8947 0.3206 3.7402, 1.9172 0.2982 3.7402, 1.9343 0.2706 3.7402, 1.866 0.3385 3.7402, 1.8209 0.3532 3.7402, 1.8504 0.0295 3.7402, 1.8839 0.0503 3.7402, 1.9143 0.0817 3.7402, 1.9358 0.1193 3.7402, 1.9465 0.1591 3.7402, 1.9465 0.1591 3.7402
            ]
        }
        coordIndex [
            0,1,2,-1,3,4,0,-1,0,4,5,-1,0,5,6,-1,7,2,8,-1,8,2,9,-1,7,10,2,-1,2,10,11,-1,2,11,0,-1,6,12,0,-1,0,12,13,-1,0,13,14,-1,14,15,0,-1,0,15,16,-1,0,16,1,-1,
        ]
    }
}
Shape{
    appearance Appearance {
        material  Material 	{
            diffuseColor 0.4392156862745098 0.4392156862745098 0.4392156862745098
            specularColor 0.2196078431372549 0.2196078431372549 0.2196078431372549
            ambientIntensity 0.2
            transparency 0
            shininess 0.5
        }
    }
    geometry IndexedFaceSet {
        ccw TRUE
        solid FALSE
        coord DEF co Coordinate {
            point [
                -0.6674 0.1552 0.0039, -0.821 -0.2385 0.0039, -0.6674 0.1552 0.0, -0.821 -0.2385 0.0, -0.7634 -0.2385 0.0039, -0.7634 -0.2385 0.0, -0.7236 -0.128 0.0039, -0.7236 -0.128 0.0, -0.5609 -0.128 0.0039, -0.5609 -0.128 0.0, -0.5233 -0.2385 0.0039, -0.5233 -0.2385 0.0, -0.4657 -0.2385 0.0039, -0.4657 -0.2385 0.0, -0.6146 0.1552 0.0039, -0.6146 0.1552 0.0, -0.5742 -0.0848 0.0039, -0.7059 -0.0848 0.0039, -0.6329 0.0796 0.0039, -0.6367 0.0933 0.0039, -0.6392 0.1072 0.0039, -0.6405 0.1072 0.0039, -0.6431 0.0933 0.0039, -0.6466 0.0796 0.0039, -0.5742 -0.0848 0.0, -0.7059 -0.0848 0.0, -0.6329 0.0796 0.0, -0.6367 0.0933 0.0, -0.6392 0.1072 0.0, -0.6405 0.1072 0.0, -0.6431 0.0933 0.0, -0.6466 0.0796 0.0, -0.2271 -0.2385 0.0039, -0.12 -0.2385 0.0039, -0.2271 -0.2385 0.0, -0.12 -0.2385 0.0, -0.12 0.1552 0.0039, -0.12 0.1552 0.0, -0.2311 0.1552 0.0039, -0.2311 0.1552 0.0, -0.4369 -0.0367 0.0039, -0.4369 -0.0367 0.0, -0.4341 0.0004 0.0, -0.4341 0.0004 0.0039, -0.4235 0.0392 0.0, -0.4235 0.0392 0.0039, -0.4052 0.073 0.0, -0.4052 0.073 0.0039, -0.3773 0.1039 0.0, -0.3773 0.1039 0.0039, -0.3769 0.1043 0.0, -0.3769 0.1043 0.0039, -0.3341 0.133 0.0, -0.3341 0.133 0.0039, -0.288 0.1492 0.0, -0.288 0.1492 0.0039, -0.2758 -0.2342 0.0, -0.2758 -0.2342 0.0039, -0.3212 -0.2207 0.0, -0.3212 -0.2207 0.0039, -0.3623 -0.1968 0.0, -0.3623 -0.1968 0.0039, -0.3947 -0.1658 0.0, -0.3947 -0.1658 0.0039, -0.4173 -0.1306 0.0, -0.4173 -0.1306 0.0039, -0.4314 -0.0893 0.0, -0.4314 -0.0893 0.0039, -0.3579 0.0568 0.0039, -0.3388 0.0771 0.0039, -0.31 0.0957 0.0039, -0.2775 0.1071 0.0039, -0.2309 0.112 0.0039, -0.1728 0.112 0.0039, -0.1728 -0.1952 0.0039, -0.2287 -0.1952 0.0039, -0.2703 -0.1914 0.0039, -0.3034 -0.181 0.0039, -0.3302 -0.1651 0.0039, -0.3523 -0.1433 0.0039, -0.3689 -0.1161 0.0039, -0.3805 -0.0791 0.0039, -0.3841 -0.0378 0.0039, -0.3808 0.0014 0.0039, -0.3716 0.0325 0.0039, -0.2309 0.112 0.0, -0.1728 0.112 0.0, -0.2775 0.1071 0.0, -0.31 0.0957 0.0, -0.3388 0.0771 0.0, -0.3579 0.0568 0.0, -0.3716 0.0325 0.0, -0.3808 0.0014 0.0, -0.3841 -0.0378 0.0, -0.3805 -0.0791 0.0, -0.3689 -0.1161 0.0, -0.3523 -0.1433 0.0, -0.3302 -0.1651 0.0, -0.3034 -0.181 0.0, -0.2703 -0.1914 0.0, -0.2287 -0.1952 0.0, -0.1728 -0.1952 0.0, -0.0432 -0.1952 0.0039, -0.0432 -0.2385 0.0039, -0.0432 -0.1952 0.0, -0.0432 -0.2385 0.0, 0.168 -0.2385 0.0039, 0.168 -0.2385 0.0, 0.168 0.1552 0.0039, 0.168 0.1552 0.0, -0.0336 0.1552 0.0039, -0.0336 0.1552 0.0, -0.0336 0.112 0.0039, -0.0336 0.112 0.0, 0.1152 0.112 0.0039, 0.1152 0.112 0.0, 0.1152 -0.0176 0.0039, 0.1152 -0.0176 0.0, -0.024 -0.0176 0.0039, -0.024 -0.0176 0.0, -0.024 -0.0608 0.0039, -0.024 -0.0608 0.0, 0.1152 -0.0608 0.0039, 0.1152 -0.0608 0.0, 0.1152 -0.1952 0.0039, 0.1152 -0.1952 0.0, 0.2449 -0.1748 0.0039, 0.2449 -0.2181 0.0039, 0.2449 -0.1748 0.0, 0.2449 -0.2181 0.0, 0.2868 -0.2353 0.0039, 0.3532 -0.2433 0.0039, 0.3532 -0.2433 0.0, 0.3424 -0.2431 0.0, 0.3424 -0.2431 0.0039, 0.3266 -0.2409 0.0, 0.2868 -0.2353 0.0, 0.3763 -0.2409 0.0, 0.4017 -0.2382 0.0039, 0.4017 -0.2382 0.0, 0.4399 -0.2251 0.0039, 0.4399 -0.2251 0.0, 0.4715 -0.2049 0.0039, 0.4715 -0.2049 0.0, 0.5011 -0.1737 0.0039, 0.5011 -0.1737 0.0, 0.5221 -0.1363 0.0039, 0.5221 -0.1363 0.0, 0.5339 -0.0946 0.0039, 0.5339 -0.0946 0.0, 0.5377 -0.049 0.0039, 0.5377 -0.049 0.0, 0.3375 0.16 0.0039, 0.3375 0.16 0.0, 0.3771 0.1568 0.0, 0.3771 0.1568 0.0039, 0.4209 0.1441 0.0, 0.4209 0.1441 0.0039, 0.4583 0.1225 0.0, 0.4583 0.1225 0.0039, 0.4939 0.0884 0.0, 0.4939 0.0884 0.0039, 0.517 0.0515 0.0, 0.517 0.0515 0.0039, 0.5321 0.0069 0.0, 0.5321 0.0069 0.0039, 0.2449 0.1444 0.0039, 0.2449 0.1444 0.0, 0.2904 0.1568 0.0, 0.2904 0.1568 0.0039, 0.2449 0.0916 0.0039, 0.2449 0.0916 0.0, 0.3371 0.1168 0.0039, 0.3371 0.1168 0.0, 0.2892 0.1106 0.0, 0.2892 0.1106 0.0039, 0.4849 -0.0458 0.0039, 0.4849 -0.0458 0.0, 0.483 -0.0152 0.0, 0.483 -0.0152 0.0039, 0.4726 0.027 0.0, 0.4726 0.027 0.0039, 0.4563 0.0574 0.0, 0.4563 0.0574 0.0039, 0.4325 0.0836 0.0, 0.4325 0.0836 0.0039, 0.4053 0.1018 0.0, 0.4053 0.1018 0.0039, 0.3758 0.1125 0.0, 0.3758 0.1125 0.0039, 0.3459 -0.2 0.0039, 0.3459 -0.2 0.0, 0.3826 -0.1959 0.0, 0.3826 -0.1959 0.0039, 0.4113 -0.1854 0.0, 0.4113 -0.1854 0.0039, 0.4355 -0.1691 0.0, 0.4355 -0.1691 0.0039, 0.454 -0.1496 0.0, 0.454 -0.1496 0.0039, 0.4702 -0.1223 0.0, 0.4702 -0.1223 0.0039, 0.4809 -0.0884 0.0, 0.4809 -0.0884 0.0039, 0.2519 -0.1787 0.0, 0.2519 -0.1787 0.0039, 0.2937 -0.1942 0.0, 0.2937 -0.1942 0.0039, 0.5713 -0.1952 0.0039, 0.5713 -0.2385 0.0039, 0.5713 -0.1952 0.0, 0.5713 -0.2385 0.0, 0.773 -0.2385 0.0039, 0.773 -0.2385 0.0, 0.773 0.1552 0.0039, 0.773 0.1552 0.0, 0.7202 0.1552 0.0039, 0.7202 0.1552 0.0, 0.7202 -0.1952 0.0039, 0.7202 -0.1952 0.0, 0.7202 -0.1952 0.0
            ]
        }
        coordIndex [
            0,1,2,-1,2,1,3,-1,1,4,3,-1,3,4,5,-1,4,6,5,-1,5,6,7,-1,6,8,7,-1,7,8,9,-1,8,10,9,-1,9,10,11,-1,10,12,11,-1,11,12,13,-1,12,14,13,-1,13,14,15,-1,14,0,15,-1,15,0,2,-1,16,8,17,-1,17,8,6,-1,18,14,16,-1,16,14,12,-1,16,12,8,-1,8,12,10,-1,18,19,14,-1,14,19,20,-1,14,20,0,-1,0,20,21,-1,0,21,22,-1,22,23,0,-1,0,23,17,-1,0,17,1,-1,1,17,6,-1,1,6,4,-1,16,17,24,-1,24,17,25,-1,18,16,26,-1,26,16,24,-1,18,26,27,-1,18,27,19,-1,19,27,28,-1,19,28,20,-1,21,20,29,-1,29,20,28,-1,21,29,30,-1,21,30,22,-1,22,30,31,-1,22,31,23,-1,17,23,25,-1,25,23,31,-1,32,33,34,-1,34,33,35,-1,33,36,35,-1,35,36,37,-1,36,38,37,-1,37,38,39,-1,40,41,42,-1,40,42,43,-1,43,42,44,-1,43,44,45,-1,45,44,46,-1,45,46,47,-1,47,46,48,-1,47,48,49,-1,49,48,50,-1,49,50,51,-1,51,50,52,-1,51,52,53,-1,53,52,54,-1,53,54,55,-1,55,54,39,-1,55,39,38,-1,32,34,56,-1,32,56,57,-1,57,56,58,-1,57,58,59,-1,59,58,60,-1,59,60,61,-1,61,60,62,-1,61,62,63,-1,63,62,64,-1,63,64,65,-1,65,64,66,-1,65,66,67,-1,67,66,41,-1,67,41,40,-1,45,47,68,-1,68,47,49,-1,68,49,69,-1,69,49,51,-1,69,51,70,-1,70,51,53,-1,70,53,71,-1,71,53,55,-1,71,55,72,-1,72,55,38,-1,72,38,73,-1,73,38,36,-1,73,36,74,-1,74,36,33,-1,74,33,75,-1,75,33,32,-1,75,32,76,-1,76,32,57,-1,76,57,77,-1,77,57,59,-1,77,59,78,-1,78,59,61,-1,78,61,79,-1,79,61,63,-1,79,63,80,-1,80,63,65,-1,80,65,81,-1,81,65,67,-1,81,67,82,-1,82,67,40,-1,82,40,83,-1,83,40,43,-1,83,43,84,-1,84,43,45,-1,84,45,68,-1,72,73,85,-1,85,73,86,-1,72,85,87,-1,72,87,71,-1,71,87,88,-1,71,88,70,-1,70,88,89,-1,70,89,69,-1,69,89,90,-1,69,90,68,-1,68,90,91,-1,68,91,84,-1,84,91,92,-1,84,92,83,-1,83,92,93,-1,83,93,82,-1,82,93,94,-1,82,94,81,-1,81,94,95,-1,81,95,80,-1,80,95,96,-1,80,96,79,-1,79,96,97,-1,79,97,78,-1,78,97,98,-1,78,98,77,-1,77,98,99,-1,77,99,76,-1,76,99,100,-1,76,100,75,-1,74,75,101,-1,101,75,100,-1,73,74,86,-1,86,74,101,-1,102,103,104,-1,104,103,105,-1,103,106,105,-1,105,106,107,-1,106,108,107,-1,107,108,109,-1,108,110,109,-1,109,110,111,-1,110,112,111,-1,111,112,113,-1,112,114,113,-1,113,114,115,-1,114,116,115,-1,115,116,117,-1,116,118,117,-1,117,118,119,-1,118,120,119,-1,119,120,121,-1,120,122,121,-1,121,122,123,-1,122,124,123,-1,123,124,125,-1,124,102,125,-1,125,102,104,-1,106,103,102,-1,102,124,106,-1,106,124,122,-1,106,122,108,-1,112,110,114,-1,114,110,108,-1,114,108,116,-1,116,108,122,-1,116,122,118,-1,118,122,120,-1,126,127,128,-1,128,127,129,-1,129,127,130,-1,131,132,133,-1,131,133,134,-1,134,133,135,-1,134,135,130,-1,130,135,136,-1,130,136,129,-1,132,131,137,-1,137,131,138,-1,137,138,139,-1,139,138,140,-1,139,140,141,-1,141,140,142,-1,141,142,143,-1,143,142,144,-1,143,144,145,-1,145,144,146,-1,145,146,147,-1,147,146,148,-1,147,148,149,-1,149,148,150,-1,149,150,151,-1,152,153,154,-1,152,154,155,-1,155,154,156,-1,155,156,157,-1,157,156,158,-1,157,158,159,-1,159,158,160,-1,159,160,161,-1,161,160,162,-1,161,162,163,-1,163,162,164,-1,163,164,165,-1,165,164,151,-1,165,151,150,-1,166,167,168,-1,166,168,169,-1,169,168,153,-1,169,153,152,-1,166,170,167,-1,167,170,171,-1,172,173,174,-1,172,174,175,-1,175,174,171,-1,175,171,170,-1,176,177,178,-1,176,178,179,-1,179,178,180,-1,179,180,181,-1,181,180,182,-1,181,182,183,-1,183,182,184,-1,183,184,185,-1,185,184,186,-1,185,186,187,-1,187,186,188,-1,187,188,189,-1,189,188,173,-1,189,173,172,-1,190,191,192,-1,190,192,193,-1,193,192,194,-1,193,194,195,-1,195,194,196,-1,195,196,197,-1,197,196,198,-1,197,198,199,-1,199,198,200,-1,199,200,201,-1,201,200,202,-1,201,202,203,-1,203,202,177,-1,203,177,176,-1,126,128,204,-1,126,204,205,-1,205,204,206,-1,205,206,207,-1,207,206,191,-1,207,191,190,-1,193,131,190,-1,190,131,134,-1,190,134,207,-1,207,134,130,-1,207,130,205,-1,205,130,127,-1,205,127,126,-1,170,166,175,-1,175,166,169,-1,175,169,172,-1,172,169,152,-1,172,152,189,-1,189,152,155,-1,189,155,187,-1,187,155,157,-1,187,157,185,-1,185,157,159,-1,185,159,183,-1,183,159,161,-1,183,161,181,-1,181,161,163,-1,181,163,179,-1,179,163,165,-1,179,165,176,-1,176,165,150,-1,176,150,203,-1,203,150,148,-1,203,148,201,-1,201,148,146,-1,201,146,199,-1,199,146,144,-1,199,144,197,-1,197,144,142,-1,197,142,195,-1,195,142,140,-1,195,140,193,-1,193,140,138,-1,193,138,131,-1,208,209,210,-1,210,209,211,-1,209,212,211,-1,211,212,213,-1,212,214,213,-1,213,214,215,-1,214,216,215,-1,215,216,217,-1,216,218,217,-1,217,218,219,-1,218,208,219,-1,219,208,210,-1,216,214,218,-1,218,214,212,-1,218,212,208,-1,208,212,209,-1,
        ]
    }
}
Shape{
    appearance Appearance {
        material  Material 	{
            diffuseColor 0.8941176470588236 0.8941176470588236 0.8941176470588236
            specularColor 0.4470588235294118 0.4470588235294118 0.4470588235294118
            ambientIntensity 0.2
            transparency 0
            shininess 0.5
        }
    }
    geometry IndexedFaceSet {
        ccw TRUE
        solid FALSE
        coord DEF co Coordinate {
            point [
                -0.5742 -0.0848 0.0, -0.7059 -0.0848 0.0, -0.6329 0.0796 0.0, -0.6466 0.0796 0.0, -0.6367 0.0933 0.0, -0.6431 0.0933 0.0, -0.6392 0.1072 0.0, -0.6405 0.1072 0.0, -0.1728 0.112 0.0, -0.1728 -0.1952 0.0, -0.2309 0.112 0.0, -0.2287 -0.1952 0.0, -0.2703 -0.1914 0.0, -0.3841 -0.0378 0.0, -0.3808 0.0014 0.0, -0.3716 0.0325 0.0, -0.2775 0.1071 0.0, -0.3034 -0.181 0.0, -0.3302 -0.1651 0.0, -0.3523 -0.1433 0.0, -0.3689 -0.1161 0.0, -0.3805 -0.0791 0.0, -0.3579 0.0568 0.0, -0.3388 0.0771 0.0, -0.31 0.0957 0.0, -0.31 0.0957 0.0
            ]
        }
        coordIndex [
            0,1,2,-1,2,1,3,-1,2,3,4,-1,4,3,5,-1,4,5,6,-1,6,5,7,-1,8,9,10,-1,10,9,11,-1,10,11,12,-1,13,14,10,-1,10,14,15,-1,10,15,16,-1,12,17,10,-1,10,17,18,-1,10,18,19,-1,19,20,10,-1,10,20,21,-1,10,21,13,-1,22,23,15,-1,15,23,24,-1,15,24,16,-1,
        ]
    }
}