<?xml version="1.0" encoding="UTF-8" standalone="no"?>
<svg
   version="1.1"
   width="84.351341mm"
   height="61.9814mm"
   viewBox="0 0 84.351339 61.9814"
   id="svg1284"
   sodipodi:docname="pcbb.svg"
   xmlns:inkscape="http://www.inkscape.org/namespaces/inkscape"
   xmlns:sodipodi="http://sodipodi.sourceforge.net/DTD/sodipodi-0.dtd"
   xmlns="http://www.w3.org/2000/svg"
   xmlns:svg="http://www.w3.org/2000/svg">
  <defs
     id="defs1288" />
  <sodipodi:namedview
     id="namedview1286"
     pagecolor="#ffffff"
     bordercolor="#000000"
     borderopacity="0.25"
     inkscape:showpageshadow="2"
     inkscape:pageopacity="0.0"
     inkscape:pagecheckerboard="0"
     inkscape:deskcolor="#d1d1d1"
     inkscape:document-units="mm" />
  <title
     id="title2">SVG Image created as pcbb.svg date 2025-05-18T19:48:06+0000 </title>
  <desc
     id="desc4">Image generated by PCBNEW </desc>
  <g
     style="fill:#000000;fill-opacity:1;stroke:#000000;stroke-linecap:round;stroke-linejoin:round;stroke-opacity:1"
     id="g8"
     transform="translate(-13.104506,-14.6636)">
    <path
       style="fill:#4d7fc4;fill-opacity:1;fill-rule:evenodd;stroke:none"
       d="m 78.143,47.65 v -1.7 h -1.7 v 1.7 z"
       id="path6" />
  </g>
  <g
     style="fill:#4d7fc4;fill-opacity:1;stroke:none"
     id="g16"
     transform="translate(-13.104506,-14.6636)">
    <circle
       cx="77.292999"
       cy="49.34"
       r="0.85000002"
       id="circle10" />
    <circle
       cx="77.292999"
       cy="51.880001"
       r="0.85000002"
       id="circle12" />
    <circle
       cx="77.292999"
       cy="54.419998"
       r="0.85000002"
       id="circle14" />
  </g>
  <g
     style="fill:none;stroke:#4d7fc4;stroke-width:0.9;stroke-linecap:round;stroke-linejoin:round;stroke-opacity:1"
     id="g28"
     transform="translate(-13.104506,-14.6636)">
    <path
       d="m 59.603,70.345 v -1.1"
       id="path18" />
    <path
       d="m 59.603,74.365 v -0.8"
       id="path20" />
    <path
       d="m 50.963,70.345 v -1.1"
       id="path22" />
    <path
       d="m 50.963,74.365 v -0.8"
       id="path24" />
    <path
       style="fill:#4d7fc4;fill-opacity:1;fill-rule:evenodd;stroke:none"
       d="m 43.543,70.775 v -1.7 h -1.7 v 1.7 z"
       id="path26" />
  </g>
  <g
     style="fill:#4d7fc4;fill-opacity:1;stroke:none"
     id="g514"
     transform="translate(-13.104506,-14.6636)">
    <circle
       cx="42.693001"
       cy="72.464996"
       r="0.85000002"
       id="circle30" />
    <path
       style="fill:#4d7fc4;fill-opacity:1;fill-rule:evenodd;stroke:none"
       d="m 65.13,20.3886 v -4.3 h -0.7 v 4.3 z"
       id="path32" />
    <path
       style="fill:#4d7fc4;fill-opacity:1;fill-rule:evenodd;stroke:none"
       d="m 64.13,20.3886 v -4.3 h -0.7 v 4.3 z"
       id="path34" />
    <path
       style="fill:#4d7fc4;fill-opacity:1;fill-rule:evenodd;stroke:none"
       d="m 63.13,20.3886 v -4.3 h -0.7 v 4.3 z"
       id="path36" />
    <path
       style="fill:#4d7fc4;fill-opacity:1;fill-rule:evenodd;stroke:none"
       d="m 62.13,20.3886 v -4.3 h -0.7 v 4.3 z"
       id="path38" />
    <path
       style="fill:#4d7fc4;fill-opacity:1;fill-rule:evenodd;stroke:none"
       d="m 61.13,20.3886 v -4.3 h -0.7 v 4.3 z"
       id="path40" />
    <path
       style="fill:#4d7fc4;fill-opacity:1;fill-rule:evenodd;stroke:none"
       d="m 60.13,20.3886 v -4.3 h -0.7 v 4.3 z"
       id="path42" />
    <path
       style="fill:#4d7fc4;fill-opacity:1;fill-rule:evenodd;stroke:none"
       d="m 59.13,20.3886 v -4.3 h -0.7 v 4.3 z"
       id="path44" />
    <path
       style="fill:#4d7fc4;fill-opacity:1;fill-rule:evenodd;stroke:none"
       d="m 58.13,20.3886 v -4.3 h -0.7 v 4.3 z"
       id="path46" />
    <path
       style="fill:#4d7fc4;fill-opacity:1;fill-rule:evenodd;stroke:none"
       d="m 57.13,20.3886 v -4.3 h -0.7 v 4.3 z"
       id="path48" />
    <path
       style="fill:#4d7fc4;fill-opacity:1;fill-rule:evenodd;stroke:none"
       d="m 56.13,20.3886 v -4.3 h -0.7 v 4.3 z"
       id="path50" />
    <path
       style="fill:#4d7fc4;fill-opacity:1;fill-rule:evenodd;stroke:none"
       d="m 55.13,20.3886 v -4.3 h -0.7 v 4.3 z"
       id="path52" />
    <path
       style="fill:#4d7fc4;fill-opacity:1;fill-rule:evenodd;stroke:none"
       d="m 52.13,20.3886 v -4.3 h -0.7 v 4.3 z"
       id="path54" />
    <path
       style="fill:#4d7fc4;fill-opacity:1;fill-rule:evenodd;stroke:none"
       d="m 51.13,20.3886 v -4.3 h -0.7 v 4.3 z"
       id="path56" />
    <path
       style="fill:#4d7fc4;fill-opacity:1;fill-rule:evenodd;stroke:none"
       d="m 50.13,20.3886 v -4.3 h -0.7 v 4.3 z"
       id="path58" />
    <path
       style="fill:#4d7fc4;fill-opacity:1;fill-rule:evenodd;stroke:none"
       d="m 49.13,20.3886 v -4.3 h -0.7 v 4.3 z"
       id="path60" />
    <path
       style="fill:#4d7fc4;fill-opacity:1;fill-rule:evenodd;stroke:none"
       d="m 48.13,20.3886 v -4.3 h -0.7 v 4.3 z"
       id="path62" />
    <path
       style="fill:#4d7fc4;fill-opacity:1;fill-rule:evenodd;stroke:none"
       d="m 47.13,20.3886 v -4.3 h -0.7 v 4.3 z"
       id="path64" />
    <path
       style="fill:#4d7fc4;fill-opacity:1;fill-rule:evenodd;stroke:none"
       d="m 46.13,20.3886 v -4.3 h -0.7 v 4.3 z"
       id="path66" />
    <circle
       cx="55.193001"
       cy="50.349998"
       r="0.2"
       id="circle68" />
    <circle
       cx="53.693001"
       cy="57.349998"
       r="0.2"
       id="circle70" />
    <circle
       cx="55.193001"
       cy="48"
       r="0.2"
       id="circle72" />
    <circle
       cx="55.862801"
       cy="54.883499"
       r="0.2"
       id="circle74" />
    <circle
       cx="45.792999"
       cy="20"
       r="0.2"
       id="circle76" />
    <circle
       cx="47.792999"
       cy="20"
       r="0.2"
       id="circle78" />
    <circle
       cx="46.792999"
       cy="20"
       r="0.2"
       id="circle80" />
    <circle
       cx="73.693001"
       cy="57.900002"
       r="0.2"
       id="circle82" />
    <circle
       cx="74.392998"
       cy="57.900002"
       r="0.2"
       id="circle84" />
    <circle
       cx="75.093002"
       cy="57.900002"
       r="0.2"
       id="circle86" />
    <circle
       cx="34.893002"
       cy="49.5825"
       r="0.2"
       id="circle88" />
    <circle
       cx="33.469501"
       cy="50.599998"
       r="0.2"
       id="circle90" />
    <circle
       cx="34.393002"
       cy="49.599998"
       r="0.2"
       id="circle92" />
    <circle
       cx="75.892998"
       cy="57.900002"
       r="0.2"
       id="circle94" />
    <circle
       cx="33.693001"
       cy="50"
       r="0.2"
       id="circle96" />
    <circle
       cx="70.693001"
       cy="45.700001"
       r="0.2"
       id="circle98" />
    <circle
       cx="70.193001"
       cy="40.099998"
       r="0.2"
       id="circle100" />
    <circle
       cx="27.193001"
       cy="43.599998"
       r="0.2"
       id="circle102" />
    <circle
       cx="26.292999"
       cy="68.5"
       r="0.2"
       id="circle104" />
    <circle
       cx="86.693001"
       cy="47.099998"
       r="0.2"
       id="circle106" />
    <circle
       cx="34.792999"
       cy="53.900002"
       r="0.2"
       id="circle108" />
    <circle
       cx="65.693001"
       cy="59.200001"
       r="0.2"
       id="circle110" />
    <circle
       cx="52.193001"
       cy="47.599998"
       r="0.2"
       id="circle112" />
    <circle
       cx="57.092999"
       cy="66.199997"
       r="0.2"
       id="circle114" />
    <circle
       cx="36.792999"
       cy="70.699997"
       r="0.2"
       id="circle116" />
    <circle
       cx="49.193001"
       cy="48"
       r="0.2"
       id="circle118" />
    <circle
       cx="42.943001"
       cy="58.349998"
       r="0.2"
       id="circle120" />
    <circle
       cx="58.693001"
       cy="26.1"
       r="0.2"
       id="circle122" />
    <circle
       cx="61.193001"
       cy="49.0215"
       r="0.2"
       id="circle124" />
    <circle
       cx="30.693001"
       cy="29.6"
       r="0.2"
       id="circle126" />
    <circle
       cx="40.893002"
       cy="50.599998"
       r="0.2"
       id="circle128" />
    <circle
       cx="37.592999"
       cy="39.799999"
       r="0.2"
       id="circle130" />
    <circle
       cx="26.292999"
       cy="61.5"
       r="0.2"
       id="circle132" />
    <circle
       cx="62.193001"
       cy="26.1"
       r="0.2"
       id="circle134" />
    <circle
       cx="41.193001"
       cy="29.6"
       r="0.2"
       id="circle136" />
    <circle
       cx="74.392998"
       cy="54.200001"
       r="0.2"
       id="circle138" />
    <circle
       cx="79.693001"
       cy="29.6"
       r="0.2"
       id="circle140" />
    <circle
       cx="37.693001"
       cy="36.599998"
       r="0.2"
       id="circle142" />
    <circle
       cx="72.693001"
       cy="33.099998"
       r="0.2"
       id="circle144" />
    <circle
       cx="23.693001"
       cy="57.599998"
       r="0.2"
       id="circle146" />
    <circle
       cx="57.092999"
       cy="73.900002"
       r="0.2"
       id="circle148" />
    <circle
       cx="40.292999"
       cy="74.199997"
       r="0.2"
       id="circle150" />
    <circle
       cx="45.592999"
       cy="73.5"
       r="0.2"
       id="circle152" />
    <circle
       cx="58.693001"
       cy="22.6"
       r="0.2"
       id="circle154" />
    <circle
       cx="31.593"
       cy="47.099998"
       r="0.2"
       id="circle156" />
    <circle
       cx="49.393002"
       cy="69.800003"
       r="0.2"
       id="circle158" />
    <circle
       cx="65.693001"
       cy="33.099998"
       r="0.2"
       id="circle160" />
    <circle
       cx="57.193001"
       cy="45.099998"
       r="0.2"
       id="circle162" />
    <circle
       cx="34.193001"
       cy="33.099998"
       r="0.2"
       id="circle164" />
    <circle
       cx="36.792999"
       cy="74.199997"
       r="0.2"
       id="circle166" />
    <circle
       cx="55.874901"
       cy="53.687199"
       r="0.25"
       id="circle168" />
    <circle
       cx="65.693001"
       cy="29.6"
       r="0.2"
       id="circle170" />
    <circle
       cx="27.193001"
       cy="50.599998"
       r="0.2"
       id="circle172" />
    <circle
       cx="57.092999"
       cy="62.700001"
       r="0.2"
       id="circle174" />
    <circle
       cx="63.693001"
       cy="49.599998"
       r="0.2"
       id="circle176" />
    <circle
       cx="27.193001"
       cy="33.099998"
       r="0.2"
       id="circle178" />
    <circle
       cx="46.193001"
       cy="67.400002"
       r="0.2"
       id="circle180" />
    <circle
       cx="83.193001"
       cy="64.800003"
       r="0.2"
       id="circle182" />
    <circle
       cx="26.292999"
       cy="65"
       r="0.2"
       id="circle184" />
    <circle
       cx="51.693001"
       cy="33.099998"
       r="0.2"
       id="circle186" />
    <circle
       cx="23.693001"
       cy="54.099998"
       r="0.2"
       id="circle188" />
    <circle
       cx="48.193001"
       cy="22.6"
       r="0.2"
       id="circle190" />
    <circle
       cx="39.693001"
       cy="47.5"
       r="0.2"
       id="circle192" />
    <circle
       cx="54.599899"
       cy="53.687199"
       r="0.25"
       id="circle194" />
    <circle
       cx="83.193001"
       cy="47.099998"
       r="0.2"
       id="circle196" />
    <circle
       cx="37.592999"
       cy="43"
       r="0.2"
       id="circle198" />
    <circle
       cx="72.693001"
       cy="40.099998"
       r="0.2"
       id="circle200" />
    <circle
       cx="48.193001"
       cy="29.6"
       r="0.2"
       id="circle202" />
    <circle
       cx="34.292999"
       cy="39.799999"
       r="0.2"
       id="circle204" />
    <circle
       cx="44.493"
       cy="52.599998"
       r="0.2"
       id="circle206" />
    <circle
       cx="55.874901"
       cy="52.412201"
       r="0.25"
       id="circle208" />
    <circle
       cx="79.693001"
       cy="36.599998"
       r="0.2"
       id="circle210" />
    <circle
       cx="69.093002"
       cy="66.099998"
       r="0.2"
       id="circle212" />
    <circle
       cx="53.324902"
       cy="52.412201"
       r="0.25"
       id="circle214" />
    <circle
       cx="76.193001"
       cy="43.599998"
       r="0.2"
       id="circle216" />
    <circle
       cx="56.693001"
       cy="34.599998"
       r="0.2"
       id="circle218" />
    <circle
       cx="41.193001"
       cy="36.599998"
       r="0.2"
       id="circle220" />
    <circle
       cx="37.693001"
       cy="26.1"
       r="0.2"
       id="circle222" />
    <circle
       cx="23.693001"
       cy="50.599998"
       r="0.2"
       id="circle224" />
    <circle
       cx="38.592999"
       cy="59.599998"
       r="0.2"
       id="circle226" />
    <circle
       cx="83.193001"
       cy="40.099998"
       r="0.2"
       id="circle228" />
    <circle
       cx="65.693001"
       cy="55.700001"
       r="0.2"
       id="circle230" />
    <circle
       cx="69.193001"
       cy="26.1"
       r="0.2"
       id="circle232" />
    <circle
       cx="58.693001"
       cy="32.099998"
       r="0.2"
       id="circle234" />
    <circle
       cx="83.193001"
       cy="57.799999"
       r="0.2"
       id="circle236" />
    <circle
       cx="83.193001"
       cy="50.599998"
       r="0.2"
       id="circle238" />
    <circle
       cx="48.193001"
       cy="26.1"
       r="0.2"
       id="circle240" />
    <circle
       cx="37.393002"
       cy="52.700001"
       r="0.2"
       id="circle242" />
    <circle
       cx="44.693001"
       cy="29.6"
       r="0.2"
       id="circle244" />
    <circle
       cx="41.193001"
       cy="33.099998"
       r="0.2"
       id="circle246" />
    <circle
       cx="72.693001"
       cy="36.599998"
       r="0.2"
       id="circle248" />
    <circle
       cx="47.092999"
       cy="51.299999"
       r="0.2"
       id="circle250" />
    <circle
       cx="83.193001"
       cy="43.599998"
       r="0.2"
       id="circle252" />
    <circle
       cx="37.693001"
       cy="29.6"
       r="0.2"
       id="circle254" />
    <circle
       cx="48.193001"
       cy="33.099998"
       r="0.2"
       id="circle256" />
    <circle
       cx="65.693001"
       cy="66.199997"
       r="0.2"
       id="circle258" />
    <circle
       cx="83.193001"
       cy="68.300003"
       r="0.2"
       id="circle260" />
    <circle
       cx="42.943001"
       cy="59.349998"
       r="0.2"
       id="circle262" />
    <circle
       cx="27.193001"
       cy="36.599998"
       r="0.2"
       id="circle264" />
    <circle
       cx="62.193001"
       cy="66.199997"
       r="0.2"
       id="circle266" />
    <circle
       cx="31.593"
       cy="54.099998"
       r="0.2"
       id="circle268" />
    <circle
       cx="79.693001"
       cy="43.599998"
       r="0.2"
       id="circle270" />
    <circle
       cx="79.693001"
       cy="40.099998"
       r="0.2"
       id="circle272" />
    <circle
       cx="44.693001"
       cy="26.1"
       r="0.2"
       id="circle274" />
    <circle
       cx="62.193001"
       cy="55.700001"
       r="0.2"
       id="circle276" />
    <circle
       cx="48.292999"
       cy="39.599998"
       r="0.2"
       id="circle278" />
    <circle
       cx="65.193001"
       cy="51.599998"
       r="0.2"
       id="circle280" />
    <circle
       cx="86.693001"
       cy="50.599998"
       r="0.2"
       id="circle282" />
    <circle
       cx="70.892998"
       cy="54.200001"
       r="0.2"
       id="circle284" />
    <circle
       cx="23.693001"
       cy="43.599998"
       r="0.2"
       id="circle286" />
    <circle
       cx="30.693001"
       cy="33.099998"
       r="0.2"
       id="circle288" />
    <circle
       cx="49.393002"
       cy="66.300003"
       r="0.2"
       id="circle290" />
    <circle
       cx="72.693001"
       cy="26.1"
       r="0.2"
       id="circle292" />
    <circle
       cx="27.193001"
       cy="54.099998"
       r="0.2"
       id="circle294" />
    <circle
       cx="74.392998"
       cy="50.700001"
       r="0.2"
       id="circle296" />
    <circle
       cx="79.693001"
       cy="33.099998"
       r="0.2"
       id="circle298" />
    <circle
       cx="62.193001"
       cy="59.200001"
       r="0.2"
       id="circle300" />
    <circle
       cx="44.693001"
       cy="36.599998"
       r="0.2"
       id="circle302" />
    <circle
       cx="27.193001"
       cy="40.099998"
       r="0.2"
       id="circle304" />
    <circle
       cx="65.892998"
       cy="74"
       r="0.2"
       id="circle306" />
    <circle
       cx="31.593"
       cy="50.599998"
       r="0.2"
       id="circle308" />
    <circle
       cx="23.693001"
       cy="40.099998"
       r="0.2"
       id="circle310" />
    <circle
       cx="55.874901"
       cy="51.137199"
       r="0.25"
       id="circle312" />
    <circle
       cx="62.193001"
       cy="33.599998"
       r="0.2"
       id="circle314" />
    <circle
       cx="51.693001"
       cy="39.650002"
       r="0.2"
       id="circle316" />
    <circle
       cx="53.792999"
       cy="62.700001"
       r="0.2"
       id="circle318" />
    <circle
       cx="46.792999"
       cy="55.200001"
       r="0.2"
       id="circle320" />
    <circle
       cx="40.193001"
       cy="50.599998"
       r="0.2"
       id="circle322" />
    <circle
       cx="45.592999"
       cy="70"
       r="0.2"
       id="circle324" />
    <circle
       cx="69.193001"
       cy="36.599998"
       r="0.2"
       id="circle326" />
    <circle
       cx="47.993"
       cy="49.299999"
       r="0.2"
       id="circle328" />
    <circle
       cx="40.292999"
       cy="67.199997"
       r="0.2"
       id="circle330" />
    <circle
       cx="51.693001"
       cy="29.6"
       r="0.2"
       id="circle332" />
    <circle
       cx="83.193001"
       cy="54.099998"
       r="0.2"
       id="circle334" />
    <circle
       cx="71.892998"
       cy="66.099998"
       r="0.2"
       id="circle336" />
    <circle
       cx="44.792999"
       cy="42.799999"
       r="0.2"
       id="circle338" />
    <circle
       cx="36.792999"
       cy="67.199997"
       r="0.2"
       id="circle340" />
    <circle
       cx="42.443001"
       cy="58.849998"
       r="0.2"
       id="circle342" />
    <circle
       cx="53.792999"
       cy="66.199997"
       r="0.2"
       id="circle344" />
    <circle
       cx="69.093002"
       cy="59.099998"
       r="0.2"
       id="circle346" />
    <circle
       cx="34.292999"
       cy="43"
       r="0.2"
       id="circle348" />
    <circle
       cx="46.076401"
       cy="64.699997"
       r="0.2"
       id="circle350" />
    <circle
       cx="41.292999"
       cy="39.599998"
       r="0.2"
       id="circle352" />
    <circle
       cx="65.693001"
       cy="26.1"
       r="0.2"
       id="circle354" />
    <circle
       cx="65.892998"
       cy="70.5"
       r="0.2"
       id="circle356" />
    <circle
       cx="54.599899"
       cy="51.137199"
       r="0.25"
       id="circle358" />
    <circle
       cx="54.599899"
       cy="52.412201"
       r="0.25"
       id="circle360" />
    <circle
       cx="65.693001"
       cy="36.599998"
       r="0.2"
       id="circle362" />
    <circle
       cx="53.324902"
       cy="51.137199"
       r="0.25"
       id="circle364" />
    <circle
       cx="69.193001"
       cy="29.6"
       r="0.2"
       id="circle366" />
    <circle
       cx="83.193001"
       cy="61.299999"
       r="0.2"
       id="circle368" />
    <circle
       cx="26.292999"
       cy="72"
       r="0.2"
       id="circle370" />
    <circle
       cx="23.693001"
       cy="47.099998"
       r="0.2"
       id="circle372" />
    <circle
       cx="76.193001"
       cy="36.599998"
       r="0.2"
       id="circle374" />
    <circle
       cx="44.792999"
       cy="39.599998"
       r="0.2"
       id="circle376" />
    <circle
       cx="51.693001"
       cy="36.599998"
       r="0.2"
       id="circle378" />
    <circle
       cx="62.193001"
       cy="29.6"
       r="0.2"
       id="circle380" />
    <circle
       cx="42.993"
       cy="55.299999"
       r="0.2"
       id="circle382" />
    <circle
       cx="57.092999"
       cy="59.200001"
       r="0.2"
       id="circle384" />
    <circle
       cx="62.193001"
       cy="62.700001"
       r="0.2"
       id="circle386" />
    <circle
       cx="86.693001"
       cy="43.599998"
       r="0.2"
       id="circle388" />
    <circle
       cx="38.592999"
       cy="56.099998"
       r="0.2"
       id="circle390" />
    <circle
       cx="70.892998"
       cy="50.700001"
       r="0.2"
       id="circle392" />
    <circle
       cx="34.193001"
       cy="36.599998"
       r="0.2"
       id="circle394" />
    <circle
       cx="37.693001"
       cy="47.799999"
       r="0.2"
       id="circle396" />
    <circle
       cx="76.193001"
       cy="29.6"
       r="0.2"
       id="circle398" />
    <circle
       cx="83.193001"
       cy="36.599998"
       r="0.2"
       id="circle400" />
    <circle
       cx="69.093002"
       cy="62.599998"
       r="0.2"
       id="circle402" />
    <circle
       cx="41.193001"
       cy="26.1"
       r="0.2"
       id="circle404" />
    <circle
       cx="41.292999"
       cy="42.799999"
       r="0.2"
       id="circle406" />
    <circle
       cx="37.693001"
       cy="33.099998"
       r="0.2"
       id="circle408" />
    <circle
       cx="76.193001"
       cy="40.099998"
       r="0.2"
       id="circle410" />
    <circle
       cx="62.592999"
       cy="51.900002"
       r="0.2"
       id="circle412" />
    <circle
       cx="38.893002"
       cy="52.799999"
       r="0.2"
       id="circle414" />
    <circle
       cx="69.193001"
       cy="33.099998"
       r="0.2"
       id="circle416" />
    <circle
       cx="67.693001"
       cy="49.599998"
       r="0.2"
       id="circle418" />
    <circle
       cx="30.693001"
       cy="36.599998"
       r="0.2"
       id="circle420" />
    <circle
       cx="71.892998"
       cy="69.599998"
       r="0.2"
       id="circle422" />
    <circle
       cx="86.693001"
       cy="54.099998"
       r="0.2"
       id="circle424" />
    <circle
       cx="83.193001"
       cy="33.099998"
       r="0.2"
       id="circle426" />
    <circle
       cx="58.693001"
       cy="29.6"
       r="0.2"
       id="circle428" />
    <circle
       cx="48.193001"
       cy="36.599998"
       r="0.2"
       id="circle430" />
    <circle
       cx="72.693001"
       cy="29.6"
       r="0.2"
       id="circle432" />
    <circle
       cx="44.693001"
       cy="33.099998"
       r="0.2"
       id="circle434" />
    <circle
       cx="58.943001"
       cy="36.099998"
       r="0.2"
       id="circle436" />
    <circle
       cx="71.892998"
       cy="62.599998"
       r="0.2"
       id="circle438" />
    <circle
       cx="44.292999"
       cy="47.799999"
       r="0.2"
       id="circle440" />
    <circle
       cx="27.193001"
       cy="47.099998"
       r="0.2"
       id="circle442" />
    <circle
       cx="53.693001"
       cy="24.6"
       r="0.2"
       id="circle444" />
    <circle
       cx="40.292999"
       cy="70.699997"
       r="0.2"
       id="circle446" />
    <circle
       cx="34.193001"
       cy="29.6"
       r="0.2"
       id="circle448" />
    <circle
       cx="53.592999"
       cy="73.900002"
       r="0.2"
       id="circle450" />
    <circle
       cx="56.693001"
       cy="39.599998"
       r="0.2"
       id="circle452" />
    <circle
       cx="53.324902"
       cy="53.687199"
       r="0.25"
       id="circle454" />
    <circle
       cx="65.693001"
       cy="62.700001"
       r="0.2"
       id="circle456" />
    <circle
       cx="48.292999"
       cy="42.799999"
       r="0.2"
       id="circle458" />
    <circle
       cx="86.693001"
       cy="40.099998"
       r="0.2"
       id="circle460" />
    <circle
       cx="76.193001"
       cy="33.099998"
       r="0.2"
       id="circle462" />
    <circle
       cx="62.193001"
       cy="22.6"
       r="0.2"
       id="circle464" />
    <circle
       cx="66.975601"
       cy="40.444698"
       r="0.2"
       id="circle466" />
    <circle
       cx="58.4683"
       cy="40.936199"
       r="0.2"
       id="circle468" />
    <circle
       cx="54.792999"
       cy="20.1"
       r="0.2"
       id="circle470" />
    <circle
       cx="57.182999"
       cy="43.099998"
       r="0.2"
       id="circle472" />
    <circle
       cx="59.292999"
       cy="57.099998"
       r="0.2"
       id="circle474" />
    <circle
       cx="56.779999"
       cy="20.1"
       r="0.2"
       id="circle476" />
    <circle
       cx="51.193001"
       cy="55.849998"
       r="0.2"
       id="circle478" />
    <circle
       cx="58.493"
       cy="55.599998"
       r="0.2"
       id="circle480" />
    <circle
       cx="50.443001"
       cy="63.599998"
       r="0.2"
       id="circle482" />
    <circle
       cx="58.243"
       cy="56.150002"
       r="0.2"
       id="circle484" />
    <circle
       cx="55.779999"
       cy="20.1"
       r="0.2"
       id="circle486" />
    <circle
       cx="55.779999"
       cy="36.513"
       r="0.2"
       id="circle488" />
    <circle
       cx="49.792999"
       cy="20"
       r="0.2"
       id="circle490" />
    <circle
       cx="51.792999"
       cy="20"
       r="0.2"
       id="circle492" />
    <circle
       cx="66.693001"
       cy="42.394001"
       r="0.2"
       id="circle494" />
    <circle
       cx="50.792999"
       cy="20"
       r="0.2"
       id="circle496" />
    <circle
       cx="58.493"
       cy="46.599998"
       r="0.2"
       id="circle498" />
    <circle
       cx="58.193001"
       cy="45.599998"
       r="0.2"
       id="circle500" />
    <circle
       cx="67.693001"
       cy="67.099998"
       r="0.2"
       id="circle502" />
    <circle
       cx="58.684399"
       cy="47.345901"
       r="0.2"
       id="circle504" />
    <circle
       cx="36.792999"
       cy="54"
       r="0.2"
       id="circle506" />
    <circle
       cx="59.092999"
       cy="54.299999"
       r="0.2"
       id="circle508" />
    <circle
       cx="59.792999"
       cy="54"
       r="0.2"
       id="circle510" />
    <circle
       cx="36.993"
       cy="46.599998"
       r="0.2"
       id="circle512" />
  </g>
  <g
     style="fill:none;stroke:#4d7fc4;stroke-width:0.2;stroke-linecap:round;stroke-linejoin:round;stroke-opacity:1"
     id="g522"
     transform="translate(-13.104506,-14.6636)">
    <path
       d="m 55.8628,54.8835 v 0.2967"
       id="path516" />
    <path
       d="M 55.8628,55.1802 53.693,57.35"
       id="path518" />
    <path
       d="m 55.193,48 v 2.35"
       id="path520" />
  </g>
  <g
     style="fill:none;stroke:#4d7fc4;stroke-width:0.6;stroke-linecap:round;stroke-linejoin:round;stroke-opacity:1"
     id="g554"
     transform="translate(-13.104506,-14.6636)">
    <path
       d="m 47.78,18.2386 h -2"
       id="path524" />
    <path
       d="m 33.4695,56.0765 v -5.853"
       id="path526" />
    <path
       d="m 75.093,57.9 h 0.8"
       id="path528" />
    <path
       d="m 75.893,57.9 h 0.4"
       id="path530" />
    <path
       d="m 34.093,49.6 h 0.7825"
       id="path532" />
    <path
       d="m 73.693,57.9 h 0.7"
       id="path534" />
    <path
       d="M 33.4695,50.2235 34.093,49.6"
       id="path536" />
    <path
       d="M 70.593,59.7 V 71"
       id="path538" />
    <path
       d="m 74.393,57.9 h 0.7"
       id="path540" />
    <path
       d="m 69.693,71.9 h -20.4"
       id="path542" />
    <path
       d="m 72.393,57.9 -1.8,1.8"
       id="path544" />
    <path
       d="M 49.293,71.9 33.4695,56.0765"
       id="path546" />
    <path
       d="m 73.693,57.9 h -1.3"
       id="path548" />
    <path
       d="m 70.593,71 -0.9,0.9"
       id="path550" />
    <path
       d="M 34.8755,49.6 34.893,49.5825"
       id="path552" />
  </g>
  <g
     style="fill:none;stroke:#4d7fc4;stroke-width:0.15;stroke-linecap:round;stroke-linejoin:round;stroke-opacity:1"
     id="g560"
     transform="translate(-13.104506,-14.6636)">
    <path
       d="m 70.693,40.6 -0.5,-0.5"
       id="path556" />
    <path
       d="M 70.693,45.7 V 40.6"
       id="path558" />
  </g>
  <g
     style="fill:none;stroke:#4d7fc4;stroke-width:0.5;stroke-linecap:round;stroke-linejoin:round;stroke-opacity:1"
     id="g564"
     transform="translate(-13.104506,-14.6636)">
    <path
       d="m 58.78,18.2386 h 6"
       id="path562" />
  </g>
  <g
     style="fill:none;stroke:#4d7fc4;stroke-width:0.15;stroke-linecap:round;stroke-linejoin:round;stroke-opacity:1"
     id="g572"
     transform="translate(-13.104506,-14.6636)">
    <path
       d="m 66.9636,40.4327 0.012,0.012"
       id="path566" />
    <path
       d="m 58.4683,40.9362 0.5035,-0.5035"
       id="path568" />
    <path
       d="m 58.9718,40.4327 h 7.9918"
       id="path570" />
  </g>
  <g
     style="fill:none;stroke:#4d7fc4;stroke-width:0.4;stroke-linecap:round;stroke-linejoin:round;stroke-opacity:1"
     id="g586"
     transform="translate(-13.104506,-14.6636)">
    <path
       d="M 60.393,54.2 V 51"
       id="path574" />
    <path
       d="m 51.193,55.85 1.4675,-1.4675"
       id="path576" />
    <path
       d="M 51.193,59.6 V 55.85"
       id="path578" />
    <path
       d="m 58.993,55.6 1.4,-1.4"
       id="path580" />
    <path
       d="M 57.2755,54.3825 58.493,55.6"
       id="path582" />
    <path
       d="M 57.183,43.1 H 56.18"
       id="path584" />
  </g>
  <g
     style="fill:none;stroke:#4d7fc4;stroke-width:0.5;stroke-linecap:round;stroke-linejoin:round;stroke-opacity:1"
     id="g590"
     transform="translate(-13.104506,-14.6636)">
    <path
       d="M 55.78,42.7 V 36.513"
       id="path588" />
  </g>
  <g
     style="fill:none;stroke:#4d7fc4;stroke-width:0.4;stroke-linecap:round;stroke-linejoin:round;stroke-opacity:1"
     id="g608"
     transform="translate(-13.104506,-14.6636)">
    <path
       d="m 50.443,60.35 0.75,-0.75"
       id="path592" />
    <path
       d="M 55.78,46.387 V 42.7"
       id="path594" />
    <path
       d="m 58.493,55.6 h 0.5"
       id="path596" />
    <path
       d="m 56.18,43.1 -0.4,-0.4"
       id="path598" />
    <path
       d="M 60.393,51 55.78,46.387"
       id="path600" />
    <path
       d="M 50.443,63.6 V 60.35"
       id="path602" />
    <path
       d="m 56.78,18.2386 h -2"
       id="path604" />
    <path
       d="m 52.6605,54.3825 h 4.615"
       id="path606" />
  </g>
  <g
     style="fill:none;stroke:#4d7fc4;stroke-width:0.5;stroke-linecap:round;stroke-linejoin:round;stroke-opacity:1"
     id="g612"
     transform="translate(-13.104506,-14.6636)">
    <path
       d="m 49.8607,18.2406 h 1.853"
       id="path610" />
  </g>
  <g
     style="fill:none;stroke:#4d7fc4;stroke-width:0.3;stroke-linecap:round;stroke-linejoin:round;stroke-opacity:1"
     id="g626"
     transform="translate(-13.104506,-14.6636)">
    <path
       d="M 57.693,33.6 50.78,26.687"
       id="path614" />
    <path
       d="M 58.9873,42.3943 57.693,41.1"
       id="path616" />
    <path
       d="M 50.78,26.687 V 18.2386"
       id="path618" />
    <path
       d="M 66.6927,42.3943 H 58.9873"
       id="path620" />
    <path
       d="M 57.693,41.1 V 33.6"
       id="path622" />
    <path
       d="m 66.693,42.394 -3e-4,3e-4"
       id="path624" />
  </g>
  <g
     style="fill:none;stroke:#4d7fc4;stroke-width:0.15;stroke-linecap:round;stroke-linejoin:round;stroke-opacity:1"
     id="g672"
     transform="translate(-13.104506,-14.6636)">
    <path
       d="M 75.0479,47.0949 77.293,49.34"
       id="path628" />
    <path
       d="m 59.0879,47.0949 h 15.96"
       id="path630" />
    <path
       d="m 58.493,46.6 h 0.1"
       id="path632" />
    <path
       d="m 58.593,46.6 0.4949,0.4949"
       id="path634" />
    <path
       d="m 59.393,46.8 h 17.9"
       id="path636" />
    <path
       d="m 58.193,45.6 1.2,1.2"
       id="path638" />
    <path
       d="M 62.9389,47.3459 67.693,52.1"
       id="path640" />
    <path
       d="m 67.693,52.1 v 15"
       id="path642" />
    <path
       d="m 58.6844,47.3459 h 4.2545"
       id="path644" />
    <path
       d="m 43.393,52.8 -1.2,1.2"
       id="path646" />
    <path
       d="m 47.393,46.9 -4,4"
       id="path648" />
    <path
       d="m 59.093,54.3 v -3"
       id="path650" />
    <path
       d="m 59.093,51.3 -4.4,-4.4"
       id="path652" />
    <path
       d="m 54.693,46.9 h -7.3"
       id="path654" />
    <path
       d="m 42.193,54 h -5.4"
       id="path656" />
    <path
       d="m 43.393,50.9 v 1.9"
       id="path658" />
    <path
       d="m 54.793,46.6 h -17.8"
       id="path660" />
    <path
       d="M 59.793,54 V 51.6"
       id="path662" />
    <path
       d="m 59.793,51.6 -5,-5"
       id="path664" />
    <path
       style="fill:#4d7fc4;fill-opacity:1;fill-rule:evenodd;stroke:none"
       d="m 59.2923,54.601 -0.0368,0.0099 -0.0272,0.0157 v 0 0 l -0.0162,0.0044 -0.073,0.0195 v 0 0 h -0.0922 v 0 l -0.0892,-0.0239 v 0 0 0 l -0.0254,-0.0147 -0.0372,-0.0099 -0.8748,0.0022 -1.2199,0.0031 -0.0144,0.0015 -0.055,0.011 -0.0266,0.0112 -0.0404,0.0271 -0.0203,0.0205 -0.0269,0.0405 -0.011,0.0267 -0.0108,0.055 -0.0014,0.0144 0.0043,1.3757 0.0026,0.0191 0.0193,0.0713 0.0191,0.033 0.0452,0.045 0.0331,0.0191 0.0527,0.0141 0.0186,0.005 0.0191,0.0025 h 1.0829 l 8e-4,0.1991 v 0 l 0.0035,0.7921 0.0026,0.0191 0.0194,0.0711 0.0192,0.0331 0.0451,0.0449 0.0331,0.0191 0.0713,0.019 0.0191,0.0025 h 1.3811 l 0.0144,-0.0014 0.055,-0.011 0.0267,-0.011 0.0048,-0.0032 0.0356,-0.0238 0.0204,-0.0204 0.027,-0.0404 0.011,-0.0267 0.011,-0.055 0.0014,-0.0144 v -2.5849 l -0.0014,-0.0145 -9e-4,-0.0042 -0.0101,-0.0508 -0.0111,-0.0267 -0.0271,-0.0405 -0.0204,-0.0204 -0.0405,-0.0269 -0.0268,-0.0111 -0.055,-0.0108 -0.0145,-0.0014 z"
       id="path666" />
    <path
       style="fill:#4d7fc4;fill-opacity:1;fill-rule:evenodd;stroke:none"
       d="m 31.8921,15.1511 -0.0085,5e-4 -0.4005,0.0396 -0.0085,0.0012 -0.3955,0.0741 -0.0084,0.0019 -0.3877,0.108 -0.0081,0.0027 -0.3769,0.1411 -0.0078,0.0033 -0.2618,0.1248 -0.1015,0.0484 -0.0076,0.004 -0.3469,0.204 -0.0072,0.0046 -0.19,0.1351 -0.138,0.0981 -0.0068,0.0053 -0.3066,0.2606 -0.0063,0.0058 -0.2047,0.2072 -0.0782,0.079 -0.0057,0.0064 -0.2572,0.3095 -0.0052,0.0069 -0.2294,0.3306 -0.0045,0.0073 -0.2,0.3492 -0.0039,0.0076 -0.169,0.3652 -0.0033,0.008 -0.1375,0.3803 -0.0013,0.004 -0.0042,0.0132 -0.0095,0.0304 v 0 l -0.0021,0.0067 v 0 0 l -12.8865,41.1336 -0.9537,3.044 -0.0136,0.0434 -0.0011,0.004 -0.1024,0.383 -0.0018,0.0082 -0.0692,0.3882 -0.0011,0.0083 -0.0361,0.3927 -4e-4,0.0084 -0.0027,0.3943 3e-4,0.0084 0.0308,0.3931 0.001,0.0083 0.064,0.3891 0.0017,0.0082 0.0966,0.3823 0.0025,0.0081 0.1287,0.3727 0.003,0.0078 0.1599,0.3605 0.0037,0.0075 0.1898,0.3456 0.0043,0.0072 0.2184,0.3283 0.005,0.0068 0.2454,0.3086 0.0055,0.0064 0.2707,0.2867 0.006,0.0059 0.2955,0.264 0.0031,0.0027 0.0043,0.0035 v 0 l 0.0329,0.0271 v 0 l 8.8262,7.2394 0.0352,0.0289 0.0033,0.0026 0.321,0.241 0.007,0.0048 0.3386,0.2114 0.0074,0.0042 0.3555,0.1816 0.0077,0.0035 0.3698,0.1505 0.008,0.0028 0.3813,0.1182 0.0082,0.0022 0.3901,0.085 0.0084,0.0015 0.3958,0.0512 0.0085,8e-4 0.4008,0.0172 0.0042,1e-4 h 56.1401 0.008 v 0 h 0.0214 0.024 v 0 l 0.0043,-1e-4 0.401,-0.0172 0.0084,-8e-4 0.3959,-0.0512 0.0084,-0.0015 0.39,-0.085 0.0082,-0.0022 0.3814,-0.1182 0.008,-0.0028 0.3697,-0.1505 0.0078,-0.0035 0.3555,-0.1816 0.0073,-0.0042 0.3387,-0.2114 0.007,-0.0048 0.3204,-0.2406 0.0033,-0.0026 1.086,-0.8908 0.8325,-0.6828 0.0874,-0.0716 H 60.303 v 0.2189 0 h -0.4 v 0.5 h 0.4 v 0 0.2189 l -0.0269,0.1353 -0.0528,0.1274 -0.0766,0.1146 -0.0975,0.0975 -0.1146,0.0766 v 0 l -0.0816,0.0338 v 0 -0.4871 l -0.0099,0.0172 -0.0559,0.0559 -0.0684,0.0395 -0.0763,0.0204 h -0.079 L 59.4872,74.6446 59.4188,74.6051 59.3629,74.5492 59.353,74.532 v 0.4871 l -0.0816,-0.0338 v 0 L 59.1568,74.9087 59.0593,74.8112 58.9827,74.6966 58.9299,74.5692 58.903,74.4339 v 0 -0.2189 0 h 0.4 v -0.5 h -0.4 v 0 -0.2189 0 h -7.24 v 0.2189 0 h -0.4 v 0.5 h 0.4 v 0 0.2189 l -0.0269,0.1353 -0.0528,0.1274 -0.0766,0.1146 -0.0975,0.0975 -0.1146,0.0766 v 0 l -0.0816,0.0338 v 0 -0.4871 l -0.0099,0.0172 -0.0559,0.0559 -0.0684,0.0395 -0.0763,0.0204 h -0.079 L 50.8472,74.6446 50.7788,74.6051 50.7229,74.5492 50.713,74.532 v 0.4871 l -0.0816,-0.0338 v 0 L 50.5168,74.9087 50.4193,74.8112 50.3427,74.6966 50.2899,74.5692 50.263,74.4339 v 0 -0.2189 0 h 0.4 v -0.5 h -0.4 v 0 -0.2189 0 l 0.0225,-0.1132 v 0 l 0.0044,-0.0221 v 0 l 0.0528,-0.1274 0.0766,-0.1146 0.0975,-0.0975 0.1146,-0.0766 0.0816,-0.0338 v 0.4871 l 0.0099,-0.0172 0.0559,-0.0559 0.0684,-0.0395 0.0763,-0.0204 h 0.079 l 0.0763,0.0204 0.0684,0.0395 0.0559,0.0559 0.0099,0.0172 v -0.4871 0 l 0.0816,0.0338 0.1146,0.0766 0.0975,0.0975 0.0766,0.1146 0.0528,0.1274 0.0269,0.1353 h 7.24 l 0.0269,-0.1353 0.0528,-0.1274 0.0766,-0.1146 0.0975,-0.0975 0.1146,-0.0766 0.0816,-0.0338 v 0.4871 l 0.0099,-0.0172 0.0559,-0.0559 0.0684,-0.0395 0.0763,-0.0204 h 0.079 l 0.0763,0.0204 0.0684,0.0395 0.0559,0.0559 0.0099,0.0172 v -0.4871 0 l 0.0816,0.0338 0.1146,0.0766 0.0975,0.0975 0.0766,0.1146 0.0528,0.1274 0.0269,0.1353 h 28.095 l 5.6102,-4.6017 1.2477,-1.0234 v 0 l 0.0351,-0.0288 0.0032,-0.0027 0.2948,-0.2634 0.006,-0.0059 0.0094,-0.0099 0.0828,-0.0877 0.1779,-0.1882 0.0054,-0.0064 0.245,-0.3076 0.0049,-0.0068 0.2181,-0.3272 0.0043,-0.0072 0.156,-0.2834 0.0337,-0.0611 0.0037,-0.0074 0.1598,-0.3593 0.0031,-0.0078 0.129,-0.3715 0.0024,-0.008 0.0333,-0.1308 0.0638,-0.2503 0.0017,-0.0082 0.0014,-0.0087 0.0631,-0.3792 0.001,-0.0083 2e-4,-0.0016 0.0314,-0.3904 3e-4,-0.0083 -0.0015,-0.3556 h -1.0941 v 0.3586 l -0.0351,0.357 -0.07,0.3518 -0.1041,0.3432 -0.1373,0.3314 v 0 l -0.169,0.3163 -0.1023,0.153 -0.097,0.1452 -0.2276,0.2773 -0.2536,0.2536 -0.2772,0.2275 -0.0824,0.0551 -0.2159,0.1442 -0.3163,0.1691 v 0 l -0.3314,0.1372 v 0 0 l -0.3432,0.1042 v 0 0 l -0.3518,0.0699 -0.3569,0.0352 v 0 h -0.3587 v 0 L 91.7444,67.7839 91.3926,67.714 v 0 0 l -0.3432,-0.1042 v 0 h -1e-4 l -0.3313,-0.1372 -0.1796,-0.096 -0.1367,-0.0731 -0.0333,-0.0222 -0.265,-0.1771 -0.2772,-0.2275 -0.2537,-0.2536 -0.2275,-0.2773 -0.1993,-0.2982 -0.169,-0.3163 -0.1373,-0.3314 -0.0334,-0.11 -0.0707,-0.2332 -0.0087,-0.0439 -0.0613,-0.3079 -0.0352,-0.357 v -0.3586 l 0.0352,-0.357 0.07,-0.3518 v 0 0 l 0.1041,-0.3432 0.0717,-0.1732 0.0656,-0.1582 v 0 l 0.169,-0.3163 0.1023,-0.153 0.097,-0.1452 0.2275,-0.2773 0.2537,-0.2536 0.2772,-0.2276 0.0746,-0.0498 0.2237,-0.1494 0.3163,-0.1691 v 0 0 0 0 l 0.3314,-0.1373 0.3432,-0.1041 0.283,-0.0563 0.0688,-0.0136 v 0 l 0.2609,-0.0257 0.096,-0.0095 H 92.46 l 0.1055,0.0104 0.2514,0.0248 0.3518,0.0699 0.3432,0.1041 0.3314,0.1373 v 0 l 0.3163,0.1691 0.2983,0.1993 0.2772,0.2275 0.2537,0.2536 0.2275,0.2773 0.1993,0.2982 0.169,0.3163 v 0 l 0.1373,0.3314 0.1041,0.3432 0.07,0.3518 0.0139,0.1416 0.0184,0.1866 0.0028,0.0288 h 1.0941 l -2e-4,-0.0377 -4e-4,-0.0083 -3e-4,-0.0038 -0.0345,-0.3879 -0.0011,-0.0083 -0.0679,-0.3874 -0.0018,-0.0081 -0.1007,-0.3815 -0.0012,-0.0044 -0.0035,-0.0112 -1.5424,-4.9232 H 76.8435 v 0.145 l -0.0375,0.14 -0.0725,0.1255 v 0 0 l -0.1025,0.1025 v 0 0 l -0.1255,0.0725 v 0 0 l -0.14,0.0375 h -0.4 -0.8 -0.7 -0.7 -1.1035 l -0.0582,0.0189 -0.0118,0.0101 -1.4195,1.4195 -0.0278,0.0545 -0.0012,0.0155 v 10.9585 0.145 l -0.0375,0.14 -0.0725,0.1255 -1.0025,1.0025 -0.1255,0.0725 -0.14,0.0375 v 0 h -20.545 v 0 l -0.14,-0.0375 -0.0598,-0.0346 H 43.793 v 0.1732 l -0.0271,0.171 -0.0535,0.1646 -0.0786,0.1543 -0.0045,0.0062 -0.4533,-0.4533 -0.0171,0.0636 -0.0658,0.114 -0.0931,0.0931 -0.114,0.0658 -0.0636,0.0171 0.4533,0.4533 v 0 l -0.0062,0.0045 v 0 l -0.1543,0.0786 -0.1646,0.0535 -0.171,0.0271 h -0.1732 l -0.171,-0.0271 -0.1646,-0.0535 -0.1543,-0.0786 v 0 L 42.1103,73.4013 42.5636,72.948 42.5,72.9309 42.386,72.8651 42.2929,72.772 42.2271,72.658 42.21,72.5944 41.7567,73.0477 41.7522,73.0415 v 0 l -0.0786,-0.1543 -0.0535,-0.1646 -0.0271,-0.171 v -0.1732 l 0.0271,-0.171 0.0535,-0.1646 0.0786,-0.1543 v 0 l 0.0045,-0.0062 v 0 l 0.4533,0.4533 0.0171,-0.0636 0.0658,-0.114 0.0931,-0.0931 0.114,-0.0658 0.0636,-0.0171 -0.4533,-0.4533 0.0062,-0.0045 0.1543,-0.0786 0.1646,-0.0535 0.171,-0.0271 h 0.1732 l 0.171,0.0271 0.1646,0.0535 0.1543,0.0786 0.0062,0.0045 -0.4533,0.4533 0.0636,0.0171 0.114,0.0658 0.0931,0.0931 0.0658,0.114 0.0171,0.0636 0.4533,-0.4533 0.0045,0.0062 0.0786,0.1543 0.0535,0.1646 0.0271,0.171 h 5.2277 L 48.955,72.3405 45.6648,69.0503 h -1.8713 v 1.7494 0 l -0.0145,0.073 v 0 l -0.0554,0.0829 v 0 l -0.0651,0.0435 -0.0178,0.0119 -0.0555,0.011 -0.0175,0.0035 v 0 0 0 h -1.7494 v 0 l -0.073,-0.0145 -0.0829,-0.0554 -0.0554,-0.0829 -0.0145,-0.073 v -1.7494 l 0.0145,-0.073 0.0554,-0.0829 v 0 l 0.0829,-0.0554 v 0 0 0 l 0.073,-0.0145 v 0 h 1.7494 v 0 0 l 0.073,0.0145 v 0 l 0.0829,0.0554 v 0 l 0.0554,0.0829 v 0 l 0.0145,0.073 v 0 h 1.8713 l -5.0611,-5.061 H 21.9302 v 0.3586 l -0.0352,0.357 -0.0699,0.3518 -0.1042,0.3432 -0.1372,0.3314 v 0 l -0.1691,0.3163 -0.1022,0.153 -0.0971,0.1452 -0.2275,0.2773 -0.2536,0.2536 -0.2773,0.2275 -0.0824,0.0551 -0.2158,0.1442 -0.3163,0.1691 v 0 l -0.3314,0.1372 v 0 0 l -0.3432,0.1042 v 0 0 l -0.3518,0.0699 -0.357,0.0352 v 0 h -0.3586 v 0 l -0.357,-0.0352 -0.3518,-0.0699 v 0 0 l -0.3432,-0.1042 v 0 0 l -0.3314,-0.1372 -0.1795,-0.096 -0.1368,-0.0731 -0.0332,-0.0222 -0.265,-0.1771 -0.2773,-0.2275 -0.2536,-0.2536 -0.2276,-0.2773 -0.1992,-0.2982 -0.1691,-0.3163 -0.1373,-0.3314 -0.0333,-0.11 -0.0708,-0.2332 -0.0087,-0.0439 -0.0612,-0.3079 -0.0352,-0.357 v -0.3586 l 0.0352,-0.357 0.0699,-0.3518 v 0 0 l 0.1041,-0.3432 0.0718,-0.1732 0.0655,-0.1582 v 0 l 0.1691,-0.3163 0.1022,-0.153 0.097,-0.1452 0.2276,-0.2773 0.2536,-0.2536 0.2773,-0.2276 0.0745,-0.0498 0.2237,-0.1494 0.3163,-0.1691 v 0 0 0 0 l 0.3314,-0.1373 0.3432,-0.1041 0.283,-0.0563 0.0688,-0.0136 v 0 l 0.2609,-0.0257 0.0961,-0.0095 h 0.3586 l 0.1055,0.0104 0.2515,0.0248 0.3518,0.0699 0.3432,0.1041 0.3314,0.1373 v 0 l 0.3163,0.1691 0.2982,0.1993 0.2773,0.2275 0.2536,0.2536 0.2275,0.2773 0.1993,0.2982 0.1691,0.3163 v 0 l 0.1372,0.3314 0.1042,0.3432 0.0699,0.3518 0.014,0.1416 0.0184,0.1866 0.0028,0.0288 H 40.6037 L 33.029,56.4145 32.9565,56.289 32.9514,56.2698 32.9445,56.2441 32.919,56.149 v -5.998 l 0.0102,-0.038 0.0273,-0.102 0.032,-0.0553 0.0405,-0.0702 0.726,-0.726 0.1255,-0.0725 v 0 l 0.0176,-0.0047 v 0 l 0.1224,-0.0328 v 0 h 0.7217 l 0.0256,-0.0034 0.0527,-0.0141 h 0.145 l 0.14,0.0375 0.1255,0.0725 0.1025,0.1025 0.0725,0.1255 0.0375,0.14 v 0.145 l -0.0375,0.14 -0.0725,0.1255 -0.12,0.12 v 0 l -0.1101,0.0636 v 0 0 l -0.0154,0.0089 -0.14,0.0375 v 0 h -0.145 -0.441 l -0.0582,0.0189 -0.0118,0.0101 -0.243,0.243 -0.0278,0.0545 -0.0012,0.0155 v 5.315 l 0.0189,0.0582 0.0101,0.0118 15.443,15.443 0.0545,0.0278 0.0155,0.0012 h 19.862 l 0.0582,-0.0189 0.0118,-0.0101 0.5195,-0.5195 0.0278,-0.0545 0.0012,-0.0155 V 69.1761 H 60.303 v 0.3689 0 h -0.4 v 0.5 h 0.4 v 0 0.3689 l -0.0269,0.1353 -0.0528,0.1274 -0.0766,0.1146 -0.0975,0.0975 -0.1146,0.0766 v 0 l -0.0816,0.0338 v 0 -0.4871 l -0.0099,0.0172 -0.0559,0.0559 -0.0684,0.0395 -0.0763,0.0204 h -0.079 L 59.4872,70.6246 59.4188,70.5851 59.3629,70.5292 59.353,70.512 v 0.4871 l -0.0816,-0.0338 v 0 L 59.1568,70.8887 59.0593,70.7912 58.9827,70.6766 58.9299,70.5492 58.903,70.4139 v 0 -0.1916 h -0.3295 v 0.1054 l -0.0231,0.0862 -0.0042,0.0157 v 0 l -0.018,0.0312 -0.0347,0.0601 -0.0746,0.0746 -0.0913,0.0527 -0.1019,0.0273 v 0 h -0.1054 v 0 l -0.1019,-0.0273 -0.0913,-0.0527 -0.0746,-0.0746 -0.0527,-0.0913 -0.0273,-0.1019 v -0.1054 h -4.979 v 0.1054 l -0.0231,0.0862 -0.0042,0.0157 v 0 l -0.018,0.0312 -0.0347,0.0601 -0.0746,0.0746 -0.0913,0.0527 -0.1019,0.0273 v 0 h -0.1054 v 0 l -0.1019,-0.0273 -0.0913,-0.0527 -0.0746,-0.0746 -0.0527,-0.0913 -0.0273,-0.1019 v -0.1054 l 0.0273,-0.1019 0.0527,-0.0913 0.0746,-0.0746 0.0913,-0.0527 0.1019,-0.0273 h 0.1054 l 0.1019,0.0273 v 0 0 0 l 0.0913,0.0527 0.0746,0.0746 0.0527,0.0913 v 0 0 0 l 0.0273,0.1019 h 4.979 l 0.0273,-0.1019 0.0527,-0.0913 0.0746,-0.0746 0.0913,-0.0527 0.1019,-0.0273 h 0.1054 l 0.1019,0.0273 v 0 0 0 l 0.0913,0.0527 0.0746,0.0746 0.0527,0.0913 v 0 0 0 l 0.0273,0.1019 h 0.3295 v -0.1773 0 h 0.4 v -0.5 h -0.4 v 0 -0.3689 0 h -7.24 v 0.3689 0 h -0.4 v 0.5 h 0.4 v 0 0.3689 l -0.0269,0.1353 -0.0528,0.1274 -0.0766,0.1146 -0.0975,0.0975 -0.1146,0.0766 v 0 l -0.0816,0.0338 v 0 -0.4871 l -0.0099,0.0172 -0.0559,0.0559 -0.0684,0.0395 -0.0763,0.0204 h -0.079 L 50.8472,70.6246 50.7788,70.5851 50.7229,70.5292 50.713,70.512 v 0.4871 l -0.0816,-0.0338 v 0 L 50.5168,70.8887 50.4193,70.7912 50.3427,70.6766 50.2899,70.5492 50.263,70.4139 v 0 -0.3689 0 h 0.4 v -0.5 h -0.4 v 0 -0.3689 0 l 0.0269,-0.1353 0.0528,-0.1274 0.0766,-0.1146 0.0975,-0.0975 0.1146,-0.0766 0.0816,-0.0338 v 0.4871 l 0.0099,-0.0172 0.0559,-0.0559 0.0684,-0.0395 0.0763,-0.0204 h 0.079 l 0.0763,0.0204 0.0684,0.0395 0.0559,0.0559 0.0099,0.0172 v -0.4871 0 l 0.0816,0.0338 0.1146,0.0766 0.0975,0.0975 0.0766,0.1146 0.0528,0.1274 0.0269,0.1353 h 7.24 l 0.0269,-0.1353 0.0528,-0.1274 0.0766,-0.1146 0.0975,-0.0975 0.1146,-0.0766 0.0816,-0.0338 v 0.4871 l 0.0099,-0.0172 0.0559,-0.0559 0.0684,-0.0395 0.0763,-0.0204 h 0.079 l 0.0763,0.0204 0.0684,0.0395 0.0559,0.0559 0.0099,0.0172 v -0.4871 0 l 0.0816,0.0338 0.1146,0.0766 0.0975,0.0975 0.0766,0.1146 0.0528,0.1274 0.0269,0.1353 h 9.7395 v -9.5486 l 0.0375,-0.14 0.0725,-0.1255 1.9025,-1.9025 0.1255,-0.0725 v 0 0 l 0.0388,-0.0104 v 0 l 0.1012,-0.0271 h 1.3 0.7 0.7 0.8 0.545 l 0.0617,0.0165 0.0783,0.021 0.1255,0.0725 0.1025,0.1025 0.0725,0.1255 0.0375,0.14 H 95.2712 L 94.1766,54.3334 H 78.393 v 0.1732 l -0.0271,0.171 -0.0535,0.1646 -0.0786,0.1543 -0.0045,0.0062 -0.4533,-0.4533 -0.0171,0.0636 -0.0658,0.114 -0.0931,0.0931 -0.114,0.0658 -0.0636,0.0171 0.4533,0.4533 v 0 l -0.0062,0.0045 v 0 l -0.1543,0.0786 -0.1646,0.0535 -0.171,0.0271 h -0.1732 l -0.171,-0.0271 -0.1646,-0.0535 -0.1543,-0.0786 v 0 L 76.7103,55.3563 77.1636,54.903 77.1,54.8859 76.986,54.8201 76.8929,54.727 76.8271,54.613 76.81,54.5494 76.3567,55.0027 76.3522,54.9965 v 0 l -0.0786,-0.1543 -0.0535,-0.1646 -0.0271,-0.171 v -0.1732 l 0.0271,-0.171 0.0535,-0.1646 0.0786,-0.1543 v 0 l 0.0045,-0.0062 v 0 l 0.4533,0.4533 0.0171,-0.0636 0.0658,-0.114 0.0931,-0.0931 0.114,-0.0658 0.0636,-0.0171 -0.4533,-0.4533 0.0062,-0.0045 0.1543,-0.0786 0.1646,-0.0535 0.171,-0.0271 h 0.1732 l 0.171,0.0271 0.1646,0.0535 0.1543,0.0786 0.0062,0.0045 -0.4533,0.4533 0.0636,0.0171 0.114,0.0658 0.0931,0.0931 0.0658,0.114 0.0171,0.0636 0.4533,-0.4533 0.0045,0.0062 0.0786,0.1543 0.0535,0.1646 0.0271,0.171 h 15.7836 l -0.7958,-2.54 H 78.3935 v 0.1732 l -0.0271,0.1711 v 0 l -0.0535,0.1647 v 0 0 0 l -0.0787,0.1544 -0.1018,0.1401 -0.1225,0.1225 -0.1401,0.1018 -0.1544,0.0787 v 0 0 0 l -0.1647,0.0535 v 0 l -0.1711,0.0271 v 0 h -0.1732 l -0.1711,-0.0271 v 0 l -0.1647,-0.0535 v 0 0 l -0.1544,-0.0787 -0.1401,-0.1018 -0.1225,-0.1225 -0.1018,-0.1401 -0.0787,-0.1544 v 0 0 l -0.0535,-0.1647 v 0 l -0.0271,-0.1711 v -0.1732 l 0.0271,-0.1711 v 0 l 0.0535,-0.1647 v 0 0 0 l 0.0787,-0.1544 0.1018,-0.1401 0.1225,-0.1225 0.1401,-0.1018 v 0 0 l 0.1544,-0.0787 v 0 l 0.1647,-0.0535 v 0 l 0.1711,-0.0271 v 0 h 0.1732 v 0 l 0.1711,0.0271 v 0 l 0.1647,0.0535 v 0 l 0.1544,0.0787 0.1401,0.1018 0.1225,0.1225 0.1018,0.1401 0.0787,0.1544 v 0 l 0.0535,0.1647 v 0 l 0.0271,0.1711 H 93.3808 L 91.5424,45.9253 H 78.3935 v 1.7494 0 l -0.0145,0.073 v 0 l -0.0554,0.0829 v 0 l -0.0829,0.0554 -0.0555,0.011 -0.0175,0.0035 v 0 0 0 h -1.6149 l -0.0582,0.0189 -0.0359,0.0495 v 0.0612 l 0.0241,0.0394 0.2461,0.246 0.0545,0.0278 0.0604,-0.0096 0.0268,-0.0136 v 0 l 0.1647,-0.0535 v 0 l 0.1711,-0.0271 v 0 h 0.1732 v 0 l 0.1711,0.0271 v 0 l 0.1647,0.0535 v 0 l 0.1544,0.0787 0.1401,0.1018 0.1225,0.1225 0.1018,0.1401 0.0787,0.1544 v 0 l 0.0535,0.1647 v 0 l 0.0271,0.1711 v 0.1732 l -0.0271,0.1711 v 0 l -0.0535,0.1647 v 0 0 0 l -0.0787,0.1544 -0.1018,0.1401 -0.1225,0.1225 -0.1401,0.1018 -0.1544,0.0787 v 0 0 0 l -0.1647,0.0535 v 0 l -0.1711,0.0271 v 0 h -0.1732 l -0.1711,-0.0271 v 0 l -0.1647,-0.0535 v 0 0 l -0.1544,-0.0787 -0.1401,-0.1018 -0.1225,-0.1225 -0.1018,-0.1401 -0.0787,-0.1544 v 0 0 l -0.0535,-0.1647 v 0 l -0.0271,-0.1711 v -0.1732 l 0.0271,-0.1711 v 0 l 0.0535,-0.1647 v 0 l 0.0136,-0.0268 0.0096,-0.0604 -0.0278,-0.0545 -1.3264,-1.3265 -0.0545,-0.0278 -0.0155,-0.0012 H 63.7127 l -0.0582,0.0189 -0.0359,0.0495 V 47.55 l 0.0241,0.0394 4.3108,4.3107 v 0 l 0.0428,0.0743 v 0 0 l 0.0222,0.0827 v 14.6903 l 0.0189,0.0582 0.0101,0.0118 0.006,0.006 v 0 l 0.0593,0.1027 0.0119,0.0443 0.0188,0.0703 v 0.1186 l -0.0168,0.0627 -0.0139,0.0519 -0.0593,0.1027 v 0 0 l -0.0839,0.0839 v 0 0 l -0.1027,0.0593 v 0 0 l -0.1146,0.0307 v 0 h -0.1186 v 0 l -0.1146,-0.0307 v 0 0 l -0.1027,-0.0593 v 0 0 l -0.0839,-0.0839 -0.0533,-0.0922 -0.006,-0.0105 v 0 0 l -0.0307,-0.1146 v -0.1186 l 0.0307,-0.1146 v 0 0 l 0.0593,-0.1027 v 0 l 0.006,-0.006 0.0278,-0.0545 0.0012,-0.0155 V 52.2758 l -0.0189,-0.0582 -0.0101,-0.0118 -1.2651,-1.2651 h -5.2299 v 3.3186 l -0.0118,0.044 -0.0046,0.0172 v 0 l -0.0143,0.0534 v 0 l -0.0593,0.1027 v 0 0 l -0.776,0.776 -0.0278,0.0545 -0.0012,0.0155 v 2.0701 l -8e-4,0.0166 -4e-4,0.0085 v 0 l -0.0015,0.0144 v 0 l -0.0036,0.0248 -5e-4,0.0025 -0.0105,0.0524 -0.0145,0.048 v 0 0 l -0.011,0.0266 -0.0215,0.0401 -0.0022,0.0041 -0.027,0.0404 -0.0317,0.0387 -0.0204,0.0205 h -1e-4 l -0.0387,0.0317 -0.0404,0.027 v 0 l -0.0441,0.0236 -0.0267,0.0111 v 0 0 l -0.0126,0.0038 -0.0354,0.0107 -0.0549,0.011 -0.0248,0.0036 -0.0144,0.0015 -0.0251,0.0012 v 0 h -1.3811 v 0 0 0 l -0.0333,-0.0022 v 0 0 l -0.0191,-0.0025 -0.0327,-0.0065 -0.0712,-0.019 -0.0615,-0.0254 -0.0331,-0.019 -0.0528,-0.0404 -0.0452,-0.045 -0.0406,-0.0526 -0.0192,-0.0331 -0.0257,-0.0613 -0.0193,-0.0712 -0.0067,-0.0327 -0.0025,-0.0191 -0.0024,-0.0332 -0.0028,-0.6382 -0.0191,-0.0581 -0.0497,-0.0358 -0.0302,-0.0047 h -0.7298 -10e-5 l -0.0332,-0.0022 -0.0192,-0.0025 -0.0327,-0.0065 -0.0713,-0.0191 -0.0064,-0.0026 -0.0551,-0.0228 v 0 l -0.0331,-0.0191 -0.0529,-0.0404 -0.0451,-0.045 -0.0407,-0.0528 -0.0191,-0.033 -0.0257,-0.0615 -0.0048,-0.0178 -0.0145,-0.0534 v 0 h 1e-4 -1e-4 L 56.3473,56.2441 56.3447,56.225 56.3424,56.1917 56.34,55.4238 l -0.0191,-0.0581 -0.0496,-0.0358 -0.0612,2e-4 -0.0493,0.0361 -0.0055,0.0084 -0.012,0.0208 -1.0141,1.0141 -0.9618,0.9618 -0.0256,0.0443 -0.029,0.1083 v 0 0 l -0.0593,0.1027 v 0 0 l -0.0839,0.0839 v 0 0 l -0.1027,0.0593 v 0 0 l -0.1146,0.0307 v 0 h -0.1186 v 0 l -0.1146,-0.0307 v 0 0 l -0.1027,-0.0593 v 0 0 l -0.0839,-0.0839 -0.0097,-0.0168 -0.0496,-0.0859 v 0 0 l -0.0307,-0.1146 v -0.1186 l 0.0307,-0.1146 v 0 0 l 0.0593,-0.1027 v 0 0 l 0.0839,-0.0839 v 0 0 l 0.1027,-0.0593 v 0 0 l 0.1083,-0.029 0.0443,-0.0256 1.7408,-1.7408 0.0084,-0.0165 0.0123,-0.0139 9e-4,-0.012 0.0062,-0.0121 -0.0011,-0.0368 -5e-4,-0.0021 -0.0264,-0.0986 V 54.9212 L 55.41,54.9107 55.3997,54.8932 55.3934,54.8738 55.3846,54.8674 55.3791,54.858 l -0.0187,-0.0082 -0.0165,-0.012 -0.0171,-0.0027 -0.0038,-0.0016 -0.0028,6e-4 -0.0069,-0.0011 h -2.4252 l -0.0582,0.0189 -0.0118,0.0101 -1.1456,1.1456 -0.0278,0.0545 -0.0012,0.0155 v 3.5817 l -0.0242,0.0904 v 0 l -0.0065,0.0242 v 0 l -0.0593,0.1027 v 0 0 l -0.631,0.631 -0.0278,0.0545 -0.0012,0.0155 v 3.0817 l -0.0271,0.1011 -0.0036,0.0135 -0.0593,0.1027 v 0 0 l -0.0839,0.0839 v 0 0 l -0.1027,0.0593 v 0 0 l -0.1146,0.0307 v 0 h -0.1186 v 0 l -0.1146,-0.0307 v 0 0 l -0.1027,-0.0593 v 0 0 l -0.0839,-0.0839 -0.0593,-0.1027 -0.0307,-0.1146 v -3.3686 l 0.0307,-0.1146 v 0 0 l 0.0593,-0.1027 v 0 0 0 l 0.631,-0.631 0.0278,-0.0545 0.0012,-0.0155 v -3.5817 l 0.0307,-0.1146 v 0 0 l 0.0593,-0.1027 1.5514,-1.5514 v 0 0 0 l 0.1027,-0.0593 v 0 l 0.0242,-0.0065 v 0 l 0.0904,-0.0242 h 4.7336 l 0.0573,0.0153 0.0573,0.0154 0.0291,0.0168 v 0 l 0.0736,0.0425 0.298,0.298 0.0545,0.0278 0.0157,0.0012 0.6234,-0.0016 0.0582,-0.0191 0.0358,-0.0495 0.0048,-0.0304 v -0.0077 l 0.0037,-0.0137 0.027,-0.1009 v 0 0 l 0.0593,-0.1027 v 0 l 0.006,-0.006 0.0278,-0.0545 0.0012,-0.0155 v -2.4716 l -0.0189,-0.0582 -0.0101,-0.0118 -3.026,-3.026 -0.0545,-0.0277 -0.0604,0.0095 -0.0433,0.0433 -0.0108,0.0449 v 1.5798 l 0.0133,0.0495 0.056,0.097 0.0172,0.0641 0.0135,0.0505 v 0.1186 l -0.0181,0.0677 -0.0126,0.0469 -0.0593,0.1027 v 0 0 l -0.0839,0.0839 v 0 0 l -0.1027,0.0593 v 0 0 l -0.1146,0.0307 v 0 h -0.1186 v 0 l -0.1146,-0.0307 v 0 0 l -0.1027,-0.0593 v 0 0 l -0.0839,-0.0839 -0.0593,-0.1027 -0.0307,-0.1146 v -0.1186 l 0.0307,-0.1146 v 0 0 l 0.056,-0.097 0.0133,-0.0495 v -1.7092 l -0.0133,-0.0495 -0.0025,-0.0043 -0.0535,-0.0927 -0.0307,-0.1146 v -0.1186 l 0.0307,-0.1146 v 0 0 l 0.0593,-0.1027 v 0 0 l 0.0418,-0.0418 0.0278,-0.0545 -0.0096,-0.0604 -0.0182,-0.0251 -0.2871,-0.2871 -0.0545,-0.0278 -0.0155,-0.0012 h -6.9484 l -0.0582,0.0189 -0.0118,0.0101 -3.7513,3.7513 -0.0278,0.0545 -0.0012,0.0155 v 1.6813 0.0858 l -0.0153,0.057 -0.0069,0.0257 -0.0428,0.0743 v 0 0 l -1.2606,1.2606 v 0 0 l -0.0743,0.0428 v 0 0 0 l -0.0827,0.0222 h -5.0903 l -0.0582,0.0189 -0.0118,0.0101 -0.006,0.006 v 0 0 l -0.1027,0.0593 v 0 0 l -0.1146,0.0307 v 0 h -0.1186 v 0 l -0.1146,-0.0307 v 0 0 l -0.1027,-0.0593 v 0 0 l -0.0839,-0.0839 v 0 l -0.0593,-0.1027 v 0 0 l -0.0307,-0.1146 v -0.1186 l 0.0307,-0.1146 v 0 0 l 0.0593,-0.1027 v 0 0 l 0.0839,-0.0839 v 0 0 l 0.1027,-0.0593 v 0 l 0.0135,-0.0036 0.1011,-0.0271 h 0.1186 l 0.0701,0.0188 0.0445,0.0119 0.1027,0.0593 v 0 0 0 l 0.006,0.006 0.0545,0.0278 0.0155,0.0012 h 4.8716 l 0.0582,-0.0189 0.0118,-0.0101 0.9513,-0.9513 0.0278,-0.0545 0.0012,-0.0155 v -1.7671 0 l 0.0222,-0.0827 v 0 0 l 0.0428,-0.0743 v 0 0 0 l 3.6057,-3.6056 0.0277,-0.0545 -0.0095,-0.0604 -0.0433,-0.0433 -0.0449,-0.0108 h -9.3226 l -0.0582,0.0189 -0.0118,0.0101 -0.006,0.006 v 0 0 l -0.1027,0.0593 v 0 0 l -0.1146,0.0307 v 0 h -0.1186 v 0 l -0.1146,-0.0307 v 0 0 l -0.1027,-0.0593 v 0 0 l -0.0839,-0.0839 -0.0593,-0.1027 -0.0307,-0.1146 v -0.1186 l 0.0307,-0.1146 v 0 0 l 0.0593,-0.1027 v 0 0 l 0.0839,-0.0839 v 0 0 l 0.1027,-0.0593 v 0 l 0.0135,-0.0036 0.1011,-0.0271 h 0.1186 l 0.0699,0.0187 0.0447,0.012 0.1027,0.0593 v 0 0 0 l 0.006,0.006 0.0545,0.0278 0.0155,0.0012 h 17.4045 0.0858 l 0.073,0.0196 0.0097,0.0026 0.0371,0.0214 0.0236,0.0136 0.0136,0.0078 0.0606,0.0606 v 0 l 0.107,0.1071 0.0545,0.0277 0.0604,-0.0095 0.0433,-0.0433 0.0108,-0.0449 v -3.49 l -0.0133,-0.0495 -0.0026,-0.0045 -0.0341,-0.1273 v -6.3188 l 0.0341,-0.1273 v 0 0 l 0.0659,-0.1141 v 0 0 l 0.0932,-0.0932 v 0 0 l 0.1141,-0.0659 v 0 l 0.0494,-0.0132 0.0779,-0.0209 h 0.1318 l 0.0779,0.0209 0.0494,0.0132 0.1141,0.0659 0.0932,0.0932 0.0659,0.1141 0.0341,0.1273 v 6.0753 l 0.0025,0.0076 -0.0013,0.0079 0.0105,0.0206 0.0072,0.0221 0.0101,0.0118 0.0281,0.0281 0.0545,0.0278 0.0155,0.0012 h 0.8347 l 0.0701,0.0188 0.0445,0.0119 0.1027,0.0593 0.0839,0.0839 0.0593,0.1027 v 0 l 0.0307,0.1146 v 0.1186 l -0.0271,0.1011 -0.0036,0.0135 -0.0593,0.1027 v 0 0 l -0.0839,0.0839 v 0 0 l -0.1027,0.0593 v 0 0 l -0.1146,0.0307 h -0.9128 l -0.0582,0.0189 -0.036,0.0495 -0.0048,0.0306 v 2.5099 l 0.0189,0.0582 0.0101,0.0118 4.494,4.494 0.0593,0.1027 v 0 0 l 0.0307,0.1146 h 5.2299 L 62.8331,47.7004 62.7786,47.6726 62.7631,47.6714 H 59.037 l -0.0582,0.0189 -0.0118,0.0101 -0.006,0.006 v 0 0 l -0.1027,0.0593 v 0 0 l -0.1146,0.0307 v 0 h -0.1186 v 0 l -0.1146,-0.0307 v 0 0 l -0.1027,-0.0593 v 0 0 l -0.0839,-0.0839 -0.0216,-0.0374 -0.0377,-0.0653 v 0 0 l -0.0307,-0.1146 v -0.1186 l 0.0307,-0.1146 0.0301,-0.052 0.0127,-0.0598 -0.0249,-0.0559 -0.0241,-0.0195 -0.042,-0.0243 -0.0839,-0.0839 -0.0593,-0.1027 -0.0307,-0.1146 v -0.1186 l 0.0307,-0.1146 v 0 0 l 0.0593,-0.1027 v 0 0 l 0.0839,-0.0839 v 0 l 0.0046,-0.0046 -0.0013,-0.0012 0.0077,-0.0112 0.0155,-0.0155 0.0015,-0.0092 0.0052,-0.0076 -5e-4,-0.022 0.0034,-0.0216 -0.0042,-0.0083 -3e-4,-0.0093 -0.0233,-0.037 -0.0125,-0.0125 -0.0546,-0.0278 -0.0154,-0.0012 h -0.0085 v 0 l -0.1146,-0.0307 v 0 0 l -0.1027,-0.0593 v 0 0 l -0.0839,-0.0839 -0.0016,-0.0027 -0.0577,-0.1 v 0 0 l -0.0307,-0.1146 v -0.1186 l 0.0307,-0.1146 v 0 0 l 0.0593,-0.1027 v 0 0 l 0.0839,-0.0839 v 0 0 l 0.1027,-0.0593 v 0 l 0.0135,-0.0036 0.1011,-0.0271 h 0.1186 l 0.0701,0.0188 0.0445,0.0119 0.1027,0.0593 0.0839,0.0839 0.0593,0.1027 0.0307,0.1146 v 0.0085 l 0.0189,0.0582 0.0101,0.0118 0.8263,0.8263 0.0545,0.0278 0.0155,0.0012 h 16.5247 l 0.0582,-0.0189 0.036,-0.0495 0.0048,-0.0306 v -0.4502 0 l 0.0097,-0.0487 0.0048,-0.0243 0.0554,-0.0829 v 0 l 0.0791,-0.0529 v 0 l 0.0038,-0.0025 v 0 0 0 l 0.073,-0.0145 v 0 h 1.7494 v 0 0 l 0.073,0.0145 v 0 l 0.0829,0.0554 v 0 l 0.0554,0.0829 v 0 l 0.0145,0.073 v 0 H 91.5424 L 91.4532,45.6407 H 71.1435 v 0.1186 l -0.0249,0.093 -0.0058,0.0216 -0.0593,0.1027 v 0 0 l -0.0839,0.0839 v 0 0 l -0.1027,0.0593 v 0 0 l -0.1146,0.0307 v 0 h -0.1186 v 0 l -0.1146,-0.0307 v 0 0 l -0.1027,-0.0593 v 0 0 l -0.0839,-0.0839 -0.0577,-0.1 -0.0016,-0.0027 v 0 0 l -0.0307,-0.1146 v -0.1186 l 0.0307,-0.1146 v 0 0 l 0.0593,-0.1027 v 0 l 0.006,-0.006 0.0278,-0.0545 0.0012,-0.0155 v -4.5716 l -0.0025,-0.0076 0.0013,-0.0079 -0.0105,-0.0206 -0.0072,-0.0221 -0.0101,-0.0118 -0.1263,-0.1263 -0.0545,-0.0278 -0.0155,-0.0012 h -0.0085 v 0 l -0.1146,-0.0307 v 0 0 l -0.1027,-0.0593 v 0 0 l -0.0839,-0.0839 -0.0593,-0.1027 -0.0307,-0.1146 v -0.1186 l 0.0307,-0.1146 v 0 0 l 0.0593,-0.1027 v 0 0 l 0.0839,-0.0839 v 0 0 l 0.1027,-0.0593 v 0 l 0.0135,-0.0036 0.1011,-0.0271 h 0.1186 l 0.0701,0.0188 0.0445,0.0119 0.1027,0.0593 0.0839,0.0839 0.0593,0.1027 v 0 l 0.0265,0.0988 0.0042,0.0158 v 0.0085 l 0.0189,0.0582 0.0101,0.0118 0.281,0.2809 v 0 l 0.0428,0.0743 v 0 0 l 0.0222,0.0827 v 4.7903 l 0.0189,0.0582 0.0101,0.0118 0.006,0.006 v 0 l 0.0593,0.1027 v 0 l 0.0307,0.1146 H 91.4532 L 83.3308,19.7141 h -1.2704 v 0.3587 l -0.0352,0.3569 -0.0699,0.3518 -0.1041,0.3432 -0.1373,0.3314 v 0 l -0.1691,0.3163 -0.1022,0.1531 -0.0971,0.1452 -0.2275,0.2772 -0.2536,0.2537 -0.2773,0.2275 -0.1175,0.0785 -0.1807,0.1208 -0.3163,0.169 v 0 l -0.3314,0.1373 v 0 0 l -0.3432,0.1041 v 0 0 l -0.3518,0.07 -0.357,0.0352 v 0 h -0.3586 v 0 l -0.357,-0.0352 -0.3518,-0.07 v 0 0 l -0.3432,-0.1041 v 0 0 l -0.3314,-0.1373 -0.2039,-0.109 -0.1124,-0.06 -0.0727,-0.0486 -0.2255,-0.1507 -0.2773,-0.2275 -0.2536,-0.2537 -0.2275,-0.2772 -0.1993,-0.2982 -0.1691,-0.3164 -0.1373,-0.3313 -0.1041,-0.3433 -0.0699,-0.3518 -0.0352,-0.3569 v -0.3587 l 0.0352,-0.3569 0.0699,-0.3518 v 0 0 l 0.1041,-0.3432 0.0566,-0.1365 0.0807,-0.1949 0.0127,-0.0238 0.1564,-0.2925 0.1981,-0.2966 0.0012,-0.0017 0.2275,-0.2772 0.2536,-0.2536 0.2773,-0.2276 0.095,-0.0635 0.2032,-0.1358 0.3163,-0.169 v 0 0 0 0 l 0.3314,-0.1373 0.3432,-0.1041 0.283,-0.0563 0.0688,-0.0137 v 0 l 0.261,-0.0257 0.096,-0.0094 h 0.3586 l 0.1055,0.0103 0.2515,0.0248 0.3518,0.07 0.3432,0.1041 0.3314,0.1373 v 0 l 0.3163,0.169 0.2982,0.1993 0.2773,0.2275 0.2536,0.2537 0.2275,0.2772 0.1993,0.2983 0.1691,0.3163 v 0 l 0.1373,0.3314 0.1041,0.3432 0.0699,0.3518 0.0275,0.2789 0.0045,0.046 0.0032,0.032 h 1.2704 L 82.9564,18.519 v 0 l -0.0136,-0.0434 -0.0013,-0.004 -0.0745,-0.2059 -0.0631,-0.1746 -0.0032,-0.008 v 0 l -0.1691,-0.3652 -0.0039,-0.0076 -0.0233,-0.0407 -0.1767,-0.3085 -0.0045,-0.0073 -0.2294,-0.3306 -0.0052,-0.0068 -0.2571,-0.3096 -0.0058,-0.0063 -0.283,-0.2862 -0.0062,-0.0058 -0.3066,-0.2607 -0.0068,-0.0052 -0.328,-0.2332 -0.0072,-0.0046 -0.3469,-0.204 -0.0076,-0.004 -0.3633,-0.1732 -0.0078,-0.0033 -0.3769,-0.1411 -0.0081,-0.0027 -0.3877,-0.108 -0.0083,-0.0019 -0.3956,-0.0741 -0.0085,-0.0012 -0.4005,-0.0397 -0.0085,-4e-4 -0.4024,-0.0049 -0.0086,3e-4 -0.4013,0.03 -0.0085,10e-4 -0.3972,0.0645 -0.0084,0.0017 -0.3901,0.0987 -0.0082,0.0025 -0.38,0.1319 -2e-4,10e-5 -0.008,0.0031 -0.3673,0.1644 -0.0076,0.0038 -0.3518,0.1956 -0.0073,0.0044 -0.2056,0.1389 -0.1279,0.0863 -0.0069,0.0051 -0.3128,0.2532 -0.0064,0.0057 -0.0698,0.0673 -0.2215,0.2135 -0.0031,0.0031 -0.0312,0.0328 v 0 l -0.5886,0.6187 -5.5824,5.8678 -4e-4,4e-4 -0.053,0.0563 -0.0046,0.0048 -0.1377,0.1113 -0.0046,0.0028 -0.1469,0.0888 -0.047,0.0203 -0.1155,0.0499 -0.0644,0.0179 -0.1061,0.0296 v 0 0 l -0.1754,0.024 -0.0885,-10e-5 H 65.9379 65.8983 65.892 65.8913 65.859 L 65.7044,23.516 65.5587,23.4556 65.4276,23.3681 65.316,23.2566 65.2284,23.1255 65.1681,22.9798 65.1373,22.8251 v 0 l -5e-4,-0.0048 h -3e-4 L 65.1339,22.801 65.1295,22.7844 v -2.0468 l -0.0189,-0.0582 -0.0495,-0.036 -0.0306,-0.0048 h -5e-4 v 0 -2.15 h -0.5 v 2.15 0 h -0.1246 v 0 l -0.0729,-0.0145 -0.0091,-0.0037 -8e-4,0.0019 -0.0465,-0.0131 -0.0389,0.0126 -6e-4,-0.0014 -0.0091,0.0037 -0.0729,0.0145 v 0 H 64.03 v 0 -2.15 h -0.5 v 2.15 0 h -0.1246 v 0 l -0.0729,-0.0145 -0.0091,-0.0037 -8e-4,0.0019 -0.0465,-0.0131 -0.0389,0.0126 -6e-4,-0.0014 -0.0091,0.0037 -0.0729,0.0145 v 0 H 63.03 v 0 -2.15 h -0.5 v 2.15 0 h -0.1246 v 0 l -0.0729,-0.0145 -0.0091,-0.0037 -8e-4,0.0019 -0.0465,-0.0131 -0.0389,0.0126 -6e-4,-0.0014 -0.0091,0.0037 -0.0729,0.0145 v 0 H 62.03 v 0 -2.15 h -0.5 v 2.15 0 h -0.1246 v 0 l -0.0729,-0.0145 -0.0091,-0.0037 -8e-4,0.0019 -0.0465,-0.0131 -0.0389,0.0126 -6e-4,-0.0014 -0.0091,0.0037 -0.0729,0.0145 v 0 H 61.03 v 0 -2.15 h -0.5 v 2.15 0 h -0.1246 v 0 l -0.0729,-0.0145 -0.0091,-0.0037 -8e-4,0.0019 -0.0465,-0.0131 -0.0389,0.0126 -6e-4,-0.0014 -0.0091,0.0037 -0.0729,0.0145 v 0 H 60.03 v 0 -2.15 h -0.5 v 2.15 0 h -0.1246 v 0 l -0.0729,-0.0145 -0.0091,-0.0037 -8e-4,0.0019 -0.0465,-0.0131 -0.0389,0.0126 -6e-4,-0.0014 -0.0091,0.0037 -0.0729,0.0145 v 0 H 59.03 v 0 -2.15 0 h 0.5 v 0 h 0.5 v 0 h 0.5 v 0 h 0.5 v 0 h 0.5 v 0 h 0.5 v 0 h 0.5 v 0 h 0.5 v 0 h 0.5 v 0 h 0.5 v 0 h 0.5 v 0 h 0.5 v -0.151 L 65.0111,18.2794 64.9616,18.2434 64.931,18.2386 H 64.78 v 0 -0.151 l -0.0189,-0.0582 -0.0495,-0.036 -0.0306,-0.0048 h -5.802 l -0.0582,0.0189 -0.036,0.0495 -0.0048,0.0306 v 0.151 0 h -0.151 l -0.0582,0.0189 -0.036,0.0495 -0.0048,0.0306 v 2.301 0 h -0.1246 v 0 l -0.0729,-0.0145 -0.0091,-0.0037 -8e-4,0.0021 -0.046,-0.013 -0.0393,0.0127 -5e-4,-0.0014 -0.0091,0.0038 v 0 l -0.0472,0.0094 -0.0258,0.0051 v 0 0 0 h -0.7494 v 0 l -0.073,-0.0145 v 0 l -0.0091,-0.0038 -8e-4,0.002 -0.0463,-0.013 -0.0387,0.0126 -6e-4,-0.0016 -0.0091,0.0038 v 0 l -0.0472,0.0094 -0.0258,0.0051 v 0 0 0 h -0.7494 v 0 l -0.073,-0.0145 v 0 l -0.0091,-0.0038 -8e-4,0.002 -0.0463,-0.013 -0.0387,0.0126 -6e-4,-0.0016 -0.0091,0.0038 v 0 l -0.0472,0.0094 -0.0258,0.0051 v 0 0 0 h -0.7494 v 0 l -0.073,-0.0145 v 0 l -0.0091,-0.0038 -8e-4,0.002 -0.0463,-0.013 -0.0387,0.0126 -6e-4,-0.0016 -0.0091,0.0038 v 0 l -0.0472,0.0094 -0.0258,0.0051 v 0 0 h -0.5252 l -0.0582,0.0189 -0.036,0.0495 -0.0048,0.0306 v 1.6041 l -0.0341,0.2044 -0.0673,0.196 -0.0986,0.1823 v 0 l -0.0163,0.0208 -0.111,0.1427 -0.1525,0.1404 -0.1735,0.1133 -0.1898,0.0833 -0.2009,0.0509 -0.2065,0.0171 -0.2065,-0.0171 -0.2009,-0.0509 -0.1898,-0.0833 -0.1735,-0.1133 -0.1525,-0.1404 -0.1273,-0.1635 -0.0986,-0.1823 -0.0673,-0.196 -0.0341,-0.2044 V 22.2386 22.191 20.7381 l -0.0189,-0.0582 -0.0495,-0.036 -0.0306,-0.0048 h -0.5252 v 0 l -0.073,-0.0145 v 0 l -0.0091,-0.0038 -8e-4,0.002 -0.0133,-0.0037 -0.0252,-0.0093 -0.0039,0.0011 -0.0039,-0.0011 -0.0511,0.0166 -5e-4,3e-4 -0.0379,0.0481 -0.0061,0.0342 v 5.7711 l 0.0189,0.0582 0.0101,0.0118 6.804,6.804 0.0527,0.0913 v 0 0 l 0.0273,0.1019 v 6.9136 l 0.0189,0.0582 0.0495,0.036 h 0.0612 l 0.0189,-0.0084 0.0524,-0.0303 v 0 l 0.0135,-0.0036 0.1011,-0.0271 v 0 h 0.0084 l 0.0582,-0.0189 0.0118,-0.0101 0.2846,-0.2845 v 0 l 0.0742,-0.0428 v 0 l 0.0321,-0.0086 0.0507,-0.0136 v 0 h 7.7065 l 0.0582,-0.0189 0.0021,-0.0016 0.0032,-0.0025 0.1027,-0.0593 v 0 l 0.0136,-0.0036 0.101,-0.0271 h 0.1186 l 0.0702,0.0188 0.0444,0.0119 0.1027,0.0593 0.0839,0.0839 0.0593,0.1027 v 0 l 0.0307,0.1146 v 0.1186 l -0.0137,0.0511 -0.017,0.0635 -0.0593,0.1027 v 0 0 l -0.0838,0.0839 h -1e-4 v 0 l -0.1027,0.0593 v 0 0 l -0.1146,0.0307 v 0 h -0.1186 v 0 l -0.1145,-0.0307 h -1e-4 v 0 L 66.699,40.8052 v 0 0 l -0.018,-0.018 -0.0545,-0.0278 -0.0155,-0.0012 h -7.4633 l -0.0076,0.0024 -0.0079,-0.0012 -0.0207,0.0105 -0.022,0.0072 -0.0118,0.0101 -0.1299,0.1299 -0.0278,0.0545 -0.0012,0.0155 v 0.0084 l -0.0139,0.0518 -0.0168,0.0628 -0.0593,0.1027 v 0 0 l -0.0839,0.0839 v 0 0 l -0.0714,0.0412 -0.0409,0.0455 -0.0064,0.0608 0.0268,0.0495 0.4712,0.4711 0.0546,0.0278 0.0154,0.0012 h 7.2644 l 0.0495,-0.0132 0.011,-0.0064 v 0 l 0.1146,-0.0307 h 0.1186 l 0.0701,0.0188 0.0445,0.0119 0.1027,0.0593 0.0839,0.0839 0.0593,0.1027 v 0 l 0.0307,0.1146 v 0.1186 l -0.0185,0.0691 -0.0122,0.0455 -0.0593,0.1027 v 0 0 l -0.0839,0.0839 v 0 0 l -0.1027,0.0593 v 0 0 l -0.1146,0.0307 v 0 h -0.1186 v 0 l -0.1146,-0.0307 v 0 0 l -0.0099,-0.0057 -0.0495,-0.0133 h -7.5251 v 0 l -0.1019,-0.0273 v 0 0 l -0.0913,-0.0527 v 0 0 l -1.2943,-1.2943 v 0 l -0.0746,-0.0746 -0.0527,-0.0913 -0.0065,-0.0241 -0.0047,-0.0177 -0.0059,-0.022 -0.0102,-0.0381 v -0.1054 -0.0061 0 -7.2343 l -0.0189,-0.0582 -0.0101,-0.0118 -6.804,-6.804 -0.0306,-0.053 -0.0221,-0.0382 v -10e-5 0 0 L 50.3795,26.7397 V 20.709 l -0.0054,-0.0167 -7e-4,-0.0175 -0.0086,-0.0109 -0.0042,-0.013 -0.0251,-0.0242 -5e-4,-3e-4 -0.0589,-0.0166 -0.0387,0.0126 -6e-4,-0.0016 -0.0091,0.0038 v 0 l -0.0472,0.0094 -0.0258,0.0051 v 0 0 0 h -0.7494 v 0 l -0.073,-0.0145 v 0 l -0.0091,-0.0038 -8e-4,0.002 -0.0463,-0.013 -0.0387,0.0126 -6e-4,-0.0016 -0.0091,0.0038 v 0 l -0.0472,0.0094 -0.0258,0.0051 v 0 0 0 h -0.7494 v 0 l -0.073,-0.0145 v 0 l -0.0091,-0.0038 -8e-4,0.002 -0.0463,-0.013 -0.0387,0.0126 -6e-4,-0.0016 -0.0091,0.0038 v 0 l -0.0472,0.0094 -0.0258,0.0051 v 0 0 0 h -0.7494 v 0 l -0.073,-0.0145 v 0 l -0.0091,-0.0038 -8e-4,0.002 -0.0463,-0.013 -0.0387,0.0126 -6e-4,-0.0016 -0.0091,0.0038 v 0 l -0.0472,0.0094 -0.0258,0.0051 v 0 0 0 h -0.7494 v 0 l -0.073,-0.0145 v 0 l -0.0091,-0.0038 -8e-4,0.002 -0.0463,-0.013 -0.0387,0.0126 -6e-4,-0.0016 -0.0091,0.0038 v 0 l -0.0472,0.0094 -0.0258,0.0051 v 0 0 h -0.6252 l -0.0582,0.0189 -0.036,0.0495 -0.0048,0.0306 v 2.0463 0 l -0.0041,0.0153 -0.0027,0.0206 h -2e-4 l -5e-4,0.0048 -0.0307,0.1547 v 0 l -0.0604,0.1456 -0.0876,0.1311 v 0 0 l -0.1115,0.1115 -0.1311,0.0876 v 0 0 L 44.856,23.516 v 0 l -0.1546,0.0307 h -0.0393 v 0 h -0.0396 -0.0476 v 0 H 44.567 v 0 h -1.7721 -0.008 v 0 h -0.0066 l -10e-5,10e-5 h -0.0409 v 0 l -0.0223,-10e-5 v 0 h -0.0238 -3e-4 -0.0415 l -0.1743,-0.0237 -0.1695,-0.0469 -0.1617,-0.0694 -0.1508,-0.0904 -0.1373,-0.11 -0.0333,-0.0349 -1e-4,-10e-5 -0.0431,-0.0453 -0.017,-0.0178 v 0 l -0.0131,-0.0138 v 0 l -3.2158,-3.3803 h -2.7345 v 0.3587 l -0.0351,0.3569 -0.07,0.3518 -0.1041,0.3432 -0.1373,0.3314 v 0 l -0.169,0.3163 -0.1023,0.1531 -0.097,0.1452 -0.2276,0.2772 -0.2536,0.2537 -0.2772,0.2275 -0.1176,0.0785 -0.1807,0.1208 -0.3163,0.169 v 0 l -0.3314,0.1373 v 0 0 l -0.3432,0.1041 v 0 0 l -0.3518,0.07 -0.3569,0.0352 v 0 h -0.3587 v 0 l -0.3569,-0.0352 -0.3518,-0.07 v 0 0 l -0.3433,-0.1041 v 0 0 l -0.3313,-0.1373 -0.204,-0.109 -0.1124,-0.06 -0.0727,-0.0486 -0.2255,-0.1507 -0.2772,-0.2275 -0.2537,-0.2537 -0.2275,-0.2772 -0.1993,-0.2982 -0.1691,-0.3164 -0.1372,-0.3313 -0.1041,-0.3433 -0.07,-0.3518 -0.0352,-0.3569 v -0.3587 l 0.0352,-0.3569 0.07,-0.3518 v 0 0 l 0.1041,-0.3432 0.0565,-0.1365 0.0807,-0.1949 0.0128,-0.0238 0.1563,-0.2925 0.1982,-0.2966 0.0011,-0.0017 0.2275,-0.2772 0.2537,-0.2536 0.2772,-0.2276 0.0951,-0.0635 0.2031,-0.1358 0.3163,-0.169 h 10e-5 v 0 0 0 l 0.3313,-0.1373 0.3433,-0.1041 0.2829,-0.0563 0.0689,-0.0137 v 0 l 0.2609,-0.0257 0.096,-0.0094 h 0.3587 l 0.1054,0.0103 0.2515,0.0248 0.3518,0.07 0.3432,0.1041 0.3314,0.1373 v 0 l 0.3163,0.169 0.2983,0.1993 0.2772,0.2275 0.2536,0.2537 0.2276,0.2772 0.1993,0.2983 0.169,0.3163 v 0 l 0.1373,0.3314 0.1041,0.3432 0.07,0.3518 0.0275,0.2789 0.0045,0.046 0.0031,0.032 h 2.7345 l -2.9111,-3.0599 v 0 L 35.5929,16.6213 35.59,16.6183 35.2986,16.3375 35.2922,16.3318 34.9794,16.0786 34.9726,16.0735 34.639,15.8483 34.6317,15.8438 34.28,15.6483 34.2723,15.6445 33.905,15.4801 l -0.0079,-0.0032 -0.3802,-0.132 -0.0082,-0.0025 -0.3902,-0.0986 -0.0084,-0.0018 -0.3972,-0.0645 -0.0085,-10e-4 -0.4013,-0.03 -0.0086,-3e-4 z"
       id="path668" />
    <path
       style="fill:#02ffee;fill-opacity:0.4;fill-rule:evenodd;stroke:none"
       d="m 78.143,47.65 v -1.7 h -1.7 v 1.7 z"
       id="path670" />
  </g>
  <g
     style="fill:#02ffee;fill-opacity:0.4;stroke:none"
     id="g684"
     transform="translate(-13.104506,-14.6636)">
    <circle
       cx="77.292999"
       cy="49.34"
       r="0.85000002"
       id="circle674" />
    <circle
       cx="77.292999"
       cy="51.880001"
       r="0.85000002"
       id="circle676" />
    <circle
       cx="77.292999"
       cy="54.419998"
       r="0.85000002"
       id="circle678" />
    <circle
       cx="58.173"
       cy="70.275002"
       r="0.30000001"
       id="circle680" />
    <circle
       cx="52.393002"
       cy="70.275002"
       r="0.30000001"
       id="circle682" />
  </g>
  <g
     style="fill:none;stroke:#02ffee;stroke-width:0.9;stroke-linecap:round;stroke-linejoin:round;stroke-opacity:1"
     id="g696"
     transform="translate(-13.104506,-14.6636)">
    <path
       d="m 59.603,70.345 v -1.1"
       id="path686" />
    <path
       d="m 59.603,74.365 v -0.8"
       id="path688" />
    <path
       d="m 50.963,70.345 v -1.1"
       id="path690" />
    <path
       d="m 50.963,74.365 v -0.8"
       id="path692" />
    <path
       style="fill:#02ffee;fill-opacity:0.4;fill-rule:evenodd;stroke:none"
       d="m 43.543,70.775 v -1.7 h -1.7 v 1.7 z"
       id="path694" />
  </g>
  <g
     style="fill:#02ffee;fill-opacity:0.4;stroke:none"
     id="g736"
     transform="translate(-13.104506,-14.6636)">
    <circle
       cx="42.693001"
       cy="72.464996"
       r="0.85000002"
       id="circle698" />
    <path
       style="fill:#02ffee;fill-opacity:0.4;fill-rule:evenodd;stroke:none"
       d="m 65.13,20.3886 v -4.3 h -0.7 v 4.3 z"
       id="path700" />
    <path
       style="fill:#02ffee;fill-opacity:0.4;fill-rule:evenodd;stroke:none"
       d="m 64.13,20.3886 v -4.3 h -0.7 v 4.3 z"
       id="path702" />
    <path
       style="fill:#02ffee;fill-opacity:0.4;fill-rule:evenodd;stroke:none"
       d="m 63.13,20.3886 v -4.3 h -0.7 v 4.3 z"
       id="path704" />
    <path
       style="fill:#02ffee;fill-opacity:0.4;fill-rule:evenodd;stroke:none"
       d="m 62.13,20.3886 v -4.3 h -0.7 v 4.3 z"
       id="path706" />
    <path
       style="fill:#02ffee;fill-opacity:0.4;fill-rule:evenodd;stroke:none"
       d="m 61.13,20.3886 v -4.3 h -0.7 v 4.3 z"
       id="path708" />
    <path
       style="fill:#02ffee;fill-opacity:0.4;fill-rule:evenodd;stroke:none"
       d="m 60.13,20.3886 v -4.3 h -0.7 v 4.3 z"
       id="path710" />
    <path
       style="fill:#02ffee;fill-opacity:0.4;fill-rule:evenodd;stroke:none"
       d="m 59.13,20.3886 v -4.3 h -0.7 v 4.3 z"
       id="path712" />
    <path
       style="fill:#02ffee;fill-opacity:0.4;fill-rule:evenodd;stroke:none"
       d="m 58.13,20.3886 v -4.3 h -0.7 v 4.3 z"
       id="path714" />
    <path
       style="fill:#02ffee;fill-opacity:0.4;fill-rule:evenodd;stroke:none"
       d="m 57.13,20.3886 v -4.3 h -0.7 v 4.3 z"
       id="path716" />
    <path
       style="fill:#02ffee;fill-opacity:0.4;fill-rule:evenodd;stroke:none"
       d="m 56.13,20.3886 v -4.3 h -0.7 v 4.3 z"
       id="path718" />
    <path
       style="fill:#02ffee;fill-opacity:0.4;fill-rule:evenodd;stroke:none"
       d="m 55.13,20.3886 v -4.3 h -0.7 v 4.3 z"
       id="path720" />
    <path
       style="fill:#02ffee;fill-opacity:0.4;fill-rule:evenodd;stroke:none"
       d="m 52.13,20.3886 v -4.3 h -0.7 v 4.3 z"
       id="path722" />
    <path
       style="fill:#02ffee;fill-opacity:0.4;fill-rule:evenodd;stroke:none"
       d="m 51.13,20.3886 v -4.3 h -0.7 v 4.3 z"
       id="path724" />
    <path
       style="fill:#02ffee;fill-opacity:0.4;fill-rule:evenodd;stroke:none"
       d="m 50.13,20.3886 v -4.3 h -0.7 v 4.3 z"
       id="path726" />
    <path
       style="fill:#02ffee;fill-opacity:0.4;fill-rule:evenodd;stroke:none"
       d="m 49.13,20.3886 v -4.3 h -0.7 v 4.3 z"
       id="path728" />
    <path
       style="fill:#02ffee;fill-opacity:0.4;fill-rule:evenodd;stroke:none"
       d="m 48.13,20.3886 v -4.3 h -0.7 v 4.3 z"
       id="path730" />
    <path
       style="fill:#02ffee;fill-opacity:0.4;fill-rule:evenodd;stroke:none"
       d="m 47.13,20.3886 v -4.3 h -0.7 v 4.3 z"
       id="path732" />
    <path
       style="fill:#02ffee;fill-opacity:0.4;fill-rule:evenodd;stroke:none"
       d="m 46.13,20.3886 v -4.3 h -0.7 v 4.3 z"
       id="path734" />
  </g>
  <g
     style="fill:none;stroke:#d0d2cd;stroke-width:0.25;stroke-linecap:round;stroke-linejoin:round;stroke-opacity:1"
     id="g806"
     transform="translate(-13.104506,-14.6636)">
    <path
       d="M 42.0149,22.9355 35.8092,16.4126"
       id="path738" />
    <path
       d="m 68.549,22.9318 6.2022,-6.5192"
       id="path740" />
    <path
       d="M 27.1814,76.52 H 83.379"
       id="path742" />
    <circle
       cx="18.279699"
       cy="64.168602"
       r="3.3499999"
       id="circle744" />
    <path
       d="m 42.0149,22.9355 a 1.0001,1.0001 0 0 0 0.7245,0.3108"
       id="path746" />
    <path
       d="m 13.4606,62.6589 a 5.05,5.05 0 0 0 1.6165,5.4143"
       id="path748" />
    <path
       d="M 67.821,23.2462 H 65.9378"
       id="path750" />
    <path
       d="m 83.379,76.52 a 5.05,5.05 0 0 0 3.2026,-1.1454"
       id="path752" />
    <path
       d="m 42.7394,23.2462 h 1.8831"
       id="path754" />
    <path
       d="m 15.0771,68.0732 8.9017,7.3013"
       id="path756" />
    <path
       d="m 67.821,23.2462 a 0.9999,0.9999 0 0 0 0.728,-0.3144"
       id="path758" />
    <path
       d="m 35.8092,16.4126 a 5.0499,5.0499 0 0 0 -8.4778,1.9711"
       id="path760" />
    <path
       d="M 83.2289,18.3837 A 5.05,5.05 0 0 0 74.7512,16.4126"
       id="path762" />
    <circle
       cx="92.280602"
       cy="64.168602"
       r="3.3499999"
       id="circle764" />
    <path
       d="m 65.4378,22.7463 a 0.4999,0.4999 0 0 0 0.5,0.4999"
       id="path766" />
    <path
       d="M 27.3314,18.3837 13.4606,62.6589"
       id="path768" />
    <circle
       cx="32.150398"
       cy="19.893499"
       r="3.3499999"
       id="circle770" />
    <circle
       cx="78.409897"
       cy="19.893499"
       r="3.3499999"
       id="circle772" />
    <path
       d="m 95.4832,68.0732 -8.9016,7.3014"
       id="path774" />
    <path
       d="m 44.6225,23.2462 a 0.5,0.5 0 0 0 0.5,-0.5"
       id="path776" />
    <path
       d="M 83.2289,18.3837 97.1046,62.6746"
       id="path778" />
    <path
       d="m 95.4832,68.0732 a 5.0502,5.0502 0 0 0 1.6215,-5.3986"
       id="path780" />
    <path
       d="M 23.9788,75.3745 A 5.05,5.05 0 0 0 27.1814,76.52"
       id="path782" />
    <path
       d="m 65.43,15.2886 v 7.4563"
       id="path784" />
    <path
       d="m 64.93,14.7886 0.5,0.5"
       id="path786" />
    <path
       d="m 54.73,14.7886 h 10.2"
       id="path788" />
    <path
       d="m 54.73,14.7886 -0.5,0.5"
       id="path790" />
    <path
       d="m 54.23,15.2886 v 6.95"
       id="path792" />
    <path
       d="m 52.33,15.2886 v 6.95"
       id="path794" />
    <path
       d="m 51.83,14.7886 0.5,0.5"
       id="path796" />
    <path
       d="m 45.63,14.7886 h 6.2"
       id="path798" />
    <path
       d="m 45.63,14.7886 -0.5,0.5"
       id="path800" />
    <path
       d="M 45.13,22.7449 V 15.2886"
       id="path802" />
    <path
       d="m 52.33,22.2386 a 0.95,0.95 0 0 0 1.9,0"
       id="path804" />
  </g>
  <g
     style="fill:#ffffff;fill-opacity:1;stroke:none"
     id="g1266"
     transform="translate(-13.104506,-14.6636)">
    <circle
       cx="55.193001"
       cy="50.349998"
       r="0.15000001"
       id="circle808" />
    <circle
       cx="53.693001"
       cy="57.349998"
       r="0.15000001"
       id="circle810" />
    <circle
       cx="55.193001"
       cy="48"
       r="0.15000001"
       id="circle812" />
    <circle
       cx="55.862801"
       cy="54.883499"
       r="0.15000001"
       id="circle814" />
    <circle
       cx="45.792999"
       cy="20"
       r="0.15000001"
       id="circle816" />
    <circle
       cx="47.792999"
       cy="20"
       r="0.15000001"
       id="circle818" />
    <circle
       cx="46.792999"
       cy="20"
       r="0.15000001"
       id="circle820" />
    <circle
       cx="73.693001"
       cy="57.900002"
       r="0.15000001"
       id="circle822" />
    <circle
       cx="74.392998"
       cy="57.900002"
       r="0.15000001"
       id="circle824" />
    <circle
       cx="75.093002"
       cy="57.900002"
       r="0.15000001"
       id="circle826" />
    <circle
       cx="34.893002"
       cy="49.5825"
       r="0.15000001"
       id="circle828" />
    <circle
       cx="33.469501"
       cy="50.599998"
       r="0.15000001"
       id="circle830" />
    <circle
       cx="34.393002"
       cy="49.599998"
       r="0.15000001"
       id="circle832" />
    <circle
       cx="75.892998"
       cy="57.900002"
       r="0.15000001"
       id="circle834" />
    <circle
       cx="33.693001"
       cy="50"
       r="0.15000001"
       id="circle836" />
    <circle
       cx="70.693001"
       cy="45.700001"
       r="0.15000001"
       id="circle838" />
    <circle
       cx="70.193001"
       cy="40.099998"
       r="0.15000001"
       id="circle840" />
    <circle
       cx="27.193001"
       cy="43.599998"
       r="0.15000001"
       id="circle842" />
    <circle
       cx="26.292999"
       cy="68.5"
       r="0.15000001"
       id="circle844" />
    <circle
       cx="86.693001"
       cy="47.099998"
       r="0.15000001"
       id="circle846" />
    <circle
       cx="34.792999"
       cy="53.900002"
       r="0.15000001"
       id="circle848" />
    <circle
       cx="65.693001"
       cy="59.200001"
       r="0.15000001"
       id="circle850" />
    <circle
       cx="52.193001"
       cy="47.599998"
       r="0.15000001"
       id="circle852" />
    <circle
       cx="57.092999"
       cy="66.199997"
       r="0.15000001"
       id="circle854" />
    <circle
       cx="36.792999"
       cy="70.699997"
       r="0.15000001"
       id="circle856" />
    <circle
       cx="49.193001"
       cy="48"
       r="0.15000001"
       id="circle858" />
    <circle
       cx="42.943001"
       cy="58.349998"
       r="0.15000001"
       id="circle860" />
    <circle
       cx="58.693001"
       cy="26.1"
       r="0.15000001"
       id="circle862" />
    <circle
       cx="61.193001"
       cy="49.0215"
       r="0.15000001"
       id="circle864" />
    <circle
       cx="30.693001"
       cy="29.6"
       r="0.15000001"
       id="circle866" />
    <circle
       cx="40.893002"
       cy="50.599998"
       r="0.15000001"
       id="circle868" />
    <circle
       cx="37.592999"
       cy="39.799999"
       r="0.15000001"
       id="circle870" />
    <circle
       cx="26.292999"
       cy="61.5"
       r="0.15000001"
       id="circle872" />
    <circle
       cx="62.193001"
       cy="26.1"
       r="0.15000001"
       id="circle874" />
    <circle
       cx="41.193001"
       cy="29.6"
       r="0.15000001"
       id="circle876" />
    <circle
       cx="74.392998"
       cy="54.200001"
       r="0.15000001"
       id="circle878" />
    <circle
       cx="79.693001"
       cy="29.6"
       r="0.15000001"
       id="circle880" />
    <circle
       cx="37.693001"
       cy="36.599998"
       r="0.15000001"
       id="circle882" />
    <circle
       cx="72.693001"
       cy="33.099998"
       r="0.15000001"
       id="circle884" />
    <circle
       cx="23.693001"
       cy="57.599998"
       r="0.15000001"
       id="circle886" />
    <circle
       cx="57.092999"
       cy="73.900002"
       r="0.15000001"
       id="circle888" />
    <circle
       cx="40.292999"
       cy="74.199997"
       r="0.15000001"
       id="circle890" />
    <circle
       cx="45.592999"
       cy="73.5"
       r="0.15000001"
       id="circle892" />
    <circle
       cx="58.693001"
       cy="22.6"
       r="0.15000001"
       id="circle894" />
    <circle
       cx="31.593"
       cy="47.099998"
       r="0.15000001"
       id="circle896" />
    <circle
       cx="49.393002"
       cy="69.800003"
       r="0.15000001"
       id="circle898" />
    <circle
       cx="65.693001"
       cy="33.099998"
       r="0.15000001"
       id="circle900" />
    <circle
       cx="57.193001"
       cy="45.099998"
       r="0.15000001"
       id="circle902" />
    <circle
       cx="34.193001"
       cy="33.099998"
       r="0.15000001"
       id="circle904" />
    <circle
       cx="36.792999"
       cy="74.199997"
       r="0.15000001"
       id="circle906" />
    <circle
       cx="55.874901"
       cy="53.687199"
       r="0.175"
       id="circle908" />
    <circle
       cx="65.693001"
       cy="29.6"
       r="0.15000001"
       id="circle910" />
    <circle
       cx="27.193001"
       cy="50.599998"
       r="0.15000001"
       id="circle912" />
    <circle
       cx="57.092999"
       cy="62.700001"
       r="0.15000001"
       id="circle914" />
    <circle
       cx="63.693001"
       cy="49.599998"
       r="0.15000001"
       id="circle916" />
    <circle
       cx="27.193001"
       cy="33.099998"
       r="0.15000001"
       id="circle918" />
    <circle
       cx="46.193001"
       cy="67.400002"
       r="0.15000001"
       id="circle920" />
    <circle
       cx="83.193001"
       cy="64.800003"
       r="0.15000001"
       id="circle922" />
    <circle
       cx="26.292999"
       cy="65"
       r="0.15000001"
       id="circle924" />
    <circle
       cx="51.693001"
       cy="33.099998"
       r="0.15000001"
       id="circle926" />
    <circle
       cx="23.693001"
       cy="54.099998"
       r="0.15000001"
       id="circle928" />
    <circle
       cx="48.193001"
       cy="22.6"
       r="0.15000001"
       id="circle930" />
    <circle
       cx="39.693001"
       cy="47.5"
       r="0.15000001"
       id="circle932" />
    <circle
       cx="54.599899"
       cy="53.687199"
       r="0.175"
       id="circle934" />
    <circle
       cx="83.193001"
       cy="47.099998"
       r="0.15000001"
       id="circle936" />
    <circle
       cx="37.592999"
       cy="43"
       r="0.15000001"
       id="circle938" />
    <circle
       cx="72.693001"
       cy="40.099998"
       r="0.15000001"
       id="circle940" />
    <circle
       cx="48.193001"
       cy="29.6"
       r="0.15000001"
       id="circle942" />
    <circle
       cx="34.292999"
       cy="39.799999"
       r="0.15000001"
       id="circle944" />
    <circle
       cx="44.493"
       cy="52.599998"
       r="0.15000001"
       id="circle946" />
    <circle
       cx="55.874901"
       cy="52.412201"
       r="0.175"
       id="circle948" />
    <circle
       cx="79.693001"
       cy="36.599998"
       r="0.15000001"
       id="circle950" />
    <circle
       cx="69.093002"
       cy="66.099998"
       r="0.15000001"
       id="circle952" />
    <circle
       cx="53.324902"
       cy="52.412201"
       r="0.175"
       id="circle954" />
    <circle
       cx="76.193001"
       cy="43.599998"
       r="0.15000001"
       id="circle956" />
    <circle
       cx="56.693001"
       cy="34.599998"
       r="0.15000001"
       id="circle958" />
    <circle
       cx="41.193001"
       cy="36.599998"
       r="0.15000001"
       id="circle960" />
    <circle
       cx="37.693001"
       cy="26.1"
       r="0.15000001"
       id="circle962" />
    <circle
       cx="23.693001"
       cy="50.599998"
       r="0.15000001"
       id="circle964" />
    <circle
       cx="38.592999"
       cy="59.599998"
       r="0.15000001"
       id="circle966" />
    <circle
       cx="83.193001"
       cy="40.099998"
       r="0.15000001"
       id="circle968" />
    <circle
       cx="65.693001"
       cy="55.700001"
       r="0.15000001"
       id="circle970" />
    <circle
       cx="69.193001"
       cy="26.1"
       r="0.15000001"
       id="circle972" />
    <circle
       cx="58.693001"
       cy="32.099998"
       r="0.15000001"
       id="circle974" />
    <circle
       cx="83.193001"
       cy="57.799999"
       r="0.15000001"
       id="circle976" />
    <circle
       cx="83.193001"
       cy="50.599998"
       r="0.15000001"
       id="circle978" />
    <circle
       cx="48.193001"
       cy="26.1"
       r="0.15000001"
       id="circle980" />
    <circle
       cx="37.393002"
       cy="52.700001"
       r="0.15000001"
       id="circle982" />
    <circle
       cx="44.693001"
       cy="29.6"
       r="0.15000001"
       id="circle984" />
    <circle
       cx="41.193001"
       cy="33.099998"
       r="0.15000001"
       id="circle986" />
    <circle
       cx="72.693001"
       cy="36.599998"
       r="0.15000001"
       id="circle988" />
    <circle
       cx="47.092999"
       cy="51.299999"
       r="0.15000001"
       id="circle990" />
    <circle
       cx="83.193001"
       cy="43.599998"
       r="0.15000001"
       id="circle992" />
    <circle
       cx="37.693001"
       cy="29.6"
       r="0.15000001"
       id="circle994" />
    <circle
       cx="48.193001"
       cy="33.099998"
       r="0.15000001"
       id="circle996" />
    <circle
       cx="65.693001"
       cy="66.199997"
       r="0.15000001"
       id="circle998" />
    <circle
       cx="83.193001"
       cy="68.300003"
       r="0.15000001"
       id="circle1000" />
    <circle
       cx="42.943001"
       cy="59.349998"
       r="0.15000001"
       id="circle1002" />
    <circle
       cx="27.193001"
       cy="36.599998"
       r="0.15000001"
       id="circle1004" />
    <circle
       cx="62.193001"
       cy="66.199997"
       r="0.15000001"
       id="circle1006" />
    <circle
       cx="31.593"
       cy="54.099998"
       r="0.15000001"
       id="circle1008" />
    <circle
       cx="79.693001"
       cy="43.599998"
       r="0.15000001"
       id="circle1010" />
    <circle
       cx="79.693001"
       cy="40.099998"
       r="0.15000001"
       id="circle1012" />
    <circle
       cx="44.693001"
       cy="26.1"
       r="0.15000001"
       id="circle1014" />
    <circle
       cx="62.193001"
       cy="55.700001"
       r="0.15000001"
       id="circle1016" />
    <circle
       cx="48.292999"
       cy="39.599998"
       r="0.15000001"
       id="circle1018" />
    <circle
       cx="65.193001"
       cy="51.599998"
       r="0.15000001"
       id="circle1020" />
    <circle
       cx="86.693001"
       cy="50.599998"
       r="0.15000001"
       id="circle1022" />
    <circle
       cx="70.892998"
       cy="54.200001"
       r="0.15000001"
       id="circle1024" />
    <circle
       cx="23.693001"
       cy="43.599998"
       r="0.15000001"
       id="circle1026" />
    <circle
       cx="30.693001"
       cy="33.099998"
       r="0.15000001"
       id="circle1028" />
    <circle
       cx="49.393002"
       cy="66.300003"
       r="0.15000001"
       id="circle1030" />
    <circle
       cx="72.693001"
       cy="26.1"
       r="0.15000001"
       id="circle1032" />
    <circle
       cx="27.193001"
       cy="54.099998"
       r="0.15000001"
       id="circle1034" />
    <circle
       cx="74.392998"
       cy="50.700001"
       r="0.15000001"
       id="circle1036" />
    <circle
       cx="79.693001"
       cy="33.099998"
       r="0.15000001"
       id="circle1038" />
    <circle
       cx="62.193001"
       cy="59.200001"
       r="0.15000001"
       id="circle1040" />
    <circle
       cx="44.693001"
       cy="36.599998"
       r="0.15000001"
       id="circle1042" />
    <circle
       cx="27.193001"
       cy="40.099998"
       r="0.15000001"
       id="circle1044" />
    <circle
       cx="65.892998"
       cy="74"
       r="0.15000001"
       id="circle1046" />
    <circle
       cx="31.593"
       cy="50.599998"
       r="0.15000001"
       id="circle1048" />
    <circle
       cx="23.693001"
       cy="40.099998"
       r="0.15000001"
       id="circle1050" />
    <circle
       cx="55.874901"
       cy="51.137199"
       r="0.175"
       id="circle1052" />
    <circle
       cx="62.193001"
       cy="33.599998"
       r="0.15000001"
       id="circle1054" />
    <circle
       cx="51.693001"
       cy="39.650002"
       r="0.15000001"
       id="circle1056" />
    <circle
       cx="53.792999"
       cy="62.700001"
       r="0.15000001"
       id="circle1058" />
    <circle
       cx="46.792999"
       cy="55.200001"
       r="0.15000001"
       id="circle1060" />
    <circle
       cx="40.193001"
       cy="50.599998"
       r="0.15000001"
       id="circle1062" />
    <circle
       cx="45.592999"
       cy="70"
       r="0.15000001"
       id="circle1064" />
    <circle
       cx="69.193001"
       cy="36.599998"
       r="0.15000001"
       id="circle1066" />
    <circle
       cx="47.993"
       cy="49.299999"
       r="0.15000001"
       id="circle1068" />
    <circle
       cx="40.292999"
       cy="67.199997"
       r="0.15000001"
       id="circle1070" />
    <circle
       cx="51.693001"
       cy="29.6"
       r="0.15000001"
       id="circle1072" />
    <circle
       cx="83.193001"
       cy="54.099998"
       r="0.15000001"
       id="circle1074" />
    <circle
       cx="71.892998"
       cy="66.099998"
       r="0.15000001"
       id="circle1076" />
    <circle
       cx="44.792999"
       cy="42.799999"
       r="0.15000001"
       id="circle1078" />
    <circle
       cx="36.792999"
       cy="67.199997"
       r="0.15000001"
       id="circle1080" />
    <circle
       cx="42.443001"
       cy="58.849998"
       r="0.15000001"
       id="circle1082" />
    <circle
       cx="53.792999"
       cy="66.199997"
       r="0.15000001"
       id="circle1084" />
    <circle
       cx="69.093002"
       cy="59.099998"
       r="0.15000001"
       id="circle1086" />
    <circle
       cx="34.292999"
       cy="43"
       r="0.15000001"
       id="circle1088" />
    <circle
       cx="46.076401"
       cy="64.699997"
       r="0.15000001"
       id="circle1090" />
    <circle
       cx="41.292999"
       cy="39.599998"
       r="0.15000001"
       id="circle1092" />
    <circle
       cx="65.693001"
       cy="26.1"
       r="0.15000001"
       id="circle1094" />
    <circle
       cx="65.892998"
       cy="70.5"
       r="0.15000001"
       id="circle1096" />
    <circle
       cx="54.599899"
       cy="51.137199"
       r="0.175"
       id="circle1098" />
    <circle
       cx="54.599899"
       cy="52.412201"
       r="0.175"
       id="circle1100" />
    <circle
       cx="65.693001"
       cy="36.599998"
       r="0.15000001"
       id="circle1102" />
    <circle
       cx="53.324902"
       cy="51.137199"
       r="0.175"
       id="circle1104" />
    <circle
       cx="69.193001"
       cy="29.6"
       r="0.15000001"
       id="circle1106" />
    <circle
       cx="83.193001"
       cy="61.299999"
       r="0.15000001"
       id="circle1108" />
    <circle
       cx="26.292999"
       cy="72"
       r="0.15000001"
       id="circle1110" />
    <circle
       cx="23.693001"
       cy="47.099998"
       r="0.15000001"
       id="circle1112" />
    <circle
       cx="76.193001"
       cy="36.599998"
       r="0.15000001"
       id="circle1114" />
    <circle
       cx="44.792999"
       cy="39.599998"
       r="0.15000001"
       id="circle1116" />
    <circle
       cx="51.693001"
       cy="36.599998"
       r="0.15000001"
       id="circle1118" />
    <circle
       cx="62.193001"
       cy="29.6"
       r="0.15000001"
       id="circle1120" />
    <circle
       cx="42.993"
       cy="55.299999"
       r="0.15000001"
       id="circle1122" />
    <circle
       cx="57.092999"
       cy="59.200001"
       r="0.15000001"
       id="circle1124" />
    <circle
       cx="62.193001"
       cy="62.700001"
       r="0.15000001"
       id="circle1126" />
    <circle
       cx="86.693001"
       cy="43.599998"
       r="0.15000001"
       id="circle1128" />
    <circle
       cx="38.592999"
       cy="56.099998"
       r="0.15000001"
       id="circle1130" />
    <circle
       cx="70.892998"
       cy="50.700001"
       r="0.15000001"
       id="circle1132" />
    <circle
       cx="34.193001"
       cy="36.599998"
       r="0.15000001"
       id="circle1134" />
    <circle
       cx="37.693001"
       cy="47.799999"
       r="0.15000001"
       id="circle1136" />
    <circle
       cx="76.193001"
       cy="29.6"
       r="0.15000001"
       id="circle1138" />
    <circle
       cx="83.193001"
       cy="36.599998"
       r="0.15000001"
       id="circle1140" />
    <circle
       cx="69.093002"
       cy="62.599998"
       r="0.15000001"
       id="circle1142" />
    <circle
       cx="41.193001"
       cy="26.1"
       r="0.15000001"
       id="circle1144" />
    <circle
       cx="41.292999"
       cy="42.799999"
       r="0.15000001"
       id="circle1146" />
    <circle
       cx="37.693001"
       cy="33.099998"
       r="0.15000001"
       id="circle1148" />
    <circle
       cx="76.193001"
       cy="40.099998"
       r="0.15000001"
       id="circle1150" />
    <circle
       cx="62.592999"
       cy="51.900002"
       r="0.15000001"
       id="circle1152" />
    <circle
       cx="38.893002"
       cy="52.799999"
       r="0.15000001"
       id="circle1154" />
    <circle
       cx="69.193001"
       cy="33.099998"
       r="0.15000001"
       id="circle1156" />
    <circle
       cx="67.693001"
       cy="49.599998"
       r="0.15000001"
       id="circle1158" />
    <circle
       cx="30.693001"
       cy="36.599998"
       r="0.15000001"
       id="circle1160" />
    <circle
       cx="71.892998"
       cy="69.599998"
       r="0.15000001"
       id="circle1162" />
    <circle
       cx="86.693001"
       cy="54.099998"
       r="0.15000001"
       id="circle1164" />
    <circle
       cx="83.193001"
       cy="33.099998"
       r="0.15000001"
       id="circle1166" />
    <circle
       cx="58.693001"
       cy="29.6"
       r="0.15000001"
       id="circle1168" />
    <circle
       cx="48.193001"
       cy="36.599998"
       r="0.15000001"
       id="circle1170" />
    <circle
       cx="72.693001"
       cy="29.6"
       r="0.15000001"
       id="circle1172" />
    <circle
       cx="44.693001"
       cy="33.099998"
       r="0.15000001"
       id="circle1174" />
    <circle
       cx="58.943001"
       cy="36.099998"
       r="0.15000001"
       id="circle1176" />
    <circle
       cx="71.892998"
       cy="62.599998"
       r="0.15000001"
       id="circle1178" />
    <circle
       cx="44.292999"
       cy="47.799999"
       r="0.15000001"
       id="circle1180" />
    <circle
       cx="27.193001"
       cy="47.099998"
       r="0.15000001"
       id="circle1182" />
    <circle
       cx="53.693001"
       cy="24.6"
       r="0.15000001"
       id="circle1184" />
    <circle
       cx="40.292999"
       cy="70.699997"
       r="0.15000001"
       id="circle1186" />
    <circle
       cx="34.193001"
       cy="29.6"
       r="0.15000001"
       id="circle1188" />
    <circle
       cx="53.592999"
       cy="73.900002"
       r="0.15000001"
       id="circle1190" />
    <circle
       cx="56.693001"
       cy="39.599998"
       r="0.15000001"
       id="circle1192" />
    <circle
       cx="53.324902"
       cy="53.687199"
       r="0.175"
       id="circle1194" />
    <circle
       cx="65.693001"
       cy="62.700001"
       r="0.15000001"
       id="circle1196" />
    <circle
       cx="48.292999"
       cy="42.799999"
       r="0.15000001"
       id="circle1198" />
    <circle
       cx="86.693001"
       cy="40.099998"
       r="0.15000001"
       id="circle1200" />
    <circle
       cx="76.193001"
       cy="33.099998"
       r="0.15000001"
       id="circle1202" />
    <circle
       cx="62.193001"
       cy="22.6"
       r="0.15000001"
       id="circle1204" />
    <circle
       cx="66.975601"
       cy="40.444698"
       r="0.15000001"
       id="circle1206" />
    <circle
       cx="58.4683"
       cy="40.936199"
       r="0.15000001"
       id="circle1208" />
    <circle
       cx="54.792999"
       cy="20.1"
       r="0.15000001"
       id="circle1210" />
    <circle
       cx="57.182999"
       cy="43.099998"
       r="0.15000001"
       id="circle1212" />
    <circle
       cx="59.292999"
       cy="57.099998"
       r="0.15000001"
       id="circle1214" />
    <circle
       cx="56.779999"
       cy="20.1"
       r="0.15000001"
       id="circle1216" />
    <circle
       cx="51.193001"
       cy="55.849998"
       r="0.15000001"
       id="circle1218" />
    <circle
       cx="58.493"
       cy="55.599998"
       r="0.15000001"
       id="circle1220" />
    <circle
       cx="50.443001"
       cy="63.599998"
       r="0.15000001"
       id="circle1222" />
    <circle
       cx="58.243"
       cy="56.150002"
       r="0.15000001"
       id="circle1224" />
    <circle
       cx="55.779999"
       cy="20.1"
       r="0.15000001"
       id="circle1226" />
    <circle
       cx="55.779999"
       cy="36.513"
       r="0.15000001"
       id="circle1228" />
    <circle
       cx="49.792999"
       cy="20"
       r="0.15000001"
       id="circle1230" />
    <circle
       cx="51.792999"
       cy="20"
       r="0.15000001"
       id="circle1232" />
    <circle
       cx="66.693001"
       cy="42.394001"
       r="0.15000001"
       id="circle1234" />
    <circle
       cx="50.792999"
       cy="20"
       r="0.15000001"
       id="circle1236" />
    <circle
       cx="58.493"
       cy="46.599998"
       r="0.15000001"
       id="circle1238" />
    <circle
       cx="58.193001"
       cy="45.599998"
       r="0.15000001"
       id="circle1240" />
    <circle
       cx="67.693001"
       cy="67.099998"
       r="0.15000001"
       id="circle1242" />
    <circle
       cx="58.684399"
       cy="47.345901"
       r="0.15000001"
       id="circle1244" />
    <circle
       cx="36.792999"
       cy="54"
       r="0.15000001"
       id="circle1246" />
    <circle
       cx="59.092999"
       cy="54.299999"
       r="0.15000001"
       id="circle1248" />
    <circle
       cx="59.792999"
       cy="54"
       r="0.15000001"
       id="circle1250" />
    <circle
       cx="36.993"
       cy="46.599998"
       r="0.15000001"
       id="circle1252" />
    <circle
       cx="77.292999"
       cy="46.799999"
       r="0.5"
       id="circle1254" />
    <circle
       cx="77.292999"
       cy="49.34"
       r="0.5"
       id="circle1256" />
    <circle
       cx="77.292999"
       cy="51.880001"
       r="0.5"
       id="circle1258" />
    <circle
       cx="77.292999"
       cy="54.419998"
       r="0.5"
       id="circle1260" />
    <circle
       cx="58.173"
       cy="70.275002"
       r="0.30000001"
       id="circle1262" />
    <circle
       cx="52.393002"
       cy="70.275002"
       r="0.30000001"
       id="circle1264" />
  </g>
  <g
     style="fill:none;stroke:#ffffff;stroke-width:0.6;stroke-linecap:round;stroke-linejoin:round;stroke-opacity:1"
     id="g1276"
     transform="translate(-13.104506,-14.6636)">
    <path
       d="m 59.603,70.345 v -1.1"
       id="path1268" />
    <path
       d="m 59.603,74.365 v -0.8"
       id="path1270" />
    <path
       d="m 50.963,70.345 v -1.1"
       id="path1272" />
    <path
       d="m 50.963,74.365 v -0.8"
       id="path1274" />
  </g>
  <g
     style="fill:#ffffff;fill-opacity:1;stroke:none"
     id="g1282"
     transform="translate(-13.104506,-14.6636)">
    <circle
       cx="42.693001"
       cy="69.925003"
       r="0.5"
       id="circle1278" />
    <circle
       cx="42.693001"
       cy="72.464996"
       r="0.5"
       id="circle1280" />
  </g>
</svg>
