#VRML V2.0 utf8
# 3D model generated by easyeda2kicad.py (https://github.com/uPesy/easyeda2kicad.py)

Shape{
    appearance Appearance {
        material  Material 	{
            diffuseColor 0.5882352941176471 0.5725490196078431 0.5254901960784314
            specularColor 0.043137254901960784 0.0392156862745098 0.0392156862745098
            ambientIntensity 0.2
            transparency 0
            shininess 0.5
        }
    }
    geometry IndexedFaceSet {
        ccw TRUE
        solid FALSE
        coord DEF co Coordinate {
            point [
                0.168 -1.4569 -1.2795, 0.168 -1.0632 -1.2795, 0.2065 -1.0608 -1.2795, 2.3622 -1.0608 -1.2795, 2.3622 -1.4593 -1.2795, 2.3425 -1.4593 -1.2795, 1.9685 1.5748 -1.2795, 2.3425 1.5748 -1.2795, 1.9685 0.0 -1.2795, 2.1654 -0.4724 -1.2795, 2.2061 -0.782 -1.2795, 2.2441 -0.7663 -1.2795, 2.3425 -0.9229 -1.2795, 2.2767 -0.7413 -1.2795, 1.3904 0.0 -1.2795, 2.029 -0.5512 -1.2795, 2.0132 -0.5892 -1.2795, 2.0079 -0.6299 -1.2795, 2.0132 -0.6707 -1.2795, 1.3904 -0.9229 -1.2795, 2.029 -0.7087 -1.2795, 2.054 -0.7413 -1.2795, 2.3017 -0.7087 -1.2795, 2.3175 -0.6707 -1.2795, 2.3228 -0.6299 -1.2795, 2.3175 -0.5892 -1.2795, 2.3017 -0.5512 -1.2795, 2.2767 -0.5186 -1.2795, 2.1246 -0.4778 -1.2795, 2.0866 -0.4935 -1.2795, 2.054 -0.5186 -1.2795, 2.0866 -0.7663 -1.2795, 2.1246 -0.782 -1.2795, 2.1654 -0.7874 -1.2795, 2.2441 -0.4935 -1.2795, 2.2061 -0.4778 -1.2795, 0.2065 -0.9229 -1.2795, 0.5545 0.0 -1.2795, 0.5545 -0.9229 -1.2795, -0.4513 -0.9229 -1.2795, -0.4513 0.0 -1.2795, -0.0816 0.0 -1.2795, -2.1654 -0.7874 -1.2795, -2.1246 -0.782 -1.2795, -1.4144 -0.9229 -1.2795, -2.0079 -0.6299 -1.2795, -2.0132 -0.5892 -1.2795, -1.9685 -0.0 -1.2795, -2.029 -0.5512 -1.2795, -2.054 -0.5186 -1.2795, -2.3017 -0.5512 -1.2795, -2.3622 1.5748 -1.2795, -2.2767 -0.5186 -1.2795, -2.2441 -0.4935 -1.2795, -2.0866 -0.4935 -1.2795, -2.1246 -0.4778 -1.2795, -1.9685 1.5748 -1.2795, -2.1654 -0.4724 -1.2795, -2.2061 -0.4778 -1.2795, -2.3175 -0.5892 -1.2795, -2.3228 -0.6299 -1.2795, -2.3622 -0.9229 -1.2795, -2.3175 -0.6707 -1.2795, -2.3017 -0.7087 -1.2795, -2.2767 -0.7413 -1.2795, -2.2441 -0.7663 -1.2795, -2.2061 -0.782 -1.2795, -2.0866 -0.7663 -1.2795, -2.054 -0.7413 -1.2795, -2.029 -0.7087 -1.2795, -1.4144 -0.0 -1.2795, -2.0132 -0.6707 -1.2795, 0.2449 -1.3933 -1.2795, 0.2449 -1.4365 -1.2795, 0.2065 -1.4593 -1.2795, 0.2868 -1.4537 -1.2795, 0.3266 -1.4593 -1.2795, 0.2904 -1.0616 -1.2795, 0.2449 -1.074 -1.2795, 0.2449 -1.1268 -1.2795, 0.2892 -1.1078 -1.2795, 0.2519 -1.3972 -1.2795, 0.3371 -1.1016 -1.2795, 0.3758 -1.1059 -1.2795, 0.4053 -1.1166 -1.2795, 0.4325 -1.1348 -1.2795, 0.4563 -1.161 -1.2795, 0.4849 -1.2642 -1.2795, 0.4809 -1.3068 -1.2795, 0.4702 -1.3407 -1.2795, 0.3826 -1.4143 -1.2795, 0.3459 -1.4185 -1.2795, 0.4113 -1.4038 -1.2795, 0.4355 -1.3875 -1.2795, 0.454 -1.368 -1.2795, 0.2937 -1.4127 -1.2795, 0.4726 -1.1914 -1.2795, 0.483 -1.2336 -1.2795, 0.3027 -1.0608 -1.2795, 0.3375 -1.0584 -1.2795, 0.4715 -1.4233 -1.2795, 0.5011 -1.3922 -1.2795, 0.5545 -1.4593 -1.2795, 0.5221 -1.3547 -1.2795, 0.517 -1.1669 -1.2795, 0.4939 -1.1301 -1.2795, 0.5545 -1.0608 -1.2795, 0.4583 -1.0959 -1.2795, 0.3763 -1.4593 -1.2795, 0.4017 -1.4566 -1.2795, 0.4399 -1.4435 -1.2795, 0.4209 -1.0744 -1.2795, 0.3771 -1.0616 -1.2795, 0.3669 -1.0608 -1.2795, 0.5339 -1.313 -1.2795, 0.5377 -1.2675 -1.2795, 0.5321 -1.2115 -1.2795, 0.3532 -1.4617 -1.2795, 0.5545 -3.0315 -1.2795, 0.3424 -1.4615 -1.2795, 0.2065 -3.0315 -1.2795, 2.3622 1.5748 -1.2795, 2.3622 -0.9229 -1.2795, 2.3425 -1.0608 -1.2795, 1.3904 -1.4593 -1.2795, 1.3904 -1.0608 -1.2795, 1.3904 -3.0315 -1.2795, 2.3425 -3.0315 -1.2795, 2.3622 -3.0315 -1.2795, 0.5713 -1.4569 -1.2795, 0.773 -1.4569 -1.2795, 0.5713 -1.4137 -1.2795, 0.7202 -1.4137 -1.2795, 0.773 -1.0632 -1.2795, 0.7202 -1.0632 -1.2795, -0.0336 -1.0632 -1.2795, -0.0816 -1.0608 -1.2795, -0.0336 -1.1064 -1.2795, -0.0432 -1.4137 -1.2795, -0.0816 -1.4593 -1.2795, -0.0432 -1.4569 -1.2795, 0.1152 -1.2792 -1.2795, 0.1152 -1.4137 -1.2795, -0.024 -1.2792 -1.2795, -0.024 -1.236 -1.2795, 0.1152 -1.236 -1.2795, 0.1152 -1.1064 -1.2795, -0.2311 -1.0632 -1.2795, -0.4513 -1.0608 -1.2795, -0.0816 -0.9229 -1.2795, 0.2065 0.0 -1.2795, -0.288 -1.0693 -1.2795, -0.3341 -1.0854 -1.2795, -0.3769 -1.1141 -1.2795, -0.4173 -1.349 -1.2795, -0.3947 -1.3842 -1.2795, -0.4513 -1.4593 -1.2795, -0.3623 -1.4152 -1.2795, -0.3212 -1.4391 -1.2795, -0.3773 -1.1145 -1.2795, -0.4052 -1.1454 -1.2795, -0.4235 -1.1792 -1.2795, -0.2758 -1.4526 -1.2795, -0.2271 -1.4569 -1.2795, -0.12 -1.4569 -1.2795, -0.12 -1.0632 -1.2795, -0.4341 -1.218 -1.2795, -0.4369 -1.2551 -1.2795, -0.4314 -1.3078 -1.2795, -1.4144 -1.0608 -1.2795, -0.5233 -1.4569 -1.2795, -0.4657 -1.4569 -1.2795, -0.7634 -1.4569 -1.2795, -0.7236 -1.3464 -1.2795, -0.5609 -1.3464 -1.2795, -0.6146 -1.0632 -1.2795, -0.6674 -1.0632 -1.2795, -0.821 -1.4569 -1.2795, -1.4144 -1.4593 -1.2795, -2.3622 -1.4593 -1.2795, -2.3622 -1.0608 -1.2795, -0.0816 -3.0315 -1.2795, -0.4513 -3.0315 -1.2795, -1.4144 -3.0315 -1.2795, -2.3622 -3.0315 -1.2795, -1.9685 -0.0 0.3346, -2.3622 -0.0 0.3346, -2.3622 -0.0 0.5217, -0.689 -0.0 0.1969, -0.3937 -0.0 0.5217, -0.689 -0.0 -0.0, -0.3937 0.0 -1.2795, -0.8858 -0.0 -0.0, -0.8858 -0.0 0.1969, -1.4764 -0.0 -0.0, -1.6732 -0.0 -0.0, -1.6732 -0.0 0.1969, -1.4764 -0.0 0.1969, 2.3622 0.0 0.5217, 2.3622 0.0 0.3346, 1.9685 0.0 0.3346, -0.0984 -0.0 -0.0, -0.0984 -0.0 0.1969, 0.0984 0.0 0.1969, 0.689 0.0 -0.0, 0.8858 0.0 -0.0, 0.8858 0.0 0.1969, 0.689 0.0 0.1969, 0.0984 0.0 -0.0, 1.4764 0.0 0.1969, 1.4764 0.0 -0.0, 1.6732 0.0 -0.0, 1.6732 0.0 0.1969, 2.3622 0.0 0.8465, -0.3937 -0.0 0.8465, -2.3622 -0.0 0.8465, -2.3622 -0.5906 0.8465, 2.3622 -0.5906 0.8465, 1.0236 -0.5906 0.8465, -1.0236 -0.5906 0.8465, -0.3346 -1.2598 0.8465, 0.3346 -1.2598 0.8465, 1.0236 -2.3228 0.8465, 0.3346 -2.0079 0.8465, -1.0236 -2.3228 0.8465, -0.3346 -2.0079 0.8465, 2.3622 -2.3228 1.2795, 2.3622 -0.5906 1.2795, 1.0236 -2.3228 1.2795, 1.0236 -0.5906 1.2795, -2.3622 -0.5906 1.2795, -2.3622 -2.3228 1.2795, -1.0236 -0.5906 1.2795, -1.0236 -2.3228 1.2795, 2.0866 -2.3228 0.0591, 2.3622 -2.3228 0.0591, 2.0866 -2.3228 0.7677, -2.3622 -2.3228 0.0591, -2.0866 -2.3228 0.0591, -2.0866 -2.3228 0.7677, -2.0866 -2.4803 -0.0984, -2.3622 -2.4803 -0.0984, -2.0866 -2.7559 -0.0984, -2.3622 -2.7559 -0.0984, -2.3622 -3.0315 -0.2575, -2.2835 -3.0315 -0.2575, -2.0866 -2.8346 -0.1439, -2.3622 -2.4396 -0.0931, -2.0866 -2.4396 -0.0931, -2.3622 -2.4016 -0.0773, -2.0866 -2.4016 -0.0773, -2.3622 -2.369 -0.0523, -2.0866 -2.369 -0.0523, -2.3622 -2.3439 -0.0197, -2.0866 -2.3439 -0.0197, -2.3622 -2.3282 0.0183, -2.0866 -2.3282 0.0183, -2.3622 1.5748 -0.768, 2.3622 1.5748 -0.768, 2.3622 -2.3282 0.0183, 2.3622 -2.7559 -0.0984, 2.3622 -3.0315 -0.2575, 2.3622 -2.4803 -0.0984, 2.3622 -2.4396 -0.0931, 2.3622 -2.3439 -0.0197, 2.3622 -2.369 -0.0523, 2.3622 -2.4016 -0.0773, -2.2835 -3.0315 -1.2008, 2.2835 -3.0315 -1.2008, 2.2835 -3.0315 -0.2575, 2.0866 -2.7559 -0.0984, 2.0866 -2.4803 -0.0984, 2.0866 -2.8346 -0.1439, 2.0866 -2.4396 -0.0931, 2.0866 -2.4016 -0.0773, 2.0866 -2.369 -0.0523, 2.0866 -2.3439 -0.0197, 2.0866 -2.3282 0.0183, -2.0866 -2.126 0.5709, -2.0866 -0.6693 0.5709, 2.0866 -2.126 0.5709, 0.3937 -0.6693 0.5709, 2.0866 -0.6693 0.5709, -2.0866 -0.6693 -1.0039, -2.0866 -2.8346 -1.0039, -2.0866 -0.6693 0.3839, 2.0866 -2.8346 -1.0039, 2.0866 -0.6693 -1.0039, 2.0866 -0.6693 0.3839, 0.3937 -0.6693 -1.0039, -0.0984 -0.6693 0.1969, 0.0984 -0.6693 0.1969, 0.3937 -0.6693 0.3839, 0.0984 -0.6693 -0.0, -0.689 -0.6693 -0.0, -0.8858 -0.6693 -0.0, -0.689 -0.6693 0.1969, -0.0984 -0.6693 -0.0, -1.6732 -0.6693 0.1969, -1.6732 -0.6693 -0.0, -1.4764 -0.6693 -0.0, -1.4764 -0.6693 0.1969, -0.8858 -0.6693 0.1969, 0.689 -0.6693 0.1969, 0.689 -0.6693 -0.0, 0.8858 -0.6693 -0.0, 1.4764 -0.6693 -0.0, 0.8858 -0.6693 0.1969, 1.4764 -0.6693 0.1969, 1.6732 -0.6693 0.1969, 1.6732 -0.6693 -0.0, 0.3346 -1.5387 1.2402, 0.3346 -1.2598 1.2402, -0.3346 -1.2598 1.2402, -0.3346 -1.5387 1.2402, -1.9685 1.5748 -0.768, 1.9685 1.5748 -0.768, 2.1246 -0.4778 -1.437, 2.0866 -0.4935 -1.437, 2.054 -0.5186 -1.437, 2.029 -0.5512 -1.437, 2.0132 -0.5892 -1.437, 2.0079 -0.6299 -1.437, 2.0132 -0.6707 -1.437, 2.029 -0.7087 -1.437, 2.054 -0.7413 -1.437, 2.0866 -0.7663 -1.437, 2.1246 -0.782 -1.437, 2.1654 -0.7874 -1.437, 2.2061 -0.782 -1.437, 2.2441 -0.7663 -1.437, 2.2767 -0.7413 -1.437, 2.3017 -0.7087 -1.437, 2.3175 -0.6707 -1.437, 2.3228 -0.6299 -1.437, 2.3175 -0.5892 -1.437, 2.3017 -0.5512 -1.437, 2.2767 -0.5186 -1.437, 2.2441 -0.4935 -1.437, 2.2061 -0.4778 -1.437, 2.1654 -0.4724 -1.437, 2.2047 -0.6981 -1.5157, 2.1857 -0.706 -1.5157, 2.1654 -0.6299 -1.5157, 2.1654 -0.7087 -1.5157, 2.145 -0.706 -1.5157, 2.2414 -0.6503 -1.5157, 2.2335 -0.6693 -1.5157, 2.221 -0.6856 -1.5157, 2.2335 -0.5906 -1.5157, 2.2414 -0.6095 -1.5157, 2.2441 -0.6299 -1.5157, 2.1857 -0.5539 -1.5157, 2.2047 -0.5617 -1.5157, 2.221 -0.5742 -1.5157, 2.126 -0.5617 -1.5157, 2.145 -0.5539 -1.5157, 2.1654 -0.5512 -1.5157, 2.0893 -0.6095 -1.5157, 2.0972 -0.5906 -1.5157, 2.1097 -0.5742 -1.5157, 2.0972 -0.6693 -1.5157, 2.0893 -0.6503 -1.5157, 2.0866 -0.6299 -1.5157, 2.126 -0.6981 -1.5157, 2.1097 -0.6856 -1.5157, -2.2061 -0.4778 -1.437, -2.2441 -0.4935 -1.437, -2.2767 -0.5186 -1.437, -2.3017 -0.5512 -1.437, -2.3175 -0.5892 -1.437, -2.3228 -0.6299 -1.437, -2.3175 -0.6707 -1.437, -2.3017 -0.7087 -1.437, -2.2767 -0.7413 -1.437, -2.2441 -0.7663 -1.437, -2.2061 -0.782 -1.437, -2.1654 -0.7874 -1.437, -2.1246 -0.782 -1.437, -2.0866 -0.7663 -1.437, -2.054 -0.7413 -1.437, -2.029 -0.7087 -1.437, -2.0132 -0.6707 -1.437, -2.0079 -0.6299 -1.437, -2.0132 -0.5892 -1.437, -2.029 -0.5512 -1.437, -2.054 -0.5186 -1.437, -2.0866 -0.4935 -1.437, -2.1246 -0.4778 -1.437, -2.1654 -0.4724 -1.437, -2.126 -0.6981 -1.5157, -2.145 -0.706 -1.5157, -2.1654 -0.6299 -1.5157, -2.1654 -0.7087 -1.5157, -2.1857 -0.706 -1.5157, -2.0893 -0.6503 -1.5157, -2.0972 -0.6693 -1.5157, -2.1097 -0.6856 -1.5157, -2.0972 -0.5906 -1.5157, -2.0893 -0.6095 -1.5157, -2.0866 -0.6299 -1.5157, -2.145 -0.5539 -1.5157, -2.126 -0.5617 -1.5157, -2.1097 -0.5742 -1.5157, -2.2047 -0.5617 -1.5157, -2.1857 -0.5539 -1.5157, -2.1654 -0.5512 -1.5157, -2.2414 -0.6095 -1.5157, -2.2335 -0.5906 -1.5157, -2.221 -0.5742 -1.5157, -2.2335 -0.6693 -1.5157, -2.2414 -0.6503 -1.5157, -2.2441 -0.6299 -1.5157, -2.2047 -0.6981 -1.5157, -2.221 -0.6856 -1.5157, -2.221 -0.6856 -1.5157
            ]
        }
        coordIndex [
            0,1,2,-1,3,4,5,-1,6,7,8,-1,8,7,9,-1,10,11,12,-1,12,11,13,-1,14,15,16,-1,17,18,19,-1,19,18,20,-1,19,20,21,-1,13,22,12,-1,12,22,23,-1,12,23,24,-1,24,25,7,-1,7,25,26,-1,7,26,27,-1,9,28,8,-1,8,28,29,-1,8,29,14,-1,14,29,30,-1,14,30,15,-1,21,31,19,-1,19,31,32,-1,19,32,12,-1,12,32,33,-1,12,33,10,-1,27,34,7,-1,7,34,35,-1,7,35,9,-1,36,37,38,-1,38,37,14,-1,38,14,19,-1,19,14,16,-1,19,16,17,-1,39,40,41,-1,42,43,44,-1,45,46,47,-1,47,46,48,-1,47,48,49,-1,50,51,52,-1,52,51,53,-1,49,54,47,-1,47,54,55,-1,47,55,56,-1,56,55,57,-1,56,57,51,-1,51,57,58,-1,51,58,53,-1,50,59,51,-1,51,59,60,-1,51,60,61,-1,61,60,62,-1,61,62,63,-1,63,64,61,-1,61,64,65,-1,61,65,66,-1,43,67,44,-1,44,67,68,-1,44,68,69,-1,47,70,45,-1,45,70,44,-1,45,44,71,-1,71,44,69,-1,72,73,74,-1,74,73,75,-1,74,75,76,-1,77,78,2,-1,2,78,79,-1,72,80,81,-1,81,80,82,-1,81,82,83,-1,83,84,81,-1,81,84,85,-1,81,85,86,-1,87,88,81,-1,81,88,89,-1,90,91,92,-1,92,91,93,-1,89,94,81,-1,81,94,93,-1,81,93,95,-1,95,93,91,-1,86,96,81,-1,81,96,97,-1,81,97,87,-1,77,2,98,-1,98,2,36,-1,98,36,99,-1,100,101,102,-1,102,101,103,-1,104,105,106,-1,106,105,107,-1,108,109,102,-1,102,109,110,-1,102,110,100,-1,107,111,106,-1,106,111,112,-1,106,112,113,-1,103,114,102,-1,102,114,115,-1,102,115,106,-1,106,115,116,-1,106,116,104,-1,117,118,119,-1,119,118,120,-1,119,120,76,-1,24,7,12,-1,12,7,121,-1,12,121,122,-1,3,5,123,-1,123,5,124,-1,123,124,125,-1,118,124,126,-1,126,124,5,-1,126,5,127,-1,127,5,4,-1,127,4,128,-1,99,36,113,-1,113,36,38,-1,113,38,106,-1,106,38,19,-1,106,19,125,-1,125,19,12,-1,125,12,123,-1,123,12,122,-1,123,122,3,-1,129,130,102,-1,129,102,131,-1,131,102,106,-1,131,106,132,-1,117,108,118,-1,118,108,102,-1,118,102,124,-1,124,102,130,-1,124,130,125,-1,125,130,133,-1,125,133,106,-1,106,133,134,-1,106,134,132,-1,1,135,2,-1,2,135,136,-1,2,136,36,-1,135,137,136,-1,136,137,138,-1,136,138,139,-1,138,140,139,-1,139,140,0,-1,139,0,74,-1,74,0,2,-1,74,2,72,-1,72,2,79,-1,72,79,80,-1,141,142,143,-1,143,142,138,-1,143,138,144,-1,144,138,137,-1,144,137,145,-1,145,137,146,-1,147,148,136,-1,136,148,149,-1,136,149,36,-1,36,149,150,-1,36,150,37,-1,147,151,148,-1,148,151,152,-1,148,152,153,-1,154,155,156,-1,156,155,157,-1,156,157,158,-1,153,159,148,-1,148,159,160,-1,148,160,161,-1,158,162,156,-1,156,162,163,-1,156,163,139,-1,139,163,164,-1,139,164,136,-1,136,164,165,-1,136,165,147,-1,161,166,148,-1,148,166,167,-1,148,167,156,-1,156,167,168,-1,156,168,154,-1,70,40,44,-1,44,40,39,-1,44,39,169,-1,170,171,156,-1,172,173,174,-1,156,171,148,-1,148,171,175,-1,148,175,176,-1,174,170,172,-1,172,170,156,-1,172,156,177,-1,177,156,178,-1,177,178,176,-1,176,178,169,-1,176,169,148,-1,148,169,39,-1,148,39,149,-1,149,39,41,-1,149,41,150,-1,178,179,169,-1,169,179,180,-1,169,180,44,-1,44,180,61,-1,44,61,42,-1,42,61,66,-1,76,120,74,-1,74,120,181,-1,74,181,139,-1,139,181,182,-1,139,182,156,-1,156,182,183,-1,156,183,178,-1,178,183,184,-1,178,184,179,-1,185,186,187,-1,188,189,190,-1,190,189,191,-1,190,191,192,-1,192,191,47,-1,193,192,194,-1,194,192,47,-1,194,47,195,-1,195,47,185,-1,195,185,196,-1,196,185,187,-1,196,187,197,-1,197,187,193,-1,197,193,194,-1,198,199,200,-1,8,191,201,-1,201,191,189,-1,201,189,202,-1,202,189,203,-1,204,205,8,-1,8,205,206,-1,206,207,189,-1,189,207,204,-1,189,204,203,-1,203,204,8,-1,203,8,208,-1,208,8,201,-1,189,209,206,-1,206,209,210,-1,206,210,8,-1,8,210,211,-1,8,211,200,-1,200,211,212,-1,200,212,198,-1,212,209,198,-1,198,209,189,-1,198,189,213,-1,213,189,214,-1,188,193,189,-1,189,193,187,-1,189,187,214,-1,214,187,215,-1,214,215,216,-1,217,213,218,-1,218,213,214,-1,216,219,214,-1,214,219,220,-1,214,220,218,-1,218,220,221,-1,218,221,222,-1,222,221,223,-1,222,223,224,-1,224,223,225,-1,224,225,219,-1,219,225,220,-1,226,227,228,-1,228,227,229,-1,230,231,232,-1,232,231,233,-1,227,217,229,-1,229,217,218,-1,216,230,219,-1,219,230,232,-1,234,235,236,-1,236,235,226,-1,237,238,231,-1,231,238,239,-1,231,239,233,-1,226,228,236,-1,236,228,222,-1,236,222,239,-1,239,222,224,-1,239,224,233,-1,240,241,242,-1,242,241,243,-1,244,245,243,-1,243,245,246,-1,243,246,242,-1,241,240,247,-1,247,240,248,-1,247,248,249,-1,249,248,250,-1,249,250,251,-1,251,250,252,-1,251,252,253,-1,253,252,254,-1,253,254,255,-1,255,254,256,-1,255,256,237,-1,237,256,238,-1,257,51,186,-1,186,51,184,-1,186,184,187,-1,184,247,249,-1,216,251,253,-1,244,243,184,-1,184,243,241,-1,184,241,247,-1,215,187,216,-1,216,187,184,-1,216,184,251,-1,251,184,249,-1,231,230,237,-1,237,230,216,-1,237,216,255,-1,255,216,253,-1,128,121,258,-1,213,217,198,-1,198,217,128,-1,198,128,199,-1,199,128,258,-1,227,226,217,-1,217,226,235,-1,217,235,259,-1,260,261,262,-1,262,261,128,-1,262,128,263,-1,259,264,217,-1,217,264,265,-1,217,265,128,-1,128,265,266,-1,128,266,263,-1,245,244,267,-1,267,244,184,-1,267,184,268,-1,268,184,128,-1,268,128,269,-1,269,128,261,-1,270,260,271,-1,271,260,262,-1,269,261,272,-1,272,261,260,-1,272,260,270,-1,271,262,273,-1,273,262,263,-1,273,263,274,-1,274,263,266,-1,274,266,275,-1,275,266,265,-1,275,265,276,-1,276,265,264,-1,276,264,277,-1,277,264,259,-1,277,259,234,-1,234,259,235,-1,278,279,280,-1,280,279,281,-1,280,281,282,-1,278,239,238,-1,254,252,283,-1,283,252,250,-1,283,250,284,-1,279,278,285,-1,285,278,238,-1,285,238,283,-1,283,238,256,-1,283,256,254,-1,242,246,240,-1,240,246,284,-1,240,284,248,-1,248,284,250,-1,236,280,234,-1,234,280,277,-1,286,272,270,-1,275,276,287,-1,287,276,277,-1,287,277,288,-1,288,277,280,-1,288,280,282,-1,270,271,286,-1,286,271,273,-1,286,273,287,-1,287,273,274,-1,287,274,275,-1,283,284,289,-1,289,284,286,-1,289,286,287,-1,290,291,292,-1,292,291,293,-1,294,295,283,-1,296,294,297,-1,297,294,283,-1,297,283,293,-1,293,283,289,-1,293,289,292,-1,298,285,299,-1,299,285,283,-1,299,283,300,-1,300,283,295,-1,300,295,301,-1,301,295,302,-1,301,302,292,-1,292,302,296,-1,292,296,290,-1,290,296,297,-1,303,292,304,-1,304,292,289,-1,304,289,305,-1,305,289,306,-1,305,306,307,-1,307,306,308,-1,307,308,288,-1,288,308,309,-1,288,309,287,-1,287,309,310,-1,287,310,289,-1,289,310,306,-1,298,301,285,-1,285,301,292,-1,285,292,279,-1,279,292,281,-1,303,307,292,-1,292,307,288,-1,292,288,281,-1,281,288,282,-1,280,236,278,-1,278,236,239,-1,286,268,272,-1,272,268,269,-1,284,267,286,-1,286,267,268,-1,267,284,245,-1,245,284,246,-1,218,222,229,-1,229,222,228,-1,224,219,233,-1,233,219,232,-1,223,221,311,-1,311,221,312,-1,313,312,220,-1,220,312,221,-1,314,313,225,-1,225,313,220,-1,311,312,314,-1,314,312,313,-1,223,311,225,-1,225,311,314,-1,315,56,257,-1,257,56,51,-1,185,315,186,-1,186,315,257,-1,56,315,47,-1,47,315,185,-1,316,200,258,-1,258,200,199,-1,6,316,121,-1,121,316,258,-1,316,6,200,-1,200,6,8,-1,9,317,28,-1,28,317,318,-1,28,318,29,-1,29,318,319,-1,29,319,30,-1,30,319,320,-1,30,320,15,-1,15,320,321,-1,15,321,16,-1,16,321,322,-1,16,322,17,-1,17,322,323,-1,17,323,18,-1,18,323,324,-1,18,324,20,-1,20,324,325,-1,20,325,21,-1,21,325,326,-1,21,326,31,-1,31,326,327,-1,31,327,32,-1,32,327,328,-1,32,328,33,-1,33,328,329,-1,33,329,10,-1,10,329,330,-1,10,330,11,-1,11,330,331,-1,11,331,13,-1,13,331,332,-1,13,332,22,-1,22,332,333,-1,22,333,23,-1,23,333,334,-1,23,334,24,-1,24,334,335,-1,24,335,25,-1,25,335,336,-1,25,336,26,-1,26,336,337,-1,26,337,27,-1,27,337,338,-1,27,338,34,-1,34,338,339,-1,34,339,35,-1,35,339,340,-1,35,340,9,-1,9,340,317,-1,341,342,343,-1,343,342,344,-1,343,344,345,-1,346,347,343,-1,343,347,348,-1,343,348,341,-1,349,350,343,-1,343,350,351,-1,343,351,346,-1,352,353,343,-1,343,353,354,-1,343,354,349,-1,355,356,343,-1,343,356,357,-1,343,357,352,-1,358,359,343,-1,343,359,360,-1,343,360,355,-1,361,362,343,-1,343,362,363,-1,343,363,358,-1,345,364,343,-1,343,364,365,-1,343,365,361,-1,340,356,317,-1,317,356,355,-1,317,355,318,-1,318,355,360,-1,318,360,319,-1,319,360,359,-1,319,359,320,-1,320,359,358,-1,320,358,321,-1,321,358,363,-1,321,363,322,-1,322,363,362,-1,322,362,323,-1,323,362,361,-1,323,361,324,-1,324,361,365,-1,324,365,325,-1,325,365,364,-1,325,364,326,-1,326,364,345,-1,326,345,327,-1,327,345,344,-1,327,344,328,-1,328,344,342,-1,328,342,329,-1,329,342,341,-1,329,341,330,-1,330,341,348,-1,330,348,331,-1,331,348,347,-1,331,347,332,-1,332,347,346,-1,332,346,333,-1,333,346,351,-1,333,351,334,-1,334,351,350,-1,334,350,335,-1,335,350,349,-1,335,349,336,-1,336,349,354,-1,336,354,337,-1,337,354,353,-1,337,353,338,-1,338,353,352,-1,338,352,339,-1,339,352,357,-1,339,357,340,-1,340,357,356,-1,57,366,58,-1,58,366,367,-1,58,367,53,-1,53,367,368,-1,53,368,52,-1,52,368,369,-1,52,369,50,-1,50,369,370,-1,50,370,59,-1,59,370,371,-1,59,371,60,-1,60,371,372,-1,60,372,62,-1,62,372,373,-1,62,373,63,-1,63,373,374,-1,63,374,64,-1,64,374,375,-1,64,375,65,-1,65,375,376,-1,65,376,66,-1,66,376,377,-1,66,377,42,-1,42,377,378,-1,42,378,43,-1,43,378,379,-1,43,379,67,-1,67,379,380,-1,67,380,68,-1,68,380,381,-1,68,381,69,-1,69,381,382,-1,69,382,71,-1,71,382,383,-1,71,383,45,-1,45,383,384,-1,45,384,46,-1,46,384,385,-1,46,385,48,-1,48,385,386,-1,48,386,49,-1,49,386,387,-1,49,387,54,-1,54,387,388,-1,54,388,55,-1,55,388,389,-1,55,389,57,-1,57,389,366,-1,390,391,392,-1,392,391,393,-1,392,393,394,-1,395,396,392,-1,392,396,397,-1,392,397,390,-1,398,399,392,-1,392,399,400,-1,392,400,395,-1,401,402,392,-1,392,402,403,-1,392,403,398,-1,404,405,392,-1,392,405,406,-1,392,406,401,-1,407,408,392,-1,392,408,409,-1,392,409,404,-1,410,411,392,-1,392,411,412,-1,392,412,407,-1,394,413,392,-1,392,413,414,-1,392,414,410,-1,389,405,366,-1,366,405,404,-1,366,404,367,-1,367,404,409,-1,367,409,368,-1,368,409,408,-1,368,408,369,-1,369,408,407,-1,369,407,370,-1,370,407,412,-1,370,412,371,-1,371,412,411,-1,371,411,372,-1,372,411,410,-1,372,410,373,-1,373,410,414,-1,373,414,374,-1,374,414,413,-1,374,413,375,-1,375,413,394,-1,375,394,376,-1,376,394,393,-1,376,393,377,-1,377,393,391,-1,377,391,378,-1,378,391,390,-1,378,390,379,-1,379,390,397,-1,379,397,380,-1,380,397,396,-1,380,396,381,-1,381,396,395,-1,381,395,382,-1,382,395,400,-1,382,400,383,-1,383,400,399,-1,383,399,384,-1,384,399,398,-1,384,398,385,-1,385,398,403,-1,385,403,386,-1,386,403,402,-1,386,402,387,-1,387,402,401,-1,387,401,388,-1,388,401,406,-1,388,406,389,-1,389,406,405,-1,
        ]
    }
}
Shape{
    appearance Appearance {
        material  Material 	{
            diffuseColor 0.8274509803921568 0.6666666666666666 0.12941176470588237
            specularColor 0.8274509803921568 0.6666666666666666 0.12941176470588237
            ambientIntensity 0.2
            transparency 0
            shininess 0.5
        }
    }
    geometry IndexedFaceSet {
        ccw TRUE
        solid FALSE
        coord DEF co Coordinate {
            point [
                -1.5354 -1.7717 0.0591, -1.5354 -1.7717 0.1378, -1.6142 -1.7717 0.0591, -1.6142 -1.7717 0.1378, -1.4764 -1.6094 -0.0, -1.4764 -0.6693 -0.0, -1.4764 -1.6094 0.1969, -1.4764 -0.6693 0.1969, -1.6732 -1.6094 0.1969, -1.6732 -0.6693 0.1969, -1.6732 -1.6094 -0.0, -1.6732 -0.6693 -0.0, -1.6732 -0.0 -0.0, -1.6732 0.0984 -0.0, -1.4764 -0.0 -0.0, -1.4764 0.0984 -0.0, -1.4764 0.0984 0.1969, -1.6732 0.0984 0.1969, -1.4764 -0.0 0.1969, -1.6732 -0.0 0.1969, -1.6732 0.2523 0.1227, -1.6732 0.2758 0.0854, -1.6732 0.1422 0.1919, -1.6732 0.2953 -2.4559, -1.6732 0.0984 -2.4559, -1.6732 0.2953 0.0, -1.6732 0.2903 0.0438, -1.6732 0.1838 0.1774, -1.6732 0.2212 0.1539, -1.4764 0.0984 -2.4559, -1.4764 0.2953 -2.4559, -1.4764 0.2953 0.0, -1.4764 0.2523 0.1227, -1.4764 0.2212 0.1539, -1.4764 0.1838 0.1774, -1.4764 0.2903 0.0438, -1.4764 0.2758 0.0854, -1.4764 0.1422 0.1919, -1.5354 0.2362 -2.6181, -1.5354 0.1575 -2.6181, -1.6142 0.2362 -2.6181, -1.6142 0.1575 -2.6181, -0.748 -1.7717 0.0591, -0.748 -1.7717 0.1378, -0.8268 -1.7717 0.0591, -0.8268 -1.7717 0.1378, -0.689 -1.6094 -0.0, -0.689 -0.6693 -0.0, -0.689 -1.6094 0.1969, -0.689 -0.6693 0.1969, -0.8858 -1.6094 0.1969, -0.8858 -0.6693 0.1969, -0.8858 -1.6094 -0.0, -0.8858 -0.6693 -0.0, -0.8858 -0.0 -0.0, -0.8858 0.0984 -0.0, -0.689 -0.0 -0.0, -0.689 0.0984 -0.0, -0.689 0.0984 0.1969, -0.8858 0.0984 0.1969, -0.689 -0.0 0.1969, -0.8858 -0.0 0.1969, -0.8858 0.2953 -2.4559, -0.8858 0.0984 -2.4559, -0.8858 0.2953 0.0, -0.8858 0.2903 0.0438, -0.8858 0.2758 0.0854, -0.8858 0.1422 0.1919, -0.8858 0.1838 0.1774, -0.8858 0.2212 0.1539, -0.8858 0.2523 0.1227, -0.689 0.2212 0.1539, -0.689 0.1838 0.1774, -0.689 0.0984 -2.4559, -0.689 0.2953 -2.4559, -0.689 0.2953 0.0, -0.689 0.2903 0.0438, -0.689 0.1422 0.1919, -0.689 0.2758 0.0854, -0.689 0.2523 0.1227, -0.748 0.2362 -2.6181, -0.748 0.1575 -2.6181, -0.8268 0.2362 -2.6181, -0.8268 0.1575 -2.6181, 0.0394 -1.7717 0.0591, 0.0394 -1.7717 0.1378, -0.0394 -1.7717 0.0591, -0.0394 -1.7717 0.1378, 0.0984 -1.6094 -0.0, 0.0984 -0.6693 -0.0, 0.0984 -1.6094 0.1969, 0.0984 -0.6693 0.1969, -0.0984 -1.6094 0.1969, -0.0984 -0.6693 0.1969, -0.0984 -1.6094 -0.0, -0.0984 -0.6693 -0.0, -0.0984 -0.0 -0.0, -0.0984 0.0984 -0.0, 0.0984 0.0 -0.0, 0.0984 0.0984 -0.0, 0.0984 0.0984 0.1969, -0.0984 0.0984 0.1969, 0.0984 0.0 0.1969, -0.0984 -0.0 0.1969, -0.0984 0.2953 -2.4559, -0.0984 0.0984 -2.4559, -0.0984 0.2953 0.0, -0.0984 0.2903 0.0438, -0.0984 0.2758 0.0854, -0.0984 0.1422 0.1919, -0.0984 0.1838 0.1774, -0.0984 0.2212 0.1539, -0.0984 0.2523 0.1227, 0.0984 0.2212 0.1539, 0.0984 0.1838 0.1774, 0.0984 0.0984 -2.4559, 0.0984 0.2953 -2.4559, 0.0984 0.2953 0.0, 0.0984 0.2903 0.0438, 0.0984 0.1422 0.1919, 0.0984 0.2758 0.0854, 0.0984 0.2523 0.1227, 0.0394 0.2362 -2.6181, 0.0394 0.1575 -2.6181, -0.0394 0.2362 -2.6181, -0.0394 0.1575 -2.6181, 0.8268 -1.7717 0.0591, 0.8268 -1.7717 0.1378, 0.748 -1.7717 0.0591, 0.748 -1.7717 0.1378, 0.8858 -1.6094 -0.0, 0.8858 -0.6693 -0.0, 0.8858 -1.6094 0.1969, 0.8858 -0.6693 0.1969, 0.689 -1.6094 0.1969, 0.689 -0.6693 0.1969, 0.689 -1.6094 -0.0, 0.689 -0.6693 -0.0, 0.689 0.0 -0.0, 0.689 0.0984 0.0, 0.8858 0.0 -0.0, 0.8858 0.0984 0.0, 0.8858 0.0984 0.1969, 0.689 0.0984 0.1969, 0.8858 0.0 0.1969, 0.689 0.0 0.1969, 0.689 0.2523 0.1227, 0.689 0.2758 0.0854, 0.689 0.1422 0.1919, 0.689 0.2953 -2.4559, 0.689 0.0984 -2.4559, 0.689 0.2953 0.0, 0.689 0.2903 0.0438, 0.689 0.1838 0.1774, 0.689 0.2212 0.1539, 0.8858 0.0984 -2.4559, 0.8858 0.2953 -2.4559, 0.8858 0.2953 0.0, 0.8858 0.2523 0.1227, 0.8858 0.2212 0.1539, 0.8858 0.1838 0.1774, 0.8858 0.2903 0.0438, 0.8858 0.2758 0.0854, 0.8858 0.1422 0.1919, 0.8268 0.2362 -2.6181, 0.8268 0.1575 -2.6181, 0.748 0.2362 -2.6181, 0.748 0.1575 -2.6181, 1.6142 -1.7717 0.0591, 1.6142 -1.7717 0.1378, 1.5354 -1.7717 0.0591, 1.5354 -1.7717 0.1378, 1.6732 -1.6094 -0.0, 1.6732 -0.6693 -0.0, 1.6732 -1.6094 0.1969, 1.6732 -0.6693 0.1969, 1.4764 -1.6094 0.1969, 1.4764 -0.6693 0.1969, 1.4764 -1.6094 -0.0, 1.4764 -0.6693 -0.0, 1.4764 0.0 -0.0, 1.4764 0.0984 0.0, 1.6732 0.0 -0.0, 1.6732 0.0984 0.0, 1.6732 0.0984 0.1969, 1.4764 0.0984 0.1969, 1.6732 0.0 0.1969, 1.4764 0.0 0.1969, 1.4764 0.2953 -2.4559, 1.4764 0.0984 -2.4559, 1.4764 0.2953 0.0, 1.4764 0.2523 0.1227, 1.4764 0.2758 0.0854, 1.4764 0.2903 0.0438, 1.4764 0.1422 0.1919, 1.4764 0.1838 0.1774, 1.4764 0.2212 0.1539, 1.6732 0.0984 -2.4559, 1.6732 0.2953 -2.4559, 1.6732 0.2953 0.0, 1.6732 0.2903 0.0438, 1.6732 0.2212 0.1539, 1.6732 0.1838 0.1774, 1.6732 0.2758 0.0854, 1.6732 0.2523 0.1227, 1.6732 0.1422 0.1919, 1.6142 0.2362 -2.6181, 1.6142 0.1575 -2.6181, 1.5354 0.2362 -2.6181, 1.5354 0.1575 -2.6181, 1.5354 0.1575 -2.6181
            ]
        }
        coordIndex [
            0,1,2,-1,2,1,3,-1,4,5,6,-1,6,5,7,-1,8,9,10,-1,10,9,11,-1,6,7,8,-1,8,7,9,-1,10,11,4,-1,4,11,5,-1,12,13,14,-1,14,13,15,-1,16,17,18,-1,18,17,19,-1,13,20,21,-1,12,19,13,-1,13,19,17,-1,13,17,22,-1,23,24,25,-1,25,24,13,-1,25,13,26,-1,26,13,21,-1,22,27,13,-1,13,27,28,-1,13,28,20,-1,29,30,15,-1,15,30,31,-1,32,33,15,-1,15,33,34,-1,31,35,15,-1,15,35,36,-1,15,36,32,-1,18,14,16,-1,16,14,15,-1,16,15,37,-1,37,15,34,-1,23,25,30,-1,30,25,31,-1,38,39,40,-1,40,39,41,-1,29,15,24,-1,24,15,13,-1,17,16,37,-1,17,37,22,-1,22,37,34,-1,22,34,27,-1,27,34,33,-1,27,33,28,-1,28,33,32,-1,28,32,20,-1,20,32,36,-1,20,36,21,-1,21,36,35,-1,21,35,26,-1,26,35,31,-1,26,31,25,-1,8,3,6,-1,6,3,1,-1,10,2,8,-1,8,2,3,-1,0,4,1,-1,1,4,6,-1,4,0,10,-1,10,0,2,-1,24,41,29,-1,29,41,39,-1,23,40,24,-1,24,40,41,-1,38,30,39,-1,39,30,29,-1,30,38,23,-1,23,38,40,-1,42,43,44,-1,44,43,45,-1,46,47,48,-1,48,47,49,-1,50,51,52,-1,52,51,53,-1,48,49,50,-1,50,49,51,-1,52,53,46,-1,46,53,47,-1,54,55,56,-1,56,55,57,-1,58,59,60,-1,60,59,61,-1,55,54,61,-1,62,63,64,-1,64,63,55,-1,64,55,65,-1,65,55,66,-1,61,59,55,-1,55,59,67,-1,55,67,68,-1,68,69,55,-1,55,69,70,-1,55,70,66,-1,71,72,57,-1,73,74,57,-1,57,74,75,-1,57,75,76,-1,60,56,58,-1,58,56,57,-1,58,57,77,-1,77,57,72,-1,76,78,57,-1,57,78,79,-1,57,79,71,-1,62,64,74,-1,74,64,75,-1,80,81,82,-1,82,81,83,-1,73,57,63,-1,63,57,55,-1,59,58,77,-1,59,77,67,-1,67,77,72,-1,67,72,68,-1,68,72,71,-1,68,71,69,-1,69,71,79,-1,69,79,70,-1,70,79,78,-1,70,78,66,-1,66,78,76,-1,66,76,65,-1,65,76,75,-1,65,75,64,-1,84,85,86,-1,86,85,87,-1,88,89,90,-1,90,89,91,-1,92,93,94,-1,94,93,95,-1,90,91,92,-1,92,91,93,-1,94,95,88,-1,88,95,89,-1,96,97,98,-1,98,97,99,-1,100,101,102,-1,102,101,103,-1,97,96,103,-1,104,105,106,-1,106,105,97,-1,106,97,107,-1,107,97,108,-1,103,101,97,-1,97,101,109,-1,97,109,110,-1,110,111,97,-1,97,111,112,-1,97,112,108,-1,113,114,99,-1,115,116,99,-1,99,116,117,-1,99,117,118,-1,102,98,100,-1,100,98,99,-1,100,99,119,-1,119,99,114,-1,118,120,99,-1,99,120,121,-1,99,121,113,-1,104,106,116,-1,116,106,117,-1,122,123,124,-1,124,123,125,-1,115,99,105,-1,105,99,97,-1,101,100,119,-1,101,119,109,-1,109,119,114,-1,109,114,110,-1,110,114,113,-1,110,113,111,-1,111,113,121,-1,111,121,112,-1,112,121,120,-1,112,120,108,-1,108,120,118,-1,108,118,107,-1,107,118,117,-1,107,117,106,-1,126,127,128,-1,128,127,129,-1,130,131,132,-1,132,131,133,-1,134,135,136,-1,136,135,137,-1,132,133,134,-1,134,133,135,-1,136,137,130,-1,130,137,131,-1,138,139,140,-1,140,139,141,-1,142,143,144,-1,144,143,145,-1,139,146,147,-1,138,145,139,-1,139,145,143,-1,139,143,148,-1,149,150,151,-1,151,150,139,-1,151,139,152,-1,152,139,147,-1,148,153,139,-1,139,153,154,-1,139,154,146,-1,155,156,141,-1,141,156,157,-1,158,159,141,-1,141,159,160,-1,157,161,141,-1,141,161,162,-1,141,162,158,-1,144,140,142,-1,142,140,141,-1,142,141,163,-1,163,141,160,-1,149,151,156,-1,156,151,157,-1,164,165,166,-1,166,165,167,-1,155,141,150,-1,150,141,139,-1,143,142,163,-1,143,163,148,-1,148,163,160,-1,148,160,153,-1,153,160,159,-1,153,159,154,-1,154,159,158,-1,154,158,146,-1,146,158,162,-1,146,162,147,-1,147,162,161,-1,147,161,152,-1,152,161,157,-1,152,157,151,-1,168,169,170,-1,170,169,171,-1,172,173,174,-1,174,173,175,-1,176,177,178,-1,178,177,179,-1,174,175,176,-1,176,175,177,-1,178,179,172,-1,172,179,173,-1,180,181,182,-1,182,181,183,-1,184,185,186,-1,186,185,187,-1,188,189,190,-1,190,189,181,-1,191,192,181,-1,181,192,193,-1,181,193,190,-1,180,187,181,-1,181,187,185,-1,181,185,194,-1,194,195,181,-1,181,195,196,-1,181,196,191,-1,197,198,183,-1,183,198,199,-1,183,199,200,-1,183,201,202,-1,200,203,183,-1,183,203,204,-1,183,204,201,-1,186,182,184,-1,184,182,183,-1,184,183,205,-1,205,183,202,-1,188,190,198,-1,198,190,199,-1,206,207,208,-1,208,207,209,-1,197,183,189,-1,189,183,181,-1,185,184,205,-1,185,205,194,-1,194,205,202,-1,194,202,195,-1,195,202,201,-1,195,201,196,-1,196,201,204,-1,196,204,191,-1,191,204,203,-1,191,203,192,-1,192,203,200,-1,192,200,193,-1,193,200,199,-1,193,199,190,-1,50,45,48,-1,48,45,43,-1,52,44,50,-1,50,44,45,-1,42,46,43,-1,43,46,48,-1,46,42,52,-1,52,42,44,-1,63,83,73,-1,73,83,81,-1,62,82,63,-1,63,82,83,-1,80,74,81,-1,81,74,73,-1,74,80,62,-1,62,80,82,-1,92,87,90,-1,90,87,85,-1,94,86,92,-1,92,86,87,-1,84,88,85,-1,85,88,90,-1,88,84,94,-1,94,84,86,-1,105,125,115,-1,115,125,123,-1,104,124,105,-1,105,124,125,-1,122,116,123,-1,123,116,115,-1,116,122,104,-1,104,122,124,-1,134,129,132,-1,132,129,127,-1,136,128,134,-1,134,128,129,-1,126,130,127,-1,127,130,132,-1,130,126,136,-1,136,126,128,-1,150,167,155,-1,155,167,165,-1,149,166,150,-1,150,166,167,-1,164,156,165,-1,165,156,155,-1,156,164,149,-1,149,164,166,-1,176,171,174,-1,174,171,169,-1,178,170,176,-1,176,170,171,-1,168,172,169,-1,169,172,174,-1,172,168,178,-1,178,168,170,-1,189,209,197,-1,197,209,207,-1,188,208,189,-1,189,208,209,-1,206,198,207,-1,207,198,197,-1,198,206,188,-1,188,206,208,-1,
        ]
    }
}
Shape{
    appearance Appearance {
        material  Material 	{
            diffuseColor 1.0 1.0 1.0
            specularColor 0.8784313725490196 0.8784313725490196 0.8784313725490196
            ambientIntensity 0.2
            transparency 0
            shininess 0.5
        }
    }
    geometry IndexedFaceSet {
        ccw TRUE
        solid FALSE
        coord DEF co Coordinate {
            point [
                -0.6674 -1.0632 -1.2717, -0.821 -1.4569 -1.2717, -0.6674 -1.0632 -1.2795, -0.821 -1.4569 -1.2795, -0.7634 -1.4569 -1.2717, -0.7634 -1.4569 -1.2795, -0.7236 -1.3464 -1.2717, -0.7236 -1.3464 -1.2795, -0.5609 -1.3464 -1.2717, -0.5609 -1.3464 -1.2795, -0.5233 -1.4569 -1.2717, -0.5233 -1.4569 -1.2795, -0.4657 -1.4569 -1.2717, -0.4657 -1.4569 -1.2795, -0.6146 -1.0632 -1.2717, -0.6146 -1.0632 -1.2795, -0.5742 -1.3032 -1.2717, -0.6329 -1.1388 -1.2717, -0.6367 -1.1251 -1.2717, -0.6392 -1.1112 -1.2717, -0.6405 -1.1112 -1.2717, -0.6431 -1.1251 -1.2717, -0.6466 -1.1388 -1.2717, -0.7059 -1.3032 -1.2717, -0.5742 -1.3032 -1.2795, -0.7059 -1.3032 -1.2795, -0.6329 -1.1388 -1.2795, -0.6367 -1.1251 -1.2795, -0.6392 -1.1112 -1.2795, -0.6405 -1.1112 -1.2795, -0.6431 -1.1251 -1.2795, -0.6466 -1.1388 -1.2795, -0.2271 -1.4569 -1.2717, -0.12 -1.4569 -1.2717, -0.2271 -1.4569 -1.2795, -0.12 -1.4569 -1.2795, -0.12 -1.0632 -1.2717, -0.12 -1.0632 -1.2795, -0.2311 -1.0632 -1.2717, -0.2311 -1.0632 -1.2795, -0.4369 -1.2551 -1.2717, -0.4369 -1.2551 -1.2795, -0.4341 -1.218 -1.2795, -0.4341 -1.218 -1.2717, -0.4235 -1.1792 -1.2795, -0.4235 -1.1792 -1.2717, -0.4052 -1.1454 -1.2795, -0.4052 -1.1454 -1.2717, -0.3773 -1.1145 -1.2795, -0.3773 -1.1145 -1.2717, -0.3769 -1.1141 -1.2795, -0.3769 -1.1141 -1.2717, -0.3341 -1.0854 -1.2795, -0.3341 -1.0854 -1.2717, -0.288 -1.0693 -1.2795, -0.288 -1.0693 -1.2717, -0.2758 -1.4526 -1.2795, -0.2758 -1.4526 -1.2717, -0.3212 -1.4391 -1.2795, -0.3212 -1.4391 -1.2717, -0.3623 -1.4152 -1.2795, -0.3623 -1.4152 -1.2717, -0.3947 -1.3842 -1.2795, -0.3947 -1.3842 -1.2717, -0.4173 -1.349 -1.2795, -0.4173 -1.349 -1.2717, -0.4314 -1.3078 -1.2795, -0.4314 -1.3078 -1.2717, -0.3579 -1.1616 -1.2717, -0.3388 -1.1413 -1.2717, -0.31 -1.1227 -1.2717, -0.2775 -1.1113 -1.2717, -0.2309 -1.1064 -1.2717, -0.1728 -1.1064 -1.2717, -0.1728 -1.4137 -1.2717, -0.2287 -1.4137 -1.2717, -0.2703 -1.4098 -1.2717, -0.3034 -1.3995 -1.2717, -0.3302 -1.3835 -1.2717, -0.3523 -1.3617 -1.2717, -0.3689 -1.3346 -1.2717, -0.3805 -1.2975 -1.2717, -0.3841 -1.2562 -1.2717, -0.3808 -1.217 -1.2717, -0.3716 -1.1859 -1.2717, -0.2309 -1.1064 -1.2795, -0.1728 -1.1064 -1.2795, -0.2775 -1.1113 -1.2795, -0.31 -1.1227 -1.2795, -0.3388 -1.1413 -1.2795, -0.3579 -1.1616 -1.2795, -0.3716 -1.1859 -1.2795, -0.3808 -1.217 -1.2795, -0.3841 -1.2562 -1.2795, -0.3805 -1.2975 -1.2795, -0.3689 -1.3346 -1.2795, -0.3523 -1.3617 -1.2795, -0.3302 -1.3835 -1.2795, -0.3034 -1.3995 -1.2795, -0.2703 -1.4098 -1.2795, -0.2287 -1.4137 -1.2795, -0.1728 -1.4137 -1.2795, -0.0432 -1.4137 -1.2717, -0.0432 -1.4569 -1.2717, -0.0432 -1.4137 -1.2795, -0.0432 -1.4569 -1.2795, 0.168 -1.4569 -1.2717, 0.168 -1.4569 -1.2795, 0.168 -1.0632 -1.2717, 0.168 -1.0632 -1.2795, -0.0336 -1.0632 -1.2717, -0.0336 -1.0632 -1.2795, -0.0336 -1.1064 -1.2717, -0.0336 -1.1064 -1.2795, 0.1152 -1.1064 -1.2717, 0.1152 -1.1064 -1.2795, 0.1152 -1.236 -1.2717, 0.1152 -1.236 -1.2795, -0.024 -1.236 -1.2717, -0.024 -1.236 -1.2795, -0.024 -1.2792 -1.2717, -0.024 -1.2792 -1.2795, 0.1152 -1.2792 -1.2717, 0.1152 -1.2792 -1.2795, 0.1152 -1.4137 -1.2717, 0.1152 -1.4137 -1.2795, 0.2449 -1.3933 -1.2717, 0.2449 -1.4365 -1.2717, 0.2449 -1.3933 -1.2795, 0.2449 -1.4365 -1.2795, 0.2868 -1.4537 -1.2717, 0.3532 -1.4617 -1.2717, 0.3532 -1.4617 -1.2795, 0.3424 -1.4615 -1.2795, 0.3424 -1.4615 -1.2717, 0.3266 -1.4593 -1.2795, 0.2868 -1.4537 -1.2795, 0.5377 -1.2675 -1.2717, 0.5377 -1.2675 -1.2795, 0.5339 -1.313 -1.2795, 0.5339 -1.313 -1.2717, 0.5221 -1.3547 -1.2795, 0.5221 -1.3547 -1.2717, 0.5011 -1.3922 -1.2795, 0.5011 -1.3922 -1.2717, 0.4715 -1.4233 -1.2795, 0.4715 -1.4233 -1.2717, 0.4399 -1.4435 -1.2795, 0.4399 -1.4435 -1.2717, 0.4017 -1.4566 -1.2795, 0.4017 -1.4566 -1.2717, 0.3763 -1.4593 -1.2795, 0.3375 -1.0584 -1.2717, 0.3375 -1.0584 -1.2795, 0.3771 -1.0616 -1.2717, 0.3669 -1.0608 -1.2795, 0.3771 -1.0616 -1.2795, 0.4209 -1.0744 -1.2795, 0.4209 -1.0744 -1.2717, 0.4583 -1.0959 -1.2795, 0.4583 -1.0959 -1.2717, 0.4939 -1.1301 -1.2795, 0.4939 -1.1301 -1.2717, 0.517 -1.1669 -1.2795, 0.517 -1.1669 -1.2717, 0.5321 -1.2115 -1.2795, 0.5321 -1.2115 -1.2717, 0.3027 -1.0608 -1.2795, 0.2904 -1.0616 -1.2717, 0.2904 -1.0616 -1.2795, 0.2449 -1.074 -1.2717, 0.2449 -1.074 -1.2795, 0.2449 -1.1268 -1.2717, 0.2449 -1.1268 -1.2795, 0.3371 -1.1016 -1.2717, 0.3371 -1.1016 -1.2795, 0.2892 -1.1078 -1.2795, 0.2892 -1.1078 -1.2717, 0.4849 -1.2642 -1.2717, 0.4849 -1.2642 -1.2795, 0.483 -1.2336 -1.2795, 0.483 -1.2336 -1.2717, 0.4726 -1.1914 -1.2795, 0.4726 -1.1914 -1.2717, 0.4563 -1.161 -1.2795, 0.4563 -1.161 -1.2717, 0.4325 -1.1348 -1.2795, 0.4325 -1.1348 -1.2717, 0.4053 -1.1166 -1.2795, 0.4053 -1.1166 -1.2717, 0.3758 -1.1059 -1.2795, 0.3758 -1.1059 -1.2717, 0.3459 -1.4185 -1.2717, 0.3459 -1.4185 -1.2795, 0.3826 -1.4143 -1.2795, 0.3826 -1.4143 -1.2717, 0.4113 -1.4038 -1.2795, 0.4113 -1.4038 -1.2717, 0.4355 -1.3875 -1.2795, 0.4355 -1.3875 -1.2717, 0.454 -1.368 -1.2795, 0.454 -1.368 -1.2717, 0.4702 -1.3407 -1.2795, 0.4702 -1.3407 -1.2717, 0.4809 -1.3068 -1.2795, 0.4809 -1.3068 -1.2717, 0.2519 -1.3972 -1.2795, 0.2519 -1.3972 -1.2717, 0.2937 -1.4127 -1.2795, 0.2937 -1.4127 -1.2717, 0.5713 -1.4137 -1.2717, 0.5713 -1.4569 -1.2717, 0.5713 -1.4137 -1.2795, 0.5713 -1.4569 -1.2795, 0.773 -1.4569 -1.2717, 0.773 -1.4569 -1.2795, 0.773 -1.0632 -1.2717, 0.773 -1.0632 -1.2795, 0.7202 -1.0632 -1.2717, 0.7202 -1.0632 -1.2795, 0.7202 -1.4137 -1.2717, 0.7202 -1.4137 -1.2795, 0.7202 -1.4137 -1.2795
            ]
        }
        coordIndex [
            0,1,2,-1,2,1,3,-1,1,4,3,-1,3,4,5,-1,4,6,5,-1,5,6,7,-1,6,8,7,-1,7,8,9,-1,8,10,9,-1,9,10,11,-1,10,12,11,-1,11,12,13,-1,12,14,13,-1,13,14,15,-1,14,0,15,-1,15,0,2,-1,16,17,14,-1,12,10,8,-1,17,18,14,-1,14,18,19,-1,14,19,0,-1,0,19,20,-1,0,20,21,-1,21,22,0,-1,0,22,23,-1,0,23,1,-1,4,1,6,-1,6,1,23,-1,6,23,8,-1,8,23,16,-1,8,16,12,-1,12,16,14,-1,16,23,24,-1,24,23,25,-1,17,16,26,-1,26,16,24,-1,17,26,27,-1,17,27,18,-1,18,27,28,-1,18,28,19,-1,20,19,29,-1,29,19,28,-1,20,29,30,-1,20,30,21,-1,21,30,31,-1,21,31,22,-1,23,22,25,-1,25,22,31,-1,32,33,34,-1,34,33,35,-1,33,36,35,-1,35,36,37,-1,36,38,37,-1,37,38,39,-1,40,41,42,-1,40,42,43,-1,43,42,44,-1,43,44,45,-1,45,44,46,-1,45,46,47,-1,47,46,48,-1,47,48,49,-1,49,48,50,-1,49,50,51,-1,51,50,52,-1,51,52,53,-1,53,52,54,-1,53,54,55,-1,55,54,39,-1,55,39,38,-1,32,34,56,-1,32,56,57,-1,57,56,58,-1,57,58,59,-1,59,58,60,-1,59,60,61,-1,61,60,62,-1,61,62,63,-1,63,62,64,-1,63,64,65,-1,65,64,66,-1,65,66,67,-1,67,66,41,-1,67,41,40,-1,45,47,68,-1,68,47,49,-1,68,49,69,-1,69,49,51,-1,69,51,70,-1,70,51,53,-1,70,53,71,-1,71,53,55,-1,71,55,72,-1,72,55,38,-1,72,38,73,-1,73,38,36,-1,73,36,74,-1,74,36,33,-1,74,33,75,-1,75,33,32,-1,75,32,76,-1,76,32,57,-1,76,57,77,-1,77,57,59,-1,77,59,78,-1,78,59,61,-1,78,61,79,-1,79,61,63,-1,79,63,80,-1,80,63,65,-1,80,65,81,-1,81,65,67,-1,81,67,82,-1,82,67,40,-1,82,40,83,-1,83,40,43,-1,83,43,84,-1,84,43,45,-1,84,45,68,-1,72,73,85,-1,85,73,86,-1,72,85,87,-1,72,87,71,-1,71,87,88,-1,71,88,70,-1,70,88,89,-1,70,89,69,-1,69,89,90,-1,69,90,68,-1,68,90,91,-1,68,91,84,-1,84,91,92,-1,84,92,83,-1,83,92,93,-1,83,93,82,-1,82,93,94,-1,82,94,81,-1,81,94,95,-1,81,95,80,-1,80,95,96,-1,80,96,79,-1,79,96,97,-1,79,97,78,-1,78,97,98,-1,78,98,77,-1,77,98,99,-1,77,99,76,-1,76,99,100,-1,76,100,75,-1,74,75,101,-1,101,75,100,-1,73,74,86,-1,86,74,101,-1,102,103,104,-1,104,103,105,-1,103,106,105,-1,105,106,107,-1,106,108,107,-1,107,108,109,-1,108,110,109,-1,109,110,111,-1,110,112,111,-1,111,112,113,-1,112,114,113,-1,113,114,115,-1,114,116,115,-1,115,116,117,-1,116,118,117,-1,117,118,119,-1,118,120,119,-1,119,120,121,-1,120,122,121,-1,121,122,123,-1,122,124,123,-1,123,124,125,-1,124,102,125,-1,125,102,104,-1,106,103,102,-1,102,124,106,-1,106,124,122,-1,106,122,108,-1,112,110,114,-1,114,110,108,-1,114,108,116,-1,116,108,122,-1,116,122,118,-1,118,122,120,-1,126,127,128,-1,128,127,129,-1,129,127,130,-1,131,132,133,-1,131,133,134,-1,134,133,135,-1,134,135,130,-1,130,135,136,-1,130,136,129,-1,137,138,139,-1,137,139,140,-1,140,139,141,-1,140,141,142,-1,142,141,143,-1,142,143,144,-1,144,143,145,-1,144,145,146,-1,146,145,147,-1,146,147,148,-1,148,147,149,-1,148,149,150,-1,150,149,131,-1,131,149,151,-1,131,151,132,-1,152,153,154,-1,154,153,155,-1,155,156,154,-1,154,156,157,-1,154,157,158,-1,158,157,159,-1,158,159,160,-1,160,159,161,-1,160,161,162,-1,162,161,163,-1,162,163,164,-1,164,163,165,-1,164,165,166,-1,166,165,138,-1,166,138,137,-1,153,152,167,-1,167,152,168,-1,167,168,169,-1,169,168,170,-1,169,170,171,-1,170,172,171,-1,171,172,173,-1,174,175,176,-1,174,176,177,-1,177,176,173,-1,177,173,172,-1,178,179,180,-1,178,180,181,-1,181,180,182,-1,181,182,183,-1,183,182,184,-1,183,184,185,-1,185,184,186,-1,185,186,187,-1,187,186,188,-1,187,188,189,-1,189,188,190,-1,189,190,191,-1,191,190,175,-1,191,175,174,-1,192,193,194,-1,192,194,195,-1,195,194,196,-1,195,196,197,-1,197,196,198,-1,197,198,199,-1,199,198,200,-1,199,200,201,-1,201,200,202,-1,201,202,203,-1,203,202,204,-1,203,204,205,-1,205,204,179,-1,205,179,178,-1,126,128,206,-1,126,206,207,-1,207,206,208,-1,207,208,209,-1,209,208,193,-1,209,193,192,-1,195,131,192,-1,192,131,134,-1,192,134,209,-1,209,134,130,-1,209,130,207,-1,207,130,127,-1,207,127,126,-1,172,170,177,-1,177,170,168,-1,177,168,174,-1,174,168,152,-1,174,152,191,-1,191,152,154,-1,191,154,189,-1,189,154,158,-1,189,158,187,-1,187,158,160,-1,187,160,185,-1,185,160,162,-1,185,162,183,-1,183,162,164,-1,183,164,181,-1,181,164,166,-1,181,166,178,-1,178,166,137,-1,178,137,205,-1,205,137,140,-1,205,140,203,-1,203,140,142,-1,203,142,201,-1,201,142,144,-1,201,144,199,-1,199,144,146,-1,199,146,197,-1,197,146,148,-1,197,148,195,-1,195,148,150,-1,195,150,131,-1,210,211,212,-1,212,211,213,-1,211,214,213,-1,213,214,215,-1,214,216,215,-1,215,216,217,-1,216,218,217,-1,217,218,219,-1,218,220,219,-1,219,220,221,-1,220,210,221,-1,221,210,212,-1,218,216,220,-1,220,216,214,-1,220,214,210,-1,210,214,211,-1,
        ]
    }
}
Shape{
    appearance Appearance {
        material  Material 	{
            diffuseColor 0.5882352941176471 0.5725490196078431 0.5254901960784314
            specularColor 0.043137254901960784 0.0392156862745098 0.0392156862745098
            ambientIntensity 0.2
            transparency 0
            shininess 0.5
        }
    }
    geometry IndexedFaceSet {
        ccw TRUE
        solid FALSE
        coord DEF co Coordinate {
            point [
                -0.5742 -1.3032 -1.2795, -0.7059 -1.3032 -1.2795, -0.6329 -1.1388 -1.2795, -0.6466 -1.1388 -1.2795, -0.6367 -1.1251 -1.2795, -0.6431 -1.1251 -1.2795, -0.6392 -1.1112 -1.2795, -0.6405 -1.1112 -1.2795, -0.1728 -1.1064 -1.2795, -0.1728 -1.4137 -1.2795, -0.2309 -1.1064 -1.2795, -0.2287 -1.4137 -1.2795, -0.2703 -1.4098 -1.2795, -0.3841 -1.2562 -1.2795, -0.3808 -1.217 -1.2795, -0.3716 -1.1859 -1.2795, -0.2775 -1.1113 -1.2795, -0.3034 -1.3995 -1.2795, -0.3302 -1.3835 -1.2795, -0.3523 -1.3617 -1.2795, -0.3689 -1.3346 -1.2795, -0.3805 -1.2975 -1.2795, -0.3579 -1.1616 -1.2795, -0.3388 -1.1413 -1.2795, -0.31 -1.1227 -1.2795, -0.31 -1.1227 -1.2795
            ]
        }
        coordIndex [
            0,1,2,-1,2,1,3,-1,2,3,4,-1,4,3,5,-1,4,5,6,-1,6,5,7,-1,8,9,10,-1,10,9,11,-1,10,11,12,-1,13,14,10,-1,10,14,15,-1,10,15,16,-1,12,17,10,-1,10,17,18,-1,10,18,19,-1,19,20,10,-1,10,20,21,-1,10,21,13,-1,22,23,15,-1,15,23,24,-1,15,24,16,-1,
        ]
    }
}